<?xml version="1.0" encoding="UTF-8" standalone="no"?>
<svg width="65px" height="96px" viewBox="0 0 65 96" version="1.1" xmlns="http://www.w3.org/2000/svg" xmlns:xlink="http://www.w3.org/1999/xlink">
    <!-- Generator: Sketch 3.6 (26304) - http://www.bohemiancoding.com/sketch -->
    <title>Page 1 + Bitmap 3 Copy</title>
    <desc>Created with Sketch.</desc>
    <defs>
        <path id="path-1" d="M0,0.352778134 L64.9621546,0.352778134 L64.9621546,95.8550832 L0,95.8550832 L0,0.352778134 Z"></path>
    </defs>
    <g id="Bag-full-(no-slots-available)" stroke="none" stroke-width="1" fill="none" fill-rule="evenodd">
        <g id="10.-Place-in-bag" transform="translate(-215.000000, -212.000000)">
            <g id="Page-1-+-Bitmap-3-Copy" transform="translate(215.000000, 211.643989)">
                <g id="Page-1" transform="translate(0.000000, 0.000000)">
                    <path d="M17.0168927,7.72753038 L1.92491627,14.4161724 L3.28897465,53.0520565 L0.212695983,74.0533552 L37.4664111,95.6286059 L64.7444457,79.8309811 L64.7048907,79.6149143 L61.7989725,63.6416861 L63.3514064,22.1647202 L26.098083,0.589469477 L17.0168927,7.72753038 Z" id="Fill-1" fill="#7E522F"></path>
                    <path d="M50.694331,27.1615199 L51.6162355,67.7997539 L64.7050082,79.6146786 L61.79909,63.6418432 L63.3515239,22.1644845 L50.694331,27.1615199 Z" id="Fill-2" fill="#93653E"></path>
                    <path d="M37.5736402,94.8887932 L37.4663327,95.6285273 L64.7443673,79.8309025 L64.7048124,79.6148357 L51.6164314,67.799911 L37.5736402,94.8887932 Z" id="Fill-3" fill="#875B36"></path>
                    <path d="M50.694331,27.1615199 L50.6226621,27.189805 L39.1783572,35.9915802 L40.5529897,74.2817574 L37.5734444,94.8886361 L51.6166272,67.7997539 L50.694331,27.1615199 Z" id="Fill-4" fill="#7E5534"></path>
                    <g id="Group-210" transform="translate(0.000000, 0.000000)">
                        <path d="M63.3513673,22.1646023 L26.0976522,0.589351622 L26.0976522,28.4160037 C37.3880453,34.9545775 39.1785922,35.9913052 39.1785922,35.9913052 L50.6225055,27.1899229 L63.3513673,22.1646023 Z" id="Fill-5" fill="#654322"></path>
                        <path d="M26.0978088,0.589469477 L17.0170102,7.72753038 L17.0170102,23.1566631 C19.9100045,24.8325557 23.0039067,26.6243386 26.0978088,28.4161215 L26.0978088,0.589469477 Z" id="Fill-7" fill="#513117"></path>
                        <path d="M1.92483794,14.4163295 C1.92483794,14.4163295 8.61941561,18.2933533 17.0168144,23.1568203 L17.0168144,7.72729467 L1.92483794,14.4163295 Z" id="Fill-9" fill="#412A18"></path>
                        <path d="M39.1784355,35.9914623 L1.92472045,14.4162117 L3.28877883,53.0517029 L40.5526764,74.2820324 L39.1784355,35.9914623 Z" id="Fill-11" fill="#C99D66"></path>
                        <path d="M37.4666461,95.6284487 L40.5527155,74.281836 L3.288818,53.0518993 L0.212930963,74.0531981 L37.4666461,95.6284487 Z" id="Fill-13" fill="#D4A86F"></path>
                        <path d="M24.0675432,81.430661 L25.2933551,72.6532424 C25.3571913,72.1955737 25.6869465,71.9853996 26.0296255,72.1833954 L36.5810068,78.2851214 C36.9236858,78.4831172 37.1496582,79.0146414 37.0858219,79.4723102 L35.8600101,88.2497287 C35.7961739,88.7073975 35.4664187,88.9175715 35.1241313,88.7195758 L24.5723584,82.6178497 C24.2296794,82.419854 24.003707,81.8883297 24.0675432,81.430661" id="Fill-15" fill="#FEFEFE"></path>
                        <path d="M26.3719521,74.1413533 L26.5325217,74.1994949 C26.5333049,74.2442797 26.5423125,74.282386 26.5595444,74.3145996 C26.5767762,74.3475989 26.6037989,74.3747054 26.6402208,74.3955264 C26.6809506,74.4190973 26.7122813,74.4265615 26.734996,74.4183116 C26.7506614,74.4124189 26.7600606,74.3982764 26.7635852,74.3750983 C26.7655434,74.3593843 26.7639769,74.3440632 26.7577108,74.3295278 C26.7514446,74.3149924 26.7353877,74.2961357 26.7095399,74.2717791 C26.5893085,74.16296 26.5148982,74.0832117 26.4855257,74.0333199 C26.4451875,73.9641785 26.4299138,73.8915015 26.4404879,73.8164674 C26.4498871,73.7485046 26.4780847,73.703327 26.524689,73.6801489 C26.5709017,73.6573637 26.6366961,73.6699349 26.7212889,73.7186481 C26.8015737,73.7650043 26.8591437,73.8172531 26.8932158,73.874609 C26.9268963,73.9323578 26.9468696,73.9995349 26.9515692,74.0765333 L26.8003988,74.02782 C26.7984406,73.9936422 26.7898247,73.9633928 26.774551,73.9366791 C26.7596689,73.9107511 26.7353877,73.8879659 26.7028821,73.869502 C26.6625439,73.8459311 26.6316049,73.8365027 26.6120232,73.8412169 C26.598316,73.8451454 26.5912666,73.8561451 26.5885252,73.8734305 C26.586567,73.8879659 26.5897001,73.9036798 26.598316,73.9201795 C26.6108483,73.9417862 26.6566694,73.9893209 26.7353877,74.0619979 C26.8148892,74.1350677 26.8681513,74.1991021 26.8959573,74.2544937 C26.9233716,74.3102782 26.9319875,74.3711698 26.92298,74.4371684 C26.9127975,74.5090597 26.8818585,74.5577729 26.8301629,74.5833081 C26.777684,74.6088433 26.7075817,74.5962721 26.6190726,74.5455946 C26.5391794,74.4992385 26.4792596,74.4410969 26.4385297,74.3707769 C26.3977999,74.3000642 26.3754768,74.2238515 26.3719521,74.1413533" id="Fill-17" fill="#1D1C1B"></path>
                        <path d="M27.2305687,74.4421576 C27.218428,74.5301557 27.2223444,74.6024398 27.2427093,74.6601886 C27.2630742,74.7167588 27.2916634,74.7564365 27.3292602,74.7780432 C27.3652905,74.7988642 27.3981877,74.7968999 27.4279518,74.7725433 C27.4569326,74.747401 27.4776892,74.6912236 27.4902215,74.6032255 C27.5015788,74.5207273 27.4976625,74.4527645 27.4784725,74.3985514 C27.4592824,74.3443382 27.4318681,74.3066248 27.3950546,74.2858038 C27.3570662,74.2638042 27.3229941,74.2649828 27.2924467,74.2897323 C27.2622909,74.3144817 27.2411428,74.3651592 27.2305687,74.4421576 L27.2305687,74.4421576 Z M27.1299189,73.9742748 L27.2748232,74.0579515 L27.2587662,74.1730562 C27.2826559,74.1447711 27.3128116,74.1274857 27.3480586,74.1212002 C27.3836972,74.1153074 27.4209024,74.1231644 27.4600657,74.1459496 C27.5286015,74.1856274 27.581472,74.2547687 27.6186771,74.3529809 C27.6562739,74.4523716 27.6660648,74.5651192 27.6480496,74.6931879 C27.6300345,74.8240065 27.5920461,74.9116118 27.5336927,74.9567894 C27.4761227,75.0015741 27.4126781,75.0047169 27.3449255,74.9650392 C27.3120284,74.9461824 27.2838308,74.9202544 27.2599411,74.8880408 C27.2360515,74.8554344 27.2125535,74.8102568 27.1894472,74.7513295 L27.1342269,75.1465353 L26.9783569,75.0561801 L27.1299189,73.9742748 Z" id="Fill-19" fill="#1D1C1B"></path>
                        <path d="M28.0738724,74.3788303 C28.055074,74.3678306 28.0366672,74.3662592 28.0202187,74.3737233 C28.0029868,74.3811874 27.9877131,74.403187 27.9736143,74.4397219 C27.9555992,74.4872566 27.9379757,74.574469 27.9199606,74.7013591 C27.9023371,74.8286421 27.8945044,74.9186045 27.8976375,74.971639 C27.9007705,75.0246736 27.9086032,75.0631728 27.9207438,75.0875294 C27.9332761,75.1114932 27.9489414,75.1287785 27.9677398,75.1397783 C27.9857549,75.150778 28.0041617,75.1527423 28.0210019,75.1448853 C28.0382338,75.137814 28.0531158,75.1154217 28.0676063,75.0788867 C28.0856214,75.0321377 28.1032449,74.9445325 28.1208684,74.8180352 C28.1388835,74.6911451 28.1463245,74.6007899 28.1431915,74.5481481 C28.14045,74.4951136 28.133009,74.4562215 28.1208684,74.4318649 C28.1083361,74.4075083 28.0922792,74.3894373 28.0738724,74.3788303 M28.0981537,74.2071555 C28.1764803,74.2523331 28.2324838,74.3250101 28.2661643,74.4251865 C28.3065025,74.5446125 28.312377,74.706859 28.2837878,74.911926 C28.2551986,75.1166002 28.2082026,75.2485974 28.1427998,75.3071318 C28.0883628,75.3558451 28.0221768,75.3574165 27.9434585,75.311846 C27.8647403,75.2662756 27.8063869,75.1892772 27.7695734,75.0804581 C27.7323683,74.9712462 27.7284519,74.8129282 27.7574328,74.6051112 C27.786022,74.4016156 27.833018,74.2704041 27.8988124,74.2114768 C27.9528577,74.1627636 28.0194354,74.1611922 28.0981537,74.2071555" id="Fill-21" fill="#1D1C1B"></path>
                        <path d="M28.7033836,74.7429225 C28.6845852,74.7323156 28.6661784,74.7303514 28.6497298,74.7378155 C28.632498,74.7452796 28.6172243,74.7672791 28.6031255,74.8038141 C28.585502,74.8513488 28.5674869,74.9385612 28.5494717,75.0654513 C28.5318482,75.1927343 28.5240156,75.2823038 28.5271486,75.3357312 C28.5302817,75.3887658 28.5381144,75.427265 28.550255,75.4516216 C28.5627873,75.4755854 28.5784526,75.4932635 28.597251,75.5038705 C28.6156577,75.5148702 28.6336729,75.5168345 28.6505131,75.5089775 C28.667745,75.5019062 28.682627,75.4795138 28.6971174,75.4429789 C28.7151326,75.3958371 28.7331477,75.3086247 28.7507712,75.1817345 C28.7687863,75.0548444 28.7758357,74.9644892 28.7727027,74.9122403 C28.7699612,74.8588129 28.7625202,74.8203137 28.7503796,74.7959571 C28.7378473,74.7712076 28.722182,74.7535294 28.7033836,74.7429225 M28.7276648,74.5712476 C28.8059915,74.6164252 28.861995,74.6891023 28.8956755,74.7892787 C28.9360137,74.9087047 28.9418882,75.0709512 28.913299,75.2760182 C28.8847097,75.4806924 28.8377138,75.6126895 28.772311,75.671224 C28.717874,75.7195444 28.651688,75.7215086 28.5729697,75.6759382 C28.4942515,75.6303677 28.4362897,75.5533694 28.3990846,75.4441575 C28.3622711,75.3353384 28.3579631,75.1770203 28.386944,74.9692034 C28.4155332,74.7657077 28.4625292,74.6348891 28.5283235,74.575569 C28.5823689,74.5268557 28.6489466,74.5252843 28.7276648,74.5712476" id="Fill-23" fill="#1D1C1B"></path>
                        <path d="M29.3328948,75.1069754 C29.3140964,75.0959757 29.2960812,75.0944043 29.279241,75.1018684 C29.2620092,75.1093325 29.2467355,75.131332 29.2326367,75.167867 C29.2150132,75.2154017 29.196998,75.3026141 29.1789829,75.4295042 C29.1613594,75.5567872 29.1535268,75.6467495 29.1566598,75.6997841 C29.1597929,75.7528187 29.1676256,75.7913179 29.1797662,75.8156745 C29.1922984,75.8396382 29.2079638,75.8569236 29.2267622,75.8679234 C29.2451689,75.8789231 29.2631841,75.8808874 29.2800243,75.8730304 C29.2972561,75.8655663 29.3121382,75.8435667 29.3266286,75.806639 C29.3446438,75.75989 29.3626589,75.6726775 29.3802824,75.5457874 C29.3982975,75.4188973 29.4053469,75.3289349 29.4022138,75.2759004 C29.3994724,75.2228658 29.3920314,75.1839738 29.3798907,75.16001 C29.3673585,75.1356534 29.3516932,75.1175823 29.3328948,75.1069754 M29.357176,74.9353005 C29.4355027,74.9804781 29.4915062,75.0531551 29.5251867,75.1533316 C29.5655249,75.2727576 29.5713994,75.4350041 29.5428101,75.6400711 C29.5142209,75.8447453 29.4672249,75.9767424 29.4018222,76.0352769 C29.3473852,76.0835973 29.2811992,76.0851687 29.2024809,76.0399911 C29.1237626,75.9944206 29.0658009,75.9174223 29.0285958,75.8082103 C28.9917823,75.6993913 28.9874743,75.5410732 29.0164551,75.3332563 C29.0450444,75.1297606 29.092432,74.9985492 29.1578347,74.939229 C29.2122717,74.8909086 29.2784577,74.8893372 29.357176,74.9353005" id="Fill-25" fill="#1D1C1B"></path>
                        <path d="M29.9624059,75.4710676 C29.9436075,75.4604607 29.9255924,75.4584964 29.9091438,75.4659606 C29.891912,75.4734247 29.8762466,75.4954242 29.8621478,75.5319591 C29.8445244,75.5794938 29.8265092,75.6667062 29.8084941,75.7935964 C29.7908706,75.9208794 29.7830379,76.0104489 29.786171,76.0638763 C29.7893041,76.1169109 29.7971367,76.15541 29.8092774,76.1797666 C29.8222013,76.2037304 29.837475,76.2214086 29.8562733,76.2320155 C29.8746801,76.2430153 29.8926952,76.2445867 29.9095355,76.2367297 C29.9267673,76.2296584 29.9416494,76.2076589 29.9561398,76.1707311 C29.9741549,76.1239821 29.9921701,76.0367697 30.0097936,75.9098796 C30.0278087,75.7829895 30.0352497,75.6926343 30.031725,75.6399925 C30.0289836,75.586958 30.0215426,75.5480659 30.0094019,75.5241022 C29.9968697,75.4993527 29.9812043,75.4816745 29.9624059,75.4710676 M29.9866872,75.2989999 C30.0654055,75.3445703 30.1210174,75.4172473 30.1546978,75.5174237 C30.1950361,75.6368497 30.2009106,75.7990963 30.1723213,76.0041633 C30.1437321,76.2088375 30.0967361,76.3408346 30.0313334,76.3993691 C29.9768964,76.4476895 29.911102,76.4492609 29.8319921,76.4040833 C29.7532738,76.3585128 29.6953121,76.2815145 29.658107,76.1723025 C29.6212934,76.0634834 29.6169855,75.9047726 29.6459663,75.6973484 C29.6745556,75.4938528 29.7219432,75.3626414 29.7873459,75.303714 C29.8417829,75.2550008 29.9079689,75.2534294 29.9866872,75.2989999" id="Fill-27" fill="#1D1C1B"></path>
                        <path d="M30.5923088,75.8351598 C30.5735104,75.82416 30.5554952,75.8225886 30.538655,75.8300527 C30.5214231,75.8375169 30.5061495,75.8595164 30.4920507,75.8960513 C30.4744272,75.943586 30.456412,76.0311913 30.4383969,76.1580814 C30.4207734,76.2853644 30.4129408,76.3749339 30.4160738,76.4279685 C30.4192069,76.481003 30.4270396,76.5198951 30.4391802,76.5438588 C30.4517124,76.5678226 30.4673778,76.5851079 30.4861762,76.5961077 C30.5045829,76.6071075 30.522598,76.6090717 30.5394383,76.6012147 C30.5566701,76.5941435 30.5715522,76.5717511 30.5860426,76.5352162 C30.6040578,76.4884672 30.6220729,76.4008619 30.6396964,76.2743646 C30.6577115,76.1474745 30.6651525,76.0571193 30.6616278,76.0044776 C30.6588864,75.951443 30.6514454,75.912551 30.6393047,75.8881943 C30.6267725,75.8638377 30.6111071,75.8457667 30.5923088,75.8351598 M30.61659,75.6634849 C30.6949167,75.7086625 30.7509202,75.7813395 30.7846006,75.8819088 C30.8249389,76.0009419 30.8308134,76.1631884 30.8022241,76.3682555 C30.7736349,76.5729296 30.7266389,76.7049268 30.6612362,76.7638541 C30.6067992,76.8121745 30.5406132,76.8137459 30.4618949,76.7681754 C30.3831766,76.7229978 30.3252149,76.6456066 30.2880098,76.5367875 C30.2511963,76.4275756 30.2468883,76.2692576 30.2758691,76.0614406 C30.3044584,75.857945 30.351846,75.7267335 30.4172487,75.6678062 C30.4716857,75.619093 30.5378717,75.6179144 30.61659,75.6634849" id="Fill-29" fill="#1D1C1B"></path>
                        <path d="M31.2218591,76.1992127 C31.2030607,76.1886057 31.1850456,76.1866415 31.168597,76.1941056 C31.1513651,76.2015698 31.1356998,76.2235693 31.121601,76.2601042 C31.1039775,76.3076389 31.0859624,76.3952442 31.0679473,76.5221343 C31.0503238,76.6490244 31.0424911,76.7385939 31.0456242,76.7920214 C31.0487572,76.8450559 31.0565899,76.8835551 31.0687305,76.9079117 C31.0816544,76.9318755 31.0969281,76.9495537 31.1157265,76.9601606 C31.1341333,76.9711604 31.1521484,76.9731246 31.1689886,76.9652676 C31.1862205,76.9581964 31.2014942,76.935804 31.215593,76.899269 C31.2336081,76.8521272 31.2516232,76.7653076 31.2692467,76.6384175 C31.2872618,76.5115274 31.2947029,76.4211722 31.2911782,76.3685305 C31.2884367,76.315103 31.2809957,76.2766039 31.2688551,76.2522472 C31.2563228,76.2274978 31.2406575,76.2098196 31.2218591,76.1992127 M31.2461404,76.0275378 C31.3248586,76.0727154 31.3804705,76.1453924 31.414151,76.2459617 C31.4544892,76.3649948 31.4603637,76.5272413 31.4317745,76.7323083 C31.4031853,76.9369825 31.3561893,77.0689797 31.2907865,77.127907 C31.2363495,77.1762274 31.1705552,77.1777988 31.0914453,77.1322283 C31.012727,77.0866579 30.9547653,77.0096595 30.9175601,76.9004476 C30.8807466,76.7916285 30.8764386,76.6333105 30.9054195,76.4254935 C30.9340087,76.2219979 30.9813963,76.0911793 31.0467991,76.0318591 C31.1012361,75.9835387 31.1674221,75.9815745 31.2461404,76.0275378" id="Fill-31" fill="#1D1C1B"></path>
                        <path d="M31.8513703,76.5633048 C31.8325719,76.5523051 31.8145568,76.5507337 31.7981082,76.5581978 C31.7808763,76.5656619 31.765211,76.5876615 31.7515038,76.6241964 C31.7334887,76.6717311 31.7154736,76.7589435 31.6974584,76.8858336 C31.6798349,77.0131166 31.6720023,77.103079 31.6751353,77.1561135 C31.6782684,77.2091481 31.6861011,77.2476473 31.6986333,77.2720039 C31.7111656,77.2959677 31.7264393,77.313253 31.7452377,77.3242528 C31.7636444,77.3352525 31.7816596,77.3372168 31.7984998,77.3293598 C31.8157317,77.3222885 31.8310054,77.2998962 31.8451042,77.2633612 C31.8631193,77.2166122 31.8811344,77.129007 31.8987579,77.0025097 C31.916773,76.8756196 31.9242141,76.7852644 31.921081,76.7326226 C31.9179479,76.6795881 31.9105069,76.640696 31.8983663,76.6163394 C31.885834,76.5919828 31.8701687,76.5739118 31.8513703,76.5633048 M31.8756515,76.39163 C31.9543698,76.4368076 32.0099817,76.5094846 32.0436622,76.609661 C32.0840004,76.729087 32.0898749,76.8913335 32.0612857,77.0964005 C32.0326964,77.3010747 31.9857005,77.4330719 31.9202977,77.4916063 C31.8658607,77.5403196 31.8000663,77.541891 31.7209564,77.4963205 C31.6422382,77.4507501 31.5842765,77.3737517 31.5470713,77.2649326 C31.5102578,77.1557207 31.5063414,76.9974027 31.5353223,76.7895857 C31.5639115,76.5860901 31.6109075,76.4548786 31.6763102,76.3959513 C31.7307473,76.3472381 31.7969333,76.3456667 31.8756515,76.39163" id="Fill-33" fill="#1D1C1B"></path>
                        <path d="M32.4812731,76.9273577 C32.4624747,76.9167508 32.4444596,76.9151794 32.428011,76.9222507 C32.4107791,76.9297148 32.3951138,76.9517143 32.381015,76.9882493 C32.3633915,77.035784 32.3453764,77.1233892 32.3273613,77.2502794 C32.3097378,77.3771695 32.3019051,77.4671318 32.3050382,77.5201664 C32.3081712,77.5735938 32.3160039,77.6117002 32.3281445,77.6364496 C32.3410684,77.6604134 32.3563421,77.6776987 32.3751405,77.6883057 C32.3935473,77.6993054 32.4115624,77.7012697 32.4284026,77.6938055 C32.4456345,77.6863414 32.4609082,77.6643419 32.475007,77.6274141 C32.4930221,77.5802723 32.5110372,77.4934527 32.5286607,77.3665626 C32.5466758,77.2396724 32.5541169,77.1493172 32.5509838,77.0966755 C32.5478507,77.0436409 32.5404097,77.0047489 32.5282691,76.9807852 C32.5157368,76.9560357 32.5000715,76.9379646 32.4812731,76.9273577 M32.5055544,76.7556828 C32.5842726,76.8012533 32.6398845,76.8735375 32.673565,76.9741067 C32.7139032,77.0931399 32.7197777,77.2553864 32.6911885,77.4604534 C32.6625993,77.6655204 32.6156033,77.7971248 32.5502005,77.8560521 C32.4957635,77.9043724 32.4299691,77.9059438 32.3508592,77.8607662 C32.272141,77.8151958 32.2141793,77.7378046 32.1769741,77.6285927 C32.1401606,77.5201664 32.1362443,77.3614555 32.1652251,77.1540314 C32.1938143,76.9505358 32.2408103,76.8193243 32.3062131,76.7600042 C32.3606501,76.7116838 32.4268361,76.7101124 32.5055544,76.7556828" id="Fill-35" fill="#1D1C1B"></path>
                        <path d="M33.1107843,77.2918428 C33.0919859,77.280843 33.0739708,77.2788787 33.0575222,77.2863429 C33.0402903,77.293807 33.024625,77.3161994 33.0109178,77.3523415 C32.9929027,77.3998761 32.9748876,77.4874814 32.9568724,77.6143715 C32.9392489,77.7416545 32.9314163,77.831224 32.9345493,77.8842586 C32.9376824,77.9372932 32.9455151,77.9761852 32.9580473,78.000149 C32.9705796,78.0245056 32.9858533,78.0417909 33.0046517,78.0527907 C33.0230584,78.0637905 33.0410736,78.0653618 33.0579138,78.0575049 C33.0751457,78.0504336 33.0904194,78.0280412 33.1045181,77.9915063 C33.1225333,77.9447573 33.1405484,77.857152 33.1581719,77.7306548 C33.176187,77.6037646 33.1836281,77.5134094 33.180495,77.4607677 C33.1773619,77.4077331 33.1699209,77.3688411 33.1577803,77.3444845 C33.145248,77.3201279 33.1295827,77.3024497 33.1107843,77.2918428 M33.1350655,77.119775 C33.2137838,77.1649526 33.2693957,77.2376296 33.3030762,77.3381989 C33.3434144,77.4572321 33.3492889,77.6194786 33.3206997,77.8245456 C33.2921104,78.0296126 33.2451145,78.1612169 33.1797117,78.2201442 C33.1252747,78.2684646 33.0594803,78.270036 32.9803704,78.2248584 C32.9016522,78.179288 32.8436904,78.1022896 32.8064853,77.9930777 C32.7696718,77.8838657 32.7657554,77.7255477 32.7947363,77.5181236 C32.8233255,77.314628 32.8703215,77.1830237 32.9357242,77.1240964 C32.9901613,77.0753831 33.0563473,77.0742046 33.1350655,77.119775" id="Fill-37" fill="#1D1C1B"></path>
                        <path d="M33.7402955,77.6555421 C33.7214971,77.6449352 33.7034819,77.6433638 33.6870333,77.650435 C33.6698015,77.6578992 33.6541362,77.6798987 33.640429,77.7164336 C33.6224139,77.7639683 33.6043987,77.8515736 33.5863836,77.9784637 C33.5687601,78.1053538 33.5609275,78.1953162 33.5640605,78.2483508 C33.5671936,78.3017782 33.5754179,78.3398845 33.5875585,78.364634 C33.6000908,78.3885978 33.6153645,78.4058831 33.6341629,78.41649 C33.6525696,78.4274898 33.6705848,78.429454 33.687425,78.421597 C33.7046568,78.4145258 33.7199305,78.3921334 33.7340293,78.3555985 C33.7520445,78.3084566 33.7700596,78.2216371 33.7876831,78.0947469 C33.8056982,77.9678568 33.8131392,77.8775016 33.8100062,77.8248599 C33.8072647,77.7714324 33.7994321,77.7329333 33.7872914,77.7085767 C33.7747592,77.6838272 33.7590939,77.666149 33.7402955,77.6555421 M33.7645767,77.4838672 C33.843295,77.5290448 33.8989069,77.6017218 33.9325874,77.7022911 C33.9729256,77.8213242 33.9788001,77.9835707 33.9502108,78.1886378 C33.9216216,78.3937048 33.8746256,78.5253091 33.8092229,78.5842364 C33.7547859,78.6325568 33.6889915,78.6341282 33.6098816,78.5885577 C33.5311633,78.5433801 33.4732016,78.465989 33.4359965,78.356777 C33.399183,78.2479579 33.3952666,78.0896399 33.4242475,77.8818229 C33.4528367,77.6783273 33.4998327,77.5475087 33.5652354,77.4881885 C33.6196724,77.4398681 33.6858584,77.4382967 33.7645767,77.4838672" id="Fill-39" fill="#1D1C1B"></path>
                        <path d="M34.3701983,78.0199878 C34.3513999,78.0089881 34.3333848,78.0070238 34.3169362,78.0144879 C34.2997043,78.0223449 34.284039,78.0443444 34.2703318,78.0808794 C34.2523167,78.1284141 34.2343016,78.2156265 34.2162864,78.3425166 C34.1986629,78.4697996 34.1908303,78.5593691 34.1939633,78.6127965 C34.1970964,78.6658311 34.2049291,78.7043303 34.2174613,78.728294 C34.2299936,78.7526507 34.2452673,78.769936 34.2640657,78.7809358 C34.2824724,78.7919355 34.3004876,78.7935069 34.3173278,78.7856499 C34.3345597,78.7785787 34.3498333,78.7565791 34.3639321,78.7196514 C34.3819473,78.6729024 34.3999624,78.58569 34.4175859,78.4587998 C34.435601,78.3319097 34.443042,78.2415545 34.439909,78.1889128 C34.4371675,78.1358782 34.4293349,78.0969862 34.4171943,78.0730224 C34.404662,78.0482729 34.3889967,78.0305947 34.3701983,78.0199878 M34.3944795,77.8479201 C34.4731978,77.8934905 34.5288097,77.9661675 34.5624902,78.066344 C34.6028284,78.18577 34.6087029,78.3476236 34.5801137,78.5526907 C34.5515244,78.7577577 34.5045285,78.8897548 34.4391257,78.9482893 C34.3846887,78.9966097 34.3188943,78.9981811 34.2397844,78.9530035 C34.1610662,78.907433 34.1031044,78.8304347 34.0658993,78.7212228 C34.0290858,78.6124037 34.0251694,78.4536928 34.0541503,78.2462687 C34.0827395,78.042773 34.1297355,77.9115616 34.1951382,77.8526343 C34.2495753,77.803921 34.3157613,77.8023496 34.3944795,77.8479201" id="Fill-41" fill="#1D1C1B"></path>
                        <path d="M34.9997486,78.3836871 C34.9809502,78.3730802 34.9629351,78.3715088 34.9464865,78.3785801 C34.9292546,78.3860442 34.9135893,78.4080438 34.8998822,78.4445787 C34.881867,78.4921134 34.8638519,78.5797187 34.8458368,78.7066088 C34.8282133,78.8338918 34.8203806,78.9234613 34.8235137,78.9764958 C34.8266468,79.0299233 34.834871,79.0680296 34.8470117,79.0927791 C34.8595439,79.1167428 34.8748176,79.1340282 34.893616,79.1446351 C34.9120228,79.1556348 34.9300379,79.1575991 34.9468781,79.150135 C34.96411,79.1426708 34.9793837,79.1206713 34.9934825,79.0837435 C35.0114976,79.0369945 35.0295127,78.9497821 35.0471362,78.822892 C35.0651514,78.6960019 35.0725924,78.6060395 35.0694593,78.5530049 C35.0667179,78.4999704 35.0588852,78.4610783 35.0467446,78.4371146 C35.0342123,78.4123651 35.018547,78.3942941 34.9997486,78.3836871 M35.0240299,78.2120123 C35.1027481,78.2575827 35.1583601,78.3302597 35.1920405,78.4304361 C35.2323787,78.5494693 35.2382532,78.7117158 35.209664,78.9167828 C35.1810748,79.1218499 35.1340788,79.2534542 35.0686761,79.3123815 C35.014239,79.3607019 34.9484447,79.3622733 34.8693348,79.3170957 C34.7906165,79.2715252 34.7326548,79.194134 34.6954496,79.0853149 C34.6586361,78.9764958 34.6547198,78.817785 34.6837006,78.6103609 C34.7122899,78.4068652 34.7592858,78.2756538 34.8250802,78.2163336 C34.8791256,78.1680132 34.9453116,78.1664418 35.0240299,78.2120123" id="Fill-43" fill="#1D1C1B"></path>
                        <path d="M35.6296514,78.7481329 C35.6104614,78.7371331 35.5924463,78.7351689 35.5759977,78.742633 C35.5587658,78.7500971 35.5431005,78.7724895 35.5293933,78.8086316 C35.5113782,78.8561663 35.4933631,78.9437715 35.475348,79.0706617 C35.4577245,79.1979447 35.4502834,79.2875142 35.4530249,79.3405487 C35.4565496,79.3935833 35.4643822,79.4324753 35.4765229,79.4564391 C35.4890551,79.4807957 35.5043288,79.4980811 35.5235188,79.5090808 C35.541534,79.5200806 35.5595491,79.521652 35.5763893,79.513795 C35.5936212,79.5067237 35.6088949,79.4847242 35.6229937,79.4477964 C35.6410088,79.4010474 35.6590239,79.313835 35.6766474,79.1869449 C35.6946625,79.0600548 35.7021036,78.9696996 35.6989705,78.9170578 C35.6962291,78.8640233 35.6883964,78.8251312 35.6762558,78.8011675 C35.6637235,78.776418 35.6480582,78.7587398 35.6296514,78.7481329 M35.6539327,78.5760652 C35.7322593,78.6216356 35.7878712,78.6943126 35.8215517,78.794489 C35.8618899,78.9135222 35.8677644,79.0757687 35.8391752,79.2808357 C35.810586,79.4859028 35.76359,79.6175071 35.6985789,79.6764344 C35.6437502,79.7247548 35.5779559,79.7263262 35.4992376,79.6811486 C35.4201277,79.6355781 35.362166,79.5585798 35.3253524,79.4493678 C35.2881473,79.3405487 35.284231,79.1818379 35.3132118,78.9744137 C35.341801,78.7709181 35.388797,78.6397066 35.4545914,78.5807793 C35.5086368,78.5316733 35.5748228,78.5304947 35.6539327,78.5760652" id="Fill-45" fill="#1D1C1B"></path>
                        <path d="M26.2142805,75.0430589 C26.2922155,75.0882365 26.3705422,75.1334141 26.4484772,75.1785917 C26.4429943,75.2108053 26.4363366,75.2422332 26.431637,75.2752325 C26.1171555,77.5270413 25.8026741,79.77885 25.4881926,82.0310516 C25.483493,82.0640509 25.4811432,82.0978359 25.4776185,82.1312281 C25.3992919,82.0860505 25.3213569,82.0408729 25.2434219,81.9956953 C25.2489047,81.9638745 25.2555625,81.9320538 25.2602621,81.8994473 C25.5747436,79.6472457 25.889225,77.395437 26.2037064,75.1432354 C26.208406,75.1102361 26.2107558,75.0764511 26.2142805,75.0430589" id="Fill-47" fill="#FEFEFE"></path>
                        <path d="M27.6974346,83.414979 C27.6194996,83.3698014 27.5411729,83.3246238 27.4632379,83.2794462 C27.7867269,80.9620317 28.1106076,78.6442244 28.4340966,76.3268099 C28.5085069,76.3696304 28.5829172,76.4128438 28.6573275,76.4556643 C28.6538028,76.4996633 28.6530196,76.5444481 28.6471451,76.5868758 C28.4760014,77.8208135 28.304466,79.0547513 28.1329307,80.2882962 C27.9880264,81.3305238 27.8427305,82.3727514 27.6974346,83.414979" id="Fill-49" fill="#FEFEFE"></path>
                        <path d="M30.6763532,77.6232892 C30.7507635,77.6661097 30.8251738,77.7093231 30.8995842,77.7521436 C30.893318,77.7949641 30.8866603,77.8373917 30.8803941,77.8802123 C30.6250493,79.7101015 30.3693128,81.5395979 30.113968,83.3694872 C30.0520899,83.8145847 29.9902119,84.2600752 29.9283339,84.7051727 C29.8503989,84.6599951 29.7724638,84.6148175 29.6941372,84.5696399 C30.0011776,82.3736157 30.308218,80.1779843 30.6156501,77.9823529 C30.6324903,77.8609627 30.6559883,77.7431081 30.6763532,77.6232892" id="Fill-51" fill="#FEFEFE"></path>
                        <path d="M33.8216377,86.9563529 C33.7472274,86.9135324 33.6728171,86.8703191 33.5984068,86.8274986 C33.9222874,84.5096912 34.2457764,82.1922767 34.5696571,79.8744694 C34.6440674,79.9176828 34.718086,79.9605033 34.7924963,80.0037166 C34.7862302,80.0461443 34.7795724,80.0885719 34.7736979,80.1313925 C34.5183531,81.9612817 34.2626166,83.7907781 34.0072718,85.6206674 C33.9450021,86.0657649 33.8835157,86.5112554 33.8216377,86.9563529" id="Fill-53" fill="#FEFEFE"></path>
                        <path d="M27.2623693,83.163438 C27.187959,83.1202247 27.1135487,83.0774041 27.0391384,83.0345836 C27.0454045,82.9917631 27.0520623,82.9493355 27.0583284,82.906515 C27.3136732,81.0766257 27.5694097,79.2471293 27.8247545,77.4172401 C27.8866326,76.9721425 27.9485106,76.5266521 28.0103887,76.0815545 C28.084799,76.1247678 28.1588176,76.1675883 28.2332279,76.2104088 C28.2297032,76.2441938 28.2273534,76.2779788 28.2226538,76.3105853 C27.908564,78.5627869 27.5936909,80.8149885 27.2792095,83.0667972 C27.2745099,83.0997965 27.2678521,83.1312244 27.2623693,83.163438" id="Fill-55" fill="#FEFEFE"></path>
                        <path d="M26.9728349,75.4817138 C27.0472452,75.5245343 27.1216555,75.5677477 27.1960658,75.6105682 C27.1925411,75.6439603 27.1897996,75.6781381 27.1854917,75.7107446 C26.8710102,77.9629462 26.5565288,80.2151478 26.2416557,82.4669566 C26.2373477,82.4999558 26.23069,82.5313837 26.2248155,82.5635973 C26.1504052,82.520384 26.0763865,82.4775635 26.0019762,82.4343501 C26.0074591,82.4025294 26.0141168,82.3707086 26.0188164,82.3381022 C26.3332979,80.0859006 26.6477793,77.8340918 26.9622608,75.5818902 C26.9669604,75.5492838 26.9693102,75.5151059 26.9728349,75.4817138" id="Fill-57" fill="#FEFEFE"></path>
                        <path d="M29.66124,77.0362947 C29.7356503,77.0791152 29.8100606,77.1223285 29.8844709,77.165149 C29.8809462,77.1985412 29.8782048,77.232719 29.8738968,77.2653255 C29.5594154,79.5175271 29.2449339,81.7697287 28.9300609,84.0215374 C28.9257529,84.0545367 28.9190951,84.0859646 28.9132206,84.1181782 C28.8388103,84.0749649 28.7647917,84.0321443 28.6903814,83.988931 C28.9782317,81.9355108 29.2660821,79.8824835 29.5539325,77.8286705 C29.590746,77.5654619 29.6256014,77.3006818 29.66124,77.0362947" id="Fill-59" fill="#FEFEFE"></path>
                        <path d="M32.6396496,78.758622 C32.7140599,78.8014425 32.7884702,78.8446558 32.8628805,78.8874763 C32.857006,78.9196899 32.8503482,78.9515107 32.8460402,78.9841171 C32.5311672,81.2363187 32.2166857,83.4881275 31.9025959,85.7403291 C31.8978963,85.7729355 31.8951549,85.8071134 31.8916302,85.8405055 C31.8172199,85.7972921 31.7432012,85.7544716 31.6687909,85.7112583 C31.6723156,85.6778661 31.6746654,85.6440811 31.679365,85.6110819 C31.9934548,83.3592731 32.3083279,81.1070715 32.6228093,78.8552627 C32.6275089,78.8222634 32.6341667,78.7908355 32.6396496,78.758622" id="Fill-61" fill="#FEFEFE"></path>
                        <path d="M34.4128471,87.2982492 C34.3384368,87.2554287 34.2640265,87.2122153 34.1896162,87.1693948 C34.1931409,87.1360027 34.1958823,87.1018248 34.2001903,87.0692184 C34.5146718,84.8170168 34.8291532,82.5648152 35.1440263,80.3130064 C35.1483343,80.2800071 35.154992,80.2485792 35.1608665,80.2163656 C35.2348852,80.259579 35.3092955,80.3023995 35.3837058,80.3456128 C35.3782229,80.3774336 35.3715652,80.4092543 35.3668656,80.4418608 C35.0523841,82.6940624 34.7379027,84.9458711 34.4234212,87.1980727 C34.4187216,87.231072 34.4163718,87.264857 34.4128471,87.2982492" id="Fill-63" fill="#FEFEFE"></path>
                        <path d="M33.3870423,79.1907948 C33.4614526,79.2336153 33.5358629,79.2768287 33.6102732,79.3196492 C33.6067485,79.3530413 33.6040071,79.3872192 33.5996991,79.4198256 C33.2852177,81.6720272 32.9707363,83.9242288 32.6558632,86.1760376 C32.6515552,86.2090369 32.6448974,86.2404648 32.6390229,86.2726783 C32.5646126,86.229465 32.490594,86.1866445 32.4161837,86.1434311 C32.4216665,86.1116104 32.4283243,86.0797896 32.4330239,86.0471832 C32.7475053,83.7949816 33.0619868,81.5431728 33.3764682,79.2909712 C33.3811678,79.2583648 33.3835176,79.2241869 33.3870423,79.1907948" id="Fill-65" fill="#FEFEFE"></path>
                        <path d="M31.2898858,77.9780709 C31.3642961,78.0208914 31.4387064,78.0641047 31.5131167,78.1069252 C31.1892361,80.4247326 30.865747,82.7421471 30.5418664,85.0599544 C30.4678477,85.016741 30.3934374,84.9739205 30.3190271,84.9307072 C30.3252933,84.8882795 30.331951,84.8458519 30.3378255,84.8030314 C30.5931703,82.9731421 30.8489068,81.1436457 31.1042517,79.3137565 C31.1665213,78.8686589 31.2280077,78.4231684 31.2898858,77.9780709" id="Fill-67" fill="#FEFEFE"></path>
                        <path d="M33.8109461,79.4359324 C33.8853564,79.4787529 33.9597667,79.5219663 34.034177,79.5647868 C33.7102964,81.8825941 33.3868073,84.2000086 33.0629267,86.5178159 C32.9885164,86.4746026 32.9144977,86.4317821 32.8400874,86.3885687 C32.8463536,86.3461411 32.8530113,86.3037134 32.8588858,86.2605 C33.1142307,84.4310036 33.3699671,82.6015072 33.625312,80.771618 C33.6875816,80.3265204 33.749068,79.88103 33.8109461,79.4359324" id="Fill-69" fill="#FEFEFE"></path>
                        <path d="M31.6022133,78.1587027 C31.6766236,78.2015232 31.7510339,78.2447366 31.8254442,78.2875571 C31.819178,78.3303776 31.8125203,78.3728052 31.8062541,78.4156257 C31.5509093,80.245515 31.2951728,82.0750114 31.039828,83.9049007 C30.97795,84.3499982 30.9160719,84.7954887 30.8541939,85.2405862 C30.7797836,85.1973729 30.7057649,85.1545524 30.6313546,85.111339 C30.6348793,85.0779469 30.6372291,85.0441619 30.6419287,85.0111626 C30.9564101,82.7593538 31.2708916,80.5071522 31.585373,78.2553435 C31.5900726,78.2223442 31.5967304,78.1909163 31.6022133,78.1587027" id="Fill-71" fill="#FEFEFE"></path>
                        <path d="M28.4448273,83.8471912 C28.370417,83.8043707 28.2960067,83.7611573 28.2215964,83.7183368 C28.2251211,83.6849447 28.2278626,83.6507668 28.2321705,83.6181604 C28.546652,81.3659588 28.8611334,79.1137572 29.1760065,76.8619484 C29.1803145,76.8289491 29.1869722,76.7975212 29.1928467,76.7653076 C29.2668654,76.808521 29.3412757,76.8513415 29.415686,76.8945549 C29.3972793,77.0367661 29.3792641,77.1793702 29.3596825,77.3211886 C29.061258,79.4578926 28.7628335,81.5942039 28.464409,83.730908 C28.4589261,83.7701928 28.4514851,83.8082992 28.4448273,83.8471912" id="Fill-73" fill="#FEFEFE"></path>
                        <path d="M27.2623693,83.163438 C27.2678521,83.1312244 27.2745099,83.0997965 27.2792095,83.0667972 C27.5936909,80.8149885 27.908564,78.5627869 28.2226538,76.3105853 C28.2273534,76.2779788 28.2297032,76.2441938 28.2332279,76.2104088 C28.3001972,76.2493009 28.3671665,76.2881929 28.4341358,76.3266921 C28.1106468,78.6444994 27.7867661,80.9619139 27.4632771,83.2793284 C27.3963078,83.2408292 27.3293385,83.2019372 27.2623693,83.163438" id="Fill-75" fill="#1D1C1B"></path>
                        <path d="M33.8109461,79.4359324 C33.749068,79.88103 33.6875816,80.3265204 33.625312,80.771618 C33.3699671,82.6015072 33.1142307,84.4310036 32.8588858,86.2605 C32.8530113,86.3037134 32.8463536,86.3461411 32.8400874,86.3885687 C32.7731181,86.3500695 32.7061489,86.3111775 32.6391796,86.2726783 C32.6450541,86.2404648 32.6513202,86.208644 32.6560198,86.1760376 C32.9708929,83.9242288 33.2853744,81.6720272 33.5994642,79.4198256 C33.6041638,79.3872192 33.6065136,79.3530413 33.6100383,79.3196492 C33.6770075,79.3585412 33.7439768,79.3970404 33.8109461,79.4359324" id="Fill-77" fill="#1D1C1B"></path>
                        <path d="M34.5695004,79.874548 C34.2460114,82.1919625 33.9221307,84.5097698 33.5986417,86.8271843 C33.5316725,86.7886851 33.4647032,86.7497931 33.3977339,86.7112939 C33.4036084,86.6790803 33.4102662,86.6476524 33.4145741,86.6146531 C33.7294472,84.3628444 34.0439287,82.1106428 34.3580185,79.858834 C34.3627181,79.8258347 34.3654595,79.7916569 34.3685926,79.7582648 L34.5695004,79.874548 Z" id="Fill-79" fill="#1D1C1B"></path>
                        <path d="M28.9133381,84.1180996 C28.9192126,84.0858861 28.9254788,84.0544582 28.9301784,84.0214589 C29.2446598,81.7696501 29.5595329,79.5174485 29.8736227,77.2656397 C29.8783223,77.2326405 29.8806721,77.1988555 29.8841968,77.1654633 C29.9511661,77.2039625 30.0181353,77.2428545 30.0851046,77.2813537 C29.7616156,79.599161 29.437735,81.9165755 29.114246,84.2343829 C29.0472767,84.1954908 28.9803074,84.1565988 28.9133381,84.1180996" id="Fill-81" fill="#1D1C1B"></path>
                        <path d="M26.224933,82.5635188 C26.2304158,82.5313052 26.2370736,82.4998773 26.2417732,82.466878 C26.5566463,80.2150692 26.8711277,77.9628676 27.1852175,75.710666 C27.1899171,75.6780596 27.1926586,75.6442746 27.1957916,75.6108824 C27.2627609,75.6493816 27.3297302,75.6882736 27.3966995,75.7267728 C27.390825,75.7589864 27.3841672,75.7904143 27.3798592,75.8234136 C27.0649861,78.0752223 26.7505047,80.327424 26.4364149,82.5792327 C26.4317153,82.612232 26.4293655,82.646017 26.4258408,82.679802 C26.3588715,82.64091 26.2919022,82.6020179 26.224933,82.5635188" id="Fill-83" fill="#1D1C1B"></path>
                        <path d="M35.1607099,80.2164442 C35.155227,80.2486578 35.1485692,80.2800857 35.1438696,80.313085 C34.8293882,82.5648937 34.5145151,84.8170953 34.2004253,87.0689041 C34.1957257,87.1019034 34.1933759,87.1356884 34.1898512,87.1690805 C34.1228819,87.1305813 34.0559126,87.0916893 33.9889434,87.0531901 C34.312824,84.7353828 34.636313,82.4179683 34.959802,80.100161 C35.0267713,80.139053 35.0937406,80.1775522 35.1607099,80.2164442" id="Fill-85" fill="#1D1C1B"></path>
                        <path d="M32.6396496,78.758622 C32.6341667,78.7908355 32.6275089,78.8222634 32.6228093,78.8552627 C32.3083279,81.1070715 31.9934548,83.3592731 31.679365,85.6110819 C31.6746654,85.6440811 31.6723156,85.6778661 31.6687909,85.7112583 C31.6018216,85.6727591 31.5348523,85.6338671 31.4678831,85.5953679 C31.7913721,83.2775606 32.1152527,80.9601461 32.4387417,78.6423387 C32.505711,78.6812308 32.5726803,78.7197299 32.6396496,78.758622" id="Fill-87" fill="#1D1C1B"></path>
                        <path d="M30.6763532,77.6232892 C30.6559883,77.7431081 30.6324903,77.8609627 30.6156501,77.9823529 C30.308218,80.1779843 30.0011776,82.3736157 29.6941372,84.5696399 C29.6310843,84.533105 29.5676397,84.4965701 29.5045867,84.4600352 C29.5100696,84.4278216 29.517119,84.3963937 29.521427,84.3633944 C29.8363001,82.1115856 30.1507815,79.859384 30.4648713,77.6075753 C30.4695709,77.574576 30.4723123,77.540791 30.4754454,77.507006 C30.5424147,77.545898 30.609384,77.58479 30.6763532,77.6232892" id="Fill-89" fill="#1D1C1B"></path>
                        <path d="M30.1743578,77.3330133 C30.2374108,77.3695482 30.3008553,77.4060832 30.3639083,77.4426181 C30.0404193,79.7604254 29.7165386,82.0778399 29.3930496,84.3956473 C29.329605,84.3587195 29.2665521,84.3221845 29.2034992,84.2856496 C29.2101569,84.2471504 29.217598,84.2090441 29.2230808,84.1697592 C29.4721595,82.3858333 29.7216299,80.6023002 29.9703169,78.8183742 C30.0392444,78.3237777 30.1066053,77.8280027 30.1743578,77.3330133" id="Fill-91" fill="#1D1C1B"></path>
                        <path d="M26.9728349,75.4817138 C26.9693102,75.5151059 26.9669604,75.5492838 26.9622608,75.5818902 C26.6477793,77.8340918 26.3332979,80.0859006 26.0188164,82.3381022 C26.0141168,82.3707086 26.0074591,82.4025294 26.0019762,82.4343501 C25.9385316,82.3978152 25.8754787,82.3612803 25.8120341,82.3247453 C25.8179086,82.2819248 25.8233915,82.2387115 25.829266,82.1958909 C26.0709036,80.4649996 26.3125413,78.7341082 26.5545706,77.0036097 C26.6305475,76.4595142 26.7069159,75.9158116 26.7832844,75.372109 C26.8463373,75.4086439 26.9097819,75.4451789 26.9728349,75.4817138" id="Fill-93" fill="#1D1C1B"></path>
                        <path d="M33.3870423,79.1907948 C33.3835176,79.2241869 33.3811678,79.2583648 33.3764682,79.2909712 C33.0619868,81.5431728 32.7475053,83.7949816 32.4330239,86.0471832 C32.4283243,86.0797896 32.4216665,86.1116104 32.4161837,86.1434311 C32.3527391,86.1068962 32.2896861,86.0703613 32.2262416,86.0338263 C32.5501222,83.7164118 32.8736112,81.3986045 33.1974919,79.08119 C33.2605448,79.1177249 33.3239894,79.1542599 33.3870423,79.1907948" id="Fill-95" fill="#1D1C1B"></path>
                        <path d="M28.824594,76.5525015 C28.887647,76.5890364 28.9510916,76.6255714 29.0141445,76.6621063 C29.0106198,76.6954984 29.00827,76.7296763 29.0035704,76.7622827 C28.689089,79.0144843 28.3746075,81.2662931 28.0601261,83.5184947 C28.0554265,83.5511011 28.0487687,83.5829219 28.0432858,83.6151355 C27.9798413,83.5782077 27.9167883,83.5416727 27.8537354,83.5051378 C28.1772244,81.1877233 28.5007134,78.869916 28.824594,76.5525015" id="Fill-97" fill="#1D1C1B"></path>
                        <path d="M35.5511681,80.4422143 C35.6142211,80.4787493 35.6776657,80.5152842 35.7407186,80.5518191 C35.525712,82.0949288 35.3107054,83.6380385 35.0953071,85.1811482 C34.9872164,85.9558459 34.8783423,86.7301507 34.7698599,87.5048483 C34.706807,87.4683134 34.6433624,87.4313856 34.5803095,87.3948507 C34.5857923,87.3520302 34.5912752,87.3088168 34.5971497,87.2659963 C34.8387874,85.5351049 35.0804251,83.8042135 35.3224544,82.073715 C35.3984312,81.5296196 35.4747997,80.9859169 35.5511681,80.4422143" id="Fill-99" fill="#1D1C1B"></path>
                        <path d="M35.0821482,87.6852837 C35.0190953,87.6487488 34.9556507,87.6122139 34.8925978,87.5756789 C34.8961225,87.5422868 34.8984723,87.5081089 34.9031719,87.4755025 C35.2176533,85.2233009 35.5321348,82.9714921 35.8466162,80.7192905 C35.8513158,80.6866841 35.8579736,80.6548633 35.8634564,80.6226498 C35.9265094,80.6595775 35.989954,80.6957196 36.0530069,80.7326474 C35.7295179,83.0500619 35.4056373,85.3678692 35.0821482,87.6852837" id="Fill-101" fill="#1D1C1B"></path>
                        <path d="M27.6532975,75.8751911 C27.7163505,75.911726 27.779795,75.9482609 27.842848,75.9847958 C27.519359,78.3026032 27.1954783,80.6200177 26.8719893,82.937825 C26.8124611,82.9032543 26.7529328,82.8686836 26.6934046,82.8345058 C26.6992791,82.7912924 26.7043703,82.7480791 26.7106364,82.7052586 C26.9796884,80.7763715 27.2499153,78.8478772 27.5181841,76.9185972 C27.566355,76.5724975 27.6082597,76.2228622 27.6532975,75.8751911" id="Fill-103" fill="#1D1C1B"></path>
                        <path d="M31.9926715,78.3844728 C32.0557245,78.4210078 32.1191691,78.4575427 32.182222,78.4940776 C32.1610738,78.6205749 32.1367925,78.745108 32.1187774,78.8731766 C31.9006377,80.4292503 31.683673,81.9857169 31.4663165,83.5417906 C31.3778074,84.1750627 31.2889067,84.8075491 31.200006,85.4404284 C31.1404777,85.4058577 31.0813411,85.3716799 31.0218129,85.3371092 C31.3453019,83.0196947 31.6687909,80.7018873 31.9926715,78.3844728" id="Fill-105" fill="#1D1C1B"></path>
                        <path d="M28.0432467,83.6149783 C28.0487295,83.5827647 28.0553873,83.5513368 28.0600869,83.5183375 C28.3745684,81.2665288 28.6894414,79.0143272 29.0035313,76.7621256 C29.0082308,76.7295191 29.0105806,76.6957341 29.0141053,76.662342 C29.0552268,76.6859129 29.0959567,76.7094838 29.1370782,76.7330548 C29.1312037,76.7652684 29.1245459,76.7970891 29.1202379,76.8296955 C28.8053649,79.0815043 28.4908834,81.3337059 28.176402,83.5859075 C28.172094,83.618514 28.1693526,83.6522989 28.1658279,83.6860839 C28.125098,83.6621202 28.0839765,83.6385492 28.0432467,83.6149783" id="Fill-107" fill="#FEFEFE"></path>
                        <path d="M35.8634956,80.6228069 C35.8580127,80.6550205 35.851355,80.6864484 35.8466554,80.7194477 C35.5321739,82.9712564 35.2176925,85.223458 34.903211,87.4752668 C34.8985114,87.5082661 34.8961616,87.5420511 34.8926369,87.5754432 C34.8515155,87.5518723 34.8107856,87.5283014 34.7696641,87.5047304 C34.8781465,86.7300328 34.9870205,85.955728 35.0951113,85.1810304 C35.3105096,83.6379207 35.5255162,82.094811 35.7409144,80.5517013 C35.7816443,80.575665 35.8227658,80.599236 35.8634956,80.6228069" id="Fill-109" fill="#FEFEFE"></path>
                        <path d="M31.9926715,78.3844728 C31.6687909,80.7018873 31.3453019,83.0196947 31.0218129,85.3371092 C30.9846077,85.3158953 30.9474026,85.2942887 30.9101974,85.272682 C31.2336864,82.9552675 31.5575671,80.6374601 31.8810561,78.3200457 C31.9182612,78.3412595 31.9554664,78.3628662 31.9926715,78.3844728" id="Fill-111" fill="#FEFEFE"></path>
                        <path d="M35.5511681,80.4422143 C35.4747997,80.9859169 35.3984312,81.5296196 35.3224544,82.073715 C35.0804251,83.8042135 34.8387874,85.5351049 34.5971497,87.2659963 C34.5912752,87.3088168 34.5857923,87.3520302 34.5803095,87.3948507 C34.5431043,87.3736368 34.5058992,87.3520302 34.468694,87.3304235 C34.4761351,87.2852459 34.484751,87.2404611 34.4910171,87.1944978 C34.8074567,84.9222609 35.1235047,82.650024 35.4395527,80.3777872 C35.4767578,80.3993938 35.513963,80.4206077 35.5511681,80.4422143" id="Fill-113" fill="#FEFEFE"></path>
                        <path d="M31.1225409,77.8813122 C31.1597461,77.9029189 31.1969512,77.9241327 31.2341564,77.9457394 C30.9102757,80.2635468 30.5867867,82.5809612 30.2632977,84.8987686 C30.2260926,84.8771619 30.1888874,84.8555552 30.1516823,84.8339485 C30.4751713,82.5165341 30.7990519,80.1991196 31.1225409,77.8813122" id="Fill-115" fill="#FEFEFE"></path>
                        <path d="M26.5043241,75.210766 C26.5415292,75.2323727 26.5787344,75.2535866 26.6159395,75.2751932 C26.610065,75.3074068 26.6037989,75.3392276 26.5990993,75.371834 C26.2842262,77.6236428 25.9697448,79.8758444 25.655655,82.128046 C25.6509554,82.1606524 25.6482139,82.1948303 25.6446892,82.2282224 C25.6078757,82.2066157 25.5706706,82.185009 25.5334654,82.1634024 C25.5369901,82.1300102 25.5393399,82.0962252 25.5440395,82.0632259 C25.8581293,79.8114172 26.1730024,77.5592156 26.4874839,75.3074068 C26.4921835,75.2744075 26.4988412,75.2429796 26.5043241,75.210766" id="Fill-117" fill="#FEFEFE"></path>
                        <path d="M30.0957962,84.8018528 C30.0585911,84.7802461 30.0213859,84.7590323 29.9841807,84.7374256 C30.3080614,82.4196183 30.6315504,80.1022038 30.955431,77.7843965 C30.9922446,77.8060031 31.0294497,77.8276098 31.0666549,77.8492165 C31.0603887,77.8916442 31.053731,77.9340718 31.0478565,77.9768923 C30.7925116,79.8067816 30.5367752,81.636278 30.2814303,83.4661672 C30.2191607,83.9112648 30.1576742,84.3567552 30.0957962,84.8018528" id="Fill-119" fill="#FEFEFE"></path>
                        <path d="M26.7832061,75.3720304 C26.7068376,75.915733 26.6304691,76.4594356 26.5544923,77.0035311 C26.312463,78.7340296 26.0708253,80.464921 25.8291876,82.1958124 C25.8233131,82.2386329 25.8178303,82.2818462 25.8123474,82.3246668 C25.7751423,82.3034529 25.7379371,82.2818462 25.7007319,82.2602396 C25.7042566,82.2268474 25.7066064,82.1930624 25.711306,82.1600631 C26.0257875,79.9078615 26.3402689,77.6560528 26.6547504,75.404244 C26.65945,75.3712447 26.6661077,75.3398168 26.6715906,75.3076032 C26.7087958,75.3292099 26.7460009,75.3504238 26.7832061,75.3720304" id="Fill-121" fill="#FEFEFE"></path>
                        <path d="M29.3930105,84.3954901 C29.7164995,82.0776828 30.0403801,79.7602683 30.3638691,77.4428538 C30.4010743,77.4640676 30.4382794,77.4856743 30.4754846,77.507281 C30.4719599,77.5406731 30.4696101,77.5744581 30.4649105,77.6074574 C30.1508207,79.859659 29.8363392,82.1114678 29.5214661,84.3636694 C29.5167665,84.3962758 29.5101088,84.4277037 29.5046259,84.4599173 C29.4674208,84.4383106 29.4302156,84.4170968 29.3930105,84.3954901" id="Fill-123" fill="#FEFEFE"></path>
                        <path d="M26.8719502,82.9376679 C27.1954392,80.6198605 27.5193198,78.302446 27.8428088,75.9846387 C27.880014,76.0062454 27.9172191,76.0278521 27.9544243,76.0494587 C27.6309353,78.3668732 27.3070546,80.6846806 26.9835656,83.0020951 C26.9463605,82.9804884 26.9091553,82.9592745 26.8719502,82.9376679" id="Fill-125" fill="#FEFEFE"></path>
                        <path d="M25.1763743,81.9571568 C25.1426938,81.9379072 25.109405,81.9182648 25.0761162,81.8990152 C25.081599,81.8668016 25.0882568,81.8353737 25.0929564,81.8023744 C25.4074379,79.5505656 25.7219193,77.2987569 26.0364008,75.0465553 C26.0407087,75.013556 26.0434501,74.979771 26.0469748,74.9463789 C26.08418,74.9679855 26.1213852,74.9891994 26.1585903,75.0108061 C26.0967123,75.434297 26.0324844,75.8566093 25.9729562,76.2816716 C25.713695,78.1312033 25.4560004,79.9811278 25.1975225,81.8310524 C25.1912563,81.87348 25.1834237,81.915122 25.1763743,81.9571568" id="Fill-127" fill="#FEFEFE"></path>
                        <path d="M32.9408546,78.9327718 C32.9706188,78.9500571 33.0003829,78.9673425 33.030147,78.984235 C32.8151404,80.5206662 32.6001338,82.0567047 32.3855188,83.5927431 C32.2762531,84.3741191 32.1677707,85.1554952 32.0592883,85.9372641 C32.0256079,85.9180145 31.9923191,85.8983721 31.9586386,85.8791225 C31.9649047,85.836302 31.9715625,85.7938744 31.977437,85.7510538 C32.274295,83.6277066 32.5703696,81.5043594 32.8676192,79.3810121 C32.8887674,79.2297654 32.9161817,79.0820543 32.9408546,78.9327718" id="Fill-129" fill="#FEFEFE"></path>
                        <path d="M31.2001626,85.4404677 C31.2890634,84.8075884 31.3779641,84.1747091 31.4660816,83.5418299 C31.6838296,81.9857562 31.9007944,80.4292896 32.1189341,78.8732159 C32.1365576,78.7451472 32.1608388,78.6206142 32.1823787,78.4941169 C32.2121428,78.5114023 32.2419069,78.5286876 32.271671,78.5455801 C31.9477904,80.8633874 31.6243014,83.1808019 31.3004207,85.4986093 C31.2671319,85.4793597 31.2334514,85.4597172 31.2001626,85.4404677" id="Fill-131" fill="#FEFEFE"></path>
                        <path d="M27.6532975,75.8751911 C27.6082597,76.2228622 27.566355,76.5724975 27.5181841,76.9185972 C27.2499153,78.8478772 26.9796884,80.7763715 26.7106364,82.7052586 C26.7043703,82.7480791 26.6992791,82.7912924 26.6934046,82.8345058 C26.6601158,82.8152562 26.6264353,82.7956138 26.5931465,82.7763642 C26.9166355,80.4589497 27.2405161,78.1411424 27.5640052,75.8237279 C27.5937693,75.8406204 27.6235334,75.8579057 27.6532975,75.8751911" id="Fill-133" fill="#FEFEFE"></path>
                        <path d="M34.9599195,80.1003181 C34.6364305,82.4181255 34.3125499,84.7355399 33.9890609,87.0529544 C33.9592967,87.0360619 33.9295326,87.0187766 33.8997685,87.0014913 C34.1143835,85.4654528 34.3293901,83.9294144 34.5440051,82.393376 C34.6532707,81.6119999 34.7617531,80.830231 34.8706272,80.0488549 C34.9003913,80.0657474 34.9301554,80.0830328 34.9599195,80.1003181" id="Fill-135" fill="#FEFEFE"></path>
                        <path d="M33.1974135,79.0811507 C32.8739245,81.3985652 32.5500439,83.7163726 32.2265549,86.0337871 C32.1967908,86.0168946 32.1670266,85.9996092 32.1372625,85.9823239 C32.1435286,85.9395034 32.1501864,85.8970757 32.1560609,85.8542552 C32.4117974,84.0247588 32.6671422,82.1948695 32.922487,80.3653731 C32.9847567,79.9202756 33.0462431,79.4747851 33.1081212,79.0296876 C33.1378853,79.04658 33.1676494,79.0638654 33.1974135,79.0811507" id="Fill-137" fill="#FEFEFE"></path>
                        <path d="M32.4388592,78.6424959 C32.1153702,80.9599104 31.7914896,83.2777177 31.4680006,85.5951322 C31.4382364,85.5782397 31.4084723,85.5609544 31.3787082,85.543669 C31.3841911,85.5114554 31.3908488,85.4800275 31.3955484,85.4470282 C31.7100299,83.1952195 32.0245113,80.9430179 32.3389928,78.6912091 C32.3436924,78.6582098 32.3460422,78.6244248 32.3495669,78.5910327 C32.379331,78.6079252 32.4090951,78.6252105 32.4388592,78.6424959" id="Fill-139" fill="#FEFEFE"></path>
                        <path d="M34.3687101,79.7584612 C34.3651854,79.7918533 34.3628356,79.8256383 34.358136,79.8586376 C34.0440462,82.1108392 33.7291731,84.362648 33.4146916,86.6148496 C33.409992,86.647456 33.4033343,86.6792768 33.3978514,86.7110975 C33.3680873,86.694205 33.3383232,86.6769197 33.308559,86.6596343 C33.3140419,86.6274207 33.3206997,86.5959928 33.3253993,86.5629935 C33.6398807,84.3111848 33.9543622,82.0589832 34.2688436,79.8071744 C34.2735432,79.7741751 34.275893,79.7403901 34.2794177,79.706998 C34.3091818,79.7238905 34.3389459,79.7411758 34.3687101,79.7584612" id="Fill-141" fill="#FEFEFE"></path>
                        <path d="M33.2303891,86.614496 C33.2006249,86.5972107 33.1708608,86.5799253 33.1410967,86.5630328 C33.1469712,86.5308192 33.1532373,86.4989985 33.1579369,86.466392 C33.47281,84.2145833 33.7872914,81.9623817 34.1013813,79.7101801 C34.1060809,79.6775736 34.1084307,79.6433958 34.1119554,79.6100037 C34.1417195,79.627289 34.1714836,79.6445743 34.2012477,79.6618597 C33.8777587,81.9792742 33.5538781,84.2966887 33.2303891,86.614496" id="Fill-143" fill="#FEFEFE"></path>
                        <path d="M35.0821482,87.6852837 C35.4056373,85.3678692 35.7295179,83.0500619 36.0530069,80.7326474 C36.082771,80.7495399 36.1125352,80.7668252 36.1422993,80.7841106 C35.8188103,83.1015251 35.4949296,85.4193324 35.1714406,87.7367469 C35.1416765,87.7198544 35.1119124,87.7025691 35.0821482,87.6852837" id="Fill-145" fill="#FEFEFE"></path>
                        <path d="M26.4257233,82.6796448 C26.429248,82.6462527 26.4315978,82.6120749 26.4362974,82.5794684 C26.7503872,80.3272668 27.0652603,78.0750652 27.3797417,75.8232565 C27.3844413,75.79065 27.3910991,75.7588293 27.396582,75.7266157 C27.4263461,75.743901 27.4561102,75.7611864 27.4858743,75.7784717 C27.4803915,75.8106853 27.4737337,75.8421132 27.4690341,75.8751125 C27.1545527,78.1269212 26.8400712,80.3791228 26.5255898,82.6309316 C26.5208902,82.6639309 26.5185404,82.6977159 26.5150157,82.731108 C26.4852515,82.7138227 26.4554874,82.6969302 26.4257233,82.6796448" id="Fill-147" fill="#FEFEFE"></path>
                        <path d="M28.824594,76.5525015 C28.5007134,78.869916 28.1772244,81.1877233 27.8537354,83.5051378 C27.8239713,83.4882453 27.7942071,83.47096 27.764443,83.4536746 C27.7699259,83.421461 27.7765836,83.3900331 27.7812832,83.3570339 C28.0957647,81.1052251 28.4102461,78.8530235 28.7247276,76.6012147 C28.7294272,76.5682154 28.731777,76.5344305 28.7353017,76.5010383 C28.7650658,76.5179308 28.7948299,76.5352162 28.824594,76.5525015" id="Fill-149" fill="#FEFEFE"></path>
                        <path d="M28.6121722,83.9439498 C28.5824081,83.9266645 28.552644,83.9093791 28.5228798,83.8924866 C28.5283627,83.860273 28.5350205,83.8284523 28.5397201,83.7958459 C28.8545932,81.5436442 29.1690746,79.2918355 29.4831644,77.0396339 C29.487864,77.0070274 29.4906054,76.9728496 29.4937385,76.9394575 C29.5235026,76.9567428 29.5532668,76.9740282 29.5830309,76.9913135 C29.5767647,77.0337412 29.570107,77.0761688 29.5642325,77.1189893 C29.3088876,78.9488786 29.0531512,80.778375 28.7978063,82.6082642 C28.7355367,83.0533618 28.6740503,83.4988522 28.6121722,83.9439498" id="Fill-151" fill="#FEFEFE"></path>
                        <path d="M30.1743578,77.3330133 C30.1066053,77.8280027 30.0392444,78.3237777 29.9703169,78.8183742 C29.7216299,80.6023002 29.4721595,82.3858333 29.2230808,84.1697592 C29.217598,84.2090441 29.2101569,84.2471504 29.2034992,84.2856496 C29.173735,84.2687571 29.1439709,84.2514718 29.1142068,84.2341864 C29.4376958,81.9167719 29.7615764,79.5989646 30.0850655,77.2815501 C30.1148296,77.2984426 30.1445937,77.315728 30.1743578,77.3330133" id="Fill-153" fill="#FEFEFE"></path>
                        <path d="M25.87963,74.8495417 C25.9093941,74.866827 25.9391582,74.8841123 25.9689224,74.9010048 C25.6450417,77.2188122 25.3215527,79.5362267 24.9976721,81.854034 C24.9682996,81.8367487 24.9385354,81.8194633 24.9087713,81.802178 C24.9142542,81.7703572 24.920912,81.7385365 24.9256115,81.70593 C25.240093,79.4537284 25.5545744,77.2019197 25.8690559,74.9497181 C25.8733639,74.9167188 25.8761053,74.8829338 25.87963,74.8495417" id="Fill-155" fill="#FEFEFE"></path>
                        <path d="M31.6022133,78.1587027 C31.5967304,78.1909163 31.5900726,78.2223442 31.585373,78.2553435 C31.2708916,80.5071522 30.9564101,82.7593538 30.6419287,85.0111626 C30.6372291,85.0441619 30.6348793,85.0779469 30.6313546,85.111339 C30.6015905,85.0944465 30.5718263,85.0771612 30.5420622,85.0598758 C30.8655512,82.7424613 31.1894319,80.424654 31.5129209,78.1072395 C31.542685,78.124132 31.5724491,78.1414174 31.6022133,78.1587027" id="Fill-157" fill="#1D1C1B"></path>
                        <path d="M25.87963,74.8495417 C25.8761053,74.8829338 25.8733639,74.9167188 25.8690559,74.9497181 C25.5545744,77.2019197 25.240093,79.4537284 24.9256115,81.70593 C24.920912,81.7385365 24.9142542,81.7703572 24.9087713,81.802178 C24.8825319,81.7872497 24.8566841,81.7723215 24.8304447,81.7570004 C24.8363192,81.7141799 24.8414104,81.6709665 24.8476765,81.628146 C25.1030214,79.7982568 25.3583662,77.9687604 25.6141027,76.1388711 C25.6763724,75.6937735 25.7390337,75.2494616 25.801695,74.8043641 C25.8275428,74.8192923 25.8537822,74.8346134 25.87963,74.8495417" id="Fill-159" fill="#1D1C1B"></path>
                        <path d="M34.8707055,80.0487371 C34.7618315,80.8301132 34.6533491,81.6118821 34.5440834,82.3932581 C34.3294684,83.9292966 34.1144618,85.465335 33.8998468,87.0013734 C33.8736074,86.9864452 33.8477596,86.9715169 33.8215202,86.9561958 C33.8833982,86.5110982 33.9448846,86.0656078 34.0071543,85.6209031 C34.2624991,83.7910138 34.5182356,81.9611246 34.7735805,80.1316282 C34.7798466,80.0888077 34.7865044,80.04638 34.7927705,80.0035595 C34.8186183,80.0184877 34.8448577,80.0338088 34.8707055,80.0487371" id="Fill-161" fill="#1D1C1B"></path>
                        <path d="M26.5149765,82.7312259 C26.5185012,82.6978337 26.5212426,82.6636559 26.5255506,82.6310495 C26.840032,80.3788478 27.1545135,78.1270391 27.4689949,75.8748375 C27.4736945,75.842231 27.4803523,75.8104103 27.4858352,75.7785896 C27.5120746,75.7935178 27.5379224,75.8084461 27.5641618,75.8237672 C27.2402812,78.1411816 26.9167922,80.4585961 26.5929115,82.7764035 C26.5670637,82.7614752 26.5408243,82.7461541 26.5149765,82.7312259" id="Fill-163" fill="#1D1C1B"></path>
                        <path d="M33.2303891,86.614496 C33.5538781,84.2966887 33.8777587,81.9792742 34.2012477,79.6618597 C34.2274871,79.6767879 34.2533349,79.6917162 34.2795744,79.7066444 C34.2760497,79.7404294 34.2733082,79.7742144 34.2690003,79.8068209 C33.9545188,82.0590225 33.6400374,84.3112241 33.3251643,86.5630328 C33.3208563,86.5960321 33.3141986,86.62746 33.3083241,86.6596736 C33.2824763,86.6447454 33.2562368,86.6294243 33.2303891,86.614496" id="Fill-165" fill="#1D1C1B"></path>
                        <path d="M32.349606,78.5908756 C32.3460813,78.6242677 32.3437315,78.6584455 32.3390319,78.691052 C32.0245505,80.9432536 31.710069,83.1950623 31.3955876,85.4472639 C31.390888,85.4798704 31.3842302,85.5116911 31.3787474,85.5435119 C31.3525079,85.5285836 31.3266601,85.5136554 31.3004207,85.4987271 C31.6243014,83.1809198 31.9477904,80.8635053 32.271671,78.545698 C32.2975188,78.5606262 32.3237582,78.5759473 32.349606,78.5908756" id="Fill-167" fill="#1D1C1B"></path>
                        <path d="M34.1121512,79.6100822 C34.1086265,79.6434744 34.105885,79.6772594 34.1015771,79.7102586 C33.7870956,81.9624603 33.4726142,84.214269 33.1581327,86.4664706 C33.1534331,86.4990771 33.1467754,86.5308978 33.1412925,86.5627185 C33.1150531,86.5477903 33.0892053,86.532862 33.0629659,86.5175409 C33.3868465,84.2001265 33.7103355,81.882712 34.0342162,79.5649046 C34.060064,79.5798329 34.0863034,79.595154 34.1121512,79.6100822" id="Fill-169" fill="#1D1C1B"></path>
                        <path d="M29.4938952,76.939536 C29.4903705,76.9729282 29.4880207,77.0067132 29.4833211,77.0397125 C29.1688396,79.2919141 28.8543582,81.5437228 28.5398767,83.7959244 C28.5351771,83.8285309 28.5285194,83.8603516 28.5230365,83.8921724 C28.4967971,83.8772441 28.4709493,83.8623159 28.4447099,83.8469948 C28.4513676,83.8084956 28.4588087,83.7703893 28.4642915,83.7307115 C28.7631076,81.5944003 29.0615321,79.4576962 29.359565,77.3209921 C29.3795383,77.1795666 29.3971618,77.0365697 29.4159602,76.8943584 C29.4418079,76.9092867 29.4680474,76.9246078 29.4938952,76.939536" id="Fill-171" fill="#1D1C1B"></path>
                        <path d="M28.6121722,83.9439498 C28.6740503,83.4988522 28.7355367,83.0533618 28.7978063,82.6082642 C29.0531512,80.778375 29.3088876,78.9488786 29.5642325,77.1189893 C29.570107,77.0761688 29.5767647,77.0337412 29.5830309,76.9913135 C29.6092703,77.0062417 29.6351181,77.02117 29.6613575,77.0360982 C29.6253273,77.3004854 29.5908635,77.5652654 29.55405,77.8288669 C29.2661996,79.8822871 28.9783492,81.9357073 28.6901072,83.9891274 C28.6642594,83.9741992 28.63802,83.9588781 28.6121722,83.9439498" id="Fill-173" fill="#1D1C1B"></path>
                        <path d="M33.1081603,79.0295304 C33.0462823,79.474628 32.9847959,79.9201184 32.9225262,80.365216 C32.6671814,82.1951053 32.4114449,84.0246017 32.1561001,85.8544909 C32.1502256,85.8973114 32.1435678,85.9397391 32.1373017,85.9821667 C32.1110622,85.9672385 32.0852145,85.9523102 32.058975,85.9369891 C32.1678491,85.1556131 32.2763315,84.3738441 32.3855971,83.5928609 C32.6002121,82.0564297 32.8152187,80.5203912 33.0302253,78.9843528 C33.0560731,78.9992811 33.0823125,79.0146022 33.1081603,79.0295304" id="Fill-175" fill="#1D1C1B"></path>
                        <path d="M24.9978679,81.8539554 C25.3217485,79.5365409 25.6452375,77.2187336 25.9687265,74.9013191 C25.994966,74.9162474 26.0208138,74.9311756 26.0470532,74.9464967 C26.0435285,74.9798889 26.040787,75.0136738 26.0364791,75.0466731 C25.7219976,77.2984819 25.4075162,79.5506835 25.0926431,81.8024923 C25.0883351,81.8354915 25.0816774,81.8669194 25.0758029,81.899133 C25.0499551,81.8842048 25.0237157,81.8688837 24.9978679,81.8539554" id="Fill-177" fill="#1D1C1B"></path>
                        <path d="M32.9408546,78.9327718 C32.9161817,79.0820543 32.8887674,79.2297654 32.8676192,79.3810121 C32.5703696,81.5043594 32.274295,83.6277066 31.977437,85.7510538 C31.9715625,85.7938744 31.9649047,85.836302 31.9586386,85.8791225 C31.9363155,85.8661585 31.9139924,85.8531945 31.8916693,85.8406233 C31.895194,85.8068384 31.8979355,85.7730534 31.9022434,85.7404469 C32.2167249,83.4882453 32.5312063,81.2360437 32.8456878,78.984235 C32.8503874,78.9512357 32.8570451,78.9198078 32.8629196,78.8875942 C32.8887674,78.9025224 32.9150068,78.9178435 32.9408546,78.9327718" id="Fill-179" fill="#1D1C1B"></path>
                        <path d="M28.7353408,76.5009205 C28.7318161,76.5343126 28.7294663,76.5680976 28.7247668,76.6010969 C28.4102853,78.8532985 28.0958039,81.1051072 27.7813224,83.3573088 C27.7766228,83.3899153 27.769965,83.421736 27.7644822,83.4535568 C27.7421591,83.4405928 27.719836,83.4280216 27.6975129,83.4150576 C27.8428088,82.37283 27.9881047,81.3306024 28.133009,80.2883748 C28.3045443,79.054437 28.4760797,77.8208921 28.6472234,76.5869543 C28.6530979,76.5445267 28.6538811,76.4993491 28.6574058,76.4557429 C28.6832536,76.4706711 28.7094931,76.4859922 28.7353408,76.5009205" id="Fill-181" fill="#1D1C1B"></path>
                        <path d="M25.1763743,81.9571568 C25.1834237,81.915122 25.1912563,81.87348 25.1975225,81.8310524 C25.4560004,79.9811278 25.713695,78.1312033 25.9729562,76.2816716 C26.0324844,75.8566093 26.0967123,75.434297 26.1585903,75.0108061 C26.1769971,75.021413 26.1957955,75.0324127 26.2142022,75.0430196 C26.2106775,75.0764118 26.2083277,75.1105896 26.2036281,75.1431961 C25.8891467,77.3953977 25.5746652,79.6472064 25.2601838,81.899408 C25.2554842,81.9320145 25.2488264,81.9638352 25.2433436,81.995656 C25.2210205,81.9830848 25.1986974,81.9701208 25.1763743,81.9571568" id="Fill-183" fill="#1D1C1B"></path>
                        <path d="M35.4395918,80.3777086 C35.1235439,82.6499455 34.8071043,84.9221824 34.4910563,87.1944193 C34.4847901,87.2403826 34.4761742,87.2851673 34.4687332,87.3303449 C34.4499348,87.319738 34.431528,87.3091311 34.4127296,87.2981313 C34.4162543,87.2647392 34.4189958,87.2309542 34.4233037,87.1979549 C34.7377852,84.9461461 35.0522666,82.6939445 35.3671397,80.4421358 C35.3714477,80.4091365 35.3781054,80.3777086 35.3839799,80.345495 C35.4023867,80.3561019 35.4211851,80.3671017 35.4395918,80.3777086" id="Fill-185" fill="#1D1C1B"></path>
                        <path d="M26.5043241,75.210766 C26.4988412,75.2429796 26.4921835,75.2744075 26.4874839,75.3074068 C26.1730024,77.5592156 25.8581293,79.8114172 25.5440395,82.0632259 C25.5393399,82.0962252 25.5369901,82.1300102 25.5334654,82.1634024 C25.514667,82.1527954 25.4962603,82.1421885 25.4774619,82.1311888 C25.4809866,82.0977966 25.483728,82.0640116 25.488036,82.0310123 C25.8025174,79.7792036 26.1169989,77.527002 26.4314803,75.2751932 C26.4361799,75.2421939 26.4428377,75.210766 26.4487122,75.1785524 C26.4671189,75.1891594 26.4855257,75.2001591 26.5043241,75.210766" id="Fill-187" fill="#1D1C1B"></path>
                        <path d="M26.6716298,75.3075247 C26.6661469,75.3397383 26.6594891,75.3711662 26.6547896,75.4041655 C26.3403081,77.6559742 26.0258267,79.9081758 25.7113452,82.1603774 C25.7066456,82.1929839 25.7042958,82.2267689 25.7007711,82.260161 C25.6819727,82.2495541 25.663566,82.2389472 25.6447676,82.2279474 C25.6482923,82.1945553 25.6510337,82.1607703 25.6553417,82.127771 C25.9698231,79.8759622 26.2843046,77.6237606 26.5991776,75.3719519 C26.6034856,75.3389526 26.6101434,75.3075247 26.6160179,75.2753111 C26.6344246,75.285918 26.653223,75.2969178 26.6716298,75.3075247" id="Fill-189" fill="#1D1C1B"></path>
                        <path d="M26.9834873,83.0021736 C27.3069763,80.6843663 27.6308569,78.3669518 27.9543459,76.0491445 C27.9731443,76.0601442 27.9915511,76.0707511 28.0103495,76.0817509 C27.9484715,76.5268485 27.886985,76.9723389 27.8247154,77.4174365 C27.5693705,79.2469329 27.3136341,81.0768221 27.0582892,82.9063185 C27.0520231,82.949139 27.0453653,82.9915667 27.0390992,83.0343872 C27.0206924,83.0237803 27.001894,83.0127805 26.9834873,83.0021736" id="Fill-191" fill="#1D1C1B"></path>
                        <path d="M28.1659454,83.6859268 C28.1694701,83.6525346 28.1718199,83.6187497 28.1765195,83.5857504 C28.4910009,81.3335488 28.8054823,79.08174 29.1199638,76.8295384 C29.1246634,76.796932 29.1313212,76.7651112 29.136804,76.7332905 C29.1556024,76.7438974 29.1740092,76.7545043 29.1928076,76.7655041 C29.1869331,76.7973248 29.1802753,76.8291456 29.1759673,76.861752 C28.8610943,79.1139536 28.5466128,81.3657624 28.232523,83.617964 C28.2278234,83.6509633 28.225082,83.6847482 28.2215573,83.7181404 C28.2031505,83.7075335 28.1847438,83.6965337 28.1659454,83.6859268" id="Fill-193" fill="#1D1C1B"></path>
                        <path d="M30.9552352,77.7845536 C30.6313546,80.1019681 30.3078656,82.4197754 29.9843766,84.7371899 C29.9655782,84.726583 29.9471714,84.7159761 29.928373,84.7049763 C29.9902511,84.2598787 30.0517375,83.8143883 30.1140071,83.3692907 C30.369352,81.5397943 30.6250885,79.7099051 30.8804333,77.8804087 C30.8866994,77.8375882 30.8929656,77.7947677 30.8996233,77.75234 C30.9180301,77.7629469 30.9364368,77.7739467 30.9552352,77.7845536" id="Fill-195" fill="#1D1C1B"></path>
                        <path d="M30.0957962,84.8018528 C30.1576742,84.3567552 30.2191607,83.9112648 30.2814303,83.4661672 C30.5367752,81.636278 30.7925116,79.8067816 31.0478565,77.9768923 C31.053731,77.9340718 31.0603887,77.8916442 31.0666549,77.8492165 C31.0854533,77.8598234 31.10386,77.8704303 31.1226584,77.8814301 C30.7987778,80.1988446 30.4752888,82.5166519 30.1514081,84.8340664 C30.1330014,84.8234595 30.1145946,84.8124597 30.0957962,84.8018528" id="Fill-197" fill="#1D1C1B"></path>
                        <path d="M30.2631411,84.8986114 C30.5866301,82.581197 30.9105107,80.2633896 31.2339997,77.9459751 C31.2527981,77.956582 31.2712049,77.967189 31.2900033,77.9781887 C31.2281252,78.4232863 31.1662472,78.8687767 31.1043691,79.3138743 C30.8490243,81.1433707 30.5932878,82.97326 30.3375514,84.8027564 C30.3316769,84.8455769 30.3250191,84.8883974 30.318753,84.930825 C30.3003462,84.9202181 30.2815478,84.9092184 30.2631411,84.8986114" id="Fill-199" fill="#1D1C1B"></path>
                        <path d="M31.8810952,78.3199671 C31.5576062,80.6373816 31.2337256,82.9551889 30.9102366,85.2726034 C30.8914382,85.2619965 30.8730314,85.2513896 30.854233,85.2403898 C30.9161111,84.7952922 30.9775975,84.3498018 31.0398672,83.9047042 C31.295212,82.0752078 31.5509485,80.2453186 31.8062933,78.4158222 C31.8125594,78.3730017 31.8188256,78.3301812 31.8254833,78.2877535 C31.8438901,78.2983604 31.8626885,78.3093602 31.8810952,78.3199671" id="Fill-201" fill="#1D1C1B"></path>
                        <path d="M25.8015383,74.8044033 C25.738877,75.2491081 25.6762157,75.6938128 25.6143377,76.1389104 C25.3586012,77.9687996 25.1028647,79.798296 24.8475199,81.6281853 C24.8416454,81.6710058 24.8361625,81.7142192 24.8306797,81.7570397 C24.8236303,81.7495755 24.8107064,81.74054 24.8107064,81.7346473 C24.811098,81.7110764 24.8161892,81.6882911 24.8193223,81.6651131 C25.1357619,79.4003403 25.4518099,77.1355675 25.7694244,74.8711876 C25.7729491,74.8464382 25.758067,74.7725826 25.8015383,74.8044033" id="Fill-203" fill="#FEFEFE"></path>
                        <g id="Group-209" transform="translate(0.000000, 0.000000)">
                            <mask id="mask-2" fill="white">
                                <use xlink:href="#path-1"></use>
                            </mask>
                            <g id="Clip-208"></g>
                            <path d="M0.426057742,73.9499181 L37.4667244,95.4014215 L64.5266193,79.7299011 L61.6022943,63.6561036 L61.6030776,63.6344969 L63.1515952,22.2753856 L26.1144532,0.825453692 L17.0959243,7.90694438 L2.1249625,14.542159 L3.48471292,53.0448673 L0.426057742,73.9499181 Z M37.4667244,95.8551617 L37.3688161,95.7981987 L-3.91633187e-05,74.1569494 L3.0950379,53.0232607 L1.72432175,14.2907358 L16.9153814,7.55770189 L26.0811644,0.352856704 L63.5514527,22.0534261 L63.5471447,22.1716736 L61.995494,63.6278185 L64.9621154,79.9318253 L64.8422756,80.0005738 L37.4667244,95.8551617 Z" id="Fill-207" fill="#654322" mask="url(#mask-2)"></path>
                        </g>
                    </g>
                </g>
            </g>
        </g>
    </g>
</svg>