<?xml version="1.0" encoding="utf-8"?>
<!-- Generator: Adobe Illustrator 18.0.0, SVG Export Plug-In . SVG Version: 6.00 Build 0)  -->
<!DOCTYPE svg PUBLIC "-//W3C//DTD SVG 1.1 Tiny//EN" "http://www.w3.org/Graphics/SVG/1.1/DTD/svg11-tiny.dtd">
<svg version="1.1" baseProfile="tiny" xmlns="http://www.w3.org/2000/svg" xmlns:xlink="http://www.w3.org/1999/xlink" x="0px"
	 y="0px" viewBox="0 0 169.7 245.7" xml:space="preserve">
<g id="Layer_5" display="none">
	<g display="inline">
		<g>
			<g>
				<g>
					<polygon fill="#7E522F" points="165.6,202.2 158.2,161.5 162.1,55.9 162.1,55.9 67,1 43.8,19.2 5.3,36.2 5.3,36.2 8.8,134.5 
						0.9,188 96,242.9 165.7,202.7 					"/>
				</g>
				<polygon fill="#93653E" points="165.6,202.2 158.2,161.5 162.1,55.9 129.8,68.6 132.2,172.1 				"/>
				<polygon fill="#885B37" points="132.2,172.1 96.3,241 96,242.9 165.7,202.7 165.6,202.2 				"/>
				<polygon fill="#7E5635" points="129.8,68.6 129.6,68.7 100.4,91.1 103.9,188.6 96.3,241 132.2,172.1 				"/>
				<path fill="#654322" d="M162.1,55.9L67,1v70.8c28.8,16.6,33.4,19.3,33.4,19.3l29.2-22.4L162.1,55.9z"/>
				<path fill="#513217" d="M67,1L43.8,19.2v39.3c7.4,4.3,15.3,8.8,23.2,13.4V1z"/>
				<path fill="#412A18" d="M5.3,36.2c0,0,17.1,9.9,38.5,22.2V19.2L5.3,36.2z"/>
				<polygon fill="#CA9E67" points="100.4,91.1 5.3,36.2 8.8,134.5 103.9,188.6 				"/>
				<polygon fill="#D5A86F" points="96,242.9 103.9,188.6 8.8,134.5 0.9,188 				"/>
				<path fill="#FFFFFF" d="M61.8,206.8l3.1-22.3c0.2-1.2,1-1.7,1.9-1.2l26.9,15.5c0.9,0.5,1.5,1.9,1.3,3l-3.1,22.3
					c-0.2,1.2-1,1.7-1.9,1.2l-26.9-15.5C62.2,209.3,61.7,207.9,61.8,206.8z"/>
				<text transform="matrix(0.7439 0.4288 -0.1387 0.9903 67.5535 188.7578)" font-family="'Arial-BoldMT'" font-size="3.8862">sp0000000000000</text>
				<g>
					<g>
						<path fill="#FFFFFF" d="M67.3,190.5c0.2,0.1,0.4,0.2,0.6,0.3c0,0.1,0,0.2,0,0.2c-0.8,5.7-1.6,11.5-2.4,17.2c0,0.1,0,0.2,0,0.3
							c-0.2-0.1-0.4-0.2-0.6-0.3c0-0.1,0-0.2,0-0.2c0.8-5.7,1.6-11.5,2.4-17.2C67.3,190.7,67.3,190.6,67.3,190.5z"/>
						<path fill="#FFFFFF" d="M71.1,211.8c-0.2-0.1-0.4-0.2-0.6-0.3c0.8-5.9,1.7-11.8,2.5-17.7c0.2,0.1,0.4,0.2,0.6,0.3
							c0,0.1,0,0.2,0,0.3c-0.4,3.1-0.9,6.3-1.3,9.4C71.8,206.5,71.5,209.2,71.1,211.8z"/>
						<path fill="#FFFFFF" d="M78.7,197.1c0.2,0.1,0.4,0.2,0.6,0.3c0,0.1,0,0.2,0,0.3c-0.7,4.7-1.3,9.3-2,14
							c-0.2,1.1-0.3,2.3-0.5,3.4c-0.2-0.1-0.4-0.2-0.6-0.3c0.8-5.6,1.6-11.2,2.4-16.8C78.6,197.7,78.6,197.4,78.7,197.1z"/>
						<path fill="#FFFFFF" d="M86.7,220.8c-0.2-0.1-0.4-0.2-0.6-0.3c0.8-5.9,1.7-11.8,2.5-17.7c0.2,0.1,0.4,0.2,0.6,0.3
							c0,0.1,0,0.2,0,0.3c-0.7,4.7-1.3,9.3-2,14C87,218.6,86.9,219.7,86.7,220.8z"/>
						<path fill="#FFFFFF" d="M70,211.2c-0.2-0.1-0.4-0.2-0.6-0.3c0-0.1,0-0.2,0-0.3c0.7-4.7,1.3-9.3,2-14c0.2-1.1,0.3-2.3,0.5-3.4
							c0.2,0.1,0.4,0.2,0.6,0.3c0,0.1,0,0.2,0,0.3c-0.8,5.7-1.6,11.5-2.4,17.2C70,211,70,211.1,70,211.2z"/>
						<path fill="#FFFFFF" d="M69.2,191.6c0.2,0.1,0.4,0.2,0.6,0.3c0,0.1,0,0.2,0,0.3c-0.8,5.7-1.6,11.5-2.4,17.2c0,0.1,0,0.2,0,0.2
							c-0.2-0.1-0.4-0.2-0.6-0.3c0-0.1,0-0.2,0-0.2c0.8-5.7,1.6-11.5,2.4-17.2C69.2,191.8,69.2,191.7,69.2,191.6z"/>
						<path fill="#FFFFFF" d="M76.1,195.6c0.2,0.1,0.4,0.2,0.6,0.3c0,0.1,0,0.2,0,0.3c-0.8,5.7-1.6,11.5-2.4,17.2c0,0.1,0,0.2,0,0.2
							c-0.2-0.1-0.4-0.2-0.6-0.3c0.7-5.2,1.5-10.5,2.2-15.7C75.9,196.9,76,196.3,76.1,195.6z"/>
						<path fill="#FFFFFF" d="M83.7,200c0.2,0.1,0.4,0.2,0.6,0.3c0,0.1,0,0.2,0,0.2c-0.8,5.7-1.6,11.5-2.4,17.2c0,0.1,0,0.2,0,0.3
							c-0.2-0.1-0.4-0.2-0.6-0.3c0-0.1,0-0.2,0-0.3c0.8-5.7,1.6-11.5,2.4-17.2C83.7,200.1,83.7,200.1,83.7,200z"/>
						<path fill="#FFFFFF" d="M88.2,221.7c-0.2-0.1-0.4-0.2-0.6-0.3c0-0.1,0-0.2,0-0.3c0.8-5.7,1.6-11.5,2.4-17.2c0-0.1,0-0.2,0-0.2
							c0.2,0.1,0.4,0.2,0.6,0.3c0,0.1,0,0.2,0,0.2c-0.8,5.7-1.6,11.5-2.4,17.2C88.2,221.5,88.2,221.6,88.2,221.7z"/>
						<path fill="#FFFFFF" d="M85.6,201.1c0.2,0.1,0.4,0.2,0.6,0.3c0,0.1,0,0.2,0,0.3c-0.8,5.7-1.6,11.5-2.4,17.2c0,0.1,0,0.2,0,0.2
							c-0.2-0.1-0.4-0.2-0.6-0.3c0-0.1,0-0.2,0-0.2c0.8-5.7,1.6-11.5,2.4-17.2C85.6,201.3,85.6,201.2,85.6,201.1z"/>
						<path fill="#FFFFFF" d="M80.3,198c0.2,0.1,0.4,0.2,0.6,0.3c-0.8,5.9-1.7,11.8-2.5,17.7c-0.2-0.1-0.4-0.2-0.6-0.3
							c0-0.1,0-0.2,0-0.3c0.7-4.7,1.3-9.3,2-14C79.9,200.3,80.1,199.1,80.3,198z"/>
						<path fill="#FFFFFF" d="M86.7,201.7c0.2,0.1,0.4,0.2,0.6,0.3c-0.8,5.9-1.7,11.8-2.5,17.7c-0.2-0.1-0.4-0.2-0.6-0.3
							c0-0.1,0-0.2,0-0.3c0.7-4.7,1.3-9.3,2-14C86.4,204,86.5,202.8,86.7,201.7z"/>
						<path fill="#FFFFFF" d="M81.1,198.5c0.2,0.1,0.4,0.2,0.6,0.3c0,0.1,0,0.2,0,0.3c-0.7,4.7-1.3,9.3-2,14
							c-0.2,1.1-0.3,2.3-0.5,3.4c-0.2-0.1-0.4-0.2-0.6-0.3c0-0.1,0-0.2,0-0.3c0.8-5.7,1.6-11.5,2.4-17.2
							C81,198.6,81,198.5,81.1,198.5z"/>
						<path fill="#FFFFFF" d="M73,212.9c-0.2-0.1-0.4-0.2-0.6-0.3c0-0.1,0-0.2,0-0.3c0.8-5.7,1.6-11.5,2.4-17.2c0-0.1,0-0.2,0-0.2
							c0.2,0.1,0.4,0.2,0.6,0.3c0,0.4-0.1,0.7-0.1,1.1c-0.8,5.4-1.5,10.9-2.3,16.3C73,212.7,73,212.8,73,212.9z"/>
						<path d="M70,211.2c0-0.1,0-0.2,0-0.2c0.8-5.7,1.6-11.5,2.4-17.2c0-0.1,0-0.2,0-0.3c0.2,0.1,0.3,0.2,0.5,0.3
							c-0.8,5.9-1.7,11.8-2.5,17.7C70.3,211.4,70.1,211.3,70,211.2z"/>
						<path d="M86.7,201.7c-0.2,1.1-0.3,2.3-0.5,3.4c-0.7,4.7-1.3,9.3-2,14c0,0.1,0,0.2,0,0.3c-0.2-0.1-0.3-0.2-0.5-0.3
							c0-0.1,0-0.2,0-0.2c0.8-5.7,1.6-11.5,2.4-17.2c0-0.1,0-0.2,0-0.3C86.4,201.5,86.5,201.6,86.7,201.7z"/>
						<path d="M88.6,202.8c-0.8,5.9-1.7,11.8-2.5,17.7c-0.2-0.1-0.3-0.2-0.5-0.3c0-0.1,0-0.2,0-0.2c0.8-5.7,1.6-11.5,2.4-17.2
							c0-0.1,0-0.2,0-0.3C88.3,202.6,88.5,202.7,88.6,202.8z"/>
						<path d="M74.2,213.6c0-0.1,0-0.2,0-0.2c0.8-5.7,1.6-11.5,2.4-17.2c0-0.1,0-0.2,0-0.3c0.2,0.1,0.3,0.2,0.5,0.3
							c-0.8,5.9-1.7,11.8-2.5,17.7C74.5,213.8,74.4,213.7,74.2,213.6z"/>
						<path d="M67.3,209.7c0-0.1,0-0.2,0-0.2c0.8-5.7,1.6-11.5,2.4-17.2c0-0.1,0-0.2,0-0.3c0.2,0.1,0.3,0.2,0.5,0.3
							c0,0.1,0,0.2,0,0.2c-0.8,5.7-1.6,11.5-2.4,17.2c0,0.1,0,0.2,0,0.3C67.7,209.9,67.5,209.8,67.3,209.7z"/>
						<path d="M90.1,203.7c0,0.1,0,0.2,0,0.2c-0.8,5.7-1.6,11.5-2.4,17.2c0,0.1,0,0.2,0,0.3c-0.2-0.1-0.3-0.2-0.5-0.3
							c0.8-5.9,1.7-11.8,2.5-17.7C89.8,203.5,90,203.6,90.1,203.7z"/>
						<path d="M83.7,200c0,0.1,0,0.2,0,0.2c-0.8,5.7-1.6,11.5-2.4,17.2c0,0.1,0,0.2,0,0.3c-0.2-0.1-0.3-0.2-0.5-0.3
							c0.8-5.9,1.7-11.8,2.5-17.7C83.4,199.8,83.5,199.9,83.7,200z"/>
						<path d="M78.7,197.1c-0.1,0.3-0.1,0.6-0.2,0.9c-0.8,5.6-1.6,11.2-2.4,16.8c-0.2-0.1-0.3-0.2-0.5-0.3c0-0.1,0-0.2,0-0.2
							c0.8-5.7,1.6-11.5,2.4-17.2c0-0.1,0-0.2,0-0.3C78.4,196.9,78.5,197,78.7,197.1z"/>
						<path d="M77.4,196.4c0.2,0.1,0.3,0.2,0.5,0.3c-0.8,5.9-1.7,11.8-2.5,17.7c-0.2-0.1-0.3-0.2-0.5-0.3c0-0.1,0-0.2,0.1-0.3
							c0.6-4.5,1.3-9.1,1.9-13.6C77.1,198.9,77.2,197.6,77.4,196.4z"/>
						<path d="M69.2,191.6c0,0.1,0,0.2,0,0.3c-0.8,5.7-1.6,11.5-2.4,17.2c0,0.1,0,0.2,0,0.2c-0.2-0.1-0.3-0.2-0.5-0.3
							c0-0.1,0-0.2,0-0.3c0.6-4.4,1.2-8.8,1.9-13.2c0.2-1.4,0.4-2.8,0.6-4.2C68.9,191.5,69.1,191.5,69.2,191.6z"/>
						<path d="M85.6,201.1c0,0.1,0,0.2,0,0.3c-0.8,5.7-1.6,11.5-2.4,17.2c0,0.1,0,0.2,0,0.2c-0.2-0.1-0.3-0.2-0.5-0.3
							c0.8-5.9,1.7-11.8,2.5-17.7C85.3,200.9,85.5,201,85.6,201.1z"/>
						<path d="M74,194.4c0.2,0.1,0.3,0.2,0.5,0.3c0,0.1,0,0.2,0,0.3c-0.8,5.7-1.6,11.5-2.4,17.2c0,0.1,0,0.2,0,0.2
							c-0.2-0.1-0.3-0.2-0.5-0.3C72.3,206.2,73.1,200.3,74,194.4z"/>
						<path d="M91.1,204.3c0.2,0.1,0.3,0.2,0.5,0.3c-0.5,3.9-1.1,7.9-1.6,11.8c-0.3,2-0.6,3.9-0.8,5.9c-0.2-0.1-0.3-0.2-0.5-0.3
							c0-0.1,0-0.2,0-0.3c0.6-4.4,1.2-8.8,1.9-13.2C90.7,207,90.9,205.7,91.1,204.3z"/>
						<path d="M89.9,222.7c-0.2-0.1-0.3-0.2-0.5-0.3c0-0.1,0-0.2,0-0.3c0.8-5.7,1.6-11.5,2.4-17.2c0-0.1,0-0.2,0-0.2
							c0.2,0.1,0.3,0.2,0.5,0.3C91.6,210.9,90.8,216.8,89.9,222.7z"/>
						<path d="M71,192.6c0.2,0.1,0.3,0.2,0.5,0.3c-0.8,5.9-1.7,11.8-2.5,17.7c-0.2-0.1-0.3-0.2-0.5-0.3c0-0.1,0-0.2,0-0.3
							c0.7-4.9,1.4-9.8,2.1-14.7C70.8,194.4,70.9,193.5,71,192.6z"/>
						<path d="M82.1,199c0.2,0.1,0.3,0.2,0.5,0.3c-0.1,0.3-0.1,0.6-0.2,1c-0.6,4-1.1,7.9-1.7,11.9c-0.2,1.6-0.5,3.2-0.7,4.8
							c-0.2-0.1-0.3-0.2-0.5-0.3C80.4,210.8,81.2,204.9,82.1,199z"/>
						<path fill="#FFFFFF" d="M72,212.3c0-0.1,0-0.2,0-0.2c0.8-5.7,1.6-11.5,2.4-17.2c0-0.1,0-0.2,0-0.3c0.1,0.1,0.2,0.1,0.3,0.2
							c0,0.1,0,0.2,0,0.2c-0.8,5.7-1.6,11.5-2.4,17.2c0,0.1,0,0.2,0,0.3C72.2,212.5,72.1,212.4,72,212.3z"/>
						<path fill="#FFFFFF" d="M91.9,204.7c0,0.1,0,0.2,0,0.2c-0.8,5.7-1.6,11.5-2.4,17.2c0,0.1,0,0.2,0,0.3
							c-0.1-0.1-0.2-0.1-0.3-0.2c0.3-2,0.6-3.9,0.8-5.9c0.5-3.9,1.1-7.9,1.6-11.8C91.7,204.6,91.8,204.7,91.9,204.7z"/>
						<path fill="#FFFFFF" d="M82.1,199c-0.8,5.9-1.7,11.8-2.5,17.7c-0.1-0.1-0.2-0.1-0.3-0.2c0.8-5.9,1.7-11.8,2.5-17.7
							C81.9,198.9,82,199,82.1,199z"/>
						<path fill="#FFFFFF" d="M91.1,204.3c-0.2,1.4-0.4,2.8-0.6,4.2c-0.6,4.4-1.2,8.8-1.9,13.2c0,0.1,0,0.2,0,0.3
							c-0.1-0.1-0.2-0.1-0.3-0.2c0-0.1,0-0.2,0.1-0.3c0.8-5.8,1.6-11.6,2.4-17.4C90.9,204.2,91,204.2,91.1,204.3z"/>
						<path fill="#FFFFFF" d="M79.8,197.7c0.1,0.1,0.2,0.1,0.3,0.2c-0.8,5.9-1.7,11.8-2.5,17.7c-0.1-0.1-0.2-0.1-0.3-0.2
							C78.2,209.5,79,203.6,79.8,197.7z"/>
						<path fill="#FFFFFF" d="M68,190.9c0.1,0.1,0.2,0.1,0.3,0.2c0,0.1,0,0.2,0,0.2c-0.8,5.7-1.6,11.5-2.4,17.2c0,0.1,0,0.2,0,0.3
							c-0.1-0.1-0.2-0.1-0.3-0.2c0-0.1,0-0.2,0-0.3c0.8-5.7,1.6-11.5,2.4-17.2C68,191.1,68,191,68,190.9z"/>
						<path fill="#FFFFFF" d="M77.2,215.4c-0.1-0.1-0.2-0.1-0.3-0.2c0.8-5.9,1.7-11.8,2.5-17.7c0.1,0.1,0.2,0.1,0.3,0.2
							c0,0.1,0,0.2,0,0.3c-0.7,4.7-1.3,9.3-2,14C77.5,213.1,77.4,214.2,77.2,215.4z"/>
						<path fill="#FFFFFF" d="M68.8,191.4c-0.2,1.4-0.4,2.8-0.6,4.2c-0.6,4.4-1.2,8.8-1.9,13.2c0,0.1,0,0.2,0,0.3
							c-0.1-0.1-0.2-0.1-0.3-0.2c0-0.1,0-0.2,0-0.3c0.8-5.7,1.6-11.5,2.4-17.2c0-0.1,0-0.2,0-0.2C68.6,191.3,68.7,191.3,68.8,191.4z
							"/>
						<path fill="#FFFFFF" d="M75.4,214.3c0.8-5.9,1.7-11.8,2.5-17.7c0.1,0.1,0.2,0.1,0.3,0.2c0,0.1,0,0.2,0,0.3
							c-0.8,5.7-1.6,11.5-2.4,17.2c0,0.1,0,0.2,0,0.2C75.6,214.4,75.5,214.4,75.4,214.3z"/>
						<path fill="#FFFFFF" d="M69,210.6c0.8-5.9,1.7-11.8,2.5-17.7c0.1,0.1,0.2,0.1,0.3,0.2c-0.8,5.9-1.7,11.8-2.5,17.7
							C69.2,210.7,69.1,210.7,69,210.6z"/>
						<path fill="#FFFFFF" d="M64.6,208.1c-0.1,0-0.2-0.1-0.3-0.1c0-0.1,0-0.2,0-0.2c0.8-5.7,1.6-11.5,2.4-17.2c0-0.1,0-0.2,0-0.3
							c0.1,0.1,0.2,0.1,0.3,0.2c-0.2,1.1-0.3,2.2-0.5,3.2c-0.7,4.7-1.3,9.4-2,14.1C64.7,207.9,64.7,208,64.6,208.1z"/>
						<path fill="#FFFFFF" d="M84.5,200.4c0.1,0,0.2,0.1,0.2,0.1c-0.5,3.9-1.1,7.8-1.6,11.7c-0.3,2-0.6,4-0.8,6
							c-0.1,0-0.2-0.1-0.3-0.1c0-0.1,0-0.2,0-0.3c0.8-5.4,1.5-10.8,2.3-16.2C84.3,201.2,84.4,200.8,84.5,200.4z"/>
						<path fill="#FFFFFF" d="M80,217c0.2-1.6,0.5-3.2,0.7-4.8c0.6-4,1.1-7.9,1.7-11.9c0-0.3,0.1-0.6,0.2-1c0.1,0,0.2,0.1,0.2,0.1
							c-0.8,5.9-1.7,11.8-2.5,17.7C80.2,217.1,80.1,217,80,217z"/>
						<path fill="#FFFFFF" d="M71,192.6c-0.1,0.9-0.2,1.8-0.3,2.7c-0.7,4.9-1.4,9.8-2.1,14.7c0,0.1,0,0.2,0,0.3
							c-0.1,0-0.2-0.1-0.3-0.1c0.8-5.9,1.7-11.8,2.5-17.7C70.8,192.6,70.9,192.6,71,192.6z"/>
						<path fill="#FFFFFF" d="M89.6,203.4c-0.8,5.9-1.7,11.8-2.5,17.7c-0.1,0-0.2-0.1-0.2-0.1c0.5-3.9,1.1-7.8,1.6-11.7
							c0.3-2,0.6-4,0.8-6C89.5,203.3,89.6,203.4,89.6,203.4z"/>
						<path fill="#FFFFFF" d="M85.1,200.8c-0.8,5.9-1.7,11.8-2.5,17.7c-0.1,0-0.2-0.1-0.2-0.1c0-0.1,0-0.2,0-0.3
							c0.7-4.7,1.3-9.3,2-14c0.2-1.1,0.3-2.3,0.5-3.4C85,200.7,85.1,200.8,85.1,200.8z"/>
						<path fill="#FFFFFF" d="M83.2,199.7c-0.8,5.9-1.7,11.8-2.5,17.7c-0.1,0-0.2-0.1-0.2-0.1c0-0.1,0-0.2,0-0.2
							c0.8-5.7,1.6-11.5,2.4-17.2c0-0.1,0-0.2,0-0.3C83,199.6,83.1,199.6,83.2,199.7z"/>
						<path fill="#FFFFFF" d="M88.1,202.5c0,0.1,0,0.2,0,0.3c-0.8,5.7-1.6,11.5-2.4,17.2c0,0.1,0,0.2,0,0.2c-0.1,0-0.2-0.1-0.2-0.1
							c0-0.1,0-0.2,0-0.2c0.8-5.7,1.6-11.5,2.4-17.2c0-0.1,0-0.2,0-0.3C88,202.4,88,202.5,88.1,202.5z"/>
						<path fill="#FFFFFF" d="M85.2,220c-0.1,0-0.2-0.1-0.2-0.1c0-0.1,0-0.2,0-0.2c0.8-5.7,1.6-11.5,2.4-17.2c0-0.1,0-0.2,0-0.3
							c0.1,0,0.2,0.1,0.2,0.1C86.9,208.2,86,214.1,85.2,220z"/>
						<path fill="#FFFFFF" d="M89.9,222.7c0.8-5.9,1.7-11.8,2.5-17.7c0.1,0,0.2,0.1,0.2,0.1c-0.8,5.9-1.7,11.8-2.5,17.7
							C90.1,222.8,90,222.7,89.9,222.7z"/>
						<path fill="#FFFFFF" d="M67.8,210c0-0.1,0-0.2,0-0.3c0.8-5.7,1.6-11.5,2.4-17.2c0-0.1,0-0.2,0-0.2c0.1,0,0.2,0.1,0.2,0.1
							c0,0.1,0,0.2,0,0.2c-0.8,5.7-1.6,11.5-2.4,17.2c0,0.1,0,0.2,0,0.3C68,210,67.9,210,67.8,210z"/>
						<path fill="#FFFFFF" d="M74,194.4c-0.8,5.9-1.7,11.8-2.5,17.7c-0.1,0-0.2-0.1-0.2-0.1c0-0.1,0-0.2,0-0.2
							c0.8-5.7,1.6-11.5,2.4-17.2c0-0.1,0-0.2,0-0.3C73.8,194.3,73.9,194.3,74,194.4z"/>
						<path fill="#FFFFFF" d="M73.4,213.2c-0.1,0-0.2-0.1-0.2-0.1c0-0.1,0-0.2,0-0.2c0.8-5.7,1.6-11.5,2.4-17.2c0-0.1,0-0.2,0-0.3
							c0.1,0,0.2,0.1,0.2,0.1c0,0.1,0,0.2,0,0.3c-0.7,4.7-1.3,9.3-2,14C73.7,210.9,73.6,212,73.4,213.2z"/>
						<path fill="#FFFFFF" d="M77.4,196.4c-0.2,1.3-0.3,2.5-0.5,3.8c-0.6,4.5-1.3,9.1-1.9,13.6c0,0.1,0,0.2-0.1,0.3
							c-0.1,0-0.2-0.1-0.2-0.1c0.8-5.9,1.7-11.8,2.5-17.7C77.3,196.3,77.3,196.3,77.4,196.4z"/>
						<path fill="#FFFFFF" d="M66.4,190c0.1,0,0.2,0.1,0.2,0.1c-0.8,5.9-1.7,11.8-2.5,17.7c-0.1,0-0.2-0.1-0.2-0.1
							c0-0.1,0-0.2,0-0.2c0.8-5.7,1.6-11.5,2.4-17.2C66.4,190.2,66.4,190.1,66.4,190z"/>
						<path d="M81.1,198.5c0,0.1,0,0.2,0,0.2c-0.8,5.7-1.6,11.5-2.4,17.2c0,0.1,0,0.2,0,0.3c-0.1,0-0.2-0.1-0.2-0.1
							c0.8-5.9,1.7-11.8,2.5-17.7C80.9,198.4,81,198.4,81.1,198.5z"/>
						<path d="M66.4,190c0,0.1,0,0.2,0,0.3c-0.8,5.7-1.6,11.5-2.4,17.2c0,0.1,0,0.2,0,0.2c-0.1,0-0.1-0.1-0.2-0.1c0-0.1,0-0.2,0-0.3
							c0.7-4.7,1.3-9.3,2-14c0.2-1.1,0.3-2.3,0.5-3.4C66.3,190,66.4,190,66.4,190z"/>
						<path d="M89.4,203.3c-0.3,2-0.6,4-0.8,6c-0.5,3.9-1.1,7.8-1.6,11.7c-0.1,0-0.1-0.1-0.2-0.1c0.2-1.1,0.3-2.3,0.5-3.4
							c0.7-4.7,1.3-9.3,2-14c0-0.1,0-0.2,0-0.3C89.3,203.2,89.3,203.2,89.4,203.3z"/>
						<path d="M68.1,210.1c0-0.1,0-0.2,0-0.3c0.8-5.7,1.6-11.5,2.4-17.2c0-0.1,0-0.2,0-0.2c0.1,0,0.1,0.1,0.2,0.1
							c-0.8,5.9-1.7,11.8-2.5,17.7C68.2,210.2,68.1,210.1,68.1,210.1z"/>
						<path d="M85.2,220c0.8-5.9,1.7-11.8,2.5-17.7c0.1,0,0.1,0.1,0.2,0.1c0,0.1,0,0.2,0,0.3c-0.8,5.7-1.6,11.5-2.4,17.2
							c0,0.1,0,0.2,0,0.2C85.3,220.1,85.3,220,85.2,220z"/>
						<path d="M83,199.6c0,0.1,0,0.2,0,0.3c-0.8,5.7-1.6,11.5-2.4,17.2c0,0.1,0,0.2,0,0.2c-0.1,0-0.1-0.1-0.2-0.1
							c0.8-5.9,1.7-11.8,2.5-17.7C82.8,199.5,82.9,199.5,83,199.6z"/>
						<path d="M87.5,202.1c0,0.1,0,0.2,0,0.3c-0.8,5.7-1.6,11.5-2.4,17.2c0,0.1,0,0.2,0,0.2c-0.1,0-0.1-0.1-0.2-0.1
							c0.8-5.9,1.7-11.8,2.5-17.7C87.3,202.1,87.4,202.1,87.5,202.1z"/>
						<path d="M75.7,195.3c0,0.1,0,0.2,0,0.3c-0.8,5.7-1.6,11.5-2.4,17.2c0,0.1,0,0.2,0,0.2c-0.1,0-0.1-0.1-0.2-0.1
							c0-0.1,0-0.2,0.1-0.3c0.8-5.4,1.5-10.9,2.3-16.3c0.1-0.4,0.1-0.7,0.1-1.1C75.5,195.3,75.6,195.3,75.7,195.3z"/>
						<path d="M73.4,213.2c0.2-1.1,0.3-2.3,0.5-3.4c0.7-4.7,1.3-9.3,2-14c0-0.1,0-0.2,0-0.3c0.1,0,0.1,0.1,0.2,0.1
							c-0.1,0.7-0.2,1.3-0.3,2c-0.7,5.2-1.5,10.5-2.2,15.7C73.6,213.3,73.5,213.2,73.4,213.2z"/>
						<path d="M84.9,200.7c-0.2,1.1-0.3,2.3-0.5,3.4c-0.7,4.7-1.3,9.3-2,14c0,0.1,0,0.2,0,0.3c-0.1,0-0.1-0.1-0.2-0.1
							c0.3-2,0.6-4,0.8-6c0.5-3.9,1.1-7.8,1.6-11.7C84.8,200.6,84.8,200.6,84.9,200.7z"/>
						<path d="M64.2,207.9c0.8-5.9,1.7-11.8,2.5-17.7c0.1,0,0.1,0.1,0.2,0.1c0,0.1,0,0.2,0,0.3c-0.8,5.7-1.6,11.5-2.4,17.2
							c0,0.1,0,0.2,0,0.2C64.3,207.9,64.3,207.9,64.2,207.9z"/>
						<path d="M84.5,200.4c-0.1,0.4-0.1,0.8-0.2,1.1c-0.8,5.4-1.5,10.8-2.3,16.2c0,0.1,0,0.2,0,0.3c-0.1,0-0.1-0.1-0.2-0.1
							c0-0.1,0-0.2,0-0.3c0.8-5.7,1.6-11.5,2.4-17.2c0-0.1,0-0.2,0-0.2C84.3,200.3,84.4,200.4,84.5,200.4z"/>
						<path d="M73.7,194.2c0,0.1,0,0.2,0,0.3c-0.8,5.7-1.6,11.5-2.4,17.2c0,0.1,0,0.2,0,0.2c-0.1,0-0.1-0.1-0.2-0.1
							c0.4-2.7,0.7-5.3,1.1-8c0.4-3.1,0.9-6.3,1.3-9.4c0-0.1,0-0.2,0-0.3C73.6,194.2,73.7,194.2,73.7,194.2z"/>
						<path d="M64.6,208.1c0-0.1,0-0.2,0.1-0.3c0.7-4.7,1.3-9.4,2-14.1c0.2-1.1,0.3-2.2,0.5-3.2c0,0,0.1,0.1,0.1,0.1
							c0,0.1,0,0.2,0,0.3c-0.8,5.7-1.6,11.5-2.4,17.2c0,0.1,0,0.2,0,0.2C64.8,208.2,64.7,208.2,64.6,208.1z"/>
						<path d="M90.9,204.1c-0.8,5.8-1.6,11.6-2.4,17.4c0,0.1,0,0.2-0.1,0.3c0,0-0.1-0.1-0.1-0.1c0-0.1,0-0.2,0-0.3
							c0.8-5.7,1.6-11.5,2.4-17.2c0-0.1,0-0.2,0-0.2C90.8,204,90.8,204.1,90.9,204.1z"/>
						<path d="M68,190.9c0,0.1,0,0.2,0,0.2c-0.8,5.7-1.6,11.5-2.4,17.2c0,0.1,0,0.2,0,0.3c0,0-0.1-0.1-0.1-0.1c0-0.1,0-0.2,0-0.3
							c0.8-5.7,1.6-11.5,2.4-17.2c0-0.1,0-0.2,0-0.2C67.9,190.9,68,190.9,68,190.9z"/>
						<path d="M68.5,191.2c0,0.1,0,0.2,0,0.2c-0.8,5.7-1.6,11.5-2.4,17.2c0,0.1,0,0.2,0,0.3c0,0-0.1-0.1-0.1-0.1c0-0.1,0-0.2,0-0.3
							c0.8-5.7,1.6-11.5,2.4-17.2c0-0.1,0-0.2,0-0.2C68.4,191.1,68.4,191.2,68.5,191.2z"/>
						<path d="M69.3,210.8c0.8-5.9,1.7-11.8,2.5-17.7c0,0,0.1,0.1,0.1,0.1c-0.2,1.1-0.3,2.3-0.5,3.4c-0.7,4.7-1.3,9.3-2,14
							c0,0.1,0,0.2,0,0.3C69.4,210.8,69.3,210.8,69.3,210.8z"/>
						<path d="M72.3,212.5c0-0.1,0-0.2,0-0.3c0.8-5.7,1.6-11.5,2.4-17.2c0-0.1,0-0.2,0-0.2c0,0,0.1,0.1,0.1,0.1c0,0.1,0,0.2,0,0.2
							c-0.8,5.7-1.6,11.5-2.4,17.2c0,0.1,0,0.2,0,0.3C72.4,212.6,72.3,212.6,72.3,212.5z"/>
						<path d="M79.4,197.5c-0.8,5.9-1.7,11.8-2.5,17.7c0,0-0.1-0.1-0.1-0.1c0.2-1.1,0.3-2.3,0.5-3.4c0.7-4.7,1.3-9.3,2-14
							c0-0.1,0-0.2,0-0.3C79.3,197.4,79.4,197.5,79.4,197.5z"/>
						<path d="M77.2,215.4c0.2-1.1,0.3-2.3,0.5-3.4c0.7-4.7,1.3-9.3,2-14c0-0.1,0-0.2,0-0.3c0,0,0.1,0.1,0.1,0.1
							c-0.8,5.9-1.7,11.8-2.5,17.7C77.3,215.4,77.3,215.4,77.2,215.4z"/>
						<path d="M77.6,215.6c0.8-5.9,1.7-11.8,2.5-17.7c0,0,0.1,0.1,0.1,0.1c-0.2,1.1-0.3,2.3-0.5,3.4c-0.7,4.7-1.3,9.3-2,14
							c0,0.1,0,0.2,0,0.3C77.7,215.7,77.7,215.6,77.6,215.6z"/>
						<path d="M81.8,198.9c-0.8,5.9-1.7,11.8-2.5,17.7c0,0-0.1-0.1-0.1-0.1c0.2-1.1,0.3-2.3,0.5-3.4c0.7-4.7,1.3-9.3,2-14
							c0-0.1,0-0.2,0-0.3C81.7,198.8,81.7,198.8,81.8,198.9z"/>
						<path fill="#FFFFFF" d="M66.2,189.9c-0.2,1.1-0.3,2.3-0.5,3.4c-0.7,4.7-1.3,9.3-2,14c0,0.1,0,0.2,0,0.3c0,0-0.1,0-0.1-0.1
							c0-0.1,0-0.1,0-0.2c0.8-5.8,1.6-11.5,2.4-17.3C66.2,190,66.1,189.8,66.2,189.9z"/>
					</g>
				</g>
			</g>
		</g>
		<g>
			<path d="M60.2,146.7l-7.7-4.5v-39.8l-9.2-1.5v-8.3l16.1,1.6l0.8,0.5V146.7z"/>
		</g>
		<g>
			<polygon fill="none" stroke="#654322" stroke-miterlimit="10" points="165.6,202.2 158.2,161.5 162.1,55.9 162.1,55.9 67,1 
				43.8,19.2 5.3,36.2 5.3,36.2 8.8,134.5 0.9,188 96,242.9 165.7,202.7 			"/>
		</g>
	</g>
</g>
<g id="Layer_2">
	<g>
		<g>
			<g>
				<g>
					<polygon fill="#7E522F" points="165.6,202.2 158.2,161.5 162.1,55.9 162.1,55.9 67,1 43.8,19.2 5.3,36.2 5.3,36.2 8.8,134.5 
						0.9,188 96,242.9 165.7,202.7 					"/>
				</g>
				<polygon fill="#93653E" points="165.6,202.2 158.2,161.5 162.1,55.9 129.8,68.6 132.2,172.1 				"/>
				<polygon fill="#885B37" points="132.2,172.1 96.3,241 96,242.9 165.7,202.7 165.6,202.2 				"/>
				<polygon fill="#7E5635" points="129.8,68.6 129.6,68.7 100.4,91.1 103.9,188.6 96.3,241 132.2,172.1 				"/>
				<path fill="#654322" d="M162.1,55.9L67,1v70.8c28.8,16.6,33.4,19.3,33.4,19.3l29.2-22.4L162.1,55.9z"/>
				<path fill="#513217" d="M67,1L43.8,19.2v39.3c7.4,4.3,15.3,8.8,23.2,13.4V1z"/>
				<path fill="#412A18" d="M5.3,36.2c0,0,17.1,9.9,38.5,22.2V19.2L5.3,36.2z"/>
				<polygon fill="#CA9E67" points="100.4,91.1 5.3,36.2 8.8,134.5 103.9,188.6 				"/>
				<polygon fill="#D5A86F" points="96,242.9 103.9,188.6 8.8,134.5 0.9,188 				"/>
				<path fill="#FFFFFF" d="M61.8,206.8l3.1-22.3c0.2-1.2,1-1.7,1.9-1.2l26.9,15.5c0.9,0.5,1.5,1.9,1.3,3l-3.1,22.3
					c-0.2,1.2-1,1.7-1.9,1.2l-26.9-15.5C62.2,209.3,61.7,207.9,61.8,206.8z"/>
				<text transform="matrix(0.7439 0.4288 -0.1387 0.9903 67.5653 188.7578)" font-family="'Arial-BoldMT'" font-size="3.8862">sp0000000000000</text>
				<g>
					<g>
						<path fill="#FFFFFF" d="M67.3,190.5c0.2,0.1,0.4,0.2,0.6,0.3c0,0.1,0,0.2,0,0.2c-0.8,5.7-1.6,11.5-2.4,17.2c0,0.1,0,0.2,0,0.3
							c-0.2-0.1-0.4-0.2-0.6-0.3c0-0.1,0-0.2,0-0.2c0.8-5.7,1.6-11.5,2.4-17.2C67.3,190.7,67.3,190.6,67.3,190.5z"/>
						<path fill="#FFFFFF" d="M71.1,211.8c-0.2-0.1-0.4-0.2-0.6-0.3c0.8-5.9,1.7-11.8,2.5-17.7c0.2,0.1,0.4,0.2,0.6,0.3
							c0,0.1,0,0.2,0,0.3c-0.4,3.1-0.9,6.3-1.3,9.4C71.8,206.5,71.5,209.2,71.1,211.8z"/>
						<path fill="#FFFFFF" d="M78.7,197.1c0.2,0.1,0.4,0.2,0.6,0.3c0,0.1,0,0.2,0,0.3c-0.7,4.7-1.3,9.3-2,14
							c-0.2,1.1-0.3,2.3-0.5,3.4c-0.2-0.1-0.4-0.2-0.6-0.3c0.8-5.6,1.6-11.2,2.4-16.8C78.6,197.7,78.7,197.4,78.7,197.1z"/>
						<path fill="#FFFFFF" d="M86.7,220.8c-0.2-0.1-0.4-0.2-0.6-0.3c0.8-5.9,1.7-11.8,2.5-17.7c0.2,0.1,0.4,0.2,0.6,0.3
							c0,0.1,0,0.2,0,0.3c-0.7,4.7-1.3,9.3-2,14C87.1,218.6,86.9,219.7,86.7,220.8z"/>
						<path fill="#FFFFFF" d="M70,211.2c-0.2-0.1-0.4-0.2-0.6-0.3c0-0.1,0-0.2,0-0.3c0.7-4.7,1.3-9.3,2-14c0.2-1.1,0.3-2.3,0.5-3.4
							c0.2,0.1,0.4,0.2,0.6,0.3c0,0.1,0,0.2,0,0.3c-0.8,5.7-1.6,11.5-2.4,17.2C70,211,70,211.1,70,211.2z"/>
						<path fill="#FFFFFF" d="M69.2,191.6c0.2,0.1,0.4,0.2,0.6,0.3c0,0.1,0,0.2,0,0.3c-0.8,5.7-1.6,11.5-2.4,17.2c0,0.1,0,0.2,0,0.2
							c-0.2-0.1-0.4-0.2-0.6-0.3c0-0.1,0-0.2,0-0.2c0.8-5.7,1.6-11.5,2.4-17.2C69.2,191.8,69.2,191.7,69.2,191.6z"/>
						<path fill="#FFFFFF" d="M76.1,195.6c0.2,0.1,0.4,0.2,0.6,0.3c0,0.1,0,0.2,0,0.3c-0.8,5.7-1.6,11.5-2.4,17.2c0,0.1,0,0.2,0,0.2
							c-0.2-0.1-0.4-0.2-0.6-0.3c0.7-5.2,1.5-10.5,2.2-15.7C75.9,196.9,76,196.3,76.1,195.6z"/>
						<path fill="#FFFFFF" d="M83.7,200c0.2,0.1,0.4,0.2,0.6,0.3c0,0.1,0,0.2,0,0.2c-0.8,5.7-1.6,11.5-2.4,17.2c0,0.1,0,0.2,0,0.3
							c-0.2-0.1-0.4-0.2-0.6-0.3c0-0.1,0-0.2,0-0.3c0.8-5.7,1.6-11.5,2.4-17.2C83.7,200.1,83.7,200.1,83.7,200z"/>
						<path fill="#FFFFFF" d="M88.2,221.7c-0.2-0.1-0.4-0.2-0.6-0.3c0-0.1,0-0.2,0-0.3c0.8-5.7,1.6-11.5,2.4-17.2c0-0.1,0-0.2,0-0.2
							c0.2,0.1,0.4,0.2,0.6,0.3c0,0.1,0,0.2,0,0.2c-0.8,5.7-1.6,11.5-2.4,17.2C88.3,221.5,88.3,221.6,88.2,221.7z"/>
						<path fill="#FFFFFF" d="M85.6,201.1c0.2,0.1,0.4,0.2,0.6,0.3c0,0.1,0,0.2,0,0.3c-0.8,5.7-1.6,11.5-2.4,17.2c0,0.1,0,0.2,0,0.2
							c-0.2-0.1-0.4-0.2-0.6-0.3c0-0.1,0-0.2,0-0.2c0.8-5.7,1.6-11.5,2.4-17.2C85.6,201.3,85.6,201.2,85.6,201.1z"/>
						<path fill="#FFFFFF" d="M80.3,198c0.2,0.1,0.4,0.2,0.6,0.3c-0.8,5.9-1.7,11.8-2.5,17.7c-0.2-0.1-0.4-0.2-0.6-0.3
							c0-0.1,0-0.2,0-0.3c0.7-4.7,1.3-9.3,2-14C80,200.3,80.1,199.1,80.3,198z"/>
						<path fill="#FFFFFF" d="M86.7,201.7c0.2,0.1,0.4,0.2,0.6,0.3c-0.8,5.9-1.7,11.8-2.5,17.7c-0.2-0.1-0.4-0.2-0.6-0.3
							c0-0.1,0-0.2,0-0.3c0.7-4.7,1.3-9.3,2-14C86.4,204,86.6,202.8,86.7,201.7z"/>
						<path fill="#FFFFFF" d="M81.1,198.5c0.2,0.1,0.4,0.2,0.6,0.3c0,0.1,0,0.2,0,0.3c-0.7,4.7-1.3,9.3-2,14
							c-0.2,1.1-0.3,2.3-0.5,3.4c-0.2-0.1-0.4-0.2-0.6-0.3c0-0.1,0-0.2,0-0.3c0.8-5.7,1.6-11.5,2.4-17.2
							C81,198.6,81.1,198.5,81.1,198.5z"/>
						<path fill="#FFFFFF" d="M73,212.9c-0.2-0.1-0.4-0.2-0.6-0.3c0-0.1,0-0.2,0-0.3c0.8-5.7,1.6-11.5,2.4-17.2c0-0.1,0-0.2,0-0.2
							c0.2,0.1,0.4,0.2,0.6,0.3c0,0.4-0.1,0.7-0.1,1.1c-0.8,5.4-1.5,10.9-2.3,16.3C73,212.7,73,212.8,73,212.9z"/>
						<path d="M70,211.2c0-0.1,0-0.2,0-0.2c0.8-5.7,1.6-11.5,2.4-17.2c0-0.1,0-0.2,0-0.3c0.2,0.1,0.3,0.2,0.5,0.3
							c-0.8,5.9-1.7,11.8-2.5,17.7C70.3,211.4,70.2,211.3,70,211.2z"/>
						<path d="M86.7,201.7c-0.2,1.1-0.3,2.3-0.5,3.4c-0.7,4.7-1.3,9.3-2,14c0,0.1,0,0.2,0,0.3c-0.2-0.1-0.3-0.2-0.5-0.3
							c0-0.1,0-0.2,0-0.2c0.8-5.7,1.6-11.5,2.4-17.2c0-0.1,0-0.2,0-0.3C86.4,201.5,86.5,201.6,86.7,201.7z"/>
						<path d="M88.6,202.8c-0.8,5.9-1.7,11.8-2.5,17.7c-0.2-0.1-0.3-0.2-0.5-0.3c0-0.1,0-0.2,0-0.2c0.8-5.7,1.6-11.5,2.4-17.2
							c0-0.1,0-0.2,0-0.3C88.3,202.6,88.5,202.7,88.6,202.8z"/>
						<path d="M74.2,213.6c0-0.1,0-0.2,0-0.2c0.8-5.7,1.6-11.5,2.4-17.2c0-0.1,0-0.2,0-0.3c0.2,0.1,0.3,0.2,0.5,0.3
							c-0.8,5.9-1.7,11.8-2.5,17.7C74.5,213.8,74.4,213.7,74.2,213.6z"/>
						<path d="M67.3,209.7c0-0.1,0-0.2,0-0.2c0.8-5.7,1.6-11.5,2.4-17.2c0-0.1,0-0.2,0-0.3c0.2,0.1,0.3,0.2,0.5,0.3
							c0,0.1,0,0.2,0,0.2c-0.8,5.7-1.6,11.5-2.4,17.2c0,0.1,0,0.2,0,0.3C67.7,209.9,67.5,209.8,67.3,209.7z"/>
						<path d="M90.2,203.7c0,0.1,0,0.2,0,0.2c-0.8,5.7-1.6,11.5-2.4,17.2c0,0.1,0,0.2,0,0.3c-0.2-0.1-0.3-0.2-0.5-0.3
							c0.8-5.9,1.7-11.8,2.5-17.7C89.8,203.5,90,203.6,90.2,203.7z"/>
						<path d="M83.7,200c0,0.1,0,0.2,0,0.2c-0.8,5.7-1.6,11.5-2.4,17.2c0,0.1,0,0.2,0,0.3c-0.2-0.1-0.3-0.2-0.5-0.3
							c0.8-5.9,1.7-11.8,2.5-17.7C83.4,199.8,83.5,199.9,83.7,200z"/>
						<path d="M78.7,197.1c-0.1,0.3-0.1,0.6-0.2,0.9c-0.8,5.6-1.6,11.2-2.4,16.8c-0.2-0.1-0.3-0.2-0.5-0.3c0-0.1,0-0.2,0-0.2
							c0.8-5.7,1.6-11.5,2.4-17.2c0-0.1,0-0.2,0-0.3C78.4,196.9,78.5,197,78.7,197.1z"/>
						<path d="M77.4,196.4c0.2,0.1,0.3,0.2,0.5,0.3c-0.8,5.9-1.7,11.8-2.5,17.7c-0.2-0.1-0.3-0.2-0.5-0.3c0-0.1,0-0.2,0.1-0.3
							c0.6-4.5,1.3-9.1,1.9-13.6C77.1,198.9,77.2,197.6,77.4,196.4z"/>
						<path d="M69.2,191.6c0,0.1,0,0.2,0,0.3c-0.8,5.7-1.6,11.5-2.4,17.2c0,0.1,0,0.2,0,0.2c-0.2-0.1-0.3-0.2-0.5-0.3
							c0-0.1,0-0.2,0-0.3c0.6-4.4,1.2-8.8,1.9-13.2c0.2-1.4,0.4-2.8,0.6-4.2C68.9,191.5,69.1,191.5,69.2,191.6z"/>
						<path d="M85.6,201.1c0,0.1,0,0.2,0,0.3c-0.8,5.7-1.6,11.5-2.4,17.2c0,0.1,0,0.2,0,0.2c-0.2-0.1-0.3-0.2-0.5-0.3
							c0.8-5.9,1.7-11.8,2.5-17.7C85.3,200.9,85.5,201,85.6,201.1z"/>
						<path d="M74,194.4c0.2,0.1,0.3,0.2,0.5,0.3c0,0.1,0,0.2,0,0.3c-0.8,5.7-1.6,11.5-2.4,17.2c0,0.1,0,0.2,0,0.2
							c-0.2-0.1-0.3-0.2-0.5-0.3C72.3,206.2,73.1,200.3,74,194.4z"/>
						<path d="M91.2,204.3c0.2,0.1,0.3,0.2,0.5,0.3c-0.5,3.9-1.1,7.9-1.6,11.8c-0.3,2-0.6,3.9-0.8,5.9c-0.2-0.1-0.3-0.2-0.5-0.3
							c0-0.1,0-0.2,0-0.3c0.6-4.4,1.2-8.8,1.9-13.2C90.8,207,91,205.7,91.2,204.3z"/>
						<path d="M90,222.7c-0.2-0.1-0.3-0.2-0.5-0.3c0-0.1,0-0.2,0-0.3c0.8-5.7,1.6-11.5,2.4-17.2c0-0.1,0-0.2,0-0.2
							c0.2,0.1,0.3,0.2,0.5,0.3C91.6,210.9,90.8,216.8,90,222.7z"/>
						<path d="M71,192.6c0.2,0.1,0.3,0.2,0.5,0.3c-0.8,5.9-1.7,11.8-2.5,17.7c-0.2-0.1-0.3-0.2-0.5-0.3c0-0.1,0-0.2,0-0.3
							c0.7-4.9,1.4-9.8,2.1-14.7C70.8,194.4,70.9,193.5,71,192.6z"/>
						<path d="M82.1,199c0.2,0.1,0.3,0.2,0.5,0.3c-0.1,0.3-0.1,0.6-0.2,1c-0.6,4-1.1,7.9-1.7,11.9c-0.2,1.6-0.5,3.2-0.7,4.8
							c-0.2-0.1-0.3-0.2-0.5-0.3C80.4,210.8,81.2,204.9,82.1,199z"/>
						<path fill="#FFFFFF" d="M72,212.3c0-0.1,0-0.2,0-0.2c0.8-5.7,1.6-11.5,2.4-17.2c0-0.1,0-0.2,0-0.3c0.1,0.1,0.2,0.1,0.3,0.2
							c0,0.1,0,0.2,0,0.2c-0.8,5.7-1.6,11.5-2.4,17.2c0,0.1,0,0.2,0,0.3C72.2,212.5,72.1,212.4,72,212.3z"/>
						<path fill="#FFFFFF" d="M91.9,204.7c0,0.1,0,0.2,0,0.2c-0.8,5.7-1.6,11.5-2.4,17.2c0,0.1,0,0.2,0,0.3
							c-0.1-0.1-0.2-0.1-0.3-0.2c0.3-2,0.6-3.9,0.8-5.9c0.6-3.9,1.1-7.9,1.6-11.8C91.7,204.6,91.8,204.7,91.9,204.7z"/>
						<path fill="#FFFFFF" d="M82.1,199c-0.8,5.9-1.7,11.8-2.5,17.7c-0.1-0.1-0.2-0.1-0.3-0.2c0.8-5.9,1.7-11.8,2.5-17.7
							C81.9,198.9,82,199,82.1,199z"/>
						<path fill="#FFFFFF" d="M91.2,204.3c-0.2,1.4-0.4,2.8-0.6,4.2c-0.6,4.4-1.2,8.8-1.9,13.2c0,0.1,0,0.2,0,0.3
							c-0.1-0.1-0.2-0.1-0.3-0.2c0-0.1,0-0.2,0.1-0.3c0.8-5.8,1.6-11.6,2.4-17.4C91,204.2,91.1,204.2,91.2,204.3z"/>
						<path fill="#FFFFFF" d="M79.8,197.7c0.1,0.1,0.2,0.1,0.3,0.2c-0.8,5.9-1.7,11.8-2.5,17.7c-0.1-0.1-0.2-0.1-0.3-0.2
							C78.2,209.5,79,203.6,79.8,197.7z"/>
						<path fill="#FFFFFF" d="M68.1,190.9c0.1,0.1,0.2,0.1,0.3,0.2c0,0.1,0,0.2,0,0.2c-0.8,5.7-1.6,11.5-2.4,17.2c0,0.1,0,0.2,0,0.3
							c-0.1-0.1-0.2-0.1-0.3-0.2c0-0.1,0-0.2,0-0.3c0.8-5.7,1.6-11.5,2.4-17.2C68,191.1,68,191,68.1,190.9z"/>
						<path fill="#FFFFFF" d="M77.2,215.4c-0.1-0.1-0.2-0.1-0.3-0.2c0.8-5.9,1.7-11.8,2.5-17.7c0.1,0.1,0.2,0.1,0.3,0.2
							c0,0.1,0,0.2,0,0.3c-0.7,4.7-1.3,9.3-2,14C77.5,213.1,77.4,214.2,77.2,215.4z"/>
						<path fill="#FFFFFF" d="M68.8,191.4c-0.2,1.4-0.4,2.8-0.6,4.2c-0.6,4.4-1.2,8.8-1.9,13.2c0,0.1,0,0.2,0,0.3
							c-0.1-0.1-0.2-0.1-0.3-0.2c0-0.1,0-0.2,0-0.3c0.8-5.7,1.6-11.5,2.4-17.2c0-0.1,0-0.2,0-0.2C68.6,191.3,68.7,191.3,68.8,191.4z
							"/>
						<path fill="#FFFFFF" d="M75.4,214.3c0.8-5.9,1.7-11.8,2.5-17.7c0.1,0.1,0.2,0.1,0.3,0.2c0,0.1,0,0.2,0,0.3
							c-0.8,5.7-1.6,11.5-2.4,17.2c0,0.1,0,0.2,0,0.2C75.6,214.4,75.5,214.4,75.4,214.3z"/>
						<path fill="#FFFFFF" d="M69,210.6c0.8-5.9,1.7-11.8,2.5-17.7c0.1,0.1,0.2,0.1,0.3,0.2c-0.8,5.9-1.7,11.8-2.5,17.7
							C69.2,210.7,69.1,210.7,69,210.6z"/>
						<path fill="#FFFFFF" d="M64.7,208.1c-0.1,0-0.2-0.1-0.3-0.1c0-0.1,0-0.2,0-0.2c0.8-5.7,1.6-11.5,2.4-17.2c0-0.1,0-0.2,0-0.3
							c0.1,0.1,0.2,0.1,0.3,0.2c-0.2,1.1-0.3,2.2-0.5,3.2c-0.7,4.7-1.3,9.4-2,14.1C64.7,207.9,64.7,208,64.7,208.1z"/>
						<path fill="#FFFFFF" d="M84.5,200.4c0.1,0,0.2,0.1,0.2,0.1c-0.5,3.9-1.1,7.8-1.6,11.7c-0.3,2-0.6,4-0.8,6
							c-0.1,0-0.2-0.1-0.3-0.1c0-0.1,0-0.2,0-0.3c0.8-5.4,1.5-10.8,2.3-16.2C84.4,201.2,84.4,200.8,84.5,200.4z"/>
						<path fill="#FFFFFF" d="M80,217c0.2-1.6,0.5-3.2,0.7-4.8c0.6-4,1.1-7.9,1.7-11.9c0-0.3,0.1-0.6,0.2-1c0.1,0,0.2,0.1,0.2,0.1
							c-0.8,5.9-1.7,11.8-2.5,17.7C80.2,217.1,80.1,217,80,217z"/>
						<path fill="#FFFFFF" d="M71,192.6c-0.1,0.9-0.2,1.8-0.3,2.7c-0.7,4.9-1.4,9.8-2.1,14.7c0,0.1,0,0.2,0,0.3
							c-0.1,0-0.2-0.1-0.3-0.1c0.8-5.9,1.7-11.8,2.5-17.7C70.8,192.6,70.9,192.6,71,192.6z"/>
						<path fill="#FFFFFF" d="M89.6,203.4c-0.8,5.9-1.7,11.8-2.5,17.7c-0.1,0-0.2-0.1-0.2-0.1c0.5-3.9,1.1-7.8,1.6-11.7
							c0.3-2,0.6-4,0.8-6C89.5,203.3,89.6,203.4,89.6,203.4z"/>
						<path fill="#FFFFFF" d="M85.1,200.8c-0.8,5.9-1.7,11.8-2.5,17.7c-0.1,0-0.2-0.1-0.2-0.1c0-0.1,0-0.2,0-0.3
							c0.7-4.7,1.3-9.3,2-14c0.2-1.1,0.3-2.3,0.5-3.4C85,200.7,85.1,200.8,85.1,200.8z"/>
						<path fill="#FFFFFF" d="M83.2,199.7c-0.8,5.9-1.7,11.8-2.5,17.7c-0.1,0-0.2-0.1-0.2-0.1c0-0.1,0-0.2,0-0.2
							c0.8-5.7,1.6-11.5,2.4-17.2c0-0.1,0-0.2,0-0.3C83.1,199.6,83.1,199.6,83.2,199.7z"/>
						<path fill="#FFFFFF" d="M88.1,202.5c0,0.1,0,0.2,0,0.3c-0.8,5.7-1.6,11.5-2.4,17.2c0,0.1,0,0.2,0,0.2c-0.1,0-0.2-0.1-0.2-0.1
							c0-0.1,0-0.2,0-0.2c0.8-5.7,1.6-11.5,2.4-17.2c0-0.1,0-0.2,0-0.3C88,202.4,88.1,202.5,88.1,202.5z"/>
						<path fill="#FFFFFF" d="M85.2,220c-0.1,0-0.2-0.1-0.2-0.1c0-0.1,0-0.2,0-0.2c0.8-5.7,1.6-11.5,2.4-17.2c0-0.1,0-0.2,0-0.3
							c0.1,0,0.2,0.1,0.2,0.1C86.9,208.2,86.1,214.1,85.2,220z"/>
						<path fill="#FFFFFF" d="M90,222.7c0.8-5.9,1.7-11.8,2.5-17.7c0.1,0,0.2,0.1,0.2,0.1c-0.8,5.9-1.7,11.8-2.5,17.7
							C90.1,222.8,90,222.7,90,222.7z"/>
						<path fill="#FFFFFF" d="M67.9,210c0-0.1,0-0.2,0-0.3c0.8-5.7,1.6-11.5,2.4-17.2c0-0.1,0-0.2,0-0.2c0.1,0,0.2,0.1,0.2,0.1
							c0,0.1,0,0.2,0,0.2c-0.8,5.7-1.6,11.5-2.4,17.2c0,0.1,0,0.2,0,0.3C68,210,67.9,210,67.9,210z"/>
						<path fill="#FFFFFF" d="M74,194.4c-0.8,5.9-1.7,11.8-2.5,17.7c-0.1,0-0.2-0.1-0.2-0.1c0-0.1,0-0.2,0-0.2
							c0.8-5.7,1.6-11.5,2.4-17.2c0-0.1,0-0.2,0-0.3C73.8,194.3,73.9,194.3,74,194.4z"/>
						<path fill="#FFFFFF" d="M73.4,213.2c-0.1,0-0.2-0.1-0.2-0.1c0-0.1,0-0.2,0-0.2c0.8-5.7,1.6-11.5,2.4-17.2c0-0.1,0-0.2,0-0.3
							c0.1,0,0.2,0.1,0.2,0.1c0,0.1,0,0.2,0,0.3c-0.7,4.7-1.3,9.3-2,14C73.7,210.9,73.6,212,73.4,213.2z"/>
						<path fill="#FFFFFF" d="M77.4,196.4c-0.2,1.3-0.3,2.5-0.5,3.8c-0.6,4.5-1.3,9.1-1.9,13.6c0,0.1,0,0.2-0.1,0.3
							c-0.1,0-0.2-0.1-0.2-0.1c0.8-5.9,1.7-11.8,2.5-17.7C77.3,196.3,77.3,196.3,77.4,196.4z"/>
						<path fill="#FFFFFF" d="M66.5,190c0.1,0,0.2,0.1,0.2,0.1c-0.8,5.9-1.7,11.8-2.5,17.7c-0.1,0-0.2-0.1-0.2-0.1
							c0-0.1,0-0.2,0-0.2c0.8-5.7,1.6-11.5,2.4-17.2C66.4,190.2,66.4,190.1,66.5,190z"/>
						<path d="M81.1,198.5c0,0.1,0,0.2,0,0.2c-0.8,5.7-1.6,11.5-2.4,17.2c0,0.1,0,0.2,0,0.3c-0.1,0-0.2-0.1-0.2-0.1
							c0.8-5.9,1.7-11.8,2.5-17.7C80.9,198.4,81,198.4,81.1,198.5z"/>
						<path d="M66.5,190c0,0.1,0,0.2,0,0.3c-0.8,5.7-1.6,11.5-2.4,17.2c0,0.1,0,0.2,0,0.2c-0.1,0-0.1-0.1-0.2-0.1c0-0.1,0-0.2,0-0.3
							c0.7-4.7,1.3-9.3,2-14c0.2-1.1,0.3-2.3,0.5-3.4C66.3,190,66.4,190,66.5,190z"/>
						<path d="M89.4,203.3c-0.3,2-0.6,4-0.8,6c-0.5,3.9-1.1,7.8-1.6,11.7c-0.1,0-0.1-0.1-0.2-0.1c0.2-1.1,0.3-2.3,0.5-3.4
							c0.7-4.7,1.3-9.3,2-14c0-0.1,0-0.2,0-0.3C89.3,203.2,89.3,203.2,89.4,203.3z"/>
						<path d="M68.1,210.1c0-0.1,0-0.2,0-0.3c0.8-5.7,1.6-11.5,2.4-17.2c0-0.1,0-0.2,0-0.2c0.1,0,0.1,0.1,0.2,0.1
							c-0.8,5.9-1.7,11.8-2.5,17.7C68.2,210.2,68.1,210.1,68.1,210.1z"/>
						<path d="M85.2,220c0.8-5.9,1.7-11.8,2.5-17.7c0.1,0,0.1,0.1,0.2,0.1c0,0.1,0,0.2,0,0.3c-0.8,5.7-1.6,11.5-2.4,17.2
							c0,0.1,0,0.2,0,0.2C85.4,220.1,85.3,220,85.2,220z"/>
						<path d="M83,199.6c0,0.1,0,0.2,0,0.3c-0.8,5.7-1.6,11.5-2.4,17.2c0,0.1,0,0.2,0,0.2c-0.1,0-0.1-0.1-0.2-0.1
							c0.8-5.9,1.7-11.8,2.5-17.7C82.8,199.5,82.9,199.5,83,199.6z"/>
						<path d="M87.5,202.1c0,0.1,0,0.2,0,0.3c-0.8,5.7-1.6,11.5-2.4,17.2c0,0.1,0,0.2,0,0.2c-0.1,0-0.1-0.1-0.2-0.1
							c0.8-5.9,1.7-11.8,2.5-17.7C87.3,202.1,87.4,202.1,87.5,202.1z"/>
						<path d="M75.7,195.3c0,0.1,0,0.2,0,0.3c-0.8,5.7-1.6,11.5-2.4,17.2c0,0.1,0,0.2,0,0.2c-0.1,0-0.1-0.1-0.2-0.1
							c0-0.1,0-0.2,0.1-0.3c0.8-5.4,1.5-10.9,2.3-16.3c0.1-0.4,0.1-0.7,0.1-1.1C75.6,195.3,75.6,195.3,75.7,195.3z"/>
						<path d="M73.4,213.2c0.2-1.1,0.3-2.3,0.5-3.4c0.7-4.7,1.3-9.3,2-14c0-0.1,0-0.2,0-0.3c0.1,0,0.1,0.1,0.2,0.1
							c-0.1,0.7-0.2,1.3-0.3,2c-0.7,5.2-1.5,10.5-2.2,15.7C73.6,213.3,73.5,213.2,73.4,213.2z"/>
						<path d="M84.9,200.7c-0.2,1.1-0.3,2.3-0.5,3.4c-0.7,4.7-1.3,9.3-2,14c0,0.1,0,0.2,0,0.3c-0.1,0-0.1-0.1-0.2-0.1
							c0.3-2,0.6-4,0.8-6c0.5-3.9,1.1-7.8,1.6-11.7C84.8,200.6,84.8,200.6,84.9,200.7z"/>
						<path d="M64.2,207.9c0.8-5.9,1.7-11.8,2.5-17.7c0.1,0,0.1,0.1,0.2,0.1c0,0.1,0,0.2,0,0.3c-0.8,5.7-1.6,11.5-2.4,17.2
							c0,0.1,0,0.2,0,0.2C64.3,207.9,64.3,207.9,64.2,207.9z"/>
						<path d="M84.5,200.4c-0.1,0.4-0.1,0.8-0.2,1.1c-0.8,5.4-1.5,10.8-2.3,16.2c0,0.1,0,0.2,0,0.3c-0.1,0-0.1-0.1-0.2-0.1
							c0-0.1,0-0.2,0-0.3c0.8-5.7,1.6-11.5,2.4-17.2c0-0.1,0-0.2,0-0.2C84.4,200.3,84.4,200.4,84.5,200.4z"/>
						<path d="M73.7,194.2c0,0.1,0,0.2,0,0.3c-0.8,5.7-1.6,11.5-2.4,17.2c0,0.1,0,0.2,0,0.2c-0.1,0-0.1-0.1-0.2-0.1
							c0.4-2.7,0.7-5.3,1.1-8c0.4-3.1,0.9-6.3,1.3-9.4c0-0.1,0-0.2,0-0.3C73.6,194.2,73.7,194.2,73.7,194.2z"/>
						<path d="M64.7,208.1c0-0.1,0-0.2,0.1-0.3c0.7-4.7,1.3-9.4,2-14.1c0.2-1.1,0.3-2.2,0.5-3.2c0,0,0.1,0.1,0.1,0.1
							c0,0.1,0,0.2,0,0.3c-0.8,5.7-1.6,11.5-2.4,17.2c0,0.1,0,0.2,0,0.2C64.8,208.2,64.7,208.2,64.7,208.1z"/>
						<path d="M90.9,204.1c-0.8,5.8-1.6,11.6-2.4,17.4c0,0.1,0,0.2-0.1,0.3c0,0-0.1-0.1-0.1-0.1c0-0.1,0-0.2,0-0.3
							c0.8-5.7,1.6-11.5,2.4-17.2c0-0.1,0-0.2,0-0.2C90.8,204,90.8,204.1,90.9,204.1z"/>
						<path d="M68.1,190.9c0,0.1,0,0.2,0,0.2c-0.8,5.7-1.6,11.5-2.4,17.2c0,0.1,0,0.2,0,0.3c0,0-0.1-0.1-0.1-0.1c0-0.1,0-0.2,0-0.3
							c0.8-5.7,1.6-11.5,2.4-17.2c0-0.1,0-0.2,0-0.2C68,190.9,68,190.9,68.1,190.9z"/>
						<path d="M68.5,191.2c0,0.1,0,0.2,0,0.2c-0.8,5.7-1.6,11.5-2.4,17.2c0,0.1,0,0.2,0,0.3c0,0-0.1-0.1-0.1-0.1c0-0.1,0-0.2,0-0.3
							c0.8-5.7,1.6-11.5,2.4-17.2c0-0.1,0-0.2,0-0.2C68.4,191.1,68.4,191.2,68.5,191.2z"/>
						<path d="M69.3,210.8c0.8-5.9,1.7-11.8,2.5-17.7c0,0,0.1,0.1,0.1,0.1c-0.2,1.1-0.3,2.3-0.5,3.4c-0.7,4.7-1.3,9.3-2,14
							c0,0.1,0,0.2,0,0.3C69.4,210.8,69.3,210.8,69.3,210.8z"/>
						<path d="M72.3,212.5c0-0.1,0-0.2,0-0.3c0.8-5.7,1.6-11.5,2.4-17.2c0-0.1,0-0.2,0-0.2c0,0,0.1,0.1,0.1,0.1c0,0.1,0,0.2,0,0.2
							c-0.8,5.7-1.6,11.5-2.4,17.2c0,0.1,0,0.2,0,0.3C72.4,212.6,72.3,212.6,72.3,212.5z"/>
						<path d="M79.4,197.5c-0.8,5.9-1.7,11.8-2.5,17.7c0,0-0.1-0.1-0.1-0.1c0.2-1.1,0.3-2.3,0.5-3.4c0.7-4.7,1.3-9.3,2-14
							c0-0.1,0-0.2,0-0.3C79.3,197.4,79.4,197.5,79.4,197.5z"/>
						<path d="M77.2,215.4c0.2-1.1,0.3-2.3,0.5-3.4c0.7-4.7,1.3-9.3,2-14c0-0.1,0-0.2,0-0.3c0,0,0.1,0.1,0.1,0.1
							c-0.8,5.9-1.7,11.8-2.5,17.7C77.3,215.4,77.3,215.4,77.2,215.4z"/>
						<path d="M77.6,215.6c0.8-5.9,1.7-11.8,2.5-17.7c0,0,0.1,0.1,0.1,0.1c-0.2,1.1-0.3,2.3-0.5,3.4c-0.7,4.7-1.3,9.3-2,14
							c0,0.1,0,0.2,0,0.3C77.7,215.7,77.7,215.6,77.6,215.6z"/>
						<path d="M81.8,198.9c-0.8,5.9-1.7,11.8-2.5,17.7c0,0-0.1-0.1-0.1-0.1c0.2-1.1,0.3-2.3,0.5-3.4c0.7-4.7,1.3-9.3,2-14
							c0-0.1,0-0.2,0-0.3C81.7,198.8,81.7,198.8,81.8,198.9z"/>
						<path fill="#FFFFFF" d="M66.3,189.9c-0.2,1.1-0.3,2.3-0.5,3.4c-0.7,4.7-1.3,9.3-2,14c0,0.1,0,0.2,0,0.3c0,0-0.1,0-0.1-0.1
							c0-0.1,0-0.1,0-0.2c0.8-5.8,1.6-11.5,2.4-17.3C66.2,190,66.1,189.8,66.3,189.9z"/>
					</g>
				</g>
			</g>
		</g>
		<g>
			<path d="M64.3,149.1l-26.7-15.4v-7.1L50.2,116c1.7-1.5,3-3,3.8-4.4c0.8-1.4,1.2-2.9,1.2-4.6c0-2.3-0.4-4.4-1.3-6.2
				c-0.9-1.8-2.1-3.2-3.7-4.1c-1.7-1-3.1-1-4.1,0s-1.5,2.8-1.5,5.5l-7.8-4.5c0-3.2,0.6-5.7,1.7-7.7c1.1-2,2.7-3.1,4.8-3.4
				c2.1-0.3,4.4,0.3,7,1.8c4,2.3,7.1,5.4,9.3,9.2c2.2,3.8,3.3,8.1,3.3,12.8c0,2.6-0.5,4.9-1.5,7c-1,2.1-2.7,4.2-5.1,6.3l-8.8,7.3
				l16.7,9.7V149.1z"/>
		</g>
		<g>
			<polygon fill="none" stroke="#654322" stroke-miterlimit="10" points="165.6,202.2 158.2,161.5 162.1,55.9 162.1,55.9 67,1 
				43.8,19.2 5.3,36.2 5.3,36.2 8.8,134.5 0.9,188 96,242.9 165.7,202.7 			"/>
		</g>
	</g>
</g>
<g id="Layer_3" display="none">
	<g display="inline">
		<g>
			<g>
				<g>
					<polygon fill="#7E522F" points="165.6,202.2 158.2,161.5 162.1,55.9 162.1,55.9 67,1 43.8,19.2 5.3,36.2 5.3,36.2 8.8,134.5 
						0.9,188 96,242.9 165.7,202.7 					"/>
				</g>
				<polygon fill="#93653E" points="165.6,202.2 158.2,161.5 162.1,55.9 129.8,68.6 132.2,172.1 				"/>
				<polygon fill="#885B37" points="132.2,172.1 96.3,241 96,242.9 165.7,202.7 165.6,202.2 				"/>
				<polygon fill="#7E5635" points="129.8,68.6 129.6,68.7 100.4,91.1 103.9,188.6 96.3,241 132.2,172.1 				"/>
				<path fill="#654322" d="M162.1,55.9L67,1v70.8c28.8,16.6,33.4,19.3,33.4,19.3l29.2-22.4L162.1,55.9z"/>
				<path fill="#513217" d="M67,1L43.8,19.2v39.3c7.4,4.3,15.3,8.8,23.2,13.4V1z"/>
				<path fill="#412A18" d="M5.3,36.2c0,0,17.1,9.9,38.5,22.2V19.2L5.3,36.2z"/>
				<polygon fill="#CA9E67" points="100.4,91.1 5.3,36.2 8.8,134.5 103.9,188.6 				"/>
				<polygon fill="#D5A86F" points="96,242.9 103.9,188.6 8.8,134.5 0.9,188 				"/>
				<path fill="#FFFFFF" d="M61.8,206.8l3.1-22.3c0.2-1.2,1-1.7,1.9-1.2l26.9,15.5c0.9,0.5,1.5,1.9,1.3,3l-3.1,22.3
					c-0.2,1.2-1,1.7-1.9,1.2l-26.9-15.5C62.2,209.3,61.7,207.9,61.8,206.8z"/>
				<text transform="matrix(0.7439 0.4288 -0.1387 0.9903 67.5535 188.7578)" font-family="'Arial-BoldMT'" font-size="3.8862">sp0000000000000</text>
				<g>
					<g>
						<path fill="#FFFFFF" d="M67.3,190.5c0.2,0.1,0.4,0.2,0.6,0.3c0,0.1,0,0.2,0,0.2c-0.8,5.7-1.6,11.5-2.4,17.2c0,0.1,0,0.2,0,0.3
							c-0.2-0.1-0.4-0.2-0.6-0.3c0-0.1,0-0.2,0-0.2c0.8-5.7,1.6-11.5,2.4-17.2C67.3,190.7,67.3,190.6,67.3,190.5z"/>
						<path fill="#FFFFFF" d="M71.1,211.8c-0.2-0.1-0.4-0.2-0.6-0.3c0.8-5.9,1.7-11.8,2.5-17.7c0.2,0.1,0.4,0.2,0.6,0.3
							c0,0.1,0,0.2,0,0.3c-0.4,3.1-0.9,6.3-1.3,9.4C71.8,206.5,71.5,209.2,71.1,211.8z"/>
						<path fill="#FFFFFF" d="M78.7,197.1c0.2,0.1,0.4,0.2,0.6,0.3c0,0.1,0,0.2,0,0.3c-0.7,4.7-1.3,9.3-2,14
							c-0.2,1.1-0.3,2.3-0.5,3.4c-0.2-0.1-0.4-0.2-0.6-0.3c0.8-5.6,1.6-11.2,2.4-16.8C78.6,197.7,78.6,197.4,78.7,197.1z"/>
						<path fill="#FFFFFF" d="M86.7,220.8c-0.2-0.1-0.4-0.2-0.6-0.3c0.8-5.9,1.7-11.8,2.5-17.7c0.2,0.1,0.4,0.2,0.6,0.3
							c0,0.1,0,0.2,0,0.3c-0.7,4.7-1.3,9.3-2,14C87,218.6,86.9,219.7,86.7,220.8z"/>
						<path fill="#FFFFFF" d="M70,211.2c-0.2-0.1-0.4-0.2-0.6-0.3c0-0.1,0-0.2,0-0.3c0.7-4.7,1.3-9.3,2-14c0.2-1.1,0.3-2.3,0.5-3.4
							c0.2,0.1,0.4,0.2,0.6,0.3c0,0.1,0,0.2,0,0.3c-0.8,5.7-1.6,11.5-2.4,17.2C70,211,70,211.1,70,211.2z"/>
						<path fill="#FFFFFF" d="M69.2,191.6c0.2,0.1,0.4,0.2,0.6,0.3c0,0.1,0,0.2,0,0.3c-0.8,5.7-1.6,11.5-2.4,17.2c0,0.1,0,0.2,0,0.2
							c-0.2-0.1-0.4-0.2-0.6-0.3c0-0.1,0-0.2,0-0.2c0.8-5.7,1.6-11.5,2.4-17.2C69.2,191.8,69.2,191.7,69.2,191.6z"/>
						<path fill="#FFFFFF" d="M76.1,195.6c0.2,0.1,0.4,0.2,0.6,0.3c0,0.1,0,0.2,0,0.3c-0.8,5.7-1.6,11.5-2.4,17.2c0,0.1,0,0.2,0,0.2
							c-0.2-0.1-0.4-0.2-0.6-0.3c0.7-5.2,1.5-10.5,2.2-15.7C75.9,196.9,76,196.3,76.1,195.6z"/>
						<path fill="#FFFFFF" d="M83.7,200c0.2,0.1,0.4,0.2,0.6,0.3c0,0.1,0,0.2,0,0.2c-0.8,5.7-1.6,11.5-2.4,17.2c0,0.1,0,0.2,0,0.3
							c-0.2-0.1-0.4-0.2-0.6-0.3c0-0.1,0-0.2,0-0.3c0.8-5.7,1.6-11.5,2.4-17.2C83.7,200.1,83.7,200.1,83.7,200z"/>
						<path fill="#FFFFFF" d="M88.2,221.7c-0.2-0.1-0.4-0.2-0.6-0.3c0-0.1,0-0.2,0-0.3c0.8-5.7,1.6-11.5,2.4-17.2c0-0.1,0-0.2,0-0.2
							c0.2,0.1,0.4,0.2,0.6,0.3c0,0.1,0,0.2,0,0.2c-0.8,5.7-1.6,11.5-2.4,17.2C88.2,221.5,88.2,221.6,88.2,221.7z"/>
						<path fill="#FFFFFF" d="M85.6,201.1c0.2,0.1,0.4,0.2,0.6,0.3c0,0.1,0,0.2,0,0.3c-0.8,5.7-1.6,11.5-2.4,17.2c0,0.1,0,0.2,0,0.2
							c-0.2-0.1-0.4-0.2-0.6-0.3c0-0.1,0-0.2,0-0.2c0.8-5.7,1.6-11.5,2.4-17.2C85.6,201.3,85.6,201.2,85.6,201.1z"/>
						<path fill="#FFFFFF" d="M80.3,198c0.2,0.1,0.4,0.2,0.6,0.3c-0.8,5.9-1.7,11.8-2.5,17.7c-0.2-0.1-0.4-0.2-0.6-0.3
							c0-0.1,0-0.2,0-0.3c0.7-4.7,1.3-9.3,2-14C79.9,200.3,80.1,199.1,80.3,198z"/>
						<path fill="#FFFFFF" d="M86.7,201.7c0.2,0.1,0.4,0.2,0.6,0.3c-0.8,5.9-1.7,11.8-2.5,17.7c-0.2-0.1-0.4-0.2-0.6-0.3
							c0-0.1,0-0.2,0-0.3c0.7-4.7,1.3-9.3,2-14C86.4,204,86.5,202.8,86.7,201.7z"/>
						<path fill="#FFFFFF" d="M81.1,198.5c0.2,0.1,0.4,0.2,0.6,0.3c0,0.1,0,0.2,0,0.3c-0.7,4.7-1.3,9.3-2,14
							c-0.2,1.1-0.3,2.3-0.5,3.4c-0.2-0.1-0.4-0.2-0.6-0.3c0-0.1,0-0.2,0-0.3c0.8-5.7,1.6-11.5,2.4-17.2
							C81,198.6,81,198.5,81.1,198.5z"/>
						<path fill="#FFFFFF" d="M73,212.9c-0.2-0.1-0.4-0.2-0.6-0.3c0-0.1,0-0.2,0-0.3c0.8-5.7,1.6-11.5,2.4-17.2c0-0.1,0-0.2,0-0.2
							c0.2,0.1,0.4,0.2,0.6,0.3c0,0.4-0.1,0.7-0.1,1.1c-0.8,5.4-1.5,10.9-2.3,16.3C73,212.7,73,212.8,73,212.9z"/>
						<path d="M70,211.2c0-0.1,0-0.2,0-0.2c0.8-5.7,1.6-11.5,2.4-17.2c0-0.1,0-0.2,0-0.3c0.2,0.1,0.3,0.2,0.5,0.3
							c-0.8,5.9-1.7,11.8-2.5,17.7C70.3,211.4,70.1,211.3,70,211.2z"/>
						<path d="M86.7,201.7c-0.2,1.1-0.3,2.3-0.5,3.4c-0.7,4.7-1.3,9.3-2,14c0,0.1,0,0.2,0,0.3c-0.2-0.1-0.3-0.2-0.5-0.3
							c0-0.1,0-0.2,0-0.2c0.8-5.7,1.6-11.5,2.4-17.2c0-0.1,0-0.2,0-0.3C86.4,201.5,86.5,201.6,86.7,201.7z"/>
						<path d="M88.6,202.8c-0.8,5.9-1.7,11.8-2.5,17.7c-0.2-0.1-0.3-0.2-0.5-0.3c0-0.1,0-0.2,0-0.2c0.8-5.7,1.6-11.5,2.4-17.2
							c0-0.1,0-0.2,0-0.3C88.3,202.6,88.5,202.7,88.6,202.8z"/>
						<path d="M74.2,213.6c0-0.1,0-0.2,0-0.2c0.8-5.7,1.6-11.5,2.4-17.2c0-0.1,0-0.2,0-0.3c0.2,0.1,0.3,0.2,0.5,0.3
							c-0.8,5.9-1.7,11.8-2.5,17.7C74.5,213.8,74.4,213.7,74.2,213.6z"/>
						<path d="M67.3,209.7c0-0.1,0-0.2,0-0.2c0.8-5.7,1.6-11.5,2.4-17.2c0-0.1,0-0.2,0-0.3c0.2,0.1,0.3,0.2,0.5,0.3
							c0,0.1,0,0.2,0,0.2c-0.8,5.7-1.6,11.5-2.4,17.2c0,0.1,0,0.2,0,0.3C67.7,209.9,67.5,209.8,67.3,209.7z"/>
						<path d="M90.1,203.7c0,0.1,0,0.2,0,0.2c-0.8,5.7-1.6,11.5-2.4,17.2c0,0.1,0,0.2,0,0.3c-0.2-0.1-0.3-0.2-0.5-0.3
							c0.8-5.9,1.7-11.8,2.5-17.7C89.8,203.5,90,203.6,90.1,203.7z"/>
						<path d="M83.7,200c0,0.1,0,0.2,0,0.2c-0.8,5.7-1.6,11.5-2.4,17.2c0,0.1,0,0.2,0,0.3c-0.2-0.1-0.3-0.2-0.5-0.3
							c0.8-5.9,1.7-11.8,2.5-17.7C83.4,199.8,83.5,199.9,83.7,200z"/>
						<path d="M78.7,197.1c-0.1,0.3-0.1,0.6-0.2,0.9c-0.8,5.6-1.6,11.2-2.4,16.8c-0.2-0.1-0.3-0.2-0.5-0.3c0-0.1,0-0.2,0-0.2
							c0.8-5.7,1.6-11.5,2.4-17.2c0-0.1,0-0.2,0-0.3C78.4,196.9,78.5,197,78.7,197.1z"/>
						<path d="M77.4,196.4c0.2,0.1,0.3,0.2,0.5,0.3c-0.8,5.9-1.7,11.8-2.5,17.7c-0.2-0.1-0.3-0.2-0.5-0.3c0-0.1,0-0.2,0.1-0.3
							c0.6-4.5,1.3-9.1,1.9-13.6C77.1,198.9,77.2,197.6,77.4,196.4z"/>
						<path d="M69.2,191.6c0,0.1,0,0.2,0,0.3c-0.8,5.7-1.6,11.5-2.4,17.2c0,0.1,0,0.2,0,0.2c-0.2-0.1-0.3-0.2-0.5-0.3
							c0-0.1,0-0.2,0-0.3c0.6-4.4,1.2-8.8,1.9-13.2c0.2-1.4,0.4-2.8,0.6-4.2C68.9,191.5,69.1,191.5,69.2,191.6z"/>
						<path d="M85.6,201.1c0,0.1,0,0.2,0,0.3c-0.8,5.7-1.6,11.5-2.4,17.2c0,0.1,0,0.2,0,0.2c-0.2-0.1-0.3-0.2-0.5-0.3
							c0.8-5.9,1.7-11.8,2.5-17.7C85.3,200.9,85.5,201,85.6,201.1z"/>
						<path d="M74,194.4c0.2,0.1,0.3,0.2,0.5,0.3c0,0.1,0,0.2,0,0.3c-0.8,5.7-1.6,11.5-2.4,17.2c0,0.1,0,0.2,0,0.2
							c-0.2-0.1-0.3-0.2-0.5-0.3C72.3,206.2,73.1,200.3,74,194.4z"/>
						<path d="M91.1,204.3c0.2,0.1,0.3,0.2,0.5,0.3c-0.5,3.9-1.1,7.9-1.6,11.8c-0.3,2-0.6,3.9-0.8,5.9c-0.2-0.1-0.3-0.2-0.5-0.3
							c0-0.1,0-0.2,0-0.3c0.6-4.4,1.2-8.8,1.9-13.2C90.7,207,90.9,205.7,91.1,204.3z"/>
						<path d="M89.9,222.7c-0.2-0.1-0.3-0.2-0.5-0.3c0-0.1,0-0.2,0-0.3c0.8-5.7,1.6-11.5,2.4-17.2c0-0.1,0-0.2,0-0.2
							c0.2,0.1,0.3,0.2,0.5,0.3C91.6,210.9,90.8,216.8,89.9,222.7z"/>
						<path d="M71,192.6c0.2,0.1,0.3,0.2,0.5,0.3c-0.8,5.9-1.7,11.8-2.5,17.7c-0.2-0.1-0.3-0.2-0.5-0.3c0-0.1,0-0.2,0-0.3
							c0.7-4.9,1.4-9.8,2.1-14.7C70.8,194.4,70.9,193.5,71,192.6z"/>
						<path d="M82.1,199c0.2,0.1,0.3,0.2,0.5,0.3c-0.1,0.3-0.1,0.6-0.2,1c-0.6,4-1.1,7.9-1.7,11.9c-0.2,1.6-0.5,3.2-0.7,4.8
							c-0.2-0.1-0.3-0.2-0.5-0.3C80.4,210.8,81.2,204.9,82.1,199z"/>
						<path fill="#FFFFFF" d="M72,212.3c0-0.1,0-0.2,0-0.2c0.8-5.7,1.6-11.5,2.4-17.2c0-0.1,0-0.2,0-0.3c0.1,0.1,0.2,0.1,0.3,0.2
							c0,0.1,0,0.2,0,0.2c-0.8,5.7-1.6,11.5-2.4,17.2c0,0.1,0,0.2,0,0.3C72.2,212.5,72.1,212.4,72,212.3z"/>
						<path fill="#FFFFFF" d="M91.9,204.7c0,0.1,0,0.2,0,0.2c-0.8,5.7-1.6,11.5-2.4,17.2c0,0.1,0,0.2,0,0.3
							c-0.1-0.1-0.2-0.1-0.3-0.2c0.3-2,0.6-3.9,0.8-5.9c0.6-3.9,1.1-7.9,1.6-11.8C91.7,204.6,91.8,204.7,91.9,204.7z"/>
						<path fill="#FFFFFF" d="M82.1,199c-0.8,5.9-1.7,11.8-2.5,17.7c-0.1-0.1-0.2-0.1-0.3-0.2c0.8-5.9,1.7-11.8,2.5-17.7
							C81.9,198.9,82,199,82.1,199z"/>
						<path fill="#FFFFFF" d="M91.1,204.3c-0.2,1.4-0.4,2.8-0.6,4.2c-0.6,4.4-1.2,8.8-1.9,13.2c0,0.1,0,0.2,0,0.3
							c-0.1-0.1-0.2-0.1-0.3-0.2c0-0.1,0-0.2,0.1-0.3c0.8-5.8,1.6-11.6,2.4-17.4C90.9,204.2,91,204.2,91.1,204.3z"/>
						<path fill="#FFFFFF" d="M79.8,197.7c0.1,0.1,0.2,0.1,0.3,0.2c-0.8,5.9-1.7,11.8-2.5,17.7c-0.1-0.1-0.2-0.1-0.3-0.2
							C78.2,209.5,79,203.6,79.8,197.7z"/>
						<path fill="#FFFFFF" d="M68,190.9c0.1,0.1,0.2,0.1,0.3,0.2c0,0.1,0,0.2,0,0.2c-0.8,5.7-1.6,11.5-2.4,17.2c0,0.1,0,0.2,0,0.3
							c-0.1-0.1-0.2-0.1-0.3-0.2c0-0.1,0-0.2,0-0.3c0.8-5.7,1.6-11.5,2.4-17.2C68,191.1,68,191,68,190.9z"/>
						<path fill="#FFFFFF" d="M77.2,215.4c-0.1-0.1-0.2-0.1-0.3-0.2c0.8-5.9,1.7-11.8,2.5-17.7c0.1,0.1,0.2,0.1,0.3,0.2
							c0,0.1,0,0.2,0,0.3c-0.7,4.7-1.3,9.3-2,14C77.5,213.1,77.4,214.2,77.2,215.4z"/>
						<path fill="#FFFFFF" d="M68.8,191.4c-0.2,1.4-0.4,2.8-0.6,4.2c-0.6,4.4-1.2,8.8-1.9,13.2c0,0.1,0,0.2,0,0.3
							c-0.1-0.1-0.2-0.1-0.3-0.2c0-0.1,0-0.2,0-0.3c0.8-5.7,1.6-11.5,2.4-17.2c0-0.1,0-0.2,0-0.2C68.6,191.3,68.7,191.3,68.8,191.4z
							"/>
						<path fill="#FFFFFF" d="M75.4,214.3c0.8-5.9,1.7-11.8,2.5-17.7c0.1,0.1,0.2,0.1,0.3,0.2c0,0.1,0,0.2,0,0.3
							c-0.8,5.7-1.6,11.5-2.4,17.2c0,0.1,0,0.2,0,0.2C75.6,214.4,75.5,214.4,75.4,214.3z"/>
						<path fill="#FFFFFF" d="M69,210.6c0.8-5.9,1.7-11.8,2.5-17.7c0.1,0.1,0.2,0.1,0.3,0.2c-0.8,5.9-1.7,11.8-2.5,17.7
							C69.2,210.7,69.1,210.7,69,210.6z"/>
						<path fill="#FFFFFF" d="M64.6,208.1c-0.1,0-0.2-0.1-0.3-0.1c0-0.1,0-0.2,0-0.2c0.8-5.7,1.6-11.5,2.4-17.2c0-0.1,0-0.2,0-0.3
							c0.1,0.1,0.2,0.1,0.3,0.2c-0.2,1.1-0.3,2.2-0.5,3.2c-0.7,4.7-1.3,9.4-2,14.1C64.7,207.9,64.7,208,64.6,208.1z"/>
						<path fill="#FFFFFF" d="M84.5,200.4c0.1,0,0.2,0.1,0.2,0.1c-0.5,3.9-1.1,7.8-1.6,11.7c-0.3,2-0.6,4-0.8,6
							c-0.1,0-0.2-0.1-0.3-0.1c0-0.1,0-0.2,0-0.3c0.8-5.4,1.5-10.8,2.3-16.2C84.3,201.2,84.4,200.8,84.5,200.4z"/>
						<path fill="#FFFFFF" d="M80,217c0.2-1.6,0.5-3.2,0.7-4.8c0.6-4,1.1-7.9,1.7-11.9c0-0.3,0.1-0.6,0.2-1c0.1,0,0.2,0.1,0.2,0.1
							c-0.8,5.9-1.7,11.8-2.5,17.7C80.2,217.1,80.1,217,80,217z"/>
						<path fill="#FFFFFF" d="M71,192.6c-0.1,0.9-0.2,1.8-0.3,2.7c-0.7,4.9-1.4,9.8-2.1,14.7c0,0.1,0,0.2,0,0.3
							c-0.1,0-0.2-0.1-0.3-0.1c0.8-5.9,1.7-11.8,2.5-17.7C70.8,192.6,70.9,192.6,71,192.6z"/>
						<path fill="#FFFFFF" d="M89.6,203.4c-0.8,5.9-1.7,11.8-2.5,17.7c-0.1,0-0.2-0.1-0.2-0.1c0.5-3.9,1.1-7.8,1.6-11.7
							c0.3-2,0.6-4,0.8-6C89.5,203.3,89.6,203.4,89.6,203.4z"/>
						<path fill="#FFFFFF" d="M85.1,200.8c-0.8,5.9-1.7,11.8-2.5,17.7c-0.1,0-0.2-0.1-0.2-0.1c0-0.1,0-0.2,0-0.3
							c0.7-4.7,1.3-9.3,2-14c0.2-1.1,0.3-2.3,0.5-3.4C85,200.7,85.1,200.8,85.1,200.8z"/>
						<path fill="#FFFFFF" d="M83.2,199.7c-0.8,5.9-1.7,11.8-2.5,17.7c-0.1,0-0.2-0.1-0.2-0.1c0-0.1,0-0.2,0-0.2
							c0.8-5.7,1.6-11.5,2.4-17.2c0-0.1,0-0.2,0-0.3C83,199.6,83.1,199.6,83.2,199.7z"/>
						<path fill="#FFFFFF" d="M88.1,202.5c0,0.1,0,0.2,0,0.3c-0.8,5.7-1.6,11.5-2.4,17.2c0,0.1,0,0.2,0,0.2c-0.1,0-0.2-0.1-0.2-0.1
							c0-0.1,0-0.2,0-0.2c0.8-5.7,1.6-11.5,2.4-17.2c0-0.1,0-0.2,0-0.3C88,202.4,88,202.5,88.1,202.5z"/>
						<path fill="#FFFFFF" d="M85.2,220c-0.1,0-0.2-0.1-0.2-0.1c0-0.1,0-0.2,0-0.2c0.8-5.7,1.6-11.5,2.4-17.2c0-0.1,0-0.2,0-0.3
							c0.1,0,0.2,0.1,0.2,0.1C86.9,208.2,86,214.1,85.2,220z"/>
						<path fill="#FFFFFF" d="M89.9,222.7c0.8-5.9,1.7-11.8,2.5-17.7c0.1,0,0.2,0.1,0.2,0.1c-0.8,5.9-1.7,11.8-2.5,17.7
							C90.1,222.8,90,222.7,89.9,222.7z"/>
						<path fill="#FFFFFF" d="M67.8,210c0-0.1,0-0.2,0-0.3c0.8-5.7,1.6-11.5,2.4-17.2c0-0.1,0-0.2,0-0.2c0.1,0,0.2,0.1,0.2,0.1
							c0,0.1,0,0.2,0,0.2c-0.8,5.7-1.6,11.5-2.4,17.2c0,0.1,0,0.2,0,0.3C68,210,67.9,210,67.8,210z"/>
						<path fill="#FFFFFF" d="M74,194.4c-0.8,5.9-1.7,11.8-2.5,17.7c-0.1,0-0.2-0.1-0.2-0.1c0-0.1,0-0.2,0-0.2
							c0.8-5.7,1.6-11.5,2.4-17.2c0-0.1,0-0.2,0-0.3C73.8,194.3,73.9,194.3,74,194.4z"/>
						<path fill="#FFFFFF" d="M73.4,213.2c-0.1,0-0.2-0.1-0.2-0.1c0-0.1,0-0.2,0-0.2c0.8-5.7,1.6-11.5,2.4-17.2c0-0.1,0-0.2,0-0.3
							c0.1,0,0.2,0.1,0.2,0.1c0,0.1,0,0.2,0,0.3c-0.7,4.7-1.3,9.3-2,14C73.7,210.9,73.6,212,73.4,213.2z"/>
						<path fill="#FFFFFF" d="M77.4,196.4c-0.2,1.3-0.3,2.5-0.5,3.8c-0.6,4.5-1.3,9.1-1.9,13.6c0,0.1,0,0.2-0.1,0.3
							c-0.1,0-0.2-0.1-0.2-0.1c0.8-5.9,1.7-11.8,2.5-17.7C77.3,196.3,77.3,196.3,77.4,196.4z"/>
						<path fill="#FFFFFF" d="M66.4,190c0.1,0,0.2,0.1,0.2,0.1c-0.8,5.9-1.7,11.8-2.5,17.7c-0.1,0-0.2-0.1-0.2-0.1
							c0-0.1,0-0.2,0-0.2c0.8-5.7,1.6-11.5,2.4-17.2C66.4,190.2,66.4,190.1,66.4,190z"/>
						<path d="M81.1,198.5c0,0.1,0,0.2,0,0.2c-0.8,5.7-1.6,11.5-2.4,17.2c0,0.1,0,0.2,0,0.3c-0.1,0-0.2-0.1-0.2-0.1
							c0.8-5.9,1.7-11.8,2.5-17.7C80.9,198.4,81,198.4,81.1,198.5z"/>
						<path d="M66.4,190c0,0.1,0,0.2,0,0.3c-0.8,5.7-1.6,11.5-2.4,17.2c0,0.1,0,0.2,0,0.2c-0.1,0-0.1-0.1-0.2-0.1c0-0.1,0-0.2,0-0.3
							c0.7-4.7,1.3-9.3,2-14c0.2-1.1,0.3-2.3,0.5-3.4C66.3,190,66.4,190,66.4,190z"/>
						<path d="M89.4,203.3c-0.3,2-0.6,4-0.8,6c-0.5,3.9-1.1,7.8-1.6,11.7c-0.1,0-0.1-0.1-0.2-0.1c0.2-1.1,0.3-2.3,0.5-3.4
							c0.7-4.7,1.3-9.3,2-14c0-0.1,0-0.2,0-0.3C89.3,203.2,89.3,203.2,89.4,203.3z"/>
						<path d="M68.1,210.1c0-0.1,0-0.2,0-0.3c0.8-5.7,1.6-11.5,2.4-17.2c0-0.1,0-0.2,0-0.2c0.1,0,0.1,0.1,0.2,0.1
							c-0.8,5.9-1.7,11.8-2.5,17.7C68.2,210.2,68.1,210.1,68.1,210.1z"/>
						<path d="M85.2,220c0.8-5.9,1.7-11.8,2.5-17.7c0.1,0,0.1,0.1,0.2,0.1c0,0.1,0,0.2,0,0.3c-0.8,5.7-1.6,11.5-2.4,17.2
							c0,0.1,0,0.2,0,0.2C85.3,220.1,85.3,220,85.2,220z"/>
						<path d="M83,199.6c0,0.1,0,0.2,0,0.3c-0.8,5.7-1.6,11.5-2.4,17.2c0,0.1,0,0.2,0,0.2c-0.1,0-0.1-0.1-0.2-0.1
							c0.8-5.9,1.7-11.8,2.5-17.7C82.8,199.5,82.9,199.5,83,199.6z"/>
						<path d="M87.5,202.1c0,0.1,0,0.2,0,0.3c-0.8,5.7-1.6,11.5-2.4,17.2c0,0.1,0,0.2,0,0.2c-0.1,0-0.1-0.1-0.2-0.1
							c0.8-5.9,1.7-11.8,2.5-17.7C87.3,202.1,87.4,202.1,87.5,202.1z"/>
						<path d="M75.7,195.3c0,0.1,0,0.2,0,0.3c-0.8,5.7-1.6,11.5-2.4,17.2c0,0.1,0,0.2,0,0.2c-0.1,0-0.1-0.1-0.2-0.1
							c0-0.1,0-0.2,0.1-0.3c0.8-5.4,1.5-10.9,2.3-16.3c0.1-0.4,0.1-0.7,0.1-1.1C75.5,195.3,75.6,195.3,75.7,195.3z"/>
						<path d="M73.4,213.2c0.2-1.1,0.3-2.3,0.5-3.4c0.7-4.7,1.3-9.3,2-14c0-0.1,0-0.2,0-0.3c0.1,0,0.1,0.1,0.2,0.1
							c-0.1,0.7-0.2,1.3-0.3,2c-0.7,5.2-1.5,10.5-2.2,15.7C73.6,213.3,73.5,213.2,73.4,213.2z"/>
						<path d="M84.9,200.7c-0.2,1.1-0.3,2.3-0.5,3.4c-0.7,4.7-1.3,9.3-2,14c0,0.1,0,0.2,0,0.3c-0.1,0-0.1-0.1-0.2-0.1
							c0.3-2,0.6-4,0.8-6c0.5-3.9,1.1-7.8,1.6-11.7C84.8,200.6,84.8,200.6,84.9,200.7z"/>
						<path d="M64.2,207.9c0.8-5.9,1.7-11.8,2.5-17.7c0.1,0,0.1,0.1,0.2,0.1c0,0.1,0,0.2,0,0.3c-0.8,5.7-1.6,11.5-2.4,17.2
							c0,0.1,0,0.2,0,0.2C64.3,207.9,64.3,207.9,64.2,207.9z"/>
						<path d="M84.5,200.4c-0.1,0.4-0.1,0.8-0.2,1.1c-0.8,5.4-1.5,10.8-2.3,16.2c0,0.1,0,0.2,0,0.3c-0.1,0-0.1-0.1-0.2-0.1
							c0-0.1,0-0.2,0-0.3c0.8-5.7,1.6-11.5,2.4-17.2c0-0.1,0-0.2,0-0.2C84.3,200.3,84.4,200.4,84.5,200.4z"/>
						<path d="M73.7,194.2c0,0.1,0,0.2,0,0.3c-0.8,5.7-1.6,11.5-2.4,17.2c0,0.1,0,0.2,0,0.2c-0.1,0-0.1-0.1-0.2-0.1
							c0.4-2.7,0.7-5.3,1.1-8c0.4-3.1,0.9-6.3,1.3-9.4c0-0.1,0-0.2,0-0.3C73.6,194.2,73.7,194.2,73.7,194.2z"/>
						<path d="M64.6,208.1c0-0.1,0-0.2,0.1-0.3c0.7-4.7,1.3-9.4,2-14.1c0.2-1.1,0.3-2.2,0.5-3.2c0,0,0.1,0.1,0.1,0.1
							c0,0.1,0,0.2,0,0.3c-0.8,5.7-1.6,11.5-2.4,17.2c0,0.1,0,0.2,0,0.2C64.8,208.2,64.7,208.2,64.6,208.1z"/>
						<path d="M90.9,204.1c-0.8,5.8-1.6,11.6-2.4,17.4c0,0.1,0,0.2-0.1,0.3c0,0-0.1-0.1-0.1-0.1c0-0.1,0-0.2,0-0.3
							c0.8-5.7,1.6-11.5,2.4-17.2c0-0.1,0-0.2,0-0.2C90.8,204,90.8,204.1,90.9,204.1z"/>
						<path d="M68,190.9c0,0.1,0,0.2,0,0.2c-0.8,5.7-1.6,11.5-2.4,17.2c0,0.1,0,0.2,0,0.3c0,0-0.1-0.1-0.1-0.1c0-0.1,0-0.2,0-0.3
							c0.8-5.7,1.6-11.5,2.4-17.2c0-0.1,0-0.2,0-0.2C67.9,190.9,68,190.9,68,190.9z"/>
						<path d="M68.5,191.2c0,0.1,0,0.2,0,0.2c-0.8,5.7-1.6,11.5-2.4,17.2c0,0.1,0,0.2,0,0.3c0,0-0.1-0.1-0.1-0.1c0-0.1,0-0.2,0-0.3
							c0.8-5.7,1.6-11.5,2.4-17.2c0-0.1,0-0.2,0-0.2C68.4,191.1,68.4,191.2,68.5,191.2z"/>
						<path d="M69.3,210.8c0.8-5.9,1.7-11.8,2.5-17.7c0,0,0.1,0.1,0.1,0.1c-0.2,1.1-0.3,2.3-0.5,3.4c-0.7,4.7-1.3,9.3-2,14
							c0,0.1,0,0.2,0,0.3C69.4,210.8,69.3,210.8,69.3,210.8z"/>
						<path d="M72.3,212.5c0-0.1,0-0.2,0-0.3c0.8-5.7,1.6-11.5,2.4-17.2c0-0.1,0-0.2,0-0.2c0,0,0.1,0.1,0.1,0.1c0,0.1,0,0.2,0,0.2
							c-0.8,5.7-1.6,11.5-2.4,17.2c0,0.1,0,0.2,0,0.3C72.4,212.6,72.3,212.6,72.3,212.5z"/>
						<path d="M79.4,197.5c-0.8,5.9-1.7,11.8-2.5,17.7c0,0-0.1-0.1-0.1-0.1c0.2-1.1,0.3-2.3,0.5-3.4c0.7-4.7,1.3-9.3,2-14
							c0-0.1,0-0.2,0-0.3C79.3,197.4,79.4,197.5,79.4,197.5z"/>
						<path d="M77.2,215.4c0.2-1.1,0.3-2.3,0.5-3.4c0.7-4.7,1.3-9.3,2-14c0-0.1,0-0.2,0-0.3c0,0,0.1,0.1,0.1,0.1
							c-0.8,5.9-1.7,11.8-2.5,17.7C77.3,215.4,77.3,215.4,77.2,215.4z"/>
						<path d="M77.6,215.6c0.8-5.9,1.7-11.8,2.5-17.7c0,0,0.1,0.1,0.1,0.1c-0.2,1.1-0.3,2.3-0.5,3.4c-0.7,4.7-1.3,9.3-2,14
							c0,0.1,0,0.2,0,0.3C77.7,215.7,77.7,215.6,77.6,215.6z"/>
						<path d="M81.8,198.9c-0.8,5.9-1.7,11.8-2.5,17.7c0,0-0.1-0.1-0.1-0.1c0.2-1.1,0.3-2.3,0.5-3.4c0.7-4.7,1.3-9.3,2-14
							c0-0.1,0-0.2,0-0.3C81.7,198.8,81.7,198.8,81.8,198.9z"/>
						<path fill="#FFFFFF" d="M66.2,189.9c-0.2,1.1-0.3,2.3-0.5,3.4c-0.7,4.7-1.3,9.3-2,14c0,0.1,0,0.2,0,0.3c0,0-0.1,0-0.1-0.1
							c0-0.1,0-0.1,0-0.2c0.8-5.8,1.6-11.5,2.4-17.3C66.2,190,66.1,189.8,66.2,189.9z"/>
					</g>
				</g>
			</g>
		</g>
		<text transform="matrix(0.75 0.433 0 1 34.9899 132.1512)" font-family="'Roboto-Bold'" font-size="73.0033">3</text>
		<g>
			<polygon fill="none" stroke="#654322" stroke-miterlimit="10" points="165.6,202.2 158.2,161.5 162.1,55.9 162.1,55.9 67,1 
				43.8,19.2 5.3,36.2 5.3,36.2 8.8,134.5 0.9,188 96,242.9 165.7,202.7 			"/>
		</g>
	</g>
</g>
<g id="Layer_4" display="none">
	<g display="inline">
		<g>
			<g>
				<g>
					<g>
						<polygon fill="#7E522F" points="165.6,202.2 158.2,161.5 162.1,55.9 162.1,55.9 67,1 43.8,19.2 5.3,36.2 5.3,36.2 8.8,134.6 
							0.9,188 96,242.9 165.7,202.7 						"/>
					</g>
				</g>
				<g>
					<polygon fill="#93653E" points="165.6,202.2 158.2,161.5 162.1,55.9 129.8,68.7 132.2,172.1 					"/>
				</g>
				<g>
					<polygon fill="#885B37" points="132.2,172.1 96.3,241.1 96,242.9 165.7,202.7 165.6,202.2 					"/>
				</g>
				<g>
					<polygon fill="#7E5635" points="129.8,68.7 129.6,68.7 100.4,91.1 103.9,188.6 96.3,241.1 132.2,172.1 					"/>
				</g>
				<g>
					<path fill="#654322" d="M162.1,55.9L67,1v70.8c28.8,16.6,33.4,19.3,33.4,19.3l29.2-22.4L162.1,55.9z"/>
				</g>
				<g>
					<path fill="#513217" d="M67,1L43.8,19.2v39.3c7.4,4.3,15.3,8.8,23.2,13.4V1z"/>
				</g>
				<g>
					<path fill="#412A18" d="M5.3,36.2c0,0,17.1,9.9,38.5,22.2V19.2L5.3,36.2z"/>
				</g>
				<g>
					<polygon fill="#CA9E67" points="100.4,91.1 5.3,36.2 8.8,134.6 103.9,188.6 					"/>
				</g>
				<g>
					<polygon fill="#D5A86F" points="96,242.9 103.9,188.6 8.8,134.6 0.9,188 					"/>
				</g>
				<g>
					<path fill="#FFFFFF" d="M61.8,206.8l3.1-22.3c0.2-1.2,1-1.7,1.9-1.2l26.9,15.5c0.9,0.5,1.5,1.9,1.3,3l-3.1,22.3
						c-0.2,1.2-1,1.7-1.9,1.2l-26.9-15.5C62.2,209.3,61.7,208,61.8,206.8z"/>
				</g>
				<g>
					<path d="M67.7,188.2l0.4,0.1c0,0.1,0,0.2,0.1,0.3c0,0.1,0.1,0.2,0.2,0.2c0.1,0.1,0.2,0.1,0.2,0.1c0,0,0.1-0.1,0.1-0.1
						c0,0,0-0.1,0-0.1c0,0-0.1-0.1-0.1-0.1c-0.3-0.3-0.5-0.5-0.6-0.6c-0.1-0.2-0.1-0.4-0.1-0.6c0-0.2,0.1-0.3,0.2-0.3
						c0.1-0.1,0.3,0,0.5,0.1c0.2,0.1,0.4,0.3,0.4,0.4c0.1,0.1,0.1,0.3,0.1,0.5l-0.4-0.1c0-0.1,0-0.2-0.1-0.2c0-0.1-0.1-0.1-0.2-0.2
						c-0.1-0.1-0.2-0.1-0.2-0.1c0,0-0.1,0-0.1,0.1c0,0,0,0.1,0,0.1c0,0.1,0.1,0.2,0.4,0.4c0.2,0.2,0.3,0.3,0.4,0.5
						c0.1,0.1,0.1,0.3,0.1,0.5c0,0.2-0.1,0.3-0.2,0.4c-0.1,0.1-0.3,0-0.5-0.1c-0.2-0.1-0.4-0.3-0.5-0.4
						C67.8,188.6,67.7,188.4,67.7,188.2z"/>
					<path d="M69.6,187.8L70,188l0,0.3c0.1-0.1,0.1-0.1,0.2-0.1c0.1,0,0.2,0,0.3,0.1c0.2,0.1,0.3,0.3,0.4,0.5
						c0.1,0.3,0.1,0.5,0.1,0.9c0,0.3-0.1,0.6-0.3,0.7c-0.1,0.1-0.3,0.1-0.5,0c-0.1,0-0.2-0.1-0.2-0.2c-0.1-0.1-0.1-0.2-0.2-0.3
						l-0.1,1l-0.4-0.2L69.6,187.8z M69.9,189c0,0.2,0,0.4,0,0.6c0.1,0.1,0.1,0.2,0.2,0.3c0.1,0.1,0.2,0,0.3,0
						c0.1-0.1,0.1-0.2,0.2-0.4c0-0.2,0-0.4,0-0.5c0-0.1-0.1-0.2-0.2-0.3c-0.1-0.1-0.2-0.1-0.3,0C70,188.7,69.9,188.8,69.9,189z"/>
					<path d="M72.1,188.4c0.2,0.1,0.3,0.3,0.4,0.6c0.1,0.3,0.1,0.7,0,1.2c-0.1,0.5-0.2,0.9-0.4,1c-0.1,0.1-0.3,0.1-0.5,0
						c-0.2-0.1-0.4-0.3-0.4-0.6c-0.1-0.3-0.1-0.7,0-1.2c0.1-0.5,0.2-0.9,0.4-1C71.7,188.3,71.9,188.3,72.1,188.4z M72.1,188.8
						c0,0-0.1,0-0.1,0c0,0-0.1,0.1-0.1,0.2c0,0.1-0.1,0.3-0.1,0.7s-0.1,0.6-0.1,0.7c0,0.1,0,0.2,0.1,0.3c0,0.1,0.1,0.1,0.1,0.1
						c0,0,0.1,0,0.1,0c0,0,0.1-0.1,0.1-0.2c0-0.1,0.1-0.3,0.1-0.7c0-0.3,0.1-0.6,0.1-0.7s0-0.2-0.1-0.3
						C72.1,188.9,72.1,188.9,72.1,188.8z"/>
					<path d="M73.7,189.3c0.2,0.1,0.3,0.3,0.4,0.6c0.1,0.3,0.1,0.7,0,1.2c-0.1,0.5-0.2,0.9-0.4,1c-0.1,0.1-0.3,0.1-0.5,0
						c-0.2-0.1-0.3-0.3-0.4-0.6c-0.1-0.3-0.1-0.7,0-1.2c0.1-0.5,0.2-0.9,0.4-1C73.4,189.2,73.5,189.2,73.7,189.3z M73.7,189.8
						c0,0-0.1,0-0.1,0c0,0-0.1,0.1-0.1,0.2c0,0.1-0.1,0.3-0.1,0.7s-0.1,0.6-0.1,0.7c0,0.1,0,0.2,0.1,0.3c0,0.1,0.1,0.1,0.1,0.1
						s0.1,0,0.1,0c0,0,0.1-0.1,0.1-0.2c0-0.1,0.1-0.3,0.1-0.7s0.1-0.6,0.1-0.7c0-0.1,0-0.2-0.1-0.3
						C73.7,189.8,73.7,189.8,73.7,189.8z"/>
					<path d="M75.3,190.3c0.2,0.1,0.3,0.3,0.4,0.6c0.1,0.3,0.1,0.7,0,1.2c-0.1,0.5-0.2,0.9-0.4,1c-0.1,0.1-0.3,0.1-0.5,0
						c-0.2-0.1-0.3-0.3-0.4-0.6c-0.1-0.3-0.1-0.7,0-1.2c0.1-0.5,0.2-0.9,0.4-1C75,190.1,75.1,190.1,75.3,190.3z M75.3,190.7
						c0,0-0.1,0-0.1,0c0,0-0.1,0.1-0.1,0.2c0,0.1-0.1,0.3-0.1,0.7s-0.1,0.6-0.1,0.7c0,0.1,0,0.2,0.1,0.3c0,0.1,0.1,0.1,0.1,0.1
						c0,0,0.1,0,0.1,0c0,0,0.1-0.1,0.1-0.2c0-0.1,0.1-0.3,0.1-0.7s0.1-0.6,0.1-0.7c0-0.1,0-0.2-0.1-0.3
						C75.4,190.8,75.3,190.7,75.3,190.7z"/>
					<path d="M76.9,191.2c0.2,0.1,0.3,0.3,0.4,0.6c0.1,0.3,0.1,0.7,0,1.2c-0.1,0.5-0.2,0.9-0.4,1c-0.1,0.1-0.3,0.1-0.5,0
						c-0.2-0.1-0.3-0.3-0.4-0.6c-0.1-0.3-0.1-0.7,0-1.2c0.1-0.5,0.2-0.9,0.4-1C76.6,191.1,76.7,191.1,76.9,191.2z M76.9,191.6
						c0,0-0.1,0-0.1,0c0,0-0.1,0.1-0.1,0.2c0,0.1-0.1,0.3-0.1,0.7s-0.1,0.6-0.1,0.7c0,0.1,0,0.2,0.1,0.3c0,0.1,0.1,0.1,0.1,0.1
						s0.1,0,0.1,0c0,0,0.1-0.1,0.1-0.2c0-0.1,0.1-0.3,0.1-0.7s0.1-0.6,0.1-0.7c0-0.1,0-0.2-0.1-0.3C77,191.7,76.9,191.7,76.9,191.6z
						"/>
					<path d="M78.5,192.1c0.2,0.1,0.3,0.3,0.4,0.6c0.1,0.3,0.1,0.7,0,1.2c-0.1,0.5-0.2,0.9-0.4,1c-0.1,0.1-0.3,0.1-0.5,0
						c-0.2-0.1-0.3-0.3-0.4-0.6c-0.1-0.3-0.1-0.7,0-1.2c0.1-0.5,0.2-0.9,0.4-1C78.2,192,78.3,192,78.5,192.1z M78.5,192.6
						c0,0-0.1,0-0.1,0c0,0-0.1,0.1-0.1,0.2c0,0.1-0.1,0.3-0.1,0.7s-0.1,0.6-0.1,0.7c0,0.1,0,0.2,0.1,0.3c0,0.1,0.1,0.1,0.1,0.1
						c0,0,0.1,0,0.1,0c0,0,0.1-0.1,0.1-0.2c0-0.1,0.1-0.3,0.1-0.7c0-0.3,0.1-0.6,0.1-0.7c0-0.1,0-0.2-0.1-0.3
						C78.6,192.6,78.5,192.6,78.5,192.6z"/>
					<path d="M80.2,193c0.2,0.1,0.3,0.3,0.4,0.6c0.1,0.3,0.1,0.7,0,1.2c-0.1,0.5-0.2,0.9-0.4,1c-0.1,0.1-0.3,0.1-0.5,0
						s-0.3-0.3-0.4-0.6c-0.1-0.3-0.1-0.7,0-1.2c0.1-0.5,0.2-0.9,0.4-1C79.8,192.9,80,192.9,80.2,193z M80.1,193.5c0,0-0.1,0-0.1,0
						c0,0-0.1,0.1-0.1,0.2c0,0.1-0.1,0.3-0.1,0.7c0,0.3-0.1,0.6-0.1,0.7c0,0.1,0,0.2,0.1,0.3c0,0.1,0.1,0.1,0.1,0.1s0.1,0,0.1,0
						c0,0,0.1-0.1,0.1-0.2c0-0.1,0.1-0.3,0.1-0.7s0.1-0.6,0.1-0.7c0-0.1,0-0.2-0.1-0.3C80.2,193.6,80.1,193.5,80.1,193.5z"/>
					<path d="M81.8,194c0.2,0.1,0.3,0.3,0.4,0.6c0.1,0.3,0.1,0.7,0,1.2c-0.1,0.5-0.2,0.9-0.4,1c-0.1,0.1-0.3,0.1-0.5,0
						s-0.3-0.3-0.4-0.6c-0.1-0.3-0.1-0.7,0-1.2c0.1-0.5,0.2-0.9,0.4-1C81.4,193.9,81.6,193.9,81.8,194z M81.7,194.4c0,0-0.1,0-0.1,0
						c0,0-0.1,0.1-0.1,0.2c0,0.1-0.1,0.3-0.1,0.7s-0.1,0.6-0.1,0.7c0,0.1,0,0.2,0.1,0.3c0,0.1,0.1,0.1,0.1,0.1c0,0,0.1,0,0.1,0
						c0,0,0.1-0.1,0.1-0.2c0-0.1,0.1-0.3,0.1-0.7c0-0.3,0.1-0.6,0.1-0.7c0-0.1,0-0.2-0.1-0.3C81.8,194.5,81.7,194.4,81.7,194.4z"/>
					<path d="M83.4,194.9c0.2,0.1,0.3,0.3,0.4,0.6c0.1,0.3,0.1,0.7,0,1.2c-0.1,0.5-0.2,0.9-0.4,1c-0.1,0.1-0.3,0.1-0.5,0
						c-0.2-0.1-0.3-0.3-0.4-0.6c-0.1-0.3-0.1-0.7,0-1.2c0.1-0.5,0.2-0.9,0.4-1C83,194.8,83.2,194.8,83.4,194.9z M83.3,195.3
						c0,0-0.1,0-0.1,0c0,0-0.1,0.1-0.1,0.2c0,0.1-0.1,0.3-0.1,0.7c0,0.3-0.1,0.6-0.1,0.7c0,0.1,0,0.2,0.1,0.3c0,0.1,0.1,0.1,0.1,0.1
						s0.1,0,0.1,0c0,0,0.1-0.1,0.1-0.2c0-0.1,0.1-0.3,0.1-0.7s0.1-0.6,0.1-0.7c0-0.1,0-0.2-0.1-0.3
						C83.4,195.4,83.4,195.4,83.3,195.3z"/>
					<path d="M85,195.8c0.2,0.1,0.3,0.3,0.4,0.6c0.1,0.3,0.1,0.7,0,1.2c-0.1,0.5-0.2,0.9-0.4,1c-0.1,0.1-0.3,0.1-0.5,0
						c-0.2-0.1-0.3-0.3-0.4-0.6c-0.1-0.3-0.1-0.7,0-1.2c0.1-0.5,0.2-0.9,0.4-1C84.6,195.7,84.8,195.7,85,195.8z M84.9,196.3
						c0,0-0.1,0-0.1,0c0,0-0.1,0.1-0.1,0.2c0,0.1-0.1,0.3-0.1,0.7s-0.1,0.6-0.1,0.7c0,0.1,0,0.2,0.1,0.3c0,0.1,0.1,0.1,0.1,0.1
						c0,0,0.1,0,0.1,0c0,0,0.1-0.1,0.1-0.2c0-0.1,0.1-0.3,0.1-0.7c0-0.3,0.1-0.6,0.1-0.7c0-0.1,0-0.2-0.1-0.3
						C85,196.3,85,196.3,84.9,196.3z"/>
					<path d="M86.6,196.7c0.2,0.1,0.3,0.3,0.4,0.6c0.1,0.3,0.1,0.7,0,1.2c-0.1,0.5-0.2,0.9-0.4,1c-0.1,0.1-0.3,0.1-0.5,0
						c-0.2-0.1-0.3-0.3-0.4-0.6c-0.1-0.3-0.1-0.7,0-1.2c0.1-0.5,0.2-0.9,0.4-1C86.2,196.6,86.4,196.6,86.6,196.7z M86.5,197.2
						c0,0-0.1,0-0.1,0c0,0-0.1,0.1-0.1,0.2c0,0.1-0.1,0.3-0.1,0.7c0,0.3-0.1,0.6-0.1,0.7c0,0.1,0,0.2,0.1,0.3c0,0.1,0.1,0.1,0.1,0.1
						s0.1,0,0.1,0c0,0,0.1-0.1,0.1-0.2c0-0.1,0.1-0.3,0.1-0.7s0.1-0.6,0.1-0.7c0-0.1,0-0.2-0.1-0.3
						C86.6,197.3,86.6,197.2,86.5,197.2z"/>
					<path d="M88.2,197.7c0.2,0.1,0.3,0.3,0.4,0.6c0.1,0.3,0.1,0.7,0,1.2c-0.1,0.5-0.2,0.9-0.4,1c-0.1,0.1-0.3,0.1-0.5,0
						c-0.2-0.1-0.3-0.3-0.4-0.6c-0.1-0.3-0.1-0.7,0-1.2c0.1-0.5,0.2-0.9,0.4-1C87.8,197.6,88,197.6,88.2,197.7z M88.1,198.1
						c0,0-0.1,0-0.1,0c0,0-0.1,0.1-0.1,0.2c0,0.1-0.1,0.3-0.1,0.7s-0.1,0.6-0.1,0.7c0,0.1,0,0.2,0.1,0.3c0,0.1,0.1,0.1,0.1,0.1
						c0,0,0.1,0,0.1,0c0,0,0.1-0.1,0.1-0.2c0-0.1,0.1-0.3,0.1-0.7s0.1-0.6,0.1-0.7s0-0.2-0.1-0.3C88.2,198.2,88.2,198.1,88.1,198.1z
						"/>
					<path d="M89.8,198.6c0.2,0.1,0.3,0.3,0.4,0.6c0.1,0.3,0.1,0.7,0,1.2c-0.1,0.5-0.2,0.9-0.4,1c-0.1,0.1-0.3,0.1-0.5,0
						c-0.2-0.1-0.3-0.3-0.4-0.6c-0.1-0.3-0.1-0.7,0-1.2c0.1-0.5,0.2-0.9,0.4-1C89.4,198.5,89.6,198.5,89.8,198.6z M89.7,199
						c0,0-0.1,0-0.1,0c0,0-0.1,0.1-0.1,0.2c0,0.1-0.1,0.3-0.1,0.7s-0.1,0.6-0.1,0.7c0,0.1,0,0.2,0.1,0.3c0,0.1,0.1,0.1,0.1,0.1
						s0.1,0,0.1,0c0,0,0.1-0.1,0.1-0.2c0-0.1,0.1-0.3,0.1-0.7s0.1-0.6,0.1-0.7c0-0.1,0-0.2-0.1-0.3C89.8,199.1,89.8,199.1,89.7,199z
						"/>
					<path d="M91.4,199.5c0.2,0.1,0.3,0.3,0.4,0.6c0.1,0.3,0.1,0.7,0,1.2c-0.1,0.5-0.2,0.9-0.4,1c-0.1,0.1-0.3,0.1-0.5,0
						c-0.2-0.1-0.4-0.3-0.4-0.6c-0.1-0.3-0.1-0.7,0-1.2c0.1-0.5,0.2-0.9,0.4-1C91,199.4,91.2,199.4,91.4,199.5z M91.3,200
						c0,0-0.1,0-0.1,0c0,0-0.1,0.1-0.1,0.2c0,0.1-0.1,0.3-0.1,0.7s-0.1,0.6-0.1,0.7c0,0.1,0,0.2,0.1,0.3c0,0.1,0.1,0.1,0.1,0.1
						c0,0,0.1,0,0.1,0c0,0,0.1-0.1,0.1-0.2c0-0.1,0.1-0.3,0.1-0.7s0.1-0.6,0.1-0.7s0-0.2-0.1-0.3C91.4,200,91.4,200,91.3,200z"/>
				</g>
				<g>
					<g>
						<g>
							<path fill="#FFFFFF" d="M67.3,190.5c0.2,0.1,0.4,0.2,0.6,0.3c0,0.1,0,0.2,0,0.2c-0.8,5.7-1.6,11.5-2.4,17.2
								c0,0.1,0,0.2,0,0.3c-0.2-0.1-0.4-0.2-0.6-0.3c0-0.1,0-0.2,0-0.2c0.8-5.7,1.6-11.5,2.4-17.2C67.3,190.7,67.3,190.6,67.3,190.5
								z"/>
						</g>
						<g>
							<path fill="#FFFFFF" d="M71.1,211.8c-0.2-0.1-0.4-0.2-0.6-0.3c0.8-5.9,1.7-11.8,2.5-17.7c0.2,0.1,0.4,0.2,0.6,0.3
								c0,0.1,0,0.2,0,0.3c-0.4,3.1-0.9,6.3-1.3,9.4C71.8,206.5,71.5,209.2,71.1,211.8z"/>
						</g>
						<g>
							<path fill="#FFFFFF" d="M78.7,197.1c0.2,0.1,0.4,0.2,0.6,0.3c0,0.1,0,0.2,0,0.3c-0.7,4.7-1.3,9.3-2,14
								c-0.2,1.1-0.3,2.3-0.5,3.4c-0.2-0.1-0.4-0.2-0.6-0.3c0.8-5.6,1.6-11.2,2.4-16.8C78.6,197.7,78.6,197.4,78.7,197.1z"/>
						</g>
						<g>
							<path fill="#FFFFFF" d="M86.7,220.9c-0.2-0.1-0.4-0.2-0.6-0.3c0.8-5.9,1.7-11.8,2.5-17.7c0.2,0.1,0.4,0.2,0.6,0.3
								c0,0.1,0,0.2,0,0.3c-0.7,4.7-1.3,9.3-2,14C87,218.6,86.9,219.7,86.7,220.9z"/>
						</g>
						<g>
							<path fill="#FFFFFF" d="M70,211.2c-0.2-0.1-0.4-0.2-0.6-0.3c0-0.1,0-0.2,0-0.3c0.7-4.7,1.3-9.3,2-14c0.2-1.1,0.3-2.3,0.5-3.4
								c0.2,0.1,0.4,0.2,0.6,0.3c0,0.1,0,0.2,0,0.3c-0.8,5.7-1.6,11.5-2.4,17.2C70,211,70,211.1,70,211.2z"/>
						</g>
						<g>
							<path fill="#FFFFFF" d="M69.2,191.7c0.2,0.1,0.4,0.2,0.6,0.3c0,0.1,0,0.2,0,0.3c-0.8,5.7-1.6,11.5-2.4,17.2
								c0,0.1,0,0.2,0,0.2c-0.2-0.1-0.4-0.2-0.6-0.3c0-0.1,0-0.2,0-0.2c0.8-5.7,1.6-11.5,2.4-17.2C69.2,191.8,69.2,191.7,69.2,191.7
								z"/>
						</g>
						<g>
							<path fill="#FFFFFF" d="M76.1,195.6c0.2,0.1,0.4,0.2,0.6,0.3c0,0.1,0,0.2,0,0.3c-0.8,5.7-1.6,11.5-2.4,17.2
								c0,0.1,0,0.2,0,0.2c-0.2-0.1-0.4-0.2-0.6-0.3c0.7-5.2,1.5-10.5,2.2-15.7C75.9,197,76,196.3,76.1,195.6z"/>
						</g>
						<g>
							<path fill="#FFFFFF" d="M83.7,200c0.2,0.1,0.4,0.2,0.6,0.3c0,0.1,0,0.2,0,0.2c-0.8,5.7-1.6,11.5-2.4,17.2c0,0.1,0,0.2,0,0.3
								c-0.2-0.1-0.4-0.2-0.6-0.3c0-0.1,0-0.2,0-0.3c0.8-5.7,1.6-11.5,2.4-17.2C83.7,200.2,83.7,200.1,83.7,200z"/>
						</g>
						<g>
							<path fill="#FFFFFF" d="M88.2,221.7c-0.2-0.1-0.4-0.2-0.6-0.3c0-0.1,0-0.2,0-0.3c0.8-5.7,1.6-11.5,2.4-17.2
								c0-0.1,0-0.2,0-0.2c0.2,0.1,0.4,0.2,0.6,0.3c0,0.1,0,0.2,0,0.2c-0.8,5.7-1.6,11.5-2.4,17.2C88.3,221.6,88.2,221.6,88.2,221.7
								z"/>
						</g>
						<g>
							<path fill="#FFFFFF" d="M85.6,201.1c0.2,0.1,0.4,0.2,0.6,0.3c0,0.1,0,0.2,0,0.3c-0.8,5.7-1.6,11.5-2.4,17.2
								c0,0.1,0,0.2,0,0.2c-0.2-0.1-0.4-0.2-0.6-0.3c0-0.1,0-0.2,0-0.2c0.8-5.7,1.6-11.5,2.4-17.2C85.6,201.3,85.6,201.2,85.6,201.1
								z"/>
						</g>
						<g>
							<path fill="#FFFFFF" d="M80.3,198c0.2,0.1,0.4,0.2,0.6,0.3c-0.8,5.9-1.7,11.8-2.5,17.7c-0.2-0.1-0.4-0.2-0.6-0.3
								c0-0.1,0-0.2,0-0.3c0.7-4.7,1.3-9.3,2-14C79.9,200.3,80.1,199.1,80.3,198z"/>
						</g>
						<g>
							<path fill="#FFFFFF" d="M86.7,201.7c0.2,0.1,0.4,0.2,0.6,0.3c-0.8,5.9-1.7,11.8-2.5,17.7c-0.2-0.1-0.4-0.2-0.6-0.3
								c0-0.1,0-0.2,0-0.3c0.7-4.7,1.3-9.3,2-14C86.4,204,86.5,202.9,86.7,201.7z"/>
						</g>
						<g>
							<path fill="#FFFFFF" d="M81.1,198.5c0.2,0.1,0.4,0.2,0.6,0.3c0,0.1,0,0.2,0,0.3c-0.7,4.7-1.3,9.3-2,14
								c-0.2,1.1-0.3,2.3-0.5,3.4c-0.2-0.1-0.4-0.2-0.6-0.3c0-0.1,0-0.2,0-0.3c0.8-5.7,1.6-11.5,2.4-17.2
								C81,198.6,81,198.5,81.1,198.5z"/>
						</g>
						<g>
							<path fill="#FFFFFF" d="M73,212.9c-0.2-0.1-0.4-0.2-0.6-0.3c0-0.1,0-0.2,0-0.3c0.8-5.7,1.6-11.5,2.4-17.2c0-0.1,0-0.2,0-0.2
								c0.2,0.1,0.4,0.2,0.6,0.3c0,0.4-0.1,0.7-0.1,1.1c-0.8,5.4-1.5,10.9-2.3,16.3C73,212.8,73,212.8,73,212.9z"/>
						</g>
						<g>
							<path d="M70,211.2c0-0.1,0-0.2,0-0.2c0.8-5.7,1.6-11.5,2.4-17.2c0-0.1,0-0.2,0-0.3c0.2,0.1,0.3,0.2,0.5,0.3
								c-0.8,5.9-1.7,11.8-2.5,17.7C70.3,211.4,70.2,211.3,70,211.2z"/>
						</g>
						<g>
							<path d="M86.7,201.7c-0.2,1.1-0.3,2.3-0.5,3.4c-0.7,4.7-1.3,9.3-2,14c0,0.1,0,0.2,0,0.3c-0.2-0.1-0.3-0.2-0.5-0.3
								c0-0.1,0-0.2,0-0.2c0.8-5.7,1.6-11.5,2.4-17.2c0-0.1,0-0.2,0-0.3C86.4,201.5,86.5,201.6,86.7,201.7z"/>
						</g>
						<g>
							<path d="M88.6,202.8c-0.8,5.9-1.7,11.8-2.5,17.7c-0.2-0.1-0.3-0.2-0.5-0.3c0-0.1,0-0.2,0-0.2c0.8-5.7,1.6-11.5,2.4-17.2
								c0-0.1,0-0.2,0-0.3C88.3,202.6,88.5,202.7,88.6,202.8z"/>
						</g>
						<g>
							<path d="M74.2,213.6c0-0.1,0-0.2,0-0.2c0.8-5.7,1.6-11.5,2.4-17.2c0-0.1,0-0.2,0-0.3c0.2,0.1,0.3,0.2,0.5,0.3
								c-0.8,5.9-1.7,11.8-2.5,17.7C74.5,213.8,74.4,213.7,74.2,213.6z"/>
						</g>
						<g>
							<path d="M67.3,209.7c0-0.1,0-0.2,0-0.2c0.8-5.7,1.6-11.5,2.4-17.2c0-0.1,0-0.2,0-0.3c0.2,0.1,0.3,0.2,0.5,0.3
								c0,0.1,0,0.2,0,0.2c-0.8,5.7-1.6,11.5-2.4,17.2c0,0.1,0,0.2,0,0.3C67.7,209.9,67.5,209.8,67.3,209.7z"/>
						</g>
						<g>
							<path d="M90.1,203.7c0,0.1,0,0.2,0,0.2c-0.8,5.7-1.6,11.5-2.4,17.2c0,0.1,0,0.2,0,0.3c-0.2-0.1-0.3-0.2-0.5-0.3
								c0.8-5.9,1.7-11.8,2.5-17.7C89.8,203.5,90,203.6,90.1,203.7z"/>
						</g>
						<g>
							<path d="M83.7,200c0,0.1,0,0.2,0,0.2c-0.8,5.7-1.6,11.5-2.4,17.2c0,0.1,0,0.2,0,0.3c-0.2-0.1-0.3-0.2-0.5-0.3
								c0.8-5.9,1.7-11.8,2.5-17.7C83.4,199.8,83.5,199.9,83.7,200z"/>
						</g>
						<g>
							<path d="M78.7,197.1c-0.1,0.3-0.1,0.6-0.2,0.9c-0.8,5.6-1.6,11.2-2.4,16.8c-0.2-0.1-0.3-0.2-0.5-0.3c0-0.1,0-0.2,0-0.2
								c0.8-5.7,1.6-11.5,2.4-17.2c0-0.1,0-0.2,0-0.3C78.4,196.9,78.5,197,78.7,197.1z"/>
						</g>
						<g>
							<path d="M77.4,196.4c0.2,0.1,0.3,0.2,0.5,0.3c-0.8,5.9-1.7,11.8-2.5,17.7c-0.2-0.1-0.3-0.2-0.5-0.3c0-0.1,0-0.2,0.1-0.3
								c0.6-4.5,1.3-9.1,1.9-13.6C77.1,198.9,77.2,197.6,77.4,196.4z"/>
						</g>
						<g>
							<path d="M69.2,191.7c0,0.1,0,0.2,0,0.3c-0.8,5.7-1.6,11.5-2.4,17.2c0,0.1,0,0.2,0,0.2c-0.2-0.1-0.3-0.2-0.5-0.3
								c0-0.1,0-0.2,0-0.3c0.6-4.4,1.2-8.8,1.9-13.2c0.2-1.4,0.4-2.8,0.6-4.2C68.9,191.5,69.1,191.6,69.2,191.7z"/>
						</g>
						<g>
							<path d="M85.6,201.1c0,0.1,0,0.2,0,0.3c-0.8,5.7-1.6,11.5-2.4,17.2c0,0.1,0,0.2,0,0.2c-0.2-0.1-0.3-0.2-0.5-0.3
								c0.8-5.9,1.7-11.8,2.5-17.7C85.3,200.9,85.5,201,85.6,201.1z"/>
						</g>
						<g>
							<path d="M74,194.4c0.2,0.1,0.3,0.2,0.5,0.3c0,0.1,0,0.2,0,0.3c-0.8,5.7-1.6,11.5-2.4,17.2c0,0.1,0,0.2,0,0.2
								c-0.2-0.1-0.3-0.2-0.5-0.3C72.3,206.2,73.1,200.3,74,194.4z"/>
						</g>
						<g>
							<path d="M91.1,204.3c0.2,0.1,0.3,0.2,0.5,0.3c-0.5,3.9-1.1,7.9-1.6,11.8c-0.3,2-0.6,3.9-0.8,5.9c-0.2-0.1-0.3-0.2-0.5-0.3
								c0-0.1,0-0.2,0-0.3c0.6-4.4,1.2-8.8,1.9-13.2C90.8,207,91,205.7,91.1,204.3z"/>
						</g>
						<g>
							<path d="M89.9,222.7c-0.2-0.1-0.3-0.2-0.5-0.3c0-0.1,0-0.2,0-0.3c0.8-5.7,1.6-11.5,2.4-17.2c0-0.1,0-0.2,0-0.2
								c0.2,0.1,0.3,0.2,0.5,0.3C91.6,210.9,90.8,216.8,89.9,222.7z"/>
						</g>
						<g>
							<path d="M71,192.7c0.2,0.1,0.3,0.2,0.5,0.3c-0.8,5.9-1.7,11.8-2.5,17.7c-0.2-0.1-0.3-0.2-0.5-0.3c0-0.1,0-0.2,0-0.3
								c0.7-4.9,1.4-9.8,2.1-14.7C70.8,194.4,70.9,193.5,71,192.7z"/>
						</g>
						<g>
							<path d="M82.1,199c0.2,0.1,0.3,0.2,0.5,0.3c-0.1,0.3-0.1,0.6-0.2,1c-0.6,4-1.1,7.9-1.7,11.9c-0.2,1.6-0.5,3.2-0.7,4.8
								c-0.2-0.1-0.3-0.2-0.5-0.3C80.4,210.8,81.2,204.9,82.1,199z"/>
						</g>
						<g>
							<path fill="#FFFFFF" d="M72,212.4c0-0.1,0-0.2,0-0.2c0.8-5.7,1.6-11.5,2.4-17.2c0-0.1,0-0.2,0-0.3c0.1,0.1,0.2,0.1,0.3,0.2
								c0,0.1,0,0.2,0,0.2c-0.8,5.7-1.6,11.5-2.4,17.2c0,0.1,0,0.2,0,0.3C72.2,212.5,72.1,212.4,72,212.4z"/>
						</g>
						<g>
							<path fill="#FFFFFF" d="M91.9,204.7c0,0.1,0,0.2,0,0.2c-0.8,5.7-1.6,11.5-2.4,17.2c0,0.1,0,0.2,0,0.3
								c-0.1-0.1-0.2-0.1-0.3-0.2c0.3-2,0.6-3.9,0.8-5.9c0.6-3.9,1.1-7.9,1.6-11.8C91.7,204.6,91.8,204.7,91.9,204.7z"/>
						</g>
						<g>
							<path fill="#FFFFFF" d="M82.1,199c-0.8,5.9-1.7,11.8-2.5,17.7c-0.1-0.1-0.2-0.1-0.3-0.2c0.8-5.9,1.7-11.8,2.5-17.7
								C81.9,198.9,82,199,82.1,199z"/>
						</g>
						<g>
							<path fill="#FFFFFF" d="M91.1,204.3c-0.2,1.4-0.4,2.8-0.6,4.2c-0.6,4.4-1.2,8.8-1.9,13.2c0,0.1,0,0.2,0,0.3
								c-0.1-0.1-0.2-0.1-0.3-0.2c0-0.1,0-0.2,0.1-0.3c0.8-5.8,1.6-11.6,2.4-17.4C91,204.2,91.1,204.2,91.1,204.3z"/>
						</g>
						<g>
							<path fill="#FFFFFF" d="M79.8,197.8c0.1,0.1,0.2,0.1,0.3,0.2c-0.8,5.9-1.7,11.8-2.5,17.7c-0.1-0.1-0.2-0.1-0.3-0.2
								C78.2,209.6,79,203.7,79.8,197.8z"/>
						</g>
						<g>
							<path fill="#FFFFFF" d="M68,191c0.1,0.1,0.2,0.1,0.3,0.2c0,0.1,0,0.2,0,0.2c-0.8,5.7-1.6,11.5-2.4,17.2c0,0.1,0,0.2,0,0.3
								c-0.1-0.1-0.2-0.1-0.3-0.2c0-0.1,0-0.2,0-0.3c0.8-5.7,1.6-11.5,2.4-17.2C68,191.1,68,191,68,191z"/>
						</g>
						<g>
							<path fill="#FFFFFF" d="M77.2,215.4c-0.1-0.1-0.2-0.1-0.3-0.2c0.8-5.9,1.7-11.8,2.5-17.7c0.1,0.1,0.2,0.1,0.3,0.2
								c0,0.1,0,0.2,0,0.3c-0.7,4.7-1.3,9.3-2,14C77.5,213.1,77.4,214.2,77.2,215.4z"/>
						</g>
						<g>
							<path fill="#FFFFFF" d="M68.8,191.4c-0.2,1.4-0.4,2.8-0.6,4.2c-0.6,4.4-1.2,8.8-1.9,13.2c0,0.1,0,0.2,0,0.3
								c-0.1-0.1-0.2-0.1-0.3-0.2c0-0.1,0-0.2,0-0.3c0.8-5.7,1.6-11.5,2.4-17.2c0-0.1,0-0.2,0-0.2C68.6,191.3,68.7,191.3,68.8,191.4
								z"/>
						</g>
						<g>
							<path fill="#FFFFFF" d="M75.4,214.3c0.8-5.9,1.7-11.8,2.5-17.7c0.1,0.1,0.2,0.1,0.3,0.2c0,0.1,0,0.2,0,0.3
								c-0.8,5.7-1.6,11.5-2.4,17.2c0,0.1,0,0.2,0,0.2C75.6,214.5,75.5,214.4,75.4,214.3z"/>
						</g>
						<g>
							<path fill="#FFFFFF" d="M69,210.6c0.8-5.9,1.7-11.8,2.5-17.7c0.1,0.1,0.2,0.1,0.3,0.2c-0.8,5.9-1.7,11.8-2.5,17.7
								C69.2,210.7,69.1,210.7,69,210.6z"/>
						</g>
						<g>
							<path fill="#FFFFFF" d="M64.7,208.1c-0.1,0-0.2-0.1-0.3-0.1c0-0.1,0-0.2,0-0.2c0.8-5.7,1.6-11.5,2.4-17.2c0-0.1,0-0.2,0-0.3
								c0.1,0.1,0.2,0.1,0.3,0.2c-0.2,1.1-0.3,2.2-0.5,3.2c-0.7,4.7-1.3,9.4-2,14.1C64.7,207.9,64.7,208,64.7,208.1z"/>
						</g>
						<g>
							<path fill="#FFFFFF" d="M84.5,200.4c0.1,0,0.2,0.1,0.2,0.1c-0.5,3.9-1.1,7.8-1.6,11.7c-0.3,2-0.6,4-0.8,6
								c-0.1,0-0.2-0.1-0.3-0.1c0-0.1,0-0.2,0-0.3c0.8-5.4,1.5-10.8,2.3-16.2C84.3,201.2,84.4,200.8,84.5,200.4z"/>
						</g>
						<g>
							<path fill="#FFFFFF" d="M80,217c0.2-1.6,0.5-3.2,0.7-4.8c0.6-4,1.1-7.9,1.7-11.9c0-0.3,0.1-0.6,0.2-1c0.1,0,0.2,0.1,0.2,0.1
								c-0.8,5.9-1.7,11.8-2.5,17.7C80.2,217.1,80.1,217.1,80,217z"/>
						</g>
						<g>
							<path fill="#FFFFFF" d="M71,192.7c-0.1,0.9-0.2,1.8-0.3,2.7c-0.7,4.9-1.4,9.8-2.1,14.7c0,0.1,0,0.2,0,0.3
								c-0.1,0-0.2-0.1-0.3-0.1c0.8-5.9,1.7-11.8,2.5-17.7C70.8,192.6,70.9,192.6,71,192.7z"/>
						</g>
						<g>
							<path fill="#FFFFFF" d="M89.6,203.4c-0.8,5.9-1.7,11.8-2.5,17.7c-0.1,0-0.2-0.1-0.2-0.1c0.5-3.9,1.1-7.8,1.6-11.7
								c0.3-2,0.6-4,0.8-6C89.5,203.3,89.6,203.4,89.6,203.4z"/>
						</g>
						<g>
							<path fill="#FFFFFF" d="M85.1,200.8c-0.8,5.9-1.7,11.8-2.5,17.7c-0.1,0-0.2-0.1-0.2-0.1c0-0.1,0-0.2,0-0.3
								c0.7-4.7,1.3-9.3,2-14c0.2-1.1,0.3-2.3,0.5-3.4C85,200.7,85.1,200.8,85.1,200.8z"/>
						</g>
						<g>
							<path fill="#FFFFFF" d="M83.2,199.7c-0.8,5.9-1.7,11.8-2.5,17.7c-0.1,0-0.2-0.1-0.2-0.1c0-0.1,0-0.2,0-0.2
								c0.8-5.7,1.6-11.5,2.4-17.2c0-0.1,0-0.2,0-0.3C83,199.6,83.1,199.7,83.2,199.7z"/>
						</g>
						<g>
							<path fill="#FFFFFF" d="M88.1,202.5c0,0.1,0,0.2,0,0.3c-0.8,5.7-1.6,11.5-2.4,17.2c0,0.1,0,0.2,0,0.2c-0.1,0-0.2-0.1-0.2-0.1
								c0-0.1,0-0.2,0-0.2c0.8-5.7,1.6-11.5,2.4-17.2c0-0.1,0-0.2,0-0.3C88,202.5,88.1,202.5,88.1,202.5z"/>
						</g>
						<g>
							<path fill="#FFFFFF" d="M85.2,220c-0.1,0-0.2-0.1-0.2-0.1c0-0.1,0-0.2,0-0.2c0.8-5.7,1.6-11.5,2.4-17.2c0-0.1,0-0.2,0-0.3
								c0.1,0,0.2,0.1,0.2,0.1C86.9,208.2,86,214.1,85.2,220z"/>
						</g>
						<g>
							<path fill="#FFFFFF" d="M89.9,222.7c0.8-5.9,1.7-11.8,2.5-17.7c0.1,0,0.2,0.1,0.2,0.1c-0.8,5.9-1.7,11.8-2.5,17.7
								C90.1,222.8,90,222.8,89.9,222.7z"/>
						</g>
						<g>
							<path fill="#FFFFFF" d="M67.8,210c0-0.1,0-0.2,0-0.3c0.8-5.7,1.6-11.5,2.4-17.2c0-0.1,0-0.2,0-0.2c0.1,0,0.2,0.1,0.2,0.1
								c0,0.1,0,0.2,0,0.2c-0.8,5.7-1.6,11.5-2.4,17.2c0,0.1,0,0.2,0,0.3C68,210.1,67.9,210,67.8,210z"/>
						</g>
						<g>
							<path fill="#FFFFFF" d="M74,194.4c-0.8,5.9-1.7,11.8-2.5,17.7c-0.1,0-0.2-0.1-0.2-0.1c0-0.1,0-0.2,0-0.2
								c0.8-5.7,1.6-11.5,2.4-17.2c0-0.1,0-0.2,0-0.3C73.8,194.3,73.9,194.3,74,194.4z"/>
						</g>
						<g>
							<path fill="#FFFFFF" d="M73.4,213.2c-0.1,0-0.2-0.1-0.2-0.1c0-0.1,0-0.2,0-0.2c0.8-5.7,1.6-11.5,2.4-17.2c0-0.1,0-0.2,0-0.3
								c0.1,0,0.2,0.1,0.2,0.1c0,0.1,0,0.2,0,0.3c-0.7,4.7-1.3,9.3-2,14C73.7,210.9,73.6,212.1,73.4,213.2z"/>
						</g>
						<g>
							<path fill="#FFFFFF" d="M77.4,196.4c-0.2,1.3-0.3,2.5-0.5,3.8c-0.6,4.5-1.3,9.1-1.9,13.6c0,0.1,0,0.2-0.1,0.3
								c-0.1,0-0.2-0.1-0.2-0.1c0.8-5.9,1.7-11.8,2.5-17.7C77.3,196.3,77.3,196.3,77.4,196.4z"/>
						</g>
						<g>
							<path fill="#FFFFFF" d="M66.5,190c0.1,0,0.2,0.1,0.2,0.1c-0.8,5.9-1.7,11.8-2.5,17.7c-0.1,0-0.2-0.1-0.2-0.1
								c0-0.1,0-0.2,0-0.2c0.8-5.7,1.6-11.5,2.4-17.2C66.4,190.2,66.4,190.1,66.5,190z"/>
						</g>
						<g>
							<path d="M81.1,198.5c0,0.1,0,0.2,0,0.2c-0.8,5.7-1.6,11.5-2.4,17.2c0,0.1,0,0.2,0,0.3c-0.1,0-0.2-0.1-0.2-0.1
								c0.8-5.9,1.7-11.8,2.5-17.7C80.9,198.4,81,198.4,81.1,198.5z"/>
						</g>
						<g>
							<path d="M66.5,190c0,0.1,0,0.2,0,0.3c-0.8,5.7-1.6,11.5-2.4,17.2c0,0.1,0,0.2,0,0.2c-0.1,0-0.1-0.1-0.2-0.1
								c0-0.1,0-0.2,0-0.3c0.7-4.7,1.3-9.3,2-14c0.2-1.1,0.3-2.3,0.5-3.4C66.3,190,66.4,190,66.5,190z"/>
						</g>
						<g>
							<path d="M89.4,203.3c-0.3,2-0.6,4-0.8,6c-0.5,3.9-1.1,7.8-1.6,11.7c-0.1,0-0.1-0.1-0.2-0.1c0.2-1.1,0.3-2.3,0.5-3.4
								c0.7-4.7,1.3-9.3,2-14c0-0.1,0-0.2,0-0.3C89.3,203.2,89.3,203.2,89.4,203.3z"/>
						</g>
						<g>
							<path d="M68.1,210.1c0-0.1,0-0.2,0-0.3c0.8-5.7,1.6-11.5,2.4-17.2c0-0.1,0-0.2,0-0.2c0.1,0,0.1,0.1,0.2,0.1
								c-0.8,5.9-1.7,11.8-2.5,17.7C68.2,210.2,68.1,210.1,68.1,210.1z"/>
						</g>
						<g>
							<path d="M85.2,220c0.8-5.9,1.7-11.8,2.5-17.7c0.1,0,0.1,0.1,0.2,0.1c0,0.1,0,0.2,0,0.3c-0.8,5.7-1.6,11.5-2.4,17.2
								c0,0.1,0,0.2,0,0.2C85.4,220.1,85.3,220,85.2,220z"/>
						</g>
						<g>
							<path d="M83,199.6c0,0.1,0,0.2,0,0.3c-0.8,5.7-1.6,11.5-2.4,17.2c0,0.1,0,0.2,0,0.2c-0.1,0-0.1-0.1-0.2-0.1
								c0.8-5.9,1.7-11.8,2.5-17.7C82.8,199.5,82.9,199.5,83,199.6z"/>
						</g>
						<g>
							<path d="M87.5,202.2c0,0.1,0,0.2,0,0.3c-0.8,5.7-1.6,11.5-2.4,17.2c0,0.1,0,0.2,0,0.2c-0.1,0-0.1-0.1-0.2-0.1
								c0.8-5.9,1.7-11.8,2.5-17.7C87.3,202.1,87.4,202.1,87.5,202.2z"/>
						</g>
						<g>
							<path d="M75.7,195.4c0,0.1,0,0.2,0,0.3c-0.8,5.7-1.6,11.5-2.4,17.2c0,0.1,0,0.2,0,0.2c-0.1,0-0.1-0.1-0.2-0.1
								c0-0.1,0-0.2,0.1-0.3c0.8-5.4,1.5-10.9,2.3-16.3c0.1-0.4,0.1-0.7,0.1-1.1C75.5,195.3,75.6,195.3,75.7,195.4z"/>
						</g>
						<g>
							<path d="M73.4,213.2c0.2-1.1,0.3-2.3,0.5-3.4c0.7-4.7,1.3-9.3,2-14c0-0.1,0-0.2,0-0.3c0.1,0,0.1,0.1,0.2,0.1
								c-0.1,0.7-0.2,1.3-0.3,2c-0.7,5.2-1.5,10.5-2.2,15.7C73.6,213.3,73.5,213.2,73.4,213.2z"/>
						</g>
						<g>
							<path d="M84.9,200.7c-0.2,1.1-0.3,2.3-0.5,3.4c-0.7,4.7-1.3,9.3-2,14c0,0.1,0,0.2,0,0.3c-0.1,0-0.1-0.1-0.2-0.1
								c0.3-2,0.6-4,0.8-6c0.5-3.9,1.1-7.8,1.6-11.7C84.8,200.6,84.8,200.6,84.9,200.7z"/>
						</g>
						<g>
							<path d="M64.2,207.9c0.8-5.9,1.7-11.8,2.5-17.7c0.1,0,0.1,0.1,0.2,0.1c0,0.1,0,0.2,0,0.3c-0.8,5.7-1.6,11.5-2.4,17.2
								c0,0.1,0,0.2,0,0.2C64.3,207.9,64.3,207.9,64.2,207.9z"/>
						</g>
						<g>
							<path d="M84.5,200.4c-0.1,0.4-0.1,0.8-0.2,1.1c-0.8,5.4-1.5,10.8-2.3,16.2c0,0.1,0,0.2,0,0.3c-0.1,0-0.1-0.1-0.2-0.1
								c0-0.1,0-0.2,0-0.3c0.8-5.7,1.6-11.5,2.4-17.2c0-0.1,0-0.2,0-0.2C84.3,200.4,84.4,200.4,84.5,200.4z"/>
						</g>
						<g>
							<path d="M73.7,194.2c0,0.1,0,0.2,0,0.3c-0.8,5.7-1.6,11.5-2.4,17.2c0,0.1,0,0.2,0,0.2c-0.1,0-0.1-0.1-0.2-0.1
								c0.4-2.7,0.7-5.3,1.1-8c0.4-3.1,0.9-6.3,1.3-9.4c0-0.1,0-0.2,0-0.3C73.6,194.2,73.7,194.2,73.7,194.2z"/>
						</g>
						<g>
							<path d="M64.7,208.1c0-0.1,0-0.2,0.1-0.3c0.7-4.7,1.3-9.4,2-14.1c0.2-1.1,0.3-2.2,0.5-3.2c0,0,0.1,0.1,0.1,0.1
								c0,0.1,0,0.2,0,0.3c-0.8,5.7-1.6,11.5-2.4,17.2c0,0.1,0,0.2,0,0.2C64.8,208.2,64.7,208.2,64.7,208.1z"/>
						</g>
						<g>
							<path d="M90.9,204.1c-0.8,5.8-1.6,11.6-2.4,17.4c0,0.1,0,0.2-0.1,0.3c0,0-0.1-0.1-0.1-0.1c0-0.1,0-0.2,0-0.3
								c0.8-5.7,1.6-11.5,2.4-17.2c0-0.1,0-0.2,0-0.2C90.8,204.1,90.8,204.1,90.9,204.1z"/>
						</g>
						<g>
							<path d="M68,191c0,0.1,0,0.2,0,0.2c-0.8,5.7-1.6,11.5-2.4,17.2c0,0.1,0,0.2,0,0.3c0,0-0.1-0.1-0.1-0.1c0-0.1,0-0.2,0-0.3
								c0.8-5.7,1.6-11.5,2.4-17.2c0-0.1,0-0.2,0-0.2C68,190.9,68,190.9,68,191z"/>
						</g>
						<g>
							<path d="M68.5,191.2c0,0.1,0,0.2,0,0.2c-0.8,5.7-1.6,11.5-2.4,17.2c0,0.1,0,0.2,0,0.3c0,0-0.1-0.1-0.1-0.1c0-0.1,0-0.2,0-0.3
								c0.8-5.7,1.6-11.5,2.4-17.2c0-0.1,0-0.2,0-0.2C68.4,191.2,68.4,191.2,68.5,191.2z"/>
						</g>
						<g>
							<path d="M69.3,210.8c0.8-5.9,1.7-11.8,2.5-17.7c0,0,0.1,0.1,0.1,0.1c-0.2,1.1-0.3,2.3-0.5,3.4c-0.7,4.7-1.3,9.3-2,14
								c0,0.1,0,0.2,0,0.3C69.4,210.8,69.3,210.8,69.3,210.8z"/>
						</g>
						<g>
							<path d="M72.3,212.5c0-0.1,0-0.2,0-0.3c0.8-5.7,1.6-11.5,2.4-17.2c0-0.1,0-0.2,0-0.2c0,0,0.1,0.1,0.1,0.1c0,0.1,0,0.2,0,0.2
								c-0.8,5.7-1.6,11.5-2.4,17.2c0,0.1,0,0.2,0,0.3C72.4,212.6,72.3,212.6,72.3,212.5z"/>
						</g>
						<g>
							<path d="M79.4,197.5c-0.8,5.9-1.7,11.8-2.5,17.7c0,0-0.1-0.1-0.1-0.1c0.2-1.1,0.3-2.3,0.5-3.4c0.7-4.7,1.3-9.3,2-14
								c0-0.1,0-0.2,0-0.3C79.3,197.5,79.4,197.5,79.4,197.5z"/>
						</g>
						<g>
							<path d="M77.2,215.4c0.2-1.1,0.3-2.3,0.5-3.4c0.7-4.7,1.3-9.3,2-14c0-0.1,0-0.2,0-0.3c0,0,0.1,0.1,0.1,0.1
								c-0.8,5.9-1.7,11.8-2.5,17.7C77.3,215.4,77.3,215.4,77.2,215.4z"/>
						</g>
						<g>
							<path d="M77.6,215.6c0.8-5.9,1.7-11.8,2.5-17.7c0,0,0.1,0.1,0.1,0.1c-0.2,1.1-0.3,2.3-0.5,3.4c-0.7,4.7-1.3,9.3-2,14
								c0,0.1,0,0.2,0,0.3C77.7,215.7,77.7,215.6,77.6,215.6z"/>
						</g>
						<g>
							<path d="M81.8,198.9c-0.8,5.9-1.7,11.8-2.5,17.7c0,0-0.1-0.1-0.1-0.1c0.2-1.1,0.3-2.3,0.5-3.4c0.7-4.7,1.3-9.3,2-14
								c0-0.1,0-0.2,0-0.3C81.7,198.8,81.7,198.8,81.8,198.9z"/>
						</g>
						<g>
							<path fill="#FFFFFF" d="M66.3,189.9c-0.2,1.1-0.3,2.3-0.5,3.4c-0.7,4.7-1.3,9.3-2,14c0,0.1,0,0.2,0,0.3c0,0-0.1,0-0.1-0.1
								c0-0.1,0-0.1,0-0.2c0.8-5.8,1.6-11.5,2.4-17.3C66.2,190,66.1,189.8,66.3,189.9z"/>
						</g>
					</g>
				</g>
			</g>
		</g>
		<g>
			<path d="M60.5,127.4l4.4,2.5v8.3l-4.4-2.5v11.2l-7.7-4.5v-11.2l-16-9.2l-0.3-6.7l16.2-24.8l7.8,4.5V127.4z M44.2,117.9l8.6,5
				v-18.3l-0.5,0.9L44.2,117.9z"/>
		</g>
		<g>
			<g>
				<path fill="#654322" d="M96,243.5l-0.2-0.1L0.4,188.3l7.9-53.8L4.8,35.9l38.8-17.1L67,0.4l95.7,55.2l-4,105.8l7.6,41.5l-0.3,0.2
					L96,243.5z M1.5,187.8L96,242.4l69.1-39.9l-7.5-40.9l0-0.1l4-105.3L67,1.6l-23,18L5.8,36.5l3.5,98L1.5,187.8z"/>
			</g>
		</g>
	</g>
</g>
</svg>
