<?xml version="1.0" encoding="UTF-8" standalone="no"?>
<svg width="101px" height="150px" viewBox="0 0 101 150" version="1.1" xmlns="http://www.w3.org/2000/svg" xmlns:xlink="http://www.w3.org/1999/xlink">
    <!-- Generator: Sketch 3.6 (26304) - http://www.bohemiancoding.com/sketch -->
    <title>Page 1 + Bitmap 3</title>
    <desc>Created with Sketch.</desc>
    <defs>
        <path id="path-1" d="M0,0.551243064 L100.923946,0.551243064 L100.923946,149.780966 L0,149.780966 L0,0.551243064 Z"></path>
    </defs>
    <g id="Priority-order" stroke="none" stroke-width="1" fill="none" fill-rule="evenodd">
        <g id="1.-Scan-bag---Priority-order-" transform="translate(-110.000000, -153.000000)">
            <g id="Page-1-+-Bitmap-3" transform="translate(110.000000, 153.000000)">
                <g id="Page-1">
                    <path d="M26.4371151,12.0748627 L2.99051265,22.5263821 L5.10968735,82.8979331 L0.330440361,115.714083 L58.207091,149.427078 L100.585717,124.74207 L100.524266,124.404449 L96.0096873,99.4450467 L98.4215187,34.6340861 L40.5454765,0.921091556 L26.4371151,12.0748627 Z" id="Fill-1" fill="#7E522F"></path>
                    <path d="M78.7577313,42.4419714 L80.1899843,105.942349 L100.524448,124.40408 L96.0098699,99.4452923 L98.4217012,34.6337177 L78.7577313,42.4419714 Z" id="Fill-2" fill="#93653E"></path>
                    <path d="M58.3736801,148.271063 L58.2069693,149.426955 L100.585596,124.741947 L100.524144,124.404326 L80.1902886,105.942594 L58.3736801,148.271063 Z" id="Fill-3" fill="#875B36"></path>
                    <path d="M78.7577313,42.4419714 L78.646388,42.486169 L60.8667373,56.2396221 L63.0023398,116.070979 L58.3733759,148.270818 L80.1905928,105.942349 L78.7577313,42.4419714 Z" id="Fill-4" fill="#7E5534"></path>
                    <g id="Group-210">
                        <path d="M98.4214578,34.6339019 L40.5448072,0.920907399 L40.5448072,44.4021991 C58.0853434,54.6192253 60.8671024,56.2391924 60.8671024,56.2391924 L78.6461446,42.4863532 L98.4214578,34.6339019 Z" id="Fill-5" fill="#654322"></path>
                        <path d="M40.5450506,0.921091556 L26.4372976,12.0748627 L26.4372976,36.1840735 C30.9317976,38.802785 35.7384241,41.6025841 40.5450506,44.4023832 L40.5450506,0.921091556 Z" id="Fill-7" fill="#513117"></path>
                        <path d="M2.99039096,22.5266276 C2.99039096,22.5266276 13.3909572,28.5847766 26.4369934,36.1843191 L26.4369934,12.0744944 L2.99039096,22.5266276 Z" id="Fill-9" fill="#412A18"></path>
                        <path d="M60.866859,56.2394379 L2.99020843,22.5264434 L5.10938313,82.8973806 L63.001853,116.071409 L60.866859,56.2394379 Z" id="Fill-11" fill="#C99D66"></path>
                        <path d="M58.207456,149.426832 L63.0019139,116.071102 L5.10944398,82.8976876 L0.330805422,115.713838 L58.207456,149.426832 Z" id="Fill-13" fill="#D4A86F"></path>
                        <path d="M37.3908693,127.241693 L39.2952669,113.526299 C39.3944416,112.811156 39.9067428,112.482743 40.4391223,112.792127 L56.831544,122.326545 C57.3639235,122.635928 57.7149898,123.466476 57.6158151,124.181619 L55.7114175,137.897013 C55.6122428,138.612155 55.0999416,138.940569 54.5681705,138.631185 L38.1751404,129.096767 C37.6427608,128.787384 37.2916946,127.956836 37.3908693,127.241693" id="Fill-15" fill="#FEFEFE"></path>
                        <path d="M40.9709542,115.851587 L41.220412,115.942438 C41.2216289,116.012418 41.2356229,116.071962 41.262394,116.122298 C41.2891651,116.173862 41.331147,116.216218 41.3877313,116.248752 C41.4510084,116.285584 41.4996831,116.297247 41.5349723,116.284356 C41.5593096,116.275148 41.573912,116.253049 41.579388,116.216832 C41.5824301,116.192278 41.5799964,116.168337 41.5702614,116.145624 C41.5605265,116.122912 41.5355807,116.093447 41.4954241,116.055388 C41.3086349,115.885349 41.1930325,115.760736 41.1474,115.682777 C41.0847313,115.574738 41.0610024,115.461175 41.0774301,115.343928 C41.0920325,115.237731 41.1358398,115.167137 41.2082434,115.13092 C41.2800386,115.095316 41.3822554,115.11496 41.5136771,115.191078 C41.638406,115.263513 41.7278458,115.345156 41.7807795,115.434779 C41.8331048,115.525016 41.8641349,115.629985 41.8714361,115.750301 L41.6365807,115.674183 C41.6335386,115.620777 41.620153,115.57351 41.5964241,115.531768 C41.5733036,115.491253 41.5355807,115.45565 41.4850807,115.426799 C41.422412,115.389967 41.3743458,115.375235 41.3439241,115.382601 C41.3226289,115.388739 41.3116771,115.405927 41.3074181,115.432937 C41.3043759,115.45565 41.3092434,115.480204 41.3226289,115.505986 C41.3420988,115.539748 41.4132855,115.614025 41.5355807,115.727588 C41.6590928,115.841766 41.7418398,115.941824 41.7850386,116.028378 C41.8276289,116.115545 41.8410145,116.210693 41.8270205,116.313821 C41.8112012,116.426157 41.7631349,116.502275 41.6828217,116.542176 C41.6012916,116.582076 41.4923819,116.562433 41.3548759,116.483245 C41.2307554,116.41081 41.1376651,116.31996 41.074388,116.210079 C41.0111108,116.099585 40.9764301,115.980497 40.9709542,115.851587" id="Fill-17" fill="#1D1C1B"></path>
                        <path d="M42.3048843,116.321617 C42.2860229,116.459121 42.2921072,116.57207 42.3237458,116.662307 C42.3553843,116.750703 42.3998,116.812702 42.4582096,116.846464 C42.5141855,116.878999 42.565294,116.875929 42.6115349,116.83787 C42.656559,116.798584 42.688806,116.710802 42.7082759,116.573298 C42.7259205,116.444388 42.7198361,116.338191 42.6900229,116.253479 C42.6602096,116.168767 42.6176193,116.109837 42.5604265,116.077302 C42.5014084,116.042926 42.4484747,116.044768 42.4010169,116.083441 C42.3541675,116.122114 42.321312,116.201301 42.3048843,116.321617 L42.3048843,116.321617 Z M42.1485169,115.590514 L42.3736373,115.721265 L42.3486916,115.901125 C42.385806,115.856928 42.4326554,115.829918 42.4874145,115.820096 C42.5427819,115.810889 42.6005831,115.823166 42.6614265,115.858769 C42.7679024,115.920769 42.850041,116.028808 42.9078422,116.182272 C42.9662518,116.337577 42.9814627,116.513754 42.9534747,116.713871 C42.9254867,116.918286 42.8664687,117.055175 42.775812,117.125769 C42.6863723,117.195749 42.587806,117.200659 42.482547,117.13866 C42.4314386,117.109195 42.3876313,117.06868 42.3505169,117.018344 C42.3134024,116.967394 42.2768964,116.896801 42.2409988,116.804722 L42.1552096,117.422262 L41.913053,117.281075 L42.1485169,115.590514 Z" id="Fill-19" fill="#1D1C1B"></path>
                        <path d="M43.6150247,116.222663 C43.5858199,116.205475 43.5572235,116.20302 43.5316693,116.214683 C43.5048982,116.226347 43.4811693,116.260723 43.4592657,116.317811 C43.4312777,116.392088 43.4038982,116.528364 43.3759102,116.72664 C43.3485307,116.925529 43.336362,117.066102 43.3412295,117.148973 C43.346097,117.231843 43.3582657,117.292001 43.3771271,117.33006 C43.396597,117.367506 43.4209343,117.394515 43.4501392,117.411703 C43.4781271,117.428891 43.5067235,117.431961 43.5328861,117.419683 C43.5596572,117.408634 43.5827777,117.373644 43.6052898,117.316556 C43.6332777,117.243507 43.6606572,117.106617 43.6880367,116.908955 C43.7160247,116.710679 43.7275849,116.569492 43.7227175,116.487236 C43.7184584,116.404365 43.7068982,116.343593 43.6880367,116.305534 C43.6685669,116.267475 43.6436211,116.239238 43.6150247,116.222663 M43.6527476,115.954408 C43.7744343,116.025002 43.8614404,116.138565 43.9137657,116.295098 C43.9764343,116.481711 43.9855608,116.735234 43.9411452,117.055667 C43.8967295,117.375486 43.8237175,117.581742 43.722109,117.673206 C43.6375367,117.749324 43.5347114,117.75178 43.4124163,117.680572 C43.2901211,117.609365 43.1994645,117.489049 43.1422717,117.319011 C43.0844705,117.148359 43.0783861,116.900975 43.1234102,116.576245 C43.1678259,116.258267 43.240838,116.053239 43.3430548,115.961161 C43.4270187,115.885042 43.5304524,115.882587 43.6527476,115.954408" id="Fill-21" fill="#1D1C1B"></path>
                        <path d="M44.5930211,116.791586 C44.5638163,116.775011 44.5352199,116.771942 44.5096657,116.783605 C44.4828946,116.795269 44.4591657,116.829645 44.437262,116.886733 C44.4098825,116.96101 44.3818946,117.097286 44.3539066,117.295562 C44.3265271,117.494451 44.3143584,117.63441 44.3192259,117.717895 C44.3240934,117.800765 44.336262,117.860923 44.3551235,117.898983 C44.3745934,117.936428 44.3989307,117.964051 44.4281355,117.980625 C44.4567319,117.997813 44.4847199,118.000883 44.5108825,117.988606 C44.5376536,117.977556 44.5607741,117.942566 44.5832861,117.885478 C44.6112741,117.811815 44.639262,117.675539 44.6666416,117.477263 C44.6946295,117.278988 44.7055813,117.137801 44.7007139,117.056158 C44.6964548,116.972673 44.6848946,116.912515 44.6660331,116.874456 C44.6465633,116.835783 44.6222259,116.80816 44.5930211,116.791586 M44.630744,116.52333 C44.7524307,116.593924 44.8394367,116.707487 44.891762,116.864021 C44.9544307,117.050633 44.9635572,117.304156 44.9191416,117.624589 C44.8747259,117.944408 44.8017139,118.150664 44.7001054,118.242128 C44.6155331,118.317633 44.5127078,118.320702 44.3904127,118.249495 C44.2681175,118.178287 44.1780693,118.057971 44.1202681,117.887319 C44.0630753,117.717281 44.0563825,117.469897 44.1014066,117.145167 C44.1458223,116.827189 44.2188343,116.622775 44.3210512,116.530083 C44.4050151,116.453965 44.5084488,116.451509 44.630744,116.52333" id="Fill-23" fill="#1D1C1B"></path>
                        <path d="M45.5710175,117.360446 C45.5418127,117.343258 45.5138247,117.340803 45.487662,117.352466 C45.460891,117.364129 45.437162,117.398505 45.4152584,117.455594 C45.3878789,117.529871 45.359891,117.666147 45.331903,117.864422 C45.3045235,118.063312 45.2923548,118.203885 45.2972223,118.286756 C45.3020898,118.369626 45.3142584,118.429784 45.3331199,118.467843 C45.3525898,118.505289 45.3769271,118.532298 45.4061319,118.549486 C45.4347283,118.566674 45.4627163,118.569743 45.4888789,118.557466 C45.51565,118.545803 45.5387705,118.511427 45.5612825,118.453725 C45.5892705,118.380676 45.6172584,118.2444 45.644638,118.046124 C45.6726259,117.847848 45.6835777,117.707275 45.6787102,117.624405 C45.6744512,117.541534 45.662891,117.480762 45.6440295,117.443317 C45.6245596,117.405258 45.6002223,117.37702 45.5710175,117.360446 M45.6087404,117.092191 C45.7304271,117.162785 45.8174331,117.276348 45.8697584,117.432881 C45.9324271,117.619494 45.9415536,117.873016 45.897138,118.193449 C45.8527223,118.513269 45.7797102,118.719524 45.6781018,118.810989 C45.5935295,118.886493 45.4907042,118.888949 45.368409,118.818355 C45.2461139,118.747148 45.1560657,118.626832 45.0982645,118.45618 C45.0410717,118.286142 45.0343789,118.038758 45.079403,117.714028 C45.1238187,117.39605 45.1974392,117.191022 45.2990476,117.09833 C45.3836199,117.022825 45.4864452,117.02037 45.6087404,117.092191" id="Fill-25" fill="#1D1C1B"></path>
                        <path d="M46.5490139,117.929368 C46.519809,117.912794 46.4918211,117.909725 46.4662669,117.921388 C46.4394958,117.933052 46.4151584,117.967428 46.3932548,118.024516 C46.3658753,118.098793 46.3378873,118.235069 46.3098994,118.433345 C46.2825199,118.632234 46.2703512,118.772193 46.2752187,118.855678 C46.2800861,118.938548 46.2922548,118.998706 46.3111163,119.036765 C46.3311946,119.074211 46.3549235,119.101834 46.3841283,119.118408 C46.4127247,119.135596 46.4407127,119.138052 46.4668753,119.125775 C46.4936464,119.114725 46.5167669,119.080349 46.5392789,119.022647 C46.5672669,118.949598 46.5952548,118.813322 46.6226343,118.615046 C46.6506223,118.41677 46.6621825,118.275583 46.6567066,118.193327 C46.6524476,118.110456 46.6408873,118.049684 46.6220259,118.012239 C46.602556,117.973566 46.5782187,117.945943 46.5490139,117.929368 M46.5867367,117.660499 C46.7090319,117.731707 46.7954295,117.84527 46.8477548,118.001803 C46.9104235,118.188416 46.91955,118.441939 46.8751343,118.762372 C46.8307187,119.082191 46.7577066,119.288447 46.6560982,119.379911 C46.5715259,119.455415 46.469309,119.457871 46.3464054,119.387277 C46.2241102,119.31607 46.134062,119.195754 46.0762608,119.025102 C46.0190681,118.855064 46.0123753,118.607066 46.0573994,118.28295 C46.1018151,117.964972 46.1754355,117.759944 46.277044,117.667866 C46.3616163,117.591747 46.4644416,117.589292 46.5867367,117.660499" id="Fill-27" fill="#1D1C1B"></path>
                        <path d="M47.5276187,118.498291 C47.4984139,118.481103 47.4704259,118.478647 47.4442633,118.49031 C47.4174922,118.501974 47.3937633,118.53635 47.3718596,118.593438 C47.3444801,118.667715 47.3164922,118.804605 47.2885042,119.002881 C47.2611247,119.20177 47.248956,119.341729 47.2538235,119.4246 C47.258691,119.50747 47.2708596,119.568242 47.2897211,119.605688 C47.309191,119.643133 47.3335283,119.670142 47.3627331,119.68733 C47.3913295,119.704518 47.4193175,119.707588 47.4454801,119.695311 C47.4722512,119.684261 47.4953717,119.649271 47.5178837,119.592183 C47.5458717,119.519134 47.5738596,119.382244 47.6012392,119.184582 C47.6292271,118.986306 47.6407873,118.845119 47.6353114,118.762863 C47.6310524,118.679992 47.6194922,118.61922 47.6006307,118.581161 C47.5811608,118.543102 47.5568235,118.514865 47.5276187,118.498291 M47.5653416,118.230035 C47.6870283,118.300629 47.7740343,118.414192 47.8263596,118.571339 C47.8890283,118.757338 47.8981548,119.010861 47.8537392,119.331294 C47.8093235,119.651113 47.7363114,119.857369 47.634703,119.949447 C47.5501307,120.024951 47.4473054,120.027407 47.3250102,119.9562 C47.2027151,119.885606 47.1126669,119.764676 47.0548657,119.594638 C46.9976729,119.423986 46.9909801,119.176602 47.0360042,118.851872 C47.0804199,118.533894 47.1540404,118.328866 47.2556488,118.236788 C47.3402211,118.16067 47.4430464,118.158828 47.5653416,118.230035" id="Fill-29" fill="#1D1C1B"></path>
                        <path d="M48.5056759,119.067151 C48.4764711,119.050577 48.4484831,119.047508 48.4229289,119.059171 C48.3961578,119.070834 48.3718205,119.10521 48.3499169,119.162299 C48.3225373,119.236576 48.2945494,119.373466 48.2665614,119.571741 C48.2391819,119.770017 48.2270133,119.909976 48.2318807,119.993461 C48.2367482,120.076331 48.2489169,120.136489 48.2677783,120.174548 C48.2878566,120.211994 48.3115855,120.239617 48.3407904,120.256191 C48.3693867,120.273379 48.3973747,120.276448 48.4235373,120.264171 C48.4503084,120.253122 48.4740373,120.218132 48.495941,120.161043 C48.5239289,120.087381 48.5519169,119.951718 48.5792964,119.753443 C48.6072843,119.555167 48.6188446,119.41398 48.6133687,119.331723 C48.6091096,119.248239 48.5975494,119.188081 48.578688,119.150022 C48.5592181,119.111349 48.5348807,119.083725 48.5056759,119.067151 M48.5433988,118.798896 C48.665694,118.86949 48.7520916,118.983053 48.8044169,119.1402 C48.8670855,119.326199 48.876212,119.579721 48.8317964,119.900154 C48.7873807,120.219974 48.7143687,120.426229 48.6127602,120.518308 C48.528188,120.593812 48.4259711,120.596268 48.3030675,120.52506 C48.1807723,120.453853 48.0907241,120.333537 48.0329229,120.162885 C47.9757301,119.992847 47.9690373,119.745463 48.0140614,119.420733 C48.0584771,119.102755 48.1320976,118.898341 48.233706,118.805648 C48.3182783,118.730144 48.4211036,118.727075 48.5433988,118.798896" id="Fill-31" fill="#1D1C1B"></path>
                        <path d="M49.4836723,119.636073 C49.4544675,119.618885 49.4264795,119.61643 49.4009253,119.628093 C49.3741542,119.639757 49.3498169,119.674133 49.3285217,119.731221 C49.3005337,119.805498 49.2725458,119.941774 49.2445578,120.14005 C49.2171783,120.338939 49.2050096,120.479512 49.2098771,120.562383 C49.2147446,120.645253 49.2269133,120.705411 49.2463831,120.74347 C49.265853,120.780916 49.2895819,120.807925 49.3187867,120.825113 C49.3473831,120.842301 49.3753711,120.845371 49.4015337,120.833093 C49.4283048,120.822044 49.4520337,120.787054 49.4739373,120.729966 C49.5019253,120.656917 49.5299133,120.520027 49.5572928,120.322365 C49.5852807,120.124089 49.596841,119.982902 49.5919735,119.900646 C49.587106,119.817775 49.5755458,119.757003 49.5566843,119.718944 C49.5372145,119.680885 49.5128771,119.652648 49.4836723,119.636073 M49.5213952,119.367818 C49.6436904,119.438412 49.730088,119.551975 49.7824133,119.708508 C49.8450819,119.895121 49.8542084,120.148644 49.8097928,120.469077 C49.7653771,120.788896 49.6923651,120.995152 49.5907566,121.086616 C49.5061843,121.162734 49.4039675,121.16519 49.2810639,121.093982 C49.1587687,121.022775 49.0687205,120.902459 49.0109193,120.732421 C48.9537265,120.561769 48.9476422,120.314385 48.9926663,119.989655 C49.0370819,119.671677 49.110094,119.466649 49.2117024,119.374571 C49.2962747,119.298452 49.3991,119.295997 49.5213952,119.367818" id="Fill-33" fill="#1D1C1B"></path>
                        <path d="M50.4622771,120.204934 C50.4330723,120.18836 50.4050843,120.185905 50.3795301,120.196954 C50.352759,120.208617 50.3284217,120.242993 50.3065181,120.300082 C50.2791386,120.374359 50.2511506,120.511249 50.2231627,120.709524 C50.1957831,120.9078 50.1836145,121.048373 50.1884819,121.131243 C50.1933494,121.214728 50.2055181,121.274272 50.2243795,121.312945 C50.2444578,121.35039 50.2681867,121.3774 50.2973916,121.393974 C50.325988,121.411162 50.3539759,121.414231 50.3801386,121.402568 C50.4069096,121.390905 50.4306386,121.356529 50.4525422,121.298826 C50.4805301,121.225164 50.5085181,121.089501 50.5358976,120.891226 C50.5638855,120.69295 50.5754458,120.551763 50.5705783,120.469506 C50.5657108,120.386636 50.5541506,120.325864 50.5352892,120.288419 C50.5158193,120.249746 50.4914819,120.221508 50.4622771,120.204934 M50.5,119.936679 C50.6222952,120.007886 50.7086928,120.120836 50.7610181,120.277983 C50.8236867,120.463982 50.8328133,120.717504 50.7883976,121.037937 C50.7439819,121.35837 50.6709699,121.564012 50.5693614,121.656091 C50.4847892,121.731595 50.3825723,121.73405 50.2596687,121.663457 C50.1373735,121.59225 50.0473253,121.47132 49.9895241,121.300668 C49.9323313,121.131243 49.926247,120.883246 49.9712711,120.559129 C50.0156867,120.241152 50.0886988,120.036124 50.1903072,119.943431 C50.2748795,119.867927 50.3777048,119.865472 50.5,119.936679" id="Fill-35" fill="#1D1C1B"></path>
                        <path d="M51.4402735,120.77447 C51.4110687,120.757282 51.3830807,120.754213 51.3575265,120.765876 C51.3307554,120.777539 51.3064181,120.812529 51.2851229,120.869004 C51.2571349,120.943281 51.229147,121.080171 51.201159,121.278446 C51.1737795,121.477336 51.1616108,121.617295 51.1664783,121.700166 C51.1713458,121.783036 51.1835145,121.843808 51.2029843,121.881253 C51.2224542,121.919312 51.2461831,121.946322 51.275388,121.96351 C51.3039843,121.980698 51.3319723,121.983153 51.3581349,121.970876 C51.384906,121.959827 51.4086349,121.924837 51.4305386,121.867748 C51.4585265,121.7947 51.4865145,121.65781 51.513894,121.460148 C51.5418819,121.261872 51.5534422,121.120685 51.5485747,121.038428 C51.5437072,120.955558 51.532147,120.894786 51.5132855,120.856727 C51.4938157,120.818668 51.4694783,120.791044 51.4402735,120.77447 M51.4779964,120.505601 C51.6002916,120.576195 51.6866892,120.689758 51.7390145,120.846905 C51.8016831,121.032904 51.8108096,121.286426 51.766394,121.606859 C51.7219783,121.927292 51.6489663,122.132934 51.5473578,122.225013 C51.4627855,122.300517 51.3605687,122.302973 51.2376651,122.232379 C51.1153699,122.161172 51.0253217,122.040856 50.9675205,121.870204 C50.9103277,121.699552 50.9042434,121.452168 50.9492675,121.128051 C50.9936831,120.810074 51.0666952,120.604432 51.1683036,120.512353 C51.2528759,120.436235 51.3557012,120.434394 51.4779964,120.505601" id="Fill-37" fill="#1D1C1B"></path>
                        <path d="M52.4182699,121.342778 C52.3890651,121.326204 52.3610771,121.323749 52.3355229,121.334798 C52.3087518,121.346462 52.2844145,121.380838 52.2631193,121.437926 C52.2351313,121.512203 52.2071434,121.649093 52.1791554,121.847368 C52.1517759,122.045644 52.1396072,122.186217 52.1444747,122.269088 C52.1493422,122.352572 52.1621193,122.412116 52.1809807,122.450789 C52.2004506,122.488234 52.2241795,122.515244 52.2533843,122.531818 C52.2819807,122.549006 52.3099687,122.552076 52.3361313,122.539798 C52.3629024,122.528749 52.3866313,122.493759 52.4085349,122.436671 C52.4365229,122.363008 52.4645108,122.227346 52.4918904,122.02907 C52.5198783,121.830794 52.5314386,121.689607 52.5265711,121.607351 C52.522312,121.523866 52.5101434,121.463708 52.4912819,121.425649 C52.471812,121.386976 52.4474747,121.359353 52.4182699,121.342778 M52.4559928,121.074523 C52.578288,121.145117 52.6646855,121.25868 52.7170108,121.415827 C52.7796795,121.601826 52.788806,121.855349 52.7443904,122.175782 C52.6999747,122.496215 52.6269627,122.701857 52.5253542,122.793935 C52.4407819,122.869439 52.3385651,122.871895 52.2156614,122.800687 C52.0933663,122.730094 52.0033181,122.609164 51.9455169,122.438512 C51.8883241,122.268474 51.8822398,122.02109 51.9272639,121.69636 C51.9716795,121.378382 52.0446916,121.173968 52.1463,121.081276 C52.2308723,121.005771 52.3336976,121.003316 52.4559928,121.074523" id="Fill-39" fill="#1D1C1B"></path>
                        <path d="M53.3968747,121.912253 C53.3676699,121.895065 53.3396819,121.891996 53.3141277,121.903659 C53.2873566,121.915936 53.2630193,121.950312 53.2417241,122.007401 C53.2137361,122.081677 53.1857482,122.217954 53.1577602,122.416229 C53.1303807,122.615119 53.118212,122.755078 53.1230795,122.838562 C53.127947,122.921433 53.1401157,122.981591 53.1595855,123.019036 C53.1790554,123.057095 53.2027843,123.084105 53.2319892,123.101293 C53.2605855,123.118481 53.2885735,123.120936 53.3147361,123.108659 C53.3415072,123.09761 53.3652361,123.063234 53.3871398,123.005531 C53.4151277,122.932482 53.4431157,122.796206 53.4704952,122.597931 C53.4984831,122.399655 53.5100434,122.258468 53.5051759,122.176211 C53.5009169,122.093341 53.4887482,122.032569 53.4698867,121.995124 C53.4504169,121.956451 53.4260795,121.928827 53.3968747,121.912253 M53.4345976,121.643384 C53.5568928,121.714591 53.6432904,121.828155 53.6956157,121.984688 C53.7582843,122.1713 53.7674108,122.424209 53.7229952,122.744642 C53.6785795,123.065075 53.6055675,123.271331 53.503959,123.362796 C53.4193867,123.4383 53.3171699,123.440755 53.1942663,123.370162 C53.0719711,123.298955 52.9819229,123.178639 52.9241217,123.007987 C52.8669289,122.837948 52.8608446,122.589951 52.9058687,122.265834 C52.9502843,121.947857 53.0232964,121.742829 53.1249048,121.65075 C53.2094771,121.574632 53.3123024,121.572177 53.4345976,121.643384" id="Fill-41" fill="#1D1C1B"></path>
                        <path d="M54.3749319,122.480561 C54.3457271,122.463987 54.3177392,122.461532 54.2921849,122.472581 C54.2654139,122.484244 54.2410765,122.51862 54.2197813,122.575709 C54.1917934,122.649986 54.1638054,122.786876 54.1358175,122.985151 C54.108438,123.184041 54.0962693,123.324 54.1011367,123.406871 C54.1060042,123.490355 54.1187813,123.549899 54.1376428,123.588572 C54.1571127,123.626017 54.1808416,123.653027 54.2100464,123.669601 C54.2386428,123.686789 54.2666307,123.689858 54.2927934,123.678195 C54.3195645,123.666532 54.3432934,123.632156 54.365197,123.574453 C54.3931849,123.501405 54.4211729,123.365128 54.4485524,123.166853 C54.4765404,122.968577 54.4881006,122.828004 54.4832331,122.745133 C54.4789741,122.662263 54.4668054,122.601491 54.447944,122.564046 C54.4284741,122.525373 54.4041367,122.497135 54.3749319,122.480561 M54.4126548,122.212306 C54.53495,122.283513 54.6213476,122.397077 54.6736729,122.55361 C54.7363416,122.739609 54.7454681,122.993131 54.7010524,123.313564 C54.6566367,123.633997 54.5836247,123.839639 54.4820163,123.931718 C54.397444,124.007222 54.2952271,124.009678 54.1723235,123.939084 C54.0500283,123.867877 53.9599801,123.746947 53.9021789,123.576909 C53.8449861,123.406871 53.8389018,123.158873 53.8839259,122.834756 C53.9283416,122.516779 54.0013536,122.311751 54.1035705,122.219058 C54.1875343,122.143554 54.2903596,122.141099 54.4126548,122.212306" id="Fill-43" fill="#1D1C1B"></path>
                        <path d="M55.3535367,123.050036 C55.3237235,123.032848 55.2957355,123.029779 55.2701813,123.041442 C55.2434102,123.053105 55.2190729,123.088095 55.1977777,123.14457 C55.1697898,123.218846 55.1418018,123.355736 55.1138139,123.554012 C55.0864343,123.752901 55.0748741,123.892861 55.0791331,123.975731 C55.084609,124.058602 55.0967777,124.119374 55.1156392,124.156819 C55.135109,124.194878 55.158838,124.221888 55.1886512,124.239076 C55.2166392,124.256264 55.2446271,124.258719 55.2707898,124.246442 C55.2975608,124.235393 55.3212898,124.201017 55.3431934,124.143314 C55.3711813,124.070265 55.3991693,123.933989 55.4265488,123.735714 C55.4545367,123.537438 55.466097,123.396251 55.4612295,123.313994 C55.4569705,123.231124 55.4448018,123.170352 55.4259404,123.132907 C55.4064705,123.094234 55.3821331,123.06661 55.3535367,123.050036 M55.3912596,122.781167 C55.5129464,122.852374 55.599344,122.965938 55.6516693,123.122471 C55.714338,123.308469 55.7234645,123.561992 55.6790488,123.882425 C55.6346331,124.202858 55.5616211,124.4085 55.4606211,124.500579 C55.3754404,124.576083 55.2732235,124.578538 55.1509283,124.507945 C55.0280247,124.436738 54.9379765,124.316422 54.8807837,124.14577 C54.8229825,123.975731 54.8168982,123.727733 54.8619223,123.403617 C54.906338,123.08564 54.97935,122.880612 55.0815669,122.788533 C55.1655307,122.711801 55.268356,122.709959 55.3912596,122.781167" id="Fill-45" fill="#1D1C1B"></path>
                        <path d="M40.7259988,117.260572 C40.8470771,117.331165 40.9687639,117.401759 41.0898422,117.472352 C41.0813241,117.522689 41.0709807,117.571797 41.0636795,117.623361 C40.5751072,121.141986 40.0865349,124.660611 39.5979627,128.17985 C39.5906614,128.231414 39.5870108,128.284205 39.5815349,128.336383 C39.4598482,128.26579 39.3387699,128.195196 39.2176916,128.124603 C39.2262096,128.07488 39.236553,128.025158 39.2438542,127.974208 C39.7324265,124.454969 40.2209988,120.936344 40.7095711,117.417105 C40.7168723,117.365541 40.7205229,117.31275 40.7259988,117.260572" id="Fill-47" fill="#FEFEFE"></path>
                        <path d="M43.0301982,130.342343 C42.9091199,130.27175 42.7874331,130.201156 42.6663548,130.130563 C43.1689211,126.509424 43.6720958,122.887671 44.174662,119.266532 C44.2902645,119.333442 44.4058669,119.400966 44.5214693,119.467877 C44.5159934,119.536629 44.5147765,119.606608 44.50565,119.672905 C44.2397645,121.601028 43.9732705,123.529151 43.7067765,125.45666 C43.481656,127.085221 43.2559271,128.713782 43.0301982,130.342343" id="Fill-49" fill="#FEFEFE"></path>
                        <path d="M47.6581886,121.292381 C47.773791,121.359291 47.8893934,121.426815 48.0049958,121.493726 C47.9952608,121.560636 47.9849175,121.626933 47.9751825,121.693843 C47.5784837,124.553186 47.1811765,127.411915 46.7844777,130.271259 C46.6883452,130.966758 46.5922127,131.662871 46.4960801,132.35837 C46.3750018,132.287777 46.2539235,132.217183 46.1322367,132.14659 C46.6092488,128.715133 47.0862608,125.284289 47.5638813,121.853446 C47.590044,121.663764 47.62655,121.479607 47.6581886,121.292381" id="Fill-51" fill="#FEFEFE"></path>
                        <path d="M52.5446416,135.876013 C52.4290392,135.809103 52.3134367,135.741579 52.1978343,135.674668 C52.701009,132.052916 53.2035753,128.431776 53.70675,124.810024 C53.8223524,124.877548 53.9373464,124.944458 54.0529488,125.011982 C54.0432139,125.078279 54.0328705,125.144575 54.023744,125.211486 C53.6270452,128.070829 53.229738,130.929558 52.8330392,133.788901 C52.7362982,134.484401 52.6407741,135.180514 52.5446416,135.876013" id="Fill-53" fill="#FEFEFE"></path>
                        <path d="M42.3542892,129.949291 C42.2386867,129.881767 42.1230843,129.814856 42.0074819,129.747946 C42.0172169,129.681036 42.0275602,129.614739 42.0372952,129.547829 C42.433994,126.688486 42.8313012,123.829756 43.228,120.970413 C43.3241325,120.274914 43.4202651,119.578801 43.5163976,118.883301 C43.632,118.950825 43.746994,119.017736 43.8625964,119.084646 C43.8571205,119.137438 43.8534699,119.19023 43.8461687,119.24118 C43.3582048,122.760418 42.8690241,126.279657 42.3804518,129.798282 C42.3731506,129.849846 42.3628072,129.898955 42.3542892,129.949291" id="Fill-55" fill="#FEFEFE"></path>
                        <path d="M41.9044741,117.946004 C42.0200765,118.012914 42.1356789,118.080438 42.2512813,118.147349 C42.2458054,118.199527 42.2415464,118.252932 42.2348536,118.303882 C41.7462813,121.823121 41.257709,125.34236 40.7685283,128.860985 C40.7618355,128.912549 40.7514922,128.961657 40.7423657,129.011994 C40.6267633,128.944469 40.5117693,128.877559 40.3961669,128.810035 C40.4046849,128.760312 40.4150283,128.71059 40.4223295,128.65964 C40.9109018,125.140401 41.3994741,121.621776 41.8880464,118.102537 C41.8953476,118.051587 41.8989982,117.998182 41.9044741,117.946004" id="Fill-57" fill="#FEFEFE"></path>
                        <path d="M46.0811283,120.375157 C46.1967307,120.442067 46.3123331,120.509591 46.4279355,120.576501 C46.4224596,120.628679 46.4182006,120.682085 46.4115078,120.733035 C45.9229355,124.252274 45.4343633,127.771513 44.9451825,131.290138 C44.9384898,131.341701 44.9281464,131.39081 44.9190199,131.441146 C44.8034175,131.373622 44.6884235,131.306712 44.5728211,131.239187 C45.0200199,128.03056 45.4672187,124.822546 45.9144175,121.613305 C45.9716102,121.202021 46.0257608,120.788282 46.0811283,120.375157" id="Fill-59" fill="#FEFEFE"></path>
                        <path d="M50.7083277,123.066426 C50.8239301,123.133336 50.9395325,123.20086 51.0551349,123.267771 C51.0460084,123.318107 51.0356651,123.367829 51.0289723,123.418779 C50.5397916,126.938018 50.0512193,130.456643 49.5632554,133.975882 C49.5559542,134.026832 49.5516952,134.080238 49.5462193,134.132416 C49.4306169,134.064891 49.3156229,133.997981 49.2000205,133.930457 C49.2054964,133.878279 49.209147,133.825487 49.2164482,133.773923 C49.704412,130.255298 50.1935928,126.73606 50.6821651,123.217435 C50.6894663,123.165871 50.6998096,123.116762 50.7083277,123.066426" id="Fill-61" fill="#FEFEFE"></path>
                        <path d="M53.4631331,136.410253 C53.3475307,136.343342 53.2319283,136.275818 53.1163259,136.208908 C53.1218018,136.15673 53.1260608,136.103324 53.1327536,136.052374 C53.6213259,132.533135 54.1098982,129.013897 54.5990789,125.495272 C54.6057717,125.443708 54.6161151,125.394599 54.6252416,125.344263 C54.7402355,125.411787 54.855838,125.478697 54.9714404,125.546222 C54.9629223,125.595944 54.9525789,125.645666 54.9452777,125.696616 C54.4567054,129.215855 53.9681331,132.73448 53.4795608,136.253719 C53.4722596,136.305283 53.468609,136.358075 53.4631331,136.410253" id="Fill-63" fill="#FEFEFE"></path>
                        <path d="M51.8694627,123.741729 C51.9850651,123.80864 52.1006675,123.876164 52.2162699,123.943074 C52.210794,123.995252 52.2065349,124.048658 52.1998422,124.099608 C51.7112699,127.618846 51.2226976,131.138085 50.7335169,134.65671 C50.7268241,134.708274 50.7164807,134.757383 50.7073542,134.807719 C50.5917518,134.740195 50.4767578,134.673284 50.3611554,134.60576 C50.3696735,134.556038 50.3800169,134.506315 50.3873181,134.455365 C50.8758904,130.936127 51.3644627,127.417502 51.8530349,123.898263 C51.8603361,123.847313 51.8639867,123.793907 51.8694627,123.741729" id="Fill-65" fill="#FEFEFE"></path>
                        <path d="M48.6113608,121.846755 C48.7269633,121.913665 48.8425657,121.981189 48.9581681,122.048099 C48.4549934,125.669852 47.9524271,129.290991 47.4492524,132.912744 C47.3342584,132.84522 47.218656,132.77831 47.1030536,132.710785 C47.1127886,132.644489 47.1231319,132.578192 47.1322584,132.511282 C47.5289572,129.651939 47.9262645,126.79321 48.3229633,123.933866 C48.4197042,123.238367 48.5152283,122.542254 48.6113608,121.846755" id="Fill-67" fill="#FEFEFE"></path>
                        <path d="M52.5280313,124.124776 C52.6436337,124.191686 52.7592361,124.25921 52.8748386,124.326121 C52.3716639,127.947873 51.8690976,131.569012 51.3659229,135.190765 C51.2503205,135.123241 51.1353265,135.056331 51.0197241,134.988807 C51.029459,134.92251 51.0398024,134.856214 51.0489289,134.788689 C51.4456277,131.92996 51.8429349,129.071231 52.2396337,126.211888 C52.3363747,125.516388 52.4318988,124.820275 52.5280313,124.124776" id="Fill-69" fill="#FEFEFE"></path>
                        <path d="M49.0965867,122.129006 C49.2121892,122.195916 49.3277916,122.26344 49.443394,122.330351 C49.433659,122.397261 49.4233157,122.463557 49.4135807,122.530468 C49.0168819,125.389811 48.6195747,128.24854 48.2228759,131.107884 C48.1267434,131.803383 48.0306108,132.499496 47.9344783,133.194995 C47.8188759,133.127471 47.7038819,133.060561 47.5882795,132.993037 C47.5937554,132.940859 47.597406,132.888067 47.6047072,132.836503 C48.0932795,129.317878 48.5818518,125.798639 49.0704241,122.280014 C49.0777253,122.22845 49.0880687,122.179342 49.0965867,122.129006" id="Fill-71" fill="#FEFEFE"></path>
                        <path d="M44.1913331,131.017708 C44.0757307,130.950798 43.9601283,130.883273 43.8445259,130.816363 C43.8500018,130.764185 43.8542608,130.71078 43.8609536,130.65983 C44.3495259,127.140591 44.8380982,123.621352 45.3272789,120.102727 C45.3339717,120.051163 45.3443151,120.002055 45.3534416,119.951718 C45.4684355,120.019243 45.584038,120.086153 45.6996404,120.153677 C45.671044,120.375893 45.643056,120.598723 45.6126343,120.820325 C45.1490078,124.15909 44.6853813,127.497241 44.2217548,130.836007 C44.2132367,130.897392 44.2016765,130.956936 44.1913331,131.017708" id="Fill-73" fill="#FEFEFE"></path>
                        <path d="M42.3542892,129.949291 C42.3628072,129.898955 42.3731506,129.849846 42.3804518,129.798282 C42.8690241,126.279657 43.3582048,122.760418 43.8461687,119.24118 C43.8534699,119.19023 43.8571205,119.137438 43.8625964,119.084646 C43.9666386,119.145418 44.0706807,119.20619 44.1747229,119.266348 C43.6721566,122.888101 43.1689819,126.50924 42.6664157,130.130379 C42.5623735,130.070221 42.4583313,130.009449 42.3542892,129.949291" id="Fill-75" fill="#1D1C1B"></path>
                        <path d="M52.5280313,124.124776 C52.4318988,124.820275 52.3363747,125.516388 52.2396337,126.211888 C51.8429349,129.071231 51.4456277,131.92996 51.0489289,134.788689 C51.0398024,134.856214 51.029459,134.92251 51.0197241,134.988807 C50.9156819,134.928649 50.8116398,134.867877 50.7075976,134.807719 C50.7167241,134.757383 50.726459,134.70766 50.7337602,134.65671 C51.222941,131.138085 51.7115133,127.618846 52.1994771,124.099608 C52.2067783,124.048658 52.2104289,123.995252 52.2159048,123.943074 C52.319947,124.003846 52.4239892,124.064004 52.5280313,124.124776" id="Fill-77" fill="#1D1C1B"></path>
                        <path d="M53.7065066,124.810146 C53.2039404,128.431285 52.7007657,132.053038 52.1981994,135.674177 C52.0941572,135.614019 51.9901151,135.553248 51.8860729,135.49309 C51.8951994,135.442753 51.9055428,135.393645 51.9122355,135.342081 C52.4014163,131.823456 52.8899886,128.304217 53.3779524,124.785592 C53.3852536,124.734028 53.3895127,124.680623 53.3943801,124.628445 L53.7065066,124.810146 Z" id="Fill-79" fill="#1D1C1B"></path>
                        <path d="M44.9192024,131.441023 C44.9283289,131.390687 44.9380639,131.341579 44.9453651,131.290015 C45.4339373,127.77139 45.9231181,124.252151 46.4110819,120.733526 C46.4183831,120.681962 46.4220337,120.62917 46.4275096,120.576993 C46.5315518,120.63715 46.635594,120.697922 46.7396361,120.75808 C46.2370699,124.379833 45.7338952,128.000972 45.2313289,131.622725 C45.1272867,131.561953 45.0232446,131.501181 44.9192024,131.441023" id="Fill-81" fill="#1D1C1B"></path>
                        <path d="M40.7425482,129.011871 C40.7510663,128.961535 40.7614096,128.912426 40.7687108,128.860862 C41.2578916,125.342237 41.7464639,121.822998 42.2344277,118.303759 C42.2417289,118.252809 42.245988,118.200018 42.2508554,118.14784 C42.3548976,118.207998 42.4589398,118.26877 42.5629819,118.328928 C42.5538554,118.379264 42.543512,118.428372 42.5368193,118.479936 C42.0476386,121.998561 41.5590663,125.5178 41.0711024,129.036425 C41.0638012,129.087989 41.0601506,129.140781 41.0546747,129.193572 C40.9506325,129.132801 40.8465904,129.072029 40.7425482,129.011871" id="Fill-83" fill="#1D1C1B"></path>
                        <path d="M54.6249982,125.344386 C54.6164801,125.394722 54.6061367,125.44383 54.5988355,125.495394 C54.1102633,129.014019 53.6210825,132.533258 53.1331187,136.051883 C53.1258175,136.103447 53.1221669,136.156239 53.116691,136.208417 C53.0126488,136.148259 52.9086066,136.087487 52.8045645,136.027329 C53.3077392,132.405576 53.8103054,128.784437 54.3128717,125.162684 C54.4169139,125.223456 54.520956,125.283614 54.6249982,125.344386" id="Fill-85" fill="#1D1C1B"></path>
                        <path d="M50.7083277,123.066426 C50.6998096,123.116762 50.6894663,123.165871 50.6821651,123.217435 C50.1935928,126.73606 49.704412,130.255298 49.2164482,133.773923 C49.209147,133.825487 49.2054964,133.878279 49.2000205,133.930457 C49.0959783,133.870299 48.9919361,133.809527 48.887894,133.749369 C49.3904602,130.127616 49.8936349,126.506477 50.3962012,122.884724 C50.5002434,122.945496 50.6042855,123.005654 50.7083277,123.066426" id="Fill-87" fill="#1D1C1B"></path>
                        <path d="M47.6581886,121.292381 C47.62655,121.479607 47.590044,121.663764 47.5638813,121.853446 C47.0862608,125.284289 46.6092488,128.715133 46.1322367,132.14659 C46.0342789,132.089501 45.9357127,132.032413 45.8377548,131.975324 C45.8462729,131.924988 45.8572247,131.875879 45.8639175,131.824315 C46.3530982,128.30569 46.8416705,124.786452 47.3296343,121.267827 C47.3369355,121.216263 47.3411946,121.163471 47.346062,121.110679 C47.4501042,121.171451 47.5541464,121.232223 47.6581886,121.292381" id="Fill-89" fill="#1D1C1B"></path>
                        <path d="M46.8782982,120.838802 C46.976256,120.895891 47.0748223,120.95298 47.1727801,121.010068 C46.6702139,124.631821 46.1670392,128.25296 45.6644729,131.874713 C45.5659066,131.81701 45.4679488,131.759922 45.369991,131.702833 C45.3803343,131.642675 45.3918946,131.583131 45.4004127,131.521746 C45.7873765,128.734224 46.1749488,125.947315 46.5613042,123.159793 C46.6683886,122.386948 46.7730392,121.612261 46.8782982,120.838802" id="Fill-91" fill="#1D1C1B"></path>
                        <path d="M41.9044741,117.946004 C41.8989982,117.998182 41.8953476,118.051587 41.8880464,118.102537 C41.3994741,121.621776 40.9109018,125.140401 40.4223295,128.65964 C40.4150283,128.71059 40.4046849,128.760312 40.3961669,128.810035 C40.2976006,128.752946 40.1996428,128.695858 40.1010765,128.638769 C40.110203,128.571859 40.1187211,128.504334 40.1278476,128.437424 C40.5032512,125.732773 40.8786548,123.028121 41.2546669,120.324084 C41.372703,119.473893 41.4913476,118.624315 41.6099922,117.774738 C41.70795,117.831827 41.8065163,117.888915 41.9044741,117.946004" id="Fill-93" fill="#1D1C1B"></path>
                        <path d="M51.8694627,123.741729 C51.8639867,123.793907 51.8603361,123.847313 51.8530349,123.898263 C51.3644627,127.417502 50.8758904,130.936127 50.3873181,134.455365 C50.3800169,134.506315 50.3696735,134.556038 50.3611554,134.60576 C50.2625892,134.548672 50.1646313,134.491583 50.0660651,134.434494 C50.5692398,130.813355 51.071806,127.191602 51.5749807,123.570463 C51.6729386,123.627552 51.7715048,123.684641 51.8694627,123.741729" id="Fill-95" fill="#1D1C1B"></path>
                        <path d="M44.7813313,119.619192 C44.8792892,119.676281 44.9778554,119.73337 45.0758133,119.790458 C45.0703373,119.842636 45.0666867,119.896042 45.0593855,119.946992 C44.5708133,123.466231 44.082241,126.984856 43.5936687,130.504094 C43.5863675,130.555044 43.5760241,130.604767 43.567506,130.655103 C43.4689398,130.597401 43.3709819,130.540312 43.2730241,130.483223 C43.7755904,126.862084 44.2781566,123.240331 44.7813313,119.619192" id="Fill-97" fill="#1D1C1B"></path>
                        <path d="M55.2316066,125.697169 C55.3295645,125.754258 55.4281307,125.811346 55.5260886,125.868435 C55.1920584,128.279663 54.8580283,130.690891 54.5233898,133.102119 C54.355462,134.312644 54.1863175,135.522555 54.0177813,136.73308 C53.9198235,136.675991 53.8212572,136.618288 53.7232994,136.5612 C53.7318175,136.494289 53.7403355,136.426765 53.749462,136.359855 C54.1248657,133.655204 54.5002693,130.950552 54.8762813,128.246515 C54.9943175,127.396323 55.112962,126.546746 55.2316066,125.697169" id="Fill-99" fill="#1D1C1B"></path>
                        <path d="M54.5029464,137.015024 C54.4049886,136.957935 54.3064223,136.900847 54.2084645,136.843758 C54.2139404,136.79158 54.217591,136.738175 54.2248922,136.687225 C54.7134645,133.167986 55.2020367,129.649361 55.690609,126.130122 C55.6979102,126.079172 55.7082536,126.029449 55.7167717,125.979113 C55.8147295,126.036816 55.9132958,126.09329 56.0112536,126.150993 C55.5086873,129.772132 55.0055127,133.393885 54.5029464,137.015024" id="Fill-101" fill="#1D1C1B"></path>
                        <path d="M42.9616277,118.560843 C43.0595855,118.617931 43.1581518,118.67502 43.2561096,118.732108 C42.7535434,122.353861 42.2503687,125.975 41.7478024,129.596753 C41.6553205,129.542734 41.5628386,129.488714 41.4703566,129.435309 C41.4794831,129.367785 41.4873928,129.300261 41.4971277,129.23335 C41.9151217,126.219315 42.334941,123.205894 42.7517181,120.191245 C42.8265554,119.650438 42.8916578,119.104105 42.9616277,118.560843" id="Fill-103" fill="#1D1C1B"></path>
                        <path d="M49.7031952,122.481789 C49.801153,122.538878 49.8997193,122.595966 49.9976771,122.653055 C49.9648217,122.850717 49.9270988,123.045309 49.8991108,123.245426 C49.5602133,125.676912 49.223141,128.109011 48.8854602,130.540496 C48.7479542,131.530033 48.6098398,132.518341 48.4717253,133.507264 C48.3792434,133.453245 48.2873699,133.399839 48.194888,133.34582 C48.6974542,129.724681 49.2000205,126.102928 49.7031952,122.481789" id="Fill-105" fill="#1D1C1B"></path>
                        <path d="M43.5674452,130.654858 C43.5759633,130.604521 43.5863066,130.555413 43.5936078,130.503849 C44.0821801,126.985224 44.5713608,123.465985 45.0593247,119.946746 C45.0666259,119.895796 45.0702765,119.843004 45.0757524,119.790827 C45.139638,119.827658 45.2029151,119.864489 45.2668006,119.901321 C45.2576741,119.951657 45.2473307,120.001379 45.240638,120.052329 C44.7514572,123.570954 44.2628849,127.090193 43.7743127,130.609432 C43.7676199,130.660382 43.7633608,130.713174 43.7578849,130.765966 C43.6946078,130.72852 43.6307223,130.691689 43.5674452,130.654858" id="Fill-107" fill="#FEFEFE"></path>
                        <path d="M55.7168325,125.979359 C55.7083145,126.029695 55.6979711,126.078803 55.6906699,126.130367 C55.2020976,129.648992 54.7135253,133.168231 54.224953,136.686856 C54.2176518,136.73842 54.2140012,136.791212 54.2085253,136.84339 C54.1446398,136.806558 54.0813627,136.769727 54.0174771,136.732895 C54.1860133,135.522371 54.3551578,134.31246 54.5230855,133.101935 C54.8577241,130.690707 55.1917542,128.279479 55.5263928,125.868251 C55.5896699,125.905696 55.6535554,125.942527 55.7168325,125.979359" id="Fill-109" fill="#FEFEFE"></path>
                        <path d="M49.7031952,122.481789 C49.2000205,126.102928 48.6974542,129.724681 48.194888,133.34582 C48.1370867,133.312672 48.0792855,133.27891 48.0214843,133.245147 C48.5240506,129.624008 49.0272253,126.002256 49.5297916,122.381117 C49.5875928,122.414265 49.645394,122.448027 49.7031952,122.481789" id="Fill-111" fill="#FEFEFE"></path>
                        <path d="M55.2316066,125.697169 C55.112962,126.546746 54.9943175,127.396323 54.8762813,128.246515 C54.5002693,130.950552 54.1248657,133.655204 53.749462,136.359855 C53.7403355,136.426765 53.7318175,136.494289 53.7232994,136.5612 C53.6654982,136.528052 53.607697,136.494289 53.5498958,136.460527 C53.561456,136.389934 53.5748416,136.319954 53.5845765,136.248133 C54.076191,132.697588 54.567197,129.147042 55.058203,125.596496 C55.1160042,125.630259 55.1738054,125.663407 55.2316066,125.697169" id="Fill-113" fill="#FEFEFE"></path>
                        <path d="M48.3513771,121.695562 C48.4091783,121.729324 48.4669795,121.762472 48.5247807,121.796234 C48.021606,125.417987 47.5190398,129.039126 47.0164735,132.660879 C46.9586723,132.627117 46.9008711,132.593355 46.8430699,132.559593 C47.3456361,128.938454 47.8488108,125.317315 48.3513771,121.695562" id="Fill-115" fill="#FEFEFE"></path>
                        <path d="M41.1766048,117.522627 C41.234406,117.556389 41.2922072,117.589538 41.3500084,117.6233 C41.3408819,117.673636 41.331147,117.723358 41.3238458,117.774308 C40.8346651,121.292933 40.3460928,124.812172 39.8581289,128.331411 C39.8508277,128.382361 39.8465687,128.435767 39.8410928,128.487944 C39.7839,128.454182 39.7260988,128.42042 39.6682976,128.386658 C39.6737735,128.33448 39.6774241,128.281689 39.6847253,128.230125 C40.1726892,124.7115 40.6618699,121.192261 41.1504422,117.673636 C41.1577434,117.622072 41.1680867,117.572963 41.1766048,117.522627" id="Fill-117" fill="#FEFEFE"></path>
                        <path d="M46.7562464,132.509441 C46.6984452,132.475678 46.640644,132.44253 46.5828428,132.408768 C47.0860175,128.787015 47.5885837,125.165876 48.0917584,121.544123 C48.1489512,121.577885 48.2067524,121.611648 48.2645536,121.64541 C48.2548187,121.711706 48.2444753,121.778003 48.2353488,121.844913 C47.83865,124.704256 47.4413428,127.562986 47.044644,130.422329 C46.947903,131.117828 46.8523789,131.813941 46.7562464,132.509441" id="Fill-119" fill="#FEFEFE"></path>
                        <path d="M41.6098705,117.774615 C41.4912259,118.624192 41.3725813,119.47377 41.2545452,120.323961 C40.8785331,123.027998 40.5031295,125.73265 40.1277259,128.437301 C40.1185994,128.504212 40.1100813,128.571736 40.1015633,128.638646 C40.043762,128.605498 39.9859608,128.571736 39.9281596,128.537974 C39.9336355,128.485796 39.9372861,128.433004 39.9445873,128.38144 C40.4331596,124.862201 40.9217319,121.343576 41.4103042,117.824951 C41.4176054,117.773388 41.4279488,117.724279 41.4364669,117.673943 C41.4942681,117.707705 41.5520693,117.740853 41.6098705,117.774615" id="Fill-121" fill="#FEFEFE"></path>
                        <path d="M45.664412,131.874467 C46.1669783,128.252715 46.670153,124.631576 47.1727193,121.010437 C47.2305205,121.043585 47.2883217,121.077347 47.3461229,121.111109 C47.340647,121.163287 47.3369964,121.216078 47.3296952,121.267642 C46.8417313,124.786881 46.353159,128.305506 45.8639783,131.824745 C45.8566771,131.875695 45.8463337,131.924804 45.8378157,131.97514 C45.7800145,131.941378 45.7222133,131.90823 45.664412,131.874467" id="Fill-123" fill="#FEFEFE"></path>
                        <path d="M41.7477416,129.596508 C42.2503078,125.974755 42.7534825,122.353616 43.2560488,118.731863 C43.31385,118.765625 43.3716512,118.799387 43.4294524,118.833149 C42.9268861,122.454288 42.4237114,126.076041 41.9211452,129.69718 C41.863344,129.663418 41.8055428,129.63027 41.7477416,129.596508" id="Fill-125" fill="#FEFEFE"></path>
                        <path d="M39.1135277,128.064383 C39.0612024,128.034304 39.0094855,128.003612 38.9577687,127.973533 C38.9662867,127.923196 38.9766301,127.874088 38.9839313,127.822524 C39.4725036,124.303899 39.9610759,120.785274 40.4496482,117.266035 C40.456341,117.214471 40.4606,117.16168 40.4660759,117.109502 C40.5238771,117.143264 40.5816783,117.176412 40.6394795,117.210174 C40.543347,117.871911 40.4435639,118.531807 40.3510819,119.196 C39.9482988,122.086036 39.5479494,124.976686 39.1463831,127.867336 C39.1366482,127.933632 39.1244795,127.998701 39.1135277,128.064383" id="Fill-127" fill="#FEFEFE"></path>
                        <path d="M51.1762741,123.338548 C51.2225151,123.365558 51.268756,123.392568 51.314997,123.418964 C50.9809669,125.819756 50.6469367,128.219935 50.3135151,130.620113 C50.143762,131.841074 49.9752259,133.062034 49.8066898,134.283608 C49.7543645,134.253529 49.7026476,134.222837 49.6503223,134.192758 C49.6600572,134.125847 49.6704006,134.059551 49.6795271,133.99264 C50.1407199,130.674746 50.6006958,127.356853 51.062497,124.038959 C51.0953524,123.802624 51.1379428,123.571814 51.1762741,123.338548" id="Fill-129" fill="#FEFEFE"></path>
                        <path d="M48.4719687,133.507326 C48.6100831,132.518403 48.7481976,131.52948 48.8850952,130.540557 C49.2233843,128.109072 49.5604566,125.676973 49.8993542,123.245488 C49.9267337,123.045371 49.9644566,122.850778 49.9979205,122.653116 C50.0441614,122.680126 50.0904024,122.707136 50.1366434,122.733532 C49.6334687,126.355284 49.1309024,129.976423 48.6277277,133.598176 C48.5760108,133.568097 48.5236855,133.537404 48.4719687,133.507326" id="Fill-131" fill="#FEFEFE"></path>
                        <path d="M42.9616277,118.560843 C42.8916578,119.104105 42.8265554,119.650438 42.7517181,120.191245 C42.334941,123.205894 41.9151217,126.219315 41.4971277,129.23335 C41.4873928,129.300261 41.4794831,129.367785 41.4703566,129.435309 C41.4186398,129.40523 41.3663145,129.374537 41.3145976,129.344458 C41.8171639,125.723319 42.3203386,122.101566 42.8229048,118.480427 C42.8691458,118.506823 42.9153867,118.533833 42.9616277,118.560843" id="Fill-133" fill="#FEFEFE"></path>
                        <path d="M54.3130542,125.16293 C53.810488,128.784683 53.3073133,132.405822 52.804747,136.026961 C52.758506,136.000565 52.7122651,135.973555 52.6660241,135.946545 C52.9994458,133.546367 53.3334759,131.146188 53.6668976,128.74601 C53.8366506,127.525049 54.0051867,126.303475 54.1743313,125.082514 C54.2205723,125.10891 54.2668133,125.13592 54.3130542,125.16293" id="Fill-135" fill="#FEFEFE"></path>
                        <path d="M51.574859,123.570402 C51.0722928,127.191541 50.5691181,130.813294 50.0665518,134.434433 C50.0203108,134.408037 49.9740699,134.381027 49.9278289,134.354018 C49.9375639,134.287107 49.9479072,134.220811 49.9570337,134.1539 C50.354341,131.295171 50.7510398,128.435828 51.1477386,125.577099 C51.2444795,124.881599 51.3400036,124.185486 51.4361361,123.489987 C51.4823771,123.516383 51.5286181,123.543392 51.574859,123.570402" id="Fill-137" fill="#FEFEFE"></path>
                        <path d="M50.3963837,122.88497 C49.8938175,126.506109 49.3906428,130.127862 48.8880765,133.749001 C48.8418355,133.722605 48.7955946,133.695595 48.7493536,133.668586 C48.7578717,133.618249 48.7682151,133.569141 48.7755163,133.517577 C49.2640886,129.998952 49.7526608,126.479713 50.2412331,122.961088 C50.2485343,122.909524 50.2521849,122.856733 50.2576608,122.804555 C50.3039018,122.830951 50.3501428,122.85796 50.3963837,122.88497" id="Fill-139" fill="#FEFEFE"></path>
                        <path d="M53.3945627,124.628752 C53.3890867,124.68093 53.3854361,124.733721 53.3781349,124.785285 C52.8901711,128.304524 52.4009904,131.823149 51.9124181,135.342388 C51.9051169,135.393338 51.8947735,135.44306 51.8862554,135.492783 C51.8400145,135.466387 51.7937735,135.439377 51.7475325,135.412368 C51.7560506,135.362031 51.766394,135.312923 51.7736952,135.261359 C52.2622675,131.742734 52.7508398,128.223495 53.239412,124.70487 C53.2467133,124.653306 53.2503639,124.600514 53.2558398,124.548337 C53.3020807,124.574732 53.3483217,124.601742 53.3945627,124.628752" id="Fill-141" fill="#FEFEFE"></path>
                        <path d="M51.6260892,135.341835 C51.5798482,135.314826 51.5336072,135.287816 51.4873663,135.26142 C51.4964928,135.211084 51.5062277,135.161362 51.5135289,135.110412 C52.0027096,131.591787 52.4912819,128.072548 52.9792458,124.553309 C52.986547,124.502359 52.9901976,124.448953 52.9956735,124.396775 C53.0419145,124.423785 53.0881554,124.450795 53.1343964,124.477805 C52.6318301,128.098944 52.1286554,131.720083 51.6260892,135.341835" id="Fill-143" fill="#FEFEFE"></path>
                        <path d="M54.5029464,137.015024 C55.0055127,133.393885 55.5086873,129.772132 56.0112536,126.150993 C56.0574946,126.177389 56.1037355,126.204398 56.1499765,126.231408 C55.6474102,129.852547 55.1442355,133.4743 54.6416693,137.095439 C54.5954283,137.069043 54.5491873,137.042034 54.5029464,137.015024" id="Fill-145" fill="#FEFEFE"></path>
                        <path d="M41.0544922,129.193327 C41.0599681,129.141149 41.0636187,129.087743 41.0709199,129.036793 C41.5588837,125.517555 42.0480645,121.998316 42.5366367,118.479691 C42.543938,118.428741 42.5542813,118.379018 42.5627994,118.328682 C42.6090404,118.355692 42.6552813,118.382701 42.7015223,118.409711 C42.6930042,118.460047 42.6826608,118.509156 42.6753596,118.56072 C42.1867873,122.079345 41.6982151,125.598584 41.2096428,129.117209 C41.2023416,129.168773 41.198691,129.221564 41.1932151,129.273742 C41.1469741,129.246732 41.1007331,129.220336 41.0544922,129.193327" id="Fill-147" fill="#FEFEFE"></path>
                        <path d="M44.7813313,119.619192 C44.2781566,123.240331 43.7755904,126.862084 43.2730241,130.483223 C43.2267831,130.456827 43.1805422,130.429818 43.1343012,130.402808 C43.1428193,130.352472 43.1531627,130.303363 43.1604639,130.251799 C43.6490361,126.733174 44.1376084,123.213936 44.6261807,119.695311 C44.6334819,119.643747 44.6371325,119.590955 44.6426084,119.538777 C44.6888494,119.565173 44.7350904,119.592183 44.7813313,119.619192" id="Fill-149" fill="#FEFEFE"></path>
                        <path d="M44.4513169,131.168901 C44.4050759,131.141891 44.3588349,131.114882 44.312594,131.088486 C44.321112,131.038149 44.3314554,130.988427 44.3387566,130.937477 C44.8279373,127.418238 45.3165096,123.899613 45.8044735,120.380374 C45.8117747,120.329424 45.8160337,120.276019 45.8209012,120.223841 C45.8671422,120.250851 45.9133831,120.27786 45.9596241,120.30487 C45.9498892,120.371166 45.9395458,120.437463 45.9304193,120.504373 C45.5337205,123.363717 45.1364133,126.222446 44.7397145,129.081789 C44.6429735,129.777288 44.5474494,130.473402 44.4513169,131.168901" id="Fill-151" fill="#FEFEFE"></path>
                        <path d="M46.8782982,120.838802 C46.7730392,121.612261 46.6683886,122.386948 46.5613042,123.159793 C46.1749488,125.947315 45.7873765,128.734224 45.4004127,131.521746 C45.3918946,131.583131 45.3803343,131.642675 45.369991,131.702833 C45.32375,131.676437 45.277509,131.649428 45.2312681,131.622418 C45.7338343,128.001279 46.237009,124.379526 46.7395753,120.758387 C46.7858163,120.784783 46.8320572,120.811793 46.8782982,120.838802" id="Fill-153" fill="#FEFEFE"></path>
                        <path d="M40.2060922,116.958186 C40.2523331,116.985196 40.2985741,117.012206 40.3448151,117.038601 C39.8416404,120.660354 39.3390741,124.281493 38.8358994,127.903246 C38.7902669,127.876236 38.7440259,127.849227 38.6977849,127.822217 C38.706303,127.772495 38.7166464,127.722772 38.7239476,127.671822 C39.2125199,124.152583 39.7010922,120.633958 40.1896645,117.11472 C40.1963572,117.063156 40.2006163,117.010364 40.2060922,116.958186" id="Fill-155" fill="#FEFEFE"></path>
                        <path d="M49.0965867,122.129006 C49.0880687,122.179342 49.0777253,122.22845 49.0704241,122.280014 C48.5818518,125.798639 48.0932795,129.317878 47.6047072,132.836503 C47.597406,132.888067 47.5937554,132.940859 47.5882795,132.993037 C47.5420386,132.966641 47.4957976,132.939631 47.4495566,132.912621 C47.9521229,129.291482 48.4552976,125.66973 48.9578639,122.048591 C49.0041048,122.074986 49.0503458,122.101996 49.0965867,122.129006" id="Fill-157" fill="#1D1C1B"></path>
                        <path d="M40.2060922,116.958186 C40.2006163,117.010364 40.1963572,117.063156 40.1896645,117.11472 C39.7010922,120.633958 39.2125199,124.152583 38.7239476,127.671822 C38.7166464,127.722772 38.706303,127.772495 38.6977849,127.822217 C38.6570199,127.798891 38.6168633,127.775564 38.5760982,127.751624 C38.5852247,127.684713 38.5931343,127.617189 38.6028693,127.550279 C38.9995681,124.690935 39.3962669,121.832206 39.7935741,118.972863 C39.8903151,118.277364 39.9876645,117.583092 40.0850139,116.887593 C40.1251705,116.910919 40.1659355,116.93486 40.2060922,116.958186" id="Fill-159" fill="#1D1C1B"></path>
                        <path d="M54.174453,125.08233 C54.0053084,126.303291 53.8367723,127.524865 53.6670193,128.745825 C53.3335976,131.146004 52.9995675,133.546183 52.6661458,135.946361 C52.6253807,135.923035 52.5852241,135.899708 52.544459,135.875768 C52.6405916,135.180268 52.7361157,134.484155 52.8328566,133.78927 C53.2295554,130.929927 53.6268627,128.070583 54.0235614,125.211854 C54.0332964,125.144944 54.0436398,125.078647 54.0533747,125.011737 C54.0935313,125.035063 54.1342964,125.059004 54.174453,125.08233" id="Fill-161" fill="#1D1C1B"></path>
                        <path d="M41.1931542,129.273926 C41.1986301,129.221748 41.2028892,129.168343 41.2095819,129.117393 C41.6981542,125.598154 42.1867265,122.079529 42.6752988,118.56029 C42.6826,118.50934 42.6929434,118.459618 42.7014614,118.409895 C42.7422265,118.433222 42.7823831,118.456548 42.8231482,118.480489 C42.3199735,122.101628 41.8174072,125.722767 41.3142325,129.34452 C41.2740759,129.321193 41.2333108,129.297253 41.1931542,129.273926" id="Fill-163" fill="#1D1C1B"></path>
                        <path d="M51.6260892,135.341835 C52.1286554,131.720083 52.6318301,128.098944 53.1343964,124.477805 C53.1751614,124.501131 53.2153181,124.524458 53.2560831,124.547784 C53.2506072,124.600576 53.2463482,124.653367 53.2396554,124.704318 C52.7510831,128.223556 52.2625108,131.742795 51.7733301,135.26142 C51.7666373,135.312984 51.756294,135.362093 51.7471675,135.412429 C51.7070108,135.389102 51.6662458,135.365162 51.6260892,135.341835" id="Fill-165" fill="#1D1C1B"></path>
                        <path d="M50.2577217,122.804309 C50.2522458,122.856487 50.2485952,122.909892 50.241294,122.960843 C49.7527217,126.480081 49.2641494,129.998706 48.7755771,133.517945 C48.7682759,133.568895 48.7579325,133.618618 48.7494145,133.66834 C48.7086494,133.645014 48.6684928,133.621687 48.6277277,133.59836 C49.1309024,129.976608 49.6334687,126.355469 50.1366434,122.733716 C50.1768,122.757042 50.2175651,122.780983 50.2577217,122.804309" id="Fill-167" fill="#1D1C1B"></path>
                        <path d="M52.9959777,124.396898 C52.9905018,124.449076 52.9862428,124.501868 52.97955,124.553432 C52.4909777,128.07267 52.0024054,131.591295 51.5138331,135.110534 C51.5065319,135.161484 51.4961886,135.211207 51.4876705,135.260929 C51.4469054,135.237603 51.4067488,135.214276 51.3659837,135.190336 C51.8691584,131.569197 52.3717247,127.948058 52.8748994,124.326305 C52.915056,124.349631 52.9558211,124.373572 52.9959777,124.396898" id="Fill-169" fill="#1D1C1B"></path>
                        <path d="M45.8211446,120.223964 C45.8156687,120.276142 45.8120181,120.328933 45.8047169,120.380497 C45.3161446,123.899736 44.8275723,127.418361 44.339,130.9376 C44.3316988,130.98855 44.3213554,131.038272 44.3128373,131.087995 C44.2720723,131.064668 44.2319157,131.041342 44.1911506,131.017401 C44.201494,130.957243 44.2130542,130.897699 44.2215723,130.8357 C44.6858072,127.497548 45.1494337,124.158783 45.6124518,120.820018 C45.6434819,120.59903 45.6708614,120.375586 45.7000663,120.15337 C45.7402229,120.176697 45.780988,120.200637 45.8211446,120.223964" id="Fill-171" fill="#1D1C1B"></path>
                        <path d="M44.4513169,131.168901 C44.5474494,130.473402 44.6429735,129.777288 44.7397145,129.081789 C45.1364133,126.222446 45.5337205,123.363717 45.9304193,120.504373 C45.9395458,120.437463 45.9498892,120.371166 45.9596241,120.30487 C46.0003892,120.328197 46.0405458,120.351523 46.0813108,120.37485 C46.0253349,120.787975 45.9717928,121.201714 45.9146,121.613612 C45.4674012,124.822239 45.0202024,128.030867 44.5723952,131.239494 C44.5322386,131.216168 44.4914735,131.192227 44.4513169,131.168901" id="Fill-173" fill="#1D1C1B"></path>
                        <path d="M51.436197,123.489741 C51.3400645,124.185241 51.2445404,124.881354 51.1477994,125.576853 C50.7511006,128.436196 50.3537934,131.294926 49.9570946,134.154269 C49.9479681,134.221179 49.9376247,134.287476 49.9278898,134.353772 C49.8871247,134.330446 49.8469681,134.307119 49.806203,134.283179 C49.9753476,133.062218 50.1438837,131.840644 50.3136367,130.620297 C50.6470584,128.219505 50.9810886,125.819326 51.3151187,123.419148 C51.3552753,123.442474 51.3960404,123.466415 51.436197,123.489741" id="Fill-175" fill="#1D1C1B"></path>
                        <path d="M38.8362036,127.903123 C39.3393783,124.281984 39.8419446,120.660231 40.3445108,117.039092 C40.3852759,117.062419 40.4254325,117.085746 40.4661976,117.109686 C40.4607217,117.161864 40.4564627,117.214655 40.4497699,117.266219 C39.9611976,120.784844 39.4726253,124.304083 38.9834446,127.822708 C38.9767518,127.874272 38.9664084,127.923381 38.9572819,127.973717 C38.9171253,127.95039 38.8763602,127.92645 38.8362036,127.903123" id="Fill-177" fill="#1D1C1B"></path>
                        <path d="M51.1762741,123.338548 C51.1379428,123.571814 51.0953524,123.802624 51.062497,124.038959 C50.6006958,127.356853 50.1407199,130.674746 49.6795271,133.99264 C49.6704006,134.059551 49.6600572,134.125847 49.6503223,134.192758 C49.6156416,134.1725 49.5809608,134.152243 49.5462801,134.1326 C49.551756,134.079808 49.5560151,134.027016 49.5627078,133.976066 C50.0512801,130.456827 50.5398524,126.937589 51.0284247,123.418964 C51.0357259,123.3674 51.0460693,123.318291 51.0551958,123.267955 C51.0953524,123.291281 51.1361175,123.315222 51.1762741,123.338548" id="Fill-179" fill="#1D1C1B"></path>
                        <path d="M44.6426693,119.538593 C44.6371934,119.590771 44.6335428,119.643562 44.6262416,119.695126 C44.1376693,123.214365 43.649097,126.73299 43.1605247,130.252229 C43.1532235,130.303179 43.1428801,130.352902 43.134362,130.402624 C43.0996813,130.382367 43.0650006,130.362723 43.0303199,130.342466 C43.2560488,128.713905 43.4817777,127.085344 43.7068982,125.456783 C43.9733922,123.52866 44.2398861,121.601151 44.5057717,119.673028 C44.5148982,119.606731 44.5161151,119.536138 44.521591,119.468 C44.5617476,119.491326 44.6025127,119.515266 44.6426693,119.538593" id="Fill-181" fill="#1D1C1B"></path>
                        <path d="M39.1135277,128.064383 C39.1244795,127.998701 39.1366482,127.933632 39.1463831,127.867336 C39.5479494,124.976686 39.9482988,122.086036 40.3510819,119.196 C40.4435639,118.531807 40.543347,117.871911 40.6394795,117.210174 C40.6680759,117.226748 40.6972807,117.243936 40.7258771,117.26051 C40.7204012,117.312688 40.7167506,117.366094 40.7094494,117.417044 C40.2208771,120.936283 39.7323048,124.454908 39.2437325,127.974147 C39.2364313,128.025097 39.226088,128.074819 39.2175699,128.124541 C39.1828892,128.104898 39.1482084,128.084641 39.1135277,128.064383" id="Fill-183" fill="#1D1C1B"></path>
                        <path d="M55.0582639,125.596374 C54.5672578,129.146919 54.0756434,132.697465 53.5846373,136.24801 C53.5749024,136.319831 53.5615169,136.389811 53.5499566,136.460405 C53.5207518,136.44383 53.4921554,136.427256 53.4629506,136.410068 C53.4684265,136.357891 53.4726855,136.305099 53.4793783,136.253535 C53.9679506,132.73491 54.4565229,129.215671 54.9457036,125.697046 C54.9523964,125.645482 54.9627398,125.596374 54.9718663,125.546037 C55.0004627,125.562612 55.0296675,125.5798 55.0582639,125.596374" id="Fill-185" fill="#1D1C1B"></path>
                        <path d="M41.1766048,117.522627 C41.1680867,117.572963 41.1577434,117.622072 41.1504422,117.673636 C40.6618699,121.192261 40.1726892,124.7115 39.6847253,128.230125 C39.6774241,128.281689 39.6737735,128.33448 39.6682976,128.386658 C39.6390928,128.370084 39.6104964,128.35351 39.5812916,128.336322 C39.5867675,128.284144 39.5910265,128.231352 39.5977193,128.179788 C40.0862916,124.661163 40.5748639,121.141925 41.0634361,117.6233 C41.0707373,117.571736 41.0810807,117.522627 41.0902072,117.472291 C41.1188036,117.488865 41.1474,117.506053 41.1766048,117.522627" id="Fill-187" fill="#1D1C1B"></path>
                        <path d="M41.4365277,117.67382 C41.4280096,117.724156 41.4176663,117.773265 41.4103651,117.824829 C40.9217928,121.343454 40.4332205,124.862693 39.9446482,128.381931 C39.937347,128.432881 39.9336964,128.485673 39.9282205,128.537851 C39.8990157,128.521277 39.8704193,128.504703 39.8412145,128.487515 C39.8466904,128.435337 39.8509494,128.382545 39.8576422,128.330981 C40.3462145,124.812356 40.8347867,121.293117 41.3239675,117.774492 C41.3306602,117.722929 41.3410036,117.67382 41.3501301,117.623484 C41.3787265,117.640058 41.4079313,117.657246 41.4365277,117.67382" id="Fill-189" fill="#1D1C1B"></path>
                        <path d="M41.9210235,129.697303 C42.4235898,126.07555 42.9267645,122.454411 43.4293307,118.832658 C43.4585355,118.849846 43.4871319,118.86642 43.5163367,118.883608 C43.4202042,119.579108 43.3246801,120.275221 43.2279392,120.97072 C42.8312404,123.829449 42.4339331,126.688793 42.0372343,129.547522 C42.0274994,129.614432 42.017156,129.680729 42.0074211,129.747639 C41.9788247,129.731065 41.9496199,129.713877 41.9210235,129.697303" id="Fill-191" fill="#1D1C1B"></path>
                        <path d="M43.7580675,130.76572 C43.7635434,130.713542 43.767194,130.660751 43.7744952,130.609187 C44.2630675,127.089948 44.7516398,123.571323 45.240212,120.052084 C45.2475133,120.001134 45.2578566,119.951411 45.2663747,119.901689 C45.2955795,119.918263 45.3241759,119.934837 45.3533807,119.952025 C45.3442542,120.001748 45.3339108,120.05147 45.3272181,120.10242 C44.8380373,123.621659 44.3494651,127.140284 43.8615012,130.659523 C43.8542,130.711087 43.849941,130.763878 43.8444651,130.816056 C43.8158687,130.799482 43.7872723,130.782294 43.7580675,130.76572" id="Fill-193" fill="#1D1C1B"></path>
                        <path d="M48.0914542,121.544369 C47.5882795,125.165508 47.0857133,128.787261 46.583147,132.4084 C46.5539422,132.391826 46.5253458,132.375252 46.496141,132.358064 C46.5922735,131.662564 46.6877976,130.966451 46.7845386,130.270952 C47.1812373,127.412222 47.5785446,124.552879 47.9752434,121.69415 C47.9849783,121.627239 47.9947133,121.560329 48.0050566,121.494033 C48.033653,121.510607 48.0622494,121.527795 48.0914542,121.544369" id="Fill-195" fill="#1D1C1B"></path>
                        <path d="M46.7562464,132.509441 C46.8523789,131.813941 46.947903,131.117828 47.044644,130.422329 C47.4413428,127.562986 47.83865,124.704256 48.2353488,121.844913 C48.2444753,121.778003 48.2548187,121.711706 48.2645536,121.64541 C48.2937584,121.661984 48.3223548,121.678558 48.3515596,121.695746 C47.8483849,125.316885 47.3458187,128.938638 46.842644,132.559777 C46.8140476,132.543203 46.7854512,132.526015 46.7562464,132.509441" id="Fill-197" fill="#1D1C1B"></path>
                        <path d="M47.0162301,132.660633 C47.5187964,129.039494 48.0219711,125.417741 48.5245373,121.796602 C48.5537422,121.813177 48.5823386,121.829751 48.6115434,121.846939 C48.5154108,122.542438 48.4192783,123.238551 48.3231458,123.934051 C47.926447,126.79278 47.5291398,129.652123 47.1318325,132.510852 C47.122706,132.577763 47.1123627,132.644673 47.1026277,132.71097 C47.0740313,132.694395 47.0448265,132.677207 47.0162301,132.660633" id="Fill-199" fill="#1D1C1B"></path>
                        <path d="M49.5298524,122.380994 C49.0272861,126.002133 48.5241114,129.623886 48.0215452,133.245025 C47.9923404,133.228451 47.963744,133.211876 47.9345392,133.194688 C48.0306717,132.499189 48.1261958,131.803076 48.2229367,131.107577 C48.6196355,128.248847 49.0169428,125.389504 49.4136416,122.530775 C49.4233765,122.463864 49.4331114,122.396954 49.4434548,122.330658 C49.4720512,122.347232 49.501256,122.36442 49.5298524,122.380994" id="Fill-201" fill="#1D1C1B"></path>
                        <path d="M40.0847705,116.887654 C39.9874211,117.58254 39.8900717,118.277425 39.7939392,118.972924 C39.3966319,121.832268 38.9993247,124.690997 38.6026259,127.55034 C38.5934994,127.61725 38.5849813,127.684775 38.5764633,127.751685 C38.5655114,127.740022 38.5454331,127.725903 38.5454331,127.716695 C38.5460416,127.679864 38.5539512,127.64426 38.5588187,127.608043 C39.0504331,124.06916 39.5414392,120.530278 40.0348789,116.99201 C40.0403548,116.953337 40.0172343,116.837932 40.0847705,116.887654" id="Fill-203" fill="#FEFEFE"></path>
                        <path d="M36.4058759,90.3627955 L31.7045084,87.624382 L31.7045084,63.2149954 L26.0929241,62.2770227 L26.0929241,57.1783313 L35.9014843,58.1660263 L36.4058759,58.4594497 L36.4058759,90.3627955 Z" id="Fill-205" fill="#1D1C1B"></path>
                        <g id="Group-209">
                            <mask id="mask-2" fill="white">
                                <use xlink:href="#path-1"></use>
                            </mask>
                            <g id="Clip-208"></g>
                            <path d="M0.66191506,115.552455 L58.2075777,149.072085 L100.247307,124.584124 L95.7041319,99.4675752 L95.7053488,99.4338131 L98.1110958,34.8070094 L40.570909,1.28983511 L26.559897,12.3552109 L3.3013006,22.7232458 L5.41378253,82.8866995 L0.66191506,115.552455 Z M58.2075777,149.781089 L58.0554693,149.69208 L-6.08433735e-05,115.875957 L4.80839096,82.8529374 L2.67887289,22.3303777 L26.279409,11.8094925 L40.5191922,0.551365835 L98.7323066,34.4601805 L98.7256139,34.6449513 L96.3149994,99.4233776 L100.923885,124.899647 L100.737704,125.007072 L58.2075777,149.781089 Z" id="Fill-207" fill="#654322" mask="url(#mask-2)"></path>
                        </g>
                    </g>
                </g>
            </g>
        </g>
    </g>
</svg>