<?xml version="1.0" encoding="UTF-8" standalone="no"?>
<svg width="95px" height="141px" viewBox="0 0 95 141" version="1.1" xmlns="http://www.w3.org/2000/svg" xmlns:xlink="http://www.w3.org/1999/xlink">
    <!-- Generator: Sketch 3.7.2 (28276) - http://www.bohemiancoding.com/sketch -->
    <title>Page 1 + Bitmap 3</title>
    <desc>Created with Sketch.</desc>
    <defs>
        <polygon id="path-1" points="0 0.51816848 94.9284639 0.51816848 94.9284639 140.794108 0 140.794108"></polygon>
    </defs>
    <g id="Pick-to-SLAM-Happy-Path" stroke="none" stroke-width="1" fill="none" fill-rule="evenodd">
        <g id="14.-Scan-bag---SLAM" transform="translate(-113.000000, -119.000000)">
            <g id="Page-1-+-Bitmap-3" transform="translate(113.000000, 119.000000)">
                <g id="Page-1">
                    <polygon id="Fill-1" fill="#7E522F" points="24.8665934 11.3503709 2.81285843 21.1747991 4.80614157 77.9240571 0.310810241 108.771238 54.749244 140.461453 94.6103283 117.257546 94.5525271 116.940182 90.3061416 93.4783439 92.5746958 32.5560409 38.1368343 0.865826063"></polygon>
                    <polygon id="Fill-2" fill="#93653E" points="74.0790542 39.8954531 75.4262229 99.5858077 94.5526988 116.939836 90.3063133 93.4785747 92.5748675 32.5556947"></polygon>
                    <polygon id="Fill-3" fill="#875B36" points="54.9059367 139.3748 54.7491295 140.461338 94.6102139 117.25743 94.5524127 116.940066 75.426509 99.5860385"></polygon>
                    <polygon id="Fill-4" fill="#7E5534" points="74.0790542 39.8954531 73.9743253 39.9369989 57.2508916 52.8652448 59.2596265 109.106721 54.9056506 139.374569 75.4267952 99.5858077"></polygon>
                    <g id="Group-210">
                        <path d="M92.5746386,32.5558678 L38.1362048,0.865652955 L38.1362048,41.7380671 C54.6347289,51.3420718 57.2512349,52.8648409 57.2512349,52.8648409 L73.9740964,39.937172 L92.5746386,32.5558678 Z" id="Fill-5" fill="#654322"></path>
                        <path d="M38.1364337,0.865826063 L24.8667651,11.3503709 L24.8667651,34.0130291 C29.0942651,36.4746179 33.6153494,39.1064291 38.1364337,41.7382402 L38.1364337,0.865826063 Z" id="Fill-7" fill="#513117"></path>
                        <path d="M2.81274398,21.1750299 C2.81274398,21.1750299 12.5954548,26.86969 24.8664789,34.0132599 L24.8664789,11.3500247 L2.81274398,21.1750299 Z" id="Fill-9" fill="#412A18"></path>
                        <polygon id="Fill-11" fill="#C99D66" points="57.251006 52.8650717 2.81257229 21.1748568 4.80585542 77.9235378 59.2591687 109.107125"></polygon>
                        <polygon id="Fill-13" fill="#D4A86F" points="54.7495873 140.461222 59.2592259 109.106836 4.80591265 77.9238263 0.311153614 108.771008"></polygon>
                        <path d="M35.1696295,119.607191 L36.9608946,106.714721 C37.0541777,106.042487 37.5360452,105.733779 38.0367982,106.024599 L53.4554127,114.986952 C53.9561657,115.277773 54.2863765,116.058488 54.1930934,116.730722 L52.4018283,129.623192 C52.3085452,130.295426 51.8266777,130.604135 51.326497,130.313314 L35.9073102,121.350961 C35.4065572,121.060141 35.0763464,120.279426 35.1696295,119.607191" id="Fill-15" fill="#FEFEFE"></path>
                        <path d="M38.5370361,108.900492 L38.7716747,108.985892 C38.7728193,109.051673 38.7859819,109.107644 38.8111627,109.15496 C38.8363434,109.20343 38.8758313,109.243245 38.9290542,109.273827 C38.9885723,109.308449 39.0343554,109.319412 39.0675482,109.307295 C39.0904398,109.298639 39.1041747,109.277866 39.1093253,109.243822 C39.1121867,109.220741 39.1098976,109.198237 39.100741,109.176887 C39.0915843,109.155537 39.0681205,109.12784 39.0303494,109.092064 C38.8546566,108.932228 38.7459217,108.815092 38.703,108.74181 C38.6440542,108.640254 38.6217349,108.533504 38.6371867,108.423292 C38.6509217,108.323467 38.6921265,108.257109 38.7602289,108.223065 C38.827759,108.189597 38.9239036,108.208062 39.0475181,108.279613 C39.1648373,108.347702 39.2489639,108.424446 39.298753,108.508692 C39.3479699,108.593515 39.3771566,108.692186 39.3840241,108.805283 L39.1631205,108.733732 C39.160259,108.683531 39.1476687,108.6391 39.1253494,108.599862 C39.1036024,108.561778 39.0681205,108.528311 39.0206205,108.501191 C38.9616747,108.466569 38.9164639,108.452721 38.8878494,108.459645 C38.8678193,108.465415 38.8575181,108.481572 38.853512,108.506961 C38.8506506,108.528311 38.8552289,108.551392 38.8678193,108.575627 C38.8861325,108.607363 38.9530904,108.677183 39.0681205,108.783933 C39.1842952,108.89126 39.2621265,108.985315 39.302759,109.066675 C39.3428193,109.148613 39.3554096,109.238052 39.342247,109.334992 C39.3273675,109.440587 39.2821566,109.512139 39.2066145,109.549645 C39.1299277,109.587152 39.027488,109.568687 38.8981506,109.494251 C38.7814036,109.426162 38.6938434,109.340762 38.6343253,109.237475 C38.5748072,109.13361 38.5421867,109.021667 38.5370361,108.900492" id="Fill-17" fill="#1D1C1B"></path>
                        <path d="M39.7917229,109.34232 C39.7739819,109.471574 39.7797048,109.577746 39.8094639,109.662569 C39.8392229,109.745661 39.881,109.80394 39.9359398,109.835676 C39.9885904,109.866259 40.0366627,109.863374 40.0801566,109.827598 C40.122506,109.790668 40.1528373,109.708154 40.1711506,109.5789 C40.187747,109.457725 40.1820241,109.3579 40.1539819,109.27827 C40.1259398,109.198641 40.0858795,109.143246 40.0320843,109.112664 C39.9765723,109.080351 39.9267831,109.082082 39.8821446,109.118434 C39.8380783,109.154787 39.8071747,109.229223 39.7917229,109.34232 L39.7917229,109.34232 Z M39.6446446,108.655083 L39.8563916,108.77799 L39.8329277,108.947058 C39.8678373,108.905512 39.9119036,108.880123 39.9634096,108.870891 C40.015488,108.862235 40.0698554,108.873776 40.1270843,108.907243 C40.2272349,108.965523 40.304494,109.067079 40.3588614,109.211335 C40.4138012,109.357323 40.4281084,109.522929 40.4017831,109.711039 C40.3754578,109.903188 40.3199458,110.031865 40.2346747,110.098223 C40.1505482,110.164004 40.0578373,110.16862 39.9588313,110.11034 C39.910759,110.082643 39.8695542,110.04456 39.8346446,109.997243 C39.7997349,109.94935 39.7653976,109.882993 39.7316325,109.796439 L39.6509398,110.376926 L39.4231687,110.24421 L39.6446446,108.655083 Z" id="Fill-19" fill="#1D1C1B"></path>
                        <path d="M41.0240331,109.249304 C40.9965633,109.233147 40.9696657,109.230839 40.9456295,109.241802 C40.9204488,109.252766 40.8981295,109.285079 40.8775271,109.338742 C40.8512018,109.408563 40.8254488,109.536662 40.7991235,109.723041 C40.7733705,109.909997 40.7619247,110.042136 40.766503,110.120034 C40.7710813,110.197933 40.7825271,110.254481 40.8002681,110.290257 C40.8185813,110.325455 40.8414729,110.350844 40.8689428,110.367001 C40.8952681,110.383158 40.9221657,110.386043 40.9467741,110.374502 C40.9719548,110.364116 40.9937018,110.331226 41.0148765,110.277562 C41.0412018,110.208896 41.0669548,110.08022 41.0927078,109.894418 C41.1190331,109.708039 41.1299066,109.575323 41.1253283,109.498001 C41.1213223,109.420103 41.1104488,109.362978 41.0927078,109.327202 C41.0743946,109.291426 41.0509307,109.264883 41.0240331,109.249304 M41.0595151,108.997144 C41.1739729,109.063502 41.2558102,109.170251 41.3050271,109.317393 C41.3639729,109.492808 41.3725572,109.73112 41.3307801,110.032327 C41.289003,110.332957 41.2203283,110.526837 41.124756,110.612814 C41.0452078,110.684365 40.948491,110.686673 40.8334608,110.619738 C40.7184307,110.552803 40.6331596,110.439706 40.5793645,110.27987 C40.524997,110.119457 40.5192741,109.886916 40.5616235,109.58167 C40.6034006,109.282771 40.6720753,109.090045 40.7682199,109.003491 C40.8471958,108.93194 40.9444849,108.929632 41.0595151,108.997144" id="Fill-21" fill="#1D1C1B"></path>
                        <path d="M41.9439307,109.78409 C41.9164608,109.768511 41.8895633,109.765626 41.8655271,109.776589 C41.8403464,109.787553 41.8180271,109.819866 41.7974247,109.873529 C41.7716717,109.943349 41.7453464,110.071449 41.7190211,110.257828 C41.6932681,110.444784 41.6818223,110.576346 41.6864006,110.654821 C41.6909789,110.73272 41.7024247,110.789268 41.7201657,110.825044 C41.7384789,110.860242 41.7613705,110.886208 41.7888404,110.901788 C41.815738,110.917945 41.8420633,110.92083 41.8666717,110.909289 C41.8918524,110.898903 41.9135994,110.866012 41.9347741,110.812349 C41.9610994,110.743106 41.9874247,110.615006 42.0131777,110.428627 C42.039503,110.242248 42.0498042,110.109533 42.0452259,110.032788 C42.0412199,109.954313 42.0303464,109.897764 42.0126054,109.861989 C41.9942922,109.825636 41.9714006,109.79967 41.9439307,109.78409 M41.9794127,109.53193 C42.0938705,109.598288 42.1757078,109.705038 42.2249247,109.852179 C42.2838705,110.027595 42.2924548,110.265906 42.2506777,110.567113 C42.2089006,110.867743 42.1402259,111.061624 42.0446536,111.147601 C41.9651054,111.218575 41.8683886,111.22146 41.7533584,111.154525 C41.6383283,111.08759 41.5536295,110.974493 41.499262,110.81408 C41.4454669,110.654244 41.4391717,110.421703 41.4815211,110.116457 C41.5232982,109.817558 41.5919729,109.625409 41.6881175,109.538278 C41.7670934,109.466727 41.8643825,109.464419 41.9794127,109.53193" id="Fill-23" fill="#1D1C1B"></path>
                        <path d="M42.8638283,110.31882 C42.8363584,110.302663 42.8100331,110.300355 42.7854247,110.311318 C42.760244,110.322282 42.7379247,110.354595 42.7173223,110.408258 C42.6915693,110.478078 42.665244,110.606178 42.6389187,110.792557 C42.6131657,110.979513 42.6017199,111.111652 42.6062982,111.18955 C42.6108765,111.267449 42.6223223,111.323997 42.6400633,111.359773 C42.6583765,111.394971 42.6812681,111.42036 42.708738,111.436517 C42.7356355,111.452674 42.7619608,111.455559 42.7865693,111.444018 C42.81175,111.433055 42.833497,111.400741 42.8546717,111.346501 C42.880997,111.277835 42.9073223,111.149736 42.9330753,110.963356 C42.9594006,110.776977 42.9697018,110.644839 42.9651235,110.56694 C42.9611175,110.489042 42.950244,110.431916 42.932503,110.396718 C42.9141898,110.360942 42.8912982,110.334399 42.8638283,110.31882 M42.8993102,110.06666 C43.0137681,110.133017 43.0956054,110.239767 43.1448223,110.386908 C43.2037681,110.562324 43.2123524,110.800635 43.1705753,111.101842 C43.1287982,111.402473 43.0601235,111.596353 42.9645512,111.68233 C42.885003,111.753304 42.7882861,111.755612 42.673256,111.689254 C42.5582259,111.622319 42.4735271,111.509222 42.4191596,111.348809 C42.3653645,111.188973 42.3590693,110.956432 42.4014187,110.651186 C42.4431958,110.352287 42.5124428,110.159561 42.6080151,110.07243 C42.6875633,110.001456 42.7842801,109.999148 42.8993102,110.06666" id="Fill-25" fill="#1D1C1B"></path>
                        <path d="M43.7837259,110.853606 C43.756256,110.838027 43.7299307,110.835142 43.7058946,110.846105 C43.6807139,110.857068 43.6578223,110.889382 43.6372199,110.943045 C43.6114669,111.012865 43.5851416,111.140965 43.5588163,111.327344 C43.5330633,111.5143 43.5216175,111.645862 43.5261958,111.724337 C43.5307741,111.802235 43.5422199,111.858784 43.5599608,111.894559 C43.5788464,111.929758 43.6011657,111.955724 43.6286355,111.971304 C43.6555331,111.987461 43.6818584,111.989769 43.7064669,111.978228 C43.7316476,111.967842 43.7533946,111.935528 43.7745693,111.881288 C43.8008946,111.812622 43.8272199,111.684522 43.8529729,111.498143 C43.8792982,111.311764 43.8901717,111.179048 43.8850211,111.101727 C43.8810151,111.023829 43.8701416,110.966703 43.8524006,110.931505 C43.8340873,110.895152 43.8111958,110.869186 43.7837259,110.853606 M43.8192078,110.600869 C43.934238,110.667804 44.015503,110.774554 44.0647199,110.921695 C44.1236657,111.097111 44.13225,111.335422 44.0904729,111.636629 C44.0486958,111.937259 43.9800211,112.13114 43.8844488,112.217116 C43.8049006,112.288091 43.708756,112.290399 43.5931536,112.224041 C43.4781235,112.157106 43.3934247,112.044009 43.3390572,111.883596 C43.285262,111.72376 43.2789669,111.490642 43.3213163,111.185973 C43.3630934,110.887074 43.4323404,110.694347 43.5279127,110.607794 C43.6074608,110.536243 43.7041777,110.533934 43.8192078,110.600869" id="Fill-27" fill="#1D1C1B"></path>
                        <path d="M44.7041958,111.388393 C44.6767259,111.372236 44.6504006,111.369928 44.6257922,111.380892 C44.6006114,111.391855 44.5782922,111.424169 44.5576898,111.477832 C44.5319367,111.547652 44.5056114,111.676329 44.4792861,111.862708 C44.4535331,112.049664 44.4420873,112.181226 44.4466657,112.259124 C44.451244,112.337022 44.4626898,112.394148 44.4804307,112.429346 C44.498744,112.464545 44.5216355,112.489934 44.5491054,112.506091 C44.576003,112.522247 44.6023283,112.525132 44.6269367,112.513592 C44.6521175,112.503205 44.6738645,112.470315 44.6950392,112.416652 C44.7213645,112.347986 44.7476898,112.219309 44.7734428,112.033507 C44.7997681,111.847128 44.8106416,111.714412 44.805491,111.637091 C44.8014849,111.559193 44.7906114,111.502067 44.7728705,111.466291 C44.7545572,111.430516 44.7316657,111.403973 44.7041958,111.388393 M44.7396777,111.136233 C44.8541355,111.202591 44.9359729,111.309341 44.9851898,111.457059 C45.0441355,111.631898 45.0527199,111.870209 45.0109428,112.171416 C44.9691657,112.472046 44.900491,112.665927 44.8049187,112.75248 C44.7253705,112.823454 44.6286536,112.825762 44.5136235,112.758828 C44.3985934,112.69247 44.3138946,112.578796 44.2595271,112.41896 C44.2057319,112.258547 44.1994367,112.026006 44.2417861,111.72076 C44.2835633,111.421861 44.3528102,111.229134 44.4483825,111.14258 C44.5279307,111.071029 44.6246476,111.069298 44.7396777,111.136233" id="Fill-29" fill="#1D1C1B"></path>
                        <path d="M45.6241506,111.923122 C45.5966807,111.907543 45.5703554,111.904657 45.5463193,111.915621 C45.5211386,111.926584 45.498247,111.958898 45.4776446,112.012561 C45.4518916,112.082381 45.4255663,112.211058 45.399241,112.397437 C45.373488,112.583816 45.3620422,112.715378 45.3666205,112.793853 C45.3711988,112.871751 45.3826446,112.9283 45.4003855,112.964075 C45.4192711,112.999274 45.4415904,113.02524 45.4690602,113.04082 C45.4959578,113.056976 45.5222831,113.059862 45.5468916,113.048321 C45.5720723,113.037935 45.5943916,113.005044 45.614994,112.951381 C45.6413193,112.882138 45.6676446,112.754615 45.6933976,112.568236 C45.7197229,112.381857 45.7305964,112.249141 45.7254458,112.17182 C45.7214398,112.093345 45.7105663,112.036796 45.6928253,112.001021 C45.674512,111.964668 45.6516205,111.938702 45.6241506,111.923122 M45.6596325,111.670962 C45.7746627,111.73732 45.8559277,111.84407 45.9051446,111.991788 C45.9640904,112.166627 45.9726747,112.404938 45.9308976,112.706145 C45.8891205,113.006775 45.8204458,113.200656 45.7248735,113.287209 C45.6453253,113.358183 45.5491807,113.360492 45.4335783,113.293557 C45.3185482,113.226622 45.2338494,113.113525 45.1794819,112.953112 C45.1256867,112.793276 45.1193916,112.560735 45.161741,112.255489 C45.2035181,111.95659 45.2727651,111.76444 45.3683373,111.67731 C45.4478855,111.606335 45.5446024,111.60345 45.6596325,111.670962" id="Fill-31" fill="#1D1C1B"></path>
                        <path d="M46.5440482,112.457909 C46.5165783,112.441752 46.490253,112.439444 46.4662169,112.450408 C46.4410361,112.461371 46.4181446,112.493685 46.3981145,112.547348 C46.3717892,112.617168 46.3454639,112.745267 46.3191386,112.931647 C46.2933855,113.118603 46.2819398,113.250741 46.2865181,113.32864 C46.2910964,113.406538 46.3025422,113.463087 46.3208554,113.498862 C46.3391687,113.534061 46.361488,113.55945 46.3889578,113.575607 C46.4158554,113.591763 46.4421807,113.594648 46.4667892,113.583108 C46.4919699,113.572721 46.5142892,113.539831 46.5348916,113.486168 C46.5612169,113.417502 46.5875422,113.288825 46.6132952,113.103023 C46.6396205,112.916644 46.650494,112.783928 46.6459157,112.706607 C46.6413373,112.628708 46.6304639,112.571583 46.6127229,112.535807 C46.5944096,112.500032 46.5715181,112.473489 46.5440482,112.457909 M46.5795301,112.205749 C46.6945602,112.272107 46.7758253,112.378857 46.8250422,112.525998 C46.883988,112.701414 46.8925723,112.939725 46.8507952,113.240932 C46.8090181,113.541562 46.7403434,113.735442 46.6447711,113.821419 C46.5652229,113.89297 46.4690783,113.895278 46.3534759,113.828343 C46.2384458,113.761409 46.153747,113.648312 46.0993795,113.488476 C46.0455843,113.328063 46.0398614,113.095522 46.0822108,112.790275 C46.123988,112.491376 46.1926627,112.29865 46.2882349,112.212096 C46.3677831,112.140545 46.4645,112.138237 46.5795301,112.205749" id="Fill-33" fill="#1D1C1B"></path>
                        <path d="M47.4645181,112.992638 C47.4370482,112.977058 47.4107229,112.97475 47.3866867,112.985137 C47.361506,112.9961 47.3386145,113.028414 47.318012,113.082077 C47.292259,113.151897 47.2659337,113.280574 47.2396084,113.466953 C47.2138554,113.653332 47.2024096,113.785471 47.206988,113.863369 C47.2115663,113.941844 47.223012,113.997816 47.240753,114.034168 C47.2596386,114.069367 47.2819578,114.094756 47.3094277,114.110336 C47.3363253,114.126492 47.3626506,114.129377 47.387259,114.118414 C47.4124398,114.10745 47.434759,114.075137 47.4553614,114.020897 C47.4816867,113.951654 47.508012,113.824131 47.5337651,113.637752 C47.5600904,113.451373 47.5709639,113.318657 47.5663855,113.241336 C47.5618072,113.163438 47.5509337,113.106312 47.5331928,113.071114 C47.5148795,113.034761 47.491988,113.008218 47.4645181,112.992638 M47.5,112.740478 C47.6150301,112.807413 47.6962952,112.913586 47.745512,113.061304 C47.8044578,113.236143 47.8130422,113.474454 47.7712651,113.775661 C47.729488,114.076868 47.6608133,114.270172 47.565241,114.356725 C47.4856928,114.427699 47.3895482,114.430007 47.2739458,114.36365 C47.1589157,114.296715 47.0742169,114.183041 47.0198494,114.022628 C46.9660542,113.863369 46.9603313,113.630251 47.0026807,113.325582 C47.0444578,113.026683 47.1131325,112.833956 47.2087048,112.746825 C47.288253,112.675851 47.3849699,112.673543 47.5,112.740478" id="Fill-35" fill="#1D1C1B"></path>
                        <path d="M48.3844157,113.528002 C48.3569458,113.511845 48.3306205,113.50896 48.3065843,113.519924 C48.2814036,113.530887 48.258512,113.563777 48.2384819,113.616864 C48.2121566,113.686684 48.1858313,113.81536 48.159506,114.001739 C48.133753,114.188696 48.1223072,114.320257 48.1268855,114.398156 C48.1314639,114.476054 48.1429096,114.53318 48.1612229,114.568378 C48.1795361,114.604154 48.2018554,114.629543 48.2293253,114.645699 C48.2562229,114.661856 48.2825482,114.664164 48.3071566,114.652624 C48.3323373,114.642237 48.3546566,114.609347 48.375259,114.555684 C48.4015843,114.487018 48.4279096,114.358341 48.4536627,114.172539 C48.479988,113.98616 48.4908614,113.853444 48.4862831,113.776123 C48.4817048,113.698224 48.4708313,113.641099 48.4530904,113.605323 C48.4347771,113.569548 48.4118855,113.543582 48.3844157,113.528002 M48.4198976,113.275265 C48.5349277,113.341623 48.6161928,113.448372 48.6654096,113.596091 C48.7243554,113.770929 48.7329398,114.009241 48.6911627,114.310448 C48.6493855,114.611655 48.5807108,114.804958 48.4851386,114.891512 C48.4055904,114.962486 48.3094458,114.964794 48.1938434,114.898436 C48.0788133,114.831501 47.9941145,114.718405 47.939747,114.557992 C47.8859518,114.397579 47.8802289,114.165038 47.9225783,113.860368 C47.9643554,113.561469 48.0330301,113.368166 48.1286024,113.281612 C48.2081506,113.210061 48.3048675,113.20833 48.4198976,113.275265" id="Fill-37" fill="#1D1C1B"></path>
                        <path d="M49.3043133,114.062212 C49.2768434,114.046632 49.2505181,114.044324 49.2264819,114.05471 C49.2013012,114.065674 49.1784096,114.097987 49.1583795,114.151651 C49.1320542,114.221471 49.1057289,114.350147 49.0794036,114.536526 C49.0536506,114.722905 49.0422048,114.855044 49.0467831,114.932942 C49.0513614,115.011418 49.0633795,115.067389 49.0811205,115.103742 C49.0994337,115.13894 49.121753,115.16433 49.1492229,115.179909 C49.1761205,115.196066 49.2024458,115.198951 49.2270542,115.187411 C49.2522349,115.177024 49.2745542,115.144134 49.2951566,115.09047 C49.3214819,115.021227 49.3478072,114.893705 49.3735602,114.707326 C49.3998855,114.520947 49.410759,114.388231 49.4061807,114.31091 C49.4021747,114.232434 49.3907289,114.175886 49.372988,114.14011 C49.3546747,114.103758 49.3317831,114.077791 49.3043133,114.062212 M49.3397952,113.810052 C49.4548253,113.87641 49.5360904,113.983159 49.5853072,114.130878 C49.644253,114.305716 49.6528373,114.544028 49.6110602,114.845235 C49.5692831,115.146442 49.5006084,115.339745 49.4050361,115.426299 C49.325488,115.497273 49.2293434,115.499581 49.113741,115.432646 C48.9987108,115.366288 48.914012,115.252614 48.8596446,115.092201 C48.8058494,114.932365 48.8001265,114.699824 48.8424759,114.394578 C48.884253,114.095679 48.9529277,113.90353 49.0485,113.816399 C49.1280482,113.745425 49.2247651,113.743117 49.3397952,113.810052" id="Fill-39" fill="#1D1C1B"></path>
                        <path d="M50.2247831,114.597518 C50.1973133,114.581361 50.170988,114.578476 50.1469518,114.589439 C50.1217711,114.60098 50.0988795,114.633293 50.0788494,114.686957 C50.0525241,114.756777 50.0261988,114.884876 49.9998735,115.071255 C49.9741205,115.258211 49.9626747,115.389773 49.967253,115.468249 C49.9718313,115.546147 49.9832771,115.602695 50.0015904,115.637894 C50.0199036,115.67367 50.0422229,115.699059 50.0696928,115.715215 C50.0965904,115.731372 50.1229157,115.73368 50.1475241,115.72214 C50.1727048,115.711753 50.1950241,115.67944 50.2156265,115.625199 C50.2419518,115.556533 50.2682771,115.428434 50.2940301,115.242055 C50.3203554,115.055676 50.3312289,114.92296 50.3266506,114.845639 C50.3226446,114.76774 50.3111988,114.710615 50.2934578,114.675416 C50.2751446,114.639064 50.252253,114.613098 50.2247831,114.597518 M50.2602651,114.344781 C50.3752952,114.411716 50.4565602,114.518465 50.5057771,114.665607 C50.5647229,114.841022 50.5733072,115.078757 50.5315301,115.379964 C50.489753,115.681171 50.4210783,115.875051 50.325506,115.961028 C50.2459578,116.032002 50.1498133,116.03431 50.0342108,115.967952 C49.9191807,115.901017 49.8344819,115.78792 49.7801145,115.627508 C49.7263193,115.467672 49.7205964,115.234553 49.7629458,114.929884 C49.8047229,114.630985 49.8733976,114.438259 49.9689699,114.351705 C50.0485181,114.280154 50.1452349,114.277846 50.2602651,114.344781" id="Fill-41" fill="#1D1C1B"></path>
                        <path d="M51.144738,115.131728 C51.1172681,115.116148 51.0909428,115.11384 51.0669066,115.124226 C51.0417259,115.13519 51.0188343,115.167503 50.9988042,115.221166 C50.9724789,115.290987 50.9461536,115.419663 50.9198283,115.606042 C50.8940753,115.792998 50.8826295,115.92456 50.8872078,116.002458 C50.8917861,116.080934 50.9038042,116.136905 50.9215452,116.173258 C50.9398584,116.208456 50.9621777,116.233845 50.9896476,116.249425 C51.0165452,116.265582 51.0428705,116.268467 51.0674789,116.257503 C51.0926596,116.24654 51.1149789,116.214227 51.1355813,116.159986 C51.1619066,116.09132 51.1882319,115.963221 51.2139849,115.776842 C51.2403102,115.590463 51.2511837,115.458324 51.2466054,115.380425 C51.2425994,115.302527 51.2311536,115.245402 51.2134127,115.210203 C51.1950994,115.17385 51.1722078,115.147307 51.144738,115.131728 M51.1802199,114.879568 C51.29525,114.946503 51.3765151,115.053252 51.4257319,115.200394 C51.4846777,115.375232 51.493262,115.613544 51.4514849,115.914751 C51.4097078,116.215958 51.3410331,116.409261 51.2454608,116.495815 C51.1659127,116.566789 51.0697681,116.569097 50.9541657,116.502739 C50.8391355,116.435804 50.7544367,116.32213 50.7000693,116.162294 C50.6462741,116.002458 50.6405512,115.76934 50.6829006,115.464671 C50.7246777,115.165772 50.7933524,114.973046 50.889497,114.885915 C50.9684729,114.814941 51.0651898,114.812633 51.1802199,114.879568" id="Fill-43" fill="#1D1C1B"></path>
                        <path d="M52.0652078,115.667034 C52.0371657,115.650877 52.0108404,115.647992 51.9868042,115.658955 C51.9616235,115.669919 51.9387319,115.702809 51.9187018,115.755896 C51.8923765,115.825716 51.8660512,115.954392 51.8397259,116.140771 C51.8139729,116.327727 51.8030994,116.459289 51.8071054,116.537187 C51.812256,116.615086 51.8237018,116.672211 51.8414428,116.70741 C51.859756,116.743185 51.8820753,116.768575 51.9101175,116.784731 C51.9364428,116.800888 51.9627681,116.803196 51.9873765,116.791656 C52.0125572,116.781269 52.0348765,116.748956 52.0554789,116.694715 C52.0818042,116.626049 52.1081295,116.49795 52.1338825,116.311571 C52.1602078,116.125192 52.1710813,115.992476 52.166503,115.915155 C52.162497,115.837256 52.1510512,115.780131 52.1333102,115.744932 C52.114997,115.70858 52.0921054,115.682613 52.0652078,115.667034 M52.1006898,115.414297 C52.2151476,115.481232 52.2964127,115.587981 52.3456295,115.735123 C52.4045753,115.909961 52.4131596,116.148273 52.3713825,116.44948 C52.3296054,116.750687 52.2609307,116.94399 52.1659307,117.030544 C52.0858102,117.101518 51.9896657,117.103826 51.8746355,117.037468 C51.7590331,116.970533 51.6743343,116.857436 51.6205392,116.697023 C51.5661717,116.537187 51.5604488,116.304069 51.6027982,115.9994 C51.6445753,115.700501 51.71325,115.507775 51.8093946,115.421221 C51.8883705,115.349093 51.9850873,115.347362 52.1006898,115.414297" id="Fill-45" fill="#1D1C1B"></path>
                        <path d="M38.3066325,110.224938 C38.4205181,110.291295 38.5349759,110.357653 38.6488614,110.424011 C38.6408494,110.471327 38.6311205,110.517489 38.624253,110.565959 C38.1647048,113.873467 37.7051566,117.180974 37.2456084,120.489059 C37.238741,120.537529 37.2353072,120.587153 37.2301566,120.6362 C37.1156988,120.569842 37.0018133,120.503484 36.8879277,120.437127 C36.8959398,120.390388 36.9056687,120.343649 36.9125361,120.295755 C37.3720843,116.987671 37.8316325,113.680163 38.2911807,110.372079 C38.2980482,110.323609 38.3014819,110.273985 38.3066325,110.224938" id="Fill-47" fill="#FEFEFE"></path>
                        <path d="M40.4739488,122.521803 C40.3600633,122.455445 40.2456054,122.389087 40.1317199,122.322729 C40.6044307,118.918858 41.0777139,115.514411 41.5504247,112.11054 C41.6591596,112.173436 41.7678946,112.236908 41.8766295,112.299804 C41.8714789,112.364431 41.8703343,112.430212 41.86175,112.492531 C41.6116596,114.304966 41.360997,116.117402 41.1103343,117.92926 C40.8985873,119.460108 40.6862681,120.990955 40.4739488,122.521803" id="Fill-49" fill="#FEFEFE"></path>
                        <path d="M44.827009,114.014838 C44.935744,114.077734 45.0444789,114.141206 45.1532139,114.204102 C45.1440572,114.266998 45.1343283,114.329317 45.1251717,114.392212 C44.7520392,117.079995 44.3783343,119.767201 44.0052018,122.454983 C43.9147801,123.108752 43.8243584,123.763099 43.7339367,124.416868 C43.6200512,124.35051 43.5061657,124.284152 43.3917078,124.217795 C43.8403825,120.992225 44.2890572,117.767232 44.7383042,114.542239 C44.7629127,114.363938 44.79725,114.190831 44.827009,114.014838" id="Fill-51" fill="#FEFEFE"></path>
                        <path d="M49.4231777,127.723452 C49.3144428,127.660557 49.2057078,127.597084 49.0969729,127.534188 C49.570256,124.129741 50.0429669,120.72587 50.51625,117.321422 C50.6249849,117.384895 50.7331476,117.447791 50.8418825,117.511263 C50.8327259,117.573582 50.822997,117.635901 50.8144127,117.698797 C50.4412801,120.386579 50.0675753,123.073785 49.6944428,125.761567 C49.6034488,126.415337 49.5135994,127.069683 49.4231777,127.723452" id="Fill-53" fill="#FEFEFE"></path>
                        <path d="M39.8381928,122.152333 C39.7294578,122.088861 39.6207229,122.025965 39.511988,121.963069 C39.5211446,121.900174 39.5308735,121.837855 39.5400301,121.774959 C39.9131627,119.087177 40.2868675,116.399971 40.66,113.712188 C40.7504217,113.058419 40.8408434,112.404073 40.9312651,111.750303 C41.04,111.813776 41.1481627,111.876672 41.2568976,111.939567 C41.251747,111.989192 41.2483133,112.038816 41.2414458,112.086709 C40.7824699,115.394793 40.3223494,118.702878 39.8628012,122.010385 C39.8559337,122.058855 39.8462048,122.105017 39.8381928,122.152333" id="Fill-55" fill="#FEFEFE"></path>
                        <path d="M39.4150994,110.869244 C39.5238343,110.932139 39.6325693,110.995612 39.7413042,111.058508 C39.7361536,111.107555 39.7321476,111.157756 39.7258524,111.205649 C39.2663042,114.513734 38.806756,117.821818 38.3466355,121.129326 C38.3403404,121.177796 38.3306114,121.223958 38.3220271,121.271274 C38.2132922,121.207801 38.1051295,121.144905 37.9963946,121.081433 C38.0044066,121.034694 38.0141355,120.987955 38.021003,120.940062 C38.4805512,117.631977 38.9400994,114.32447 39.3996476,111.016385 C39.4065151,110.968492 39.4099488,110.918291 39.4150994,110.869244" id="Fill-57" fill="#FEFEFE"></path>
                        <path d="M43.3436355,113.152647 C43.4523705,113.215543 43.5611054,113.279016 43.6698404,113.341911 C43.6646898,113.390958 43.6606837,113.44116 43.6543886,113.489053 C43.1948404,116.797137 42.7352922,120.105222 42.2751717,123.412729 C42.2688765,123.461199 42.2591476,123.507361 42.2505633,123.554677 C42.1418283,123.491205 42.0336657,123.428309 41.9249307,123.364836 C42.3455633,120.348726 42.7661958,117.333194 43.1868283,114.316507 C43.2406235,113.9299 43.2915572,113.540985 43.3436355,113.152647" id="Fill-59" fill="#FEFEFE"></path>
                        <path d="M47.6959518,115.68244 C47.8046867,115.745336 47.9134217,115.808809 48.0221566,115.871705 C48.0135723,115.919021 48.0038434,115.96576 47.9975482,116.013653 C47.5374277,119.321737 47.0778795,122.629245 46.6189036,125.937329 C46.6120361,125.985222 46.6080301,126.035423 46.6028795,126.084471 C46.4941446,126.020998 46.3859819,125.958102 46.277247,125.894629 C46.2823976,125.845582 46.2858313,125.795958 46.2926988,125.747488 C46.7516747,122.43998 47.2117952,119.131896 47.6713434,115.824388 C47.6782108,115.775918 47.6879398,115.729756 47.6959518,115.68244" id="Fill-61" fill="#FEFEFE"></path>
                        <path d="M50.2871054,128.225637 C50.1783705,128.162742 50.0696355,128.099269 49.9609006,128.036373 C49.9660512,127.987326 49.9700572,127.937125 49.9763524,127.889232 C50.4359006,124.581147 50.8954488,121.273063 51.3555693,117.965555 C51.3618645,117.917085 51.3715934,117.870923 51.3801777,117.823607 C51.4883404,117.88708 51.5970753,117.949976 51.7058102,118.013448 C51.6977982,118.060187 51.6880693,118.106926 51.6812018,118.154819 C51.2216536,121.462904 50.7621054,124.770411 50.3025572,128.078496 C50.2956898,128.126966 50.292256,128.17659 50.2871054,128.225637" id="Fill-63" fill="#FEFEFE"></path>
                        <path d="M48.7881084,116.317226 C48.8968434,116.380121 49.0055783,116.443594 49.1143133,116.50649 C49.1091627,116.555537 49.1051566,116.605738 49.0988614,116.653631 C48.6393133,119.961716 48.1797651,123.2698 47.7196446,126.577308 C47.7133494,126.625778 47.7036205,126.67194 47.6950361,126.719256 C47.5863012,126.655783 47.4781386,126.592887 47.3694036,126.529415 C47.3774157,126.482676 47.3871446,126.435937 47.394012,126.388043 C47.8535602,123.079959 48.3131084,119.772451 48.7726566,116.464367 C48.7795241,116.416474 48.7829578,116.366273 48.7881084,116.317226" id="Fill-65" fill="#FEFEFE"></path>
                        <path d="M45.7235572,114.535949 C45.8322922,114.598845 45.9410271,114.662318 46.049762,114.725213 C45.5764789,118.129661 45.1037681,121.533532 44.6304849,124.93798 C44.5223223,124.874507 44.4135873,124.811611 44.3048524,124.748138 C44.314009,124.68582 44.323738,124.623501 44.3323223,124.560605 C44.7054548,121.872823 45.0791596,119.185617 45.4522922,116.497834 C45.5432861,115.844065 45.6331355,115.189719 45.7235572,114.535949" id="Fill-67" fill="#FEFEFE"></path>
                        <path d="M49.4075542,116.677289 C49.5162892,116.740185 49.6250241,116.803658 49.733759,116.866553 C49.2604759,120.271001 48.7877651,123.674872 48.3144819,127.079319 C48.205747,127.015847 48.0975843,126.952951 47.9888494,126.889478 C47.998006,126.82716 48.0077349,126.764841 48.0163193,126.701368 C48.3894518,124.014162 48.7631566,121.326957 49.1362892,118.639174 C49.2272831,117.985405 49.3171325,117.331059 49.4075542,116.677289" id="Fill-69" fill="#FEFEFE"></path>
                        <path d="M46.1799578,114.801265 C46.2886928,114.864161 46.3974277,114.927634 46.5061627,114.99053 C46.497006,115.053425 46.4872771,115.115744 46.4781205,115.17864 C46.104988,117.866422 45.7312831,120.553628 45.3581506,123.241411 C45.2677289,123.89518 45.1773072,124.549526 45.0868855,125.203296 C44.9781506,125.139823 44.869988,125.076927 44.761253,125.013454 C44.7664036,124.964407 44.7698373,124.914783 44.7767048,124.866313 C45.236253,121.558806 45.6958012,118.250721 46.1553494,114.943214 C46.1622169,114.894743 46.1719458,114.848581 46.1799578,114.801265" id="Fill-71" fill="#FEFEFE"></path>
                        <path d="M41.5661054,123.156646 C41.4573705,123.09375 41.3486355,123.030277 41.2399006,122.967381 C41.2450512,122.918334 41.2490572,122.868133 41.2553524,122.82024 C41.7149006,119.512155 42.1744488,116.204071 42.6345693,112.896563 C42.6408645,112.848093 42.6505934,112.801931 42.6591777,112.754615 C42.7673404,112.818088 42.8760753,112.880984 42.9848102,112.944457 C42.9579127,113.15334 42.9315873,113.3628 42.9029729,113.571106 C42.4668886,116.709545 42.0308042,119.847407 41.5947199,122.985846 C41.5867078,123.043549 41.5758343,123.09952 41.5661054,123.156646" id="Fill-73" fill="#FEFEFE"></path>
                        <path d="M39.8381928,122.152333 C39.8462048,122.105017 39.8559337,122.058855 39.8628012,122.010385 C40.3223494,118.702878 40.7824699,115.394793 41.2414458,112.086709 C41.2483133,112.038816 41.251747,111.989192 41.2568976,111.939567 C41.354759,111.996693 41.4526205,112.053818 41.5504819,112.110367 C41.0777711,115.514815 40.604488,118.918685 40.1317771,122.322556 C40.0339157,122.266007 39.9360542,122.208882 39.8381928,122.152333" id="Fill-75" fill="#1D1C1B"></path>
                        <path d="M49.4075542,116.677289 C49.3171325,117.331059 49.2272831,117.985405 49.1362892,118.639174 C48.7631566,121.326957 48.3894518,124.014162 48.0163193,126.701368 C48.0077349,126.764841 47.998006,126.82716 47.9888494,126.889478 C47.890988,126.83293 47.7931265,126.775804 47.6952651,126.719256 C47.7038494,126.67194 47.713006,126.625201 47.7198735,126.577308 C48.179994,123.2698 48.6395422,119.961716 49.0985181,116.653631 C49.1053855,116.605738 49.1088193,116.555537 49.1139699,116.50649 C49.2118313,116.563615 49.3096928,116.620164 49.4075542,116.677289" id="Fill-77" fill="#1D1C1B"></path>
                        <path d="M50.5160211,117.321538 C50.0433102,120.725408 49.5700271,124.129856 49.0973163,127.533727 C48.9994548,127.477178 48.9015934,127.420053 48.8037319,127.363504 C48.8123163,127.316188 48.8220452,127.270026 48.8283404,127.221556 C49.2884608,123.914049 49.748009,120.605964 50.2069849,117.298457 C50.2138524,117.249987 50.2178584,117.199785 50.2224367,117.150738 L50.5160211,117.321538 Z" id="Fill-79" fill="#1D1C1B"></path>
                        <path d="M42.2507349,123.554562 C42.2593193,123.507246 42.2684759,123.461084 42.2753434,123.412614 C42.7348916,120.105106 43.195012,116.797022 43.653988,113.489514 C43.6608554,113.441044 43.6642892,113.39142 43.6694398,113.342373 C43.7673012,113.398921 43.8651627,113.456047 43.9630241,113.512595 C43.4903133,116.917043 43.0170301,120.320914 42.5443193,123.725361 C42.4464578,123.668236 42.3485964,123.61111 42.2507349,123.554562" id="Fill-81" fill="#1D1C1B"></path>
                        <path d="M38.3221988,121.271159 C38.3302108,121.223843 38.3399398,121.177681 38.3468072,121.12921 C38.8069277,117.821703 39.2664759,114.513618 39.7254518,111.205534 C39.7323193,111.157641 39.7363253,111.108017 39.7409036,111.05897 C39.8387651,111.115518 39.9366265,111.172643 40.034488,111.229192 C40.0259036,111.276508 40.0161747,111.32267 40.0098795,111.37114 C39.549759,114.678648 39.0902108,117.986732 38.6312349,121.29424 C38.6243675,121.34271 38.6209337,121.392334 38.6157831,121.441958 C38.5179217,121.384832 38.4200602,121.327707 38.3221988,121.271159" id="Fill-83" fill="#1D1C1B"></path>
                        <path d="M51.3799488,117.823723 C51.3719367,117.871039 51.3622078,117.917201 51.3553404,117.965671 C50.8957922,121.273178 50.4356717,124.581263 49.9766958,127.88877 C49.9698283,127.93724 49.9663946,127.986864 49.961244,128.035912 C49.8633825,127.979363 49.7655211,127.922238 49.6676596,127.865689 C50.1409428,124.461241 50.6136536,121.057371 51.0863645,117.652923 C51.1842259,117.710049 51.2820873,117.766597 51.3799488,117.823723" id="Fill-85" fill="#1D1C1B"></path>
                        <path d="M47.6959518,115.68244 C47.6879398,115.729756 47.6782108,115.775918 47.6713434,115.824388 C47.2117952,119.131896 46.7516747,122.43998 46.2926988,125.747488 C46.2858313,125.795958 46.2823976,125.845582 46.277247,125.894629 C46.1793855,125.838081 46.0815241,125.780955 45.9836627,125.724407 C46.4563735,122.319959 46.9296566,118.916089 47.4023675,115.511641 C47.5002289,115.568766 47.5980904,115.625315 47.6959518,115.68244" id="Fill-87" fill="#1D1C1B"></path>
                        <path d="M44.827009,114.014838 C44.79725,114.190831 44.7629127,114.363938 44.7383042,114.542239 C44.2890572,117.767232 43.8403825,120.992225 43.3917078,124.217795 C43.2995693,124.164131 43.2068584,124.110468 43.1147199,124.056805 C43.1227319,124.009489 43.1330331,123.963327 43.1393283,123.914856 C43.5994488,120.607349 44.058997,117.299264 44.5179729,113.991757 C44.5248404,113.943287 44.5288464,113.893663 44.5334247,113.844039 C44.6312861,113.901164 44.7291476,113.95829 44.827009,114.014838" id="Fill-89" fill="#1D1C1B"></path>
                        <path d="M44.0934488,113.588474 C44.1855873,113.642137 44.2782982,113.695801 44.3704367,113.749464 C43.8977259,117.153912 43.4244428,120.557783 42.9517319,123.96223 C42.8590211,123.90799 42.7668825,123.854327 42.674744,123.800663 C42.6844729,123.744115 42.6953464,123.688143 42.7033584,123.630441 C43.0673343,121.01017 43.4318825,118.390476 43.7952861,115.770206 C43.896009,115.043731 43.9944428,114.315526 44.0934488,113.588474" id="Fill-91" fill="#1D1C1B"></path>
                        <path d="M39.4150994,110.869244 C39.4099488,110.918291 39.4065151,110.968492 39.3996476,111.016385 C38.9400994,114.32447 38.4805512,117.631977 38.021003,120.940062 C38.0141355,120.987955 38.0044066,121.034694 37.9963946,121.081433 C37.9036837,121.027769 37.8115452,120.974106 37.7188343,120.920443 C37.7274187,120.857547 37.7354307,120.794074 37.7440151,120.731179 C38.0971175,118.188806 38.4502199,115.646434 38.8038946,113.104639 C38.9149187,112.305459 39.0265151,111.506856 39.1381114,110.708254 C39.23025,110.761917 39.3229608,110.81558 39.4150994,110.869244" id="Fill-93" fill="#1D1C1B"></path>
                        <path d="M48.7881084,116.317226 C48.7829578,116.366273 48.7795241,116.416474 48.7726566,116.464367 C48.3131084,119.772451 47.8535602,123.079959 47.394012,126.388043 C47.3871446,126.435937 47.3774157,126.482676 47.3694036,126.529415 C47.2766928,126.475751 47.1845542,126.422088 47.0918434,126.368425 C47.5651265,122.964554 48.0378373,119.560106 48.5111205,116.156236 C48.603259,116.209899 48.6959699,116.263562 48.7881084,116.317226" id="Fill-95" fill="#1D1C1B"></path>
                        <path d="M42.1210542,112.442041 C42.2131928,112.495704 42.3059036,112.549367 42.3980422,112.603031 C42.3928916,112.652078 42.3894578,112.702279 42.3825904,112.750172 C41.9230422,116.058257 41.463494,119.365764 41.0039458,122.673849 C40.9970783,122.721742 40.9873494,122.768481 40.9793373,122.815797 C40.8866265,122.761557 40.794488,122.707893 40.7023494,122.65423 C41.1750602,119.250359 41.6477711,115.845911 42.1210542,112.442041" id="Fill-97" fill="#1D1C1B"></path>
                        <path d="M51.9505211,118.155339 C52.0426596,118.209002 52.1353705,118.262665 52.227509,118.316329 C51.9133223,120.582883 51.5991355,122.849437 51.2843765,125.115992 C51.1264247,126.253885 50.9673283,127.391201 50.8088042,128.529095 C50.7166657,128.475432 50.6239548,128.421191 50.5318163,128.367528 C50.5398283,128.304632 50.5478404,128.241159 50.5564247,128.178264 C50.9095271,125.635891 51.2626295,123.093519 51.6163042,120.551724 C51.7273283,119.752544 51.8389247,118.953941 51.9505211,118.155339" id="Fill-99" fill="#1D1C1B"></path>
                        <path d="M51.2651476,128.794122 C51.173009,128.740459 51.0802982,128.686796 50.9881596,128.633132 C50.9933102,128.584085 50.996744,128.533884 51.0036114,128.485991 C51.4631596,125.177907 51.9227078,121.870399 52.382256,118.562315 C52.3891235,118.514421 52.3988524,118.467682 52.4068645,118.420366 C52.499003,118.474607 52.5917139,118.527693 52.6838524,118.581933 C52.2111416,121.985804 51.7378584,125.390252 51.2651476,128.794122" id="Fill-101" fill="#1D1C1B"></path>
                        <path d="M40.4094518,111.447192 C40.5015904,111.500855 40.5943012,111.554519 40.6864398,111.608182 C40.2137289,115.01263 39.7404458,118.4165 39.2677349,121.820948 C39.180747,121.77017 39.093759,121.719392 39.0067711,121.66919 C39.0153554,121.605718 39.0227952,121.542245 39.0319518,121.479349 C39.4251145,118.646156 39.819994,115.81354 40.212012,112.97977 C40.2824036,112.471411 40.3436386,111.957859 40.4094518,111.447192" id="Fill-103" fill="#1D1C1B"></path>
                        <path d="M46.7505301,115.132882 C46.8426687,115.186545 46.9353795,115.240208 47.0275181,115.293872 C46.9966145,115.479674 46.9611325,115.662591 46.9348072,115.850701 C46.6160422,118.136297 46.298994,120.42247 45.9813735,122.708066 C45.8520361,123.638231 45.7221265,124.567241 45.5922169,125.496828 C45.5052289,125.44605 45.4188133,125.395849 45.3318253,125.345071 C45.8045361,121.9412 46.277247,118.536752 46.7505301,115.132882" id="Fill-105" fill="#1D1C1B"></path>
                        <path d="M40.9792801,122.815566 C40.9872922,122.76825 40.9970211,122.722088 41.0038886,122.673618 C41.4634367,119.36611 41.9235572,116.058026 42.3825331,112.749941 C42.3894006,112.702048 42.3928343,112.652424 42.3979849,112.603377 C42.4580753,112.637999 42.5175934,112.67262 42.5776837,112.707242 C42.5690994,112.754558 42.5593705,112.801297 42.5530753,112.84919 C42.0929548,116.156697 41.6334066,119.464782 41.1738584,122.772866 C41.1675633,122.820759 41.1635572,122.870383 41.1584066,122.920008 C41.0988886,122.884809 41.0387982,122.850188 40.9792801,122.815566" id="Fill-107" fill="#FEFEFE"></path>
                        <path d="M52.4069217,118.420597 C52.3989096,118.467913 52.3891807,118.514075 52.3823133,118.562545 C51.9227651,121.870053 51.4632169,125.178137 51.0036687,128.485645 C50.9968012,128.534115 50.9933675,128.583739 50.9882169,128.632786 C50.9281265,128.598165 50.8686084,128.563543 50.8085181,128.528922 C50.9670422,127.391028 51.1261386,126.253712 51.2840904,125.115819 C51.5988494,122.849264 51.9130361,120.58271 52.2277952,118.316156 C52.2873133,118.351354 52.3474036,118.385976 52.4069217,118.420597" id="Fill-109" fill="#FEFEFE"></path>
                        <path d="M46.7505301,115.132882 C46.277247,118.536752 45.8045361,121.9412 45.3318253,125.345071 C45.2774578,125.313911 45.2230904,125.282175 45.1687229,125.250439 C45.6414337,121.846568 46.1147169,118.44212 46.5874277,115.03825 C46.6417952,115.069409 46.6961627,115.101145 46.7505301,115.132882" id="Fill-111" fill="#FEFEFE"></path>
                        <path d="M51.9505211,118.155339 C51.8389247,118.953941 51.7273283,119.752544 51.6163042,120.551724 C51.2626295,123.093519 50.9095271,125.635891 50.5564247,128.178264 C50.5478404,128.241159 50.5398283,128.304632 50.5318163,128.367528 C50.4774488,128.336368 50.4230813,128.304632 50.3687139,128.272896 C50.3795873,128.206538 50.3921777,128.140757 50.4013343,128.073245 C50.863744,124.735732 51.3255813,121.398219 51.7874187,118.060707 C51.8417861,118.092443 51.8961536,118.123602 51.9505211,118.155339" id="Fill-113" fill="#FEFEFE"></path>
                        <path d="M45.4790181,114.393828 C45.5333855,114.425564 45.587753,114.456724 45.6421205,114.48846 C45.1688373,117.892908 44.6961265,121.296778 44.2234157,124.701226 C44.1690482,124.66949 44.1146807,124.637753 44.0603133,124.606017 C44.5330241,121.202146 45.0063072,117.798276 45.4790181,114.393828" id="Fill-115" fill="#FEFEFE"></path>
                        <path d="M38.7304699,110.47127 C38.7848373,110.503006 38.8392048,110.534165 38.8935723,110.565902 C38.884988,110.613218 38.8758313,110.659957 38.8689639,110.70785 C38.4088434,114.015357 37.9492952,117.323442 37.4903193,120.631526 C37.4834518,120.679419 37.4794458,120.729621 37.4742952,120.778668 C37.4205,120.746931 37.3661325,120.715195 37.3117651,120.683459 C37.3169157,120.634411 37.3203494,120.584787 37.3272169,120.536317 C37.7861928,117.22881 38.2463133,113.920725 38.7058614,110.613218 C38.7127289,110.564748 38.7224578,110.518586 38.7304699,110.47127" id="Fill-117" fill="#FEFEFE"></path>
                        <path d="M43.9786476,124.558874 C43.9242801,124.527138 43.8699127,124.495978 43.8155452,124.464242 C44.2888283,121.059794 44.7615392,117.655924 45.2348223,114.251476 C45.2886175,114.283212 45.3429849,114.314949 45.3973524,114.346685 C45.3881958,114.409004 45.3784669,114.471322 45.3698825,114.534218 C44.99675,117.222001 44.6230452,119.909206 44.2499127,122.596989 C44.1589187,123.250758 44.0690693,123.905105 43.9786476,124.558874" id="Fill-119" fill="#FEFEFE"></path>
                        <path d="M39.137997,110.708138 C39.0264006,111.506741 38.9148042,112.305344 38.8037801,113.104523 C38.4501054,115.646319 38.097003,118.188691 37.7439006,120.731063 C37.7353163,120.793959 37.7273042,120.857432 37.7192922,120.920327 C37.6649247,120.889168 37.6105572,120.857432 37.5561898,120.825695 C37.5613404,120.776648 37.5647741,120.727024 37.5716416,120.678554 C38.0311898,117.370469 38.490738,114.062962 38.9502861,110.755454 C38.9571536,110.706984 38.9668825,110.660822 38.9748946,110.613506 C39.029262,110.645243 39.0836295,110.676402 39.137997,110.708138" id="Fill-121" fill="#FEFEFE"></path>
                        <path d="M42.9516747,123.961999 C43.4243855,120.557552 43.8976687,117.153681 44.3703795,113.74981 C44.424747,113.78097 44.4791145,113.812706 44.5334819,113.844442 C44.5283313,113.89349 44.5248976,113.943114 44.5180301,113.991584 C44.0590542,117.299668 43.599506,120.607176 43.1393855,123.91526 C43.1325181,123.963153 43.1227892,124.009315 43.1147771,124.056632 C43.0604096,124.024895 43.0060422,123.993736 42.9516747,123.961999" id="Fill-123" fill="#FEFEFE"></path>
                        <path d="M39.2676777,121.820717 C39.7403886,118.41627 40.2136717,115.012399 40.6863825,111.607951 C40.74075,111.639688 40.7951175,111.671424 40.8494849,111.70316 C40.3767741,115.107031 39.903491,118.511479 39.4307801,121.915349 C39.3764127,121.883613 39.3220452,121.852454 39.2676777,121.820717" id="Fill-125" fill="#FEFEFE"></path>
                        <path d="M36.7899518,120.38052 C36.7407349,120.352246 36.6920904,120.323395 36.6434458,120.295121 C36.6514578,120.247805 36.6611867,120.201643 36.6680542,120.153173 C37.1276024,116.845665 37.5871506,113.538158 38.0466988,110.230073 C38.052994,110.181603 38.057,110.131979 38.0621506,110.082932 C38.1165181,110.114668 38.1708855,110.145827 38.225253,110.177564 C38.1348313,110.799597 38.0409759,111.419899 37.953988,112.04424 C37.5751325,114.760874 37.1985663,117.478085 36.8208554,120.195295 C36.8116988,120.257614 36.800253,120.318779 36.7899518,120.38052" id="Fill-127" fill="#FEFEFE"></path>
                        <path d="M48.1360994,115.938236 C48.1795934,115.963625 48.2230873,115.989014 48.2665813,116.013826 C47.9523946,118.270571 47.6382078,120.526739 47.3245934,122.782906 C47.1649247,123.930609 47.0064006,125.078312 46.8478765,126.226592 C46.7986596,126.198318 46.7500151,126.169466 46.7007982,126.141192 C46.7099548,126.078296 46.7196837,126.015978 46.7282681,125.953082 C47.1620633,122.834262 47.5947139,119.715441 48.0290813,116.596621 C48.0599849,116.374466 48.1000452,116.157505 48.1360994,115.938236" id="Fill-129" fill="#FEFEFE"></path>
                        <path d="M45.5924458,125.496886 C45.7223554,124.567299 45.8522651,123.637711 45.9810301,122.708124 C46.2992229,120.422528 46.6162711,118.136355 46.9350361,115.850759 C46.9607892,115.662648 46.9962711,115.479731 47.027747,115.293929 C47.071241,115.319318 47.1147349,115.344708 47.1582289,115.36952 C46.6849458,118.773967 46.2122349,122.177838 45.7389518,125.582286 C45.6903072,125.554011 45.6410904,125.52516 45.5924458,125.496886" id="Fill-131" fill="#FEFEFE"></path>
                        <path d="M40.4094518,111.447192 C40.3436386,111.957859 40.2824036,112.471411 40.212012,112.97977 C39.819994,115.81354 39.4251145,118.646156 39.0319518,121.479349 C39.0227952,121.542245 39.0153554,121.605718 39.0067711,121.66919 C38.9581265,121.640916 38.9089096,121.612065 38.8602651,121.583791 C39.3329759,118.17992 39.806259,114.775472 40.2789699,111.371602 C40.3224639,111.396414 40.3659578,111.421803 40.4094518,111.447192" id="Fill-133" fill="#FEFEFE"></path>
                        <path d="M51.0865361,117.653154 C50.6138253,121.057602 50.1405422,124.461472 49.6678313,127.865343 C49.6243373,127.840531 49.5808434,127.815142 49.5373494,127.789753 C49.8509639,125.533585 50.1651506,123.277417 50.4787651,121.021249 C50.6384337,119.873546 50.7969578,118.725266 50.9560542,117.577564 C50.9995482,117.602376 51.0430422,117.627765 51.0865361,117.653154" id="Fill-135" fill="#FEFEFE"></path>
                        <path d="M48.511006,116.156178 C48.0382952,119.560049 47.565012,122.964496 47.0923012,126.368367 C47.0488072,126.343555 47.0053133,126.318166 46.9618193,126.292777 C46.9709759,126.229881 46.9807048,126.167562 46.9892892,126.104666 C47.362994,123.417461 47.7361265,120.729678 48.109259,118.042473 C48.200253,117.388703 48.2901024,116.734357 48.3805241,116.080588 C48.4240181,116.1054 48.467512,116.130789 48.511006,116.156178" id="Fill-137" fill="#FEFEFE"></path>
                        <path d="M47.4025392,115.511872 C46.9298283,118.915742 46.4565452,122.32019 45.9838343,125.724061 C45.9403404,125.699249 45.8968464,125.67386 45.8533524,125.64847 C45.8613645,125.601154 45.8710934,125.554992 45.8779608,125.506522 C46.337509,122.199015 46.7970572,118.89093 47.2566054,115.583423 C47.2634729,115.534953 47.2669066,115.485329 47.2720572,115.436281 C47.3155512,115.461094 47.3590452,115.486483 47.4025392,115.511872" id="Fill-139" fill="#FEFEFE"></path>
                        <path d="M50.2226084,117.151027 C50.2174578,117.200074 50.2140241,117.249698 50.2071566,117.298168 C49.7481807,120.606253 49.2880602,123.91376 48.828512,127.221845 C48.8216446,127.269738 48.8119157,127.316477 48.8039036,127.363216 C48.7604096,127.338404 48.7169157,127.313015 48.6734217,127.287625 C48.6814337,127.240309 48.6911627,127.194147 48.6980301,127.145677 C49.1575783,123.83817 49.6171265,120.530085 50.0766747,117.222578 C50.0835422,117.174108 50.0869759,117.124484 50.0921265,117.075436 C50.1356205,117.100249 50.1791145,117.125638 50.2226084,117.151027" id="Fill-141" fill="#FEFEFE"></path>
                        <path d="M48.5591928,127.221325 C48.5156988,127.195936 48.4722048,127.170547 48.4287108,127.145735 C48.4372952,127.098419 48.4464518,127.05168 48.4533193,127.003787 C48.9134398,123.696279 49.372988,120.388195 49.8319639,117.08011 C49.8388313,117.032217 49.8422651,116.982016 49.8474157,116.932969 C49.8909096,116.958358 49.9344036,116.983747 49.9778976,117.009136 C49.5051867,120.413007 49.0319036,123.816878 48.5591928,127.221325" id="Fill-143" fill="#FEFEFE"></path>
                        <path d="M51.2651476,128.794122 C51.7378584,125.390252 52.2111416,121.985804 52.6838524,118.581933 C52.7273464,118.606745 52.7708404,118.632135 52.8143343,118.657524 C52.3416235,122.061394 51.8683404,125.465842 51.3956295,128.869713 C51.3521355,128.844901 51.3086416,128.819512 51.2651476,128.794122" id="Fill-145" fill="#FEFEFE"></path>
                        <path d="M38.6156114,121.441727 C38.620762,121.39268 38.6241958,121.342479 38.6310633,121.294586 C39.0900392,117.986501 39.5501596,114.678417 40.0097078,111.370909 C40.0165753,111.323016 40.0263042,111.276277 40.0343163,111.228961 C40.0778102,111.25435 40.1213042,111.279739 40.1647982,111.305128 C40.1567861,111.352444 40.1470572,111.398606 40.1401898,111.447077 C39.6806416,114.754584 39.2210934,118.062669 38.7615452,121.370176 C38.7546777,121.418646 38.751244,121.46827 38.7460934,121.517317 C38.7025994,121.491928 38.6591054,121.467116 38.6156114,121.441727" id="Fill-147" fill="#FEFEFE"></path>
                        <path d="M42.1210542,112.442041 C41.6477711,115.845911 41.1750602,119.250359 40.7023494,122.65423 C40.6588554,122.629418 40.6153614,122.604029 40.5718675,122.57864 C40.5798795,122.531324 40.5896084,122.485162 40.5964759,122.436691 C41.0560241,119.129184 41.5155723,115.821099 41.9751205,112.513592 C41.981988,112.465122 41.9854217,112.415498 41.9905723,112.366451 C42.0340663,112.391263 42.0775602,112.416652 42.1210542,112.442041" id="Fill-149" fill="#FEFEFE"></path>
                        <path d="M41.8106446,123.298767 C41.7671506,123.273378 41.7236566,123.247989 41.6801627,123.223177 C41.6881747,123.17586 41.6979036,123.129121 41.7047711,123.081228 C42.1648916,119.773144 42.6244398,116.465636 43.0834157,113.157552 C43.0902831,113.109659 43.0942892,113.059458 43.0988675,113.01041 C43.1423614,113.0358 43.1858554,113.061189 43.2293494,113.086578 C43.2201928,113.148896 43.2104639,113.211215 43.2018795,113.274111 C42.828747,115.961894 42.4550422,118.649099 42.0819096,121.336882 C41.9909157,121.990651 41.9010663,122.644997 41.8106446,123.298767" id="Fill-151" fill="#FEFEFE"></path>
                        <path d="M44.0934488,113.588474 C43.9944428,114.315526 43.896009,115.043731 43.7952861,115.770206 C43.4318825,118.390476 43.0673343,121.01017 42.7033584,123.630441 C42.6953464,123.688143 42.6844729,123.744115 42.674744,123.800663 C42.63125,123.775851 42.587756,123.750462 42.544262,123.725073 C43.0169729,120.321202 43.490256,116.916755 43.9629669,113.512884 C44.0064608,113.537696 44.0499548,113.563085 44.0934488,113.588474" id="Fill-153" fill="#FEFEFE"></path>
                        <path d="M37.8176114,109.940695 C37.8611054,109.966084 37.9045994,109.991473 37.9480934,110.016285 C37.4748102,113.420733 37.0020994,116.824604 36.5288163,120.229051 C36.4858946,120.203662 36.4424006,120.178273 36.3989066,120.152884 C36.4069187,120.106145 36.4166476,120.059406 36.4235151,120.011513 C36.8830633,116.703428 37.3426114,113.395921 37.8021596,110.087836 C37.8084548,110.039366 37.8124608,109.989742 37.8176114,109.940695" id="Fill-155" fill="#FEFEFE"></path>
                        <path d="M46.1799578,114.801265 C46.1719458,114.848581 46.1622169,114.894743 46.1553494,114.943214 C45.6958012,118.250721 45.236253,121.558806 44.7767048,124.866313 C44.7698373,124.914783 44.7664036,124.964407 44.761253,125.013454 C44.717759,124.988642 44.6742651,124.963253 44.6307711,124.937864 C45.1034819,121.533993 45.5767651,118.129546 46.0494759,114.725675 C46.0929699,114.750487 46.1364639,114.775876 46.1799578,114.801265" id="Fill-157" fill="#1D1C1B"></path>
                        <path d="M37.8176114,109.940695 C37.8124608,109.989742 37.8084548,110.039366 37.8021596,110.087836 C37.3426114,113.395921 36.8830633,116.703428 36.4235151,120.011513 C36.4166476,120.059406 36.4069187,120.106145 36.3989066,120.152884 C36.3605633,120.130957 36.3227922,120.10903 36.2844488,120.086526 C36.2930331,120.02363 36.3004729,119.960158 36.3096295,119.897262 C36.682762,117.209479 37.0558946,114.522274 37.4295994,111.834491 C37.5205934,111.180722 37.6121596,110.528106 37.7037259,109.874337 C37.741497,109.896264 37.7798404,109.918768 37.8176114,109.940695" id="Fill-159" fill="#1D1C1B"></path>
                        <path d="M50.9561687,117.577391 C50.7970723,118.725093 50.6385482,119.873373 50.4788795,121.021076 C50.1652651,123.277244 49.8510783,125.533412 49.5374639,127.78958 C49.4991205,127.767653 49.4613494,127.745726 49.423006,127.723222 C49.5134277,127.069452 49.6032771,126.415106 49.6942711,125.761914 C50.0674036,123.074131 50.4411084,120.386348 50.814241,117.699143 C50.8233976,117.636247 50.8331265,117.573928 50.8422831,117.511033 C50.8800542,117.53296 50.9183976,117.555464 50.9561687,117.577391" id="Fill-161" fill="#1D1C1B"></path>
                        <path d="M38.7460361,121.517491 C38.7511867,121.468443 38.7551928,121.418242 38.761488,121.370349 C39.2210361,118.062265 39.6805843,114.754757 40.1401325,111.446673 C40.147,111.39878 40.1567289,111.352041 40.164741,111.305302 C40.2030843,111.327228 40.2408554,111.349155 40.2791988,111.371659 C39.8059157,114.77553 39.3332048,118.179401 38.8599217,121.583848 C38.8221506,121.561921 38.7838072,121.539418 38.7460361,121.517491" id="Fill-163" fill="#1D1C1B"></path>
                        <path d="M48.5591928,127.221325 C49.0319036,123.816878 49.5051867,120.413007 49.9778976,117.009136 C50.016241,117.031063 50.054012,117.05299 50.0923554,117.074917 C50.0872048,117.124541 50.0831988,117.174165 50.0769036,117.222058 C49.6173554,120.530143 49.1578072,123.838228 48.6976867,127.145735 C48.6913916,127.194205 48.6816627,127.240367 48.6730783,127.287683 C48.6353072,127.265756 48.5969639,127.243252 48.5591928,127.221325" id="Fill-165" fill="#1D1C1B"></path>
                        <path d="M47.2721145,115.436051 C47.2669639,115.485098 47.2635301,115.535299 47.2566627,115.583192 C46.7971145,118.891277 46.3375663,122.198784 45.8780181,125.506869 C45.8711506,125.554762 45.8614217,125.601501 45.8534096,125.64824 C45.8150663,125.626313 45.7772952,125.604386 45.7389518,125.582459 C46.2122349,122.178011 46.6849458,118.77414 47.1582289,115.369693 C47.196,115.39162 47.2343434,115.414124 47.2721145,115.436051" id="Fill-167" fill="#1D1C1B"></path>
                        <path d="M49.8477018,116.933084 C49.8425512,116.982131 49.8385452,117.031756 49.83225,117.080226 C49.3727018,120.38831 48.9131536,123.695818 48.4536054,127.003902 C48.446738,127.051795 48.437009,127.098534 48.428997,127.145273 C48.3906536,127.123346 48.3528825,127.101419 48.3145392,127.078916 C48.7878223,123.675045 49.2605331,120.271174 49.7338163,116.866726 C49.7715873,116.888653 49.8099307,116.911157 49.8477018,116.933084" id="Fill-169" fill="#1D1C1B"></path>
                        <path d="M43.0990964,113.010526 C43.0939458,113.059573 43.090512,113.109197 43.0836446,113.157667 C42.6240964,116.465752 42.1645482,119.773259 41.705,123.081344 C41.6981325,123.129237 41.6884036,123.175976 41.6803916,123.222715 C41.6420482,123.200788 41.6042771,123.178861 41.5659337,123.156357 C41.5756627,123.099809 41.5865361,123.043837 41.5945482,122.985558 C42.0312048,119.847696 42.4672892,116.709256 42.9028012,113.570817 C42.931988,113.363088 42.957741,113.153051 42.9852108,112.944168 C43.0229819,112.966095 43.0613253,112.988599 43.0990964,113.010526" id="Fill-171" fill="#1D1C1B"></path>
                        <path d="M41.8106446,123.298767 C41.9010663,122.644997 41.9909157,121.990651 42.0819096,121.336882 C42.4550422,118.649099 42.828747,115.961894 43.2018795,113.274111 C43.2104639,113.211215 43.2201928,113.148896 43.2293494,113.086578 C43.2676928,113.108505 43.3054639,113.130432 43.3438072,113.152359 C43.2911566,113.540696 43.2407952,113.929611 43.187,114.316795 C42.7663675,117.332905 42.3457349,120.349015 41.9245301,123.365125 C41.886759,123.343198 41.8484157,123.320694 41.8106446,123.298767" id="Fill-173" fill="#1D1C1B"></path>
                        <path d="M48.3805813,116.080357 C48.2901596,116.734126 48.2003102,117.388473 48.1093163,118.042242 C47.7361837,120.730024 47.3624789,123.41723 46.9893464,126.105013 C46.980762,126.167908 46.9710331,126.230227 46.9618765,126.292546 C46.9235331,126.270619 46.885762,126.248692 46.8474187,126.226188 C47.0065151,125.078485 47.1650392,123.930205 47.3247078,122.78308 C47.6383223,120.526335 47.952509,118.270167 48.2666958,116.013999 C48.3044669,116.035926 48.3428102,116.05843 48.3805813,116.080357" id="Fill-175" fill="#1D1C1B"></path>
                        <path d="M36.5291024,120.228936 C37.0023855,116.825065 37.4750964,113.420618 37.9478072,110.016747 C37.9861506,110.038674 38.0239217,110.060601 38.0622651,110.083105 C38.0571145,110.132152 38.0531084,110.181776 38.0468133,110.230246 C37.5872651,113.537754 37.1277169,116.845838 36.6675964,120.153346 C36.6613012,120.201816 36.6515723,120.247978 36.642988,120.295294 C36.6052169,120.273367 36.5668735,120.250863 36.5291024,120.228936" id="Fill-177" fill="#1D1C1B"></path>
                        <path d="M48.1360994,115.938236 C48.1000452,116.157505 48.0599849,116.374466 48.0290813,116.596621 C47.5947139,119.715441 47.1620633,122.834262 46.7282681,125.953082 C46.7196837,126.015978 46.7099548,126.078296 46.7007982,126.141192 C46.6681777,126.12215 46.6355572,126.103108 46.6029367,126.084644 C46.6080873,126.03502 46.6120934,125.985395 46.6183886,125.937502 C47.0779367,122.629418 47.5374849,119.321333 47.9970331,116.013826 C48.0039006,115.965356 48.0136295,115.919194 48.0222139,115.871878 C48.0599849,115.893805 48.0983283,115.916309 48.1360994,115.938236" id="Fill-179" fill="#1D1C1B"></path>
                        <path d="M41.9906295,112.366277 C41.9854789,112.415325 41.9820452,112.464949 41.9751777,112.513419 C41.5156295,115.821503 41.0560813,119.129011 40.5965331,122.437095 C40.5896657,122.484988 40.5799367,122.531727 40.5719247,122.578466 C40.5393042,122.559425 40.5066837,122.54096 40.4740633,122.521918 C40.6863825,120.991071 40.8987018,119.460223 41.1104488,117.929376 C41.3611114,116.11694 41.6117741,114.305082 41.8618645,112.492646 C41.8704488,112.430327 41.8715934,112.363969 41.876744,112.29992 C41.9145151,112.321847 41.9528584,112.34435 41.9906295,112.366277" id="Fill-181" fill="#1D1C1B"></path>
                        <path d="M36.7899518,120.38052 C36.800253,120.318779 36.8116988,120.257614 36.8208554,120.195295 C37.1985663,117.478085 37.5751325,114.760874 37.953988,112.04424 C38.0409759,111.419899 38.1348313,110.799597 38.225253,110.177564 C38.2521506,110.193143 38.2796205,110.2093 38.3065181,110.22488 C38.3013675,110.273927 38.2979337,110.324128 38.2910663,110.372021 C37.8315181,113.680106 37.3719699,116.987613 36.9124217,120.295698 C36.9055542,120.343591 36.8958253,120.39033 36.8878133,120.437069 C36.8551928,120.418604 36.8225723,120.399562 36.7899518,120.38052" id="Fill-183" fill="#1D1C1B"></path>
                        <path d="M51.7874759,118.060591 C51.3256386,121.398104 50.8632289,124.735617 50.4013916,128.07313 C50.3922349,128.140642 50.3796446,128.206422 50.3687711,128.27278 C50.3413012,128.257201 50.3144036,128.241621 50.2869337,128.225464 C50.2920843,128.176417 50.2960904,128.126793 50.3023855,128.078323 C50.7619337,124.770815 51.2214819,121.462731 51.6816024,118.155223 C51.6878976,118.106753 51.6976265,118.060591 51.7062108,118.013275 C51.7331084,118.028855 51.7605783,118.045012 51.7874759,118.060591" id="Fill-185" fill="#1D1C1B"></path>
                        <path d="M38.7304699,110.47127 C38.7224578,110.518586 38.7127289,110.564748 38.7058614,110.613218 C38.2463133,113.920725 37.7861928,117.22881 37.3272169,120.536317 C37.3203494,120.584787 37.3169157,120.634411 37.3117651,120.683459 C37.2842952,120.667879 37.2573976,120.652299 37.2299277,120.636143 C37.2350783,120.587095 37.2390843,120.537471 37.2453795,120.489001 C37.7049277,117.181494 38.1644759,113.873409 38.6240241,110.565902 C38.6308916,110.517432 38.6406205,110.47127 38.6492048,110.423953 C38.6761024,110.439533 38.703,110.45569 38.7304699,110.47127" id="Fill-187" fill="#1D1C1B"></path>
                        <path d="M38.9749518,110.613391 C38.9669398,110.660707 38.9572108,110.706869 38.9503434,110.755339 C38.4907952,114.062846 38.031247,117.370931 37.5716988,120.679015 C37.5648313,120.726909 37.5613976,120.776533 37.556247,120.82558 C37.5287771,120.81 37.5018795,120.79442 37.4744096,120.778264 C37.4795602,120.729217 37.4835663,120.679592 37.4898614,120.631122 C37.9494096,117.323615 38.4089578,114.01553 38.8690783,110.708023 C38.8753735,110.659553 38.8851024,110.613391 38.8936867,110.566075 C38.9205843,110.581654 38.9480542,110.597811 38.9749518,110.613391" id="Fill-189" fill="#1D1C1B"></path>
                        <path d="M39.4306657,121.915465 C39.9033765,118.511017 40.3766596,115.107146 40.8493705,111.702699 C40.8768404,111.718855 40.903738,111.734435 40.9312078,111.750592 C40.8407861,112.404361 40.7509367,113.058707 40.6599428,113.712477 C40.2868102,116.399682 39.9131054,119.087465 39.5399729,121.774671 C39.5308163,121.837566 39.5210873,121.899885 39.5119307,121.962781 C39.4850331,121.947201 39.4575633,121.931044 39.4306657,121.915465" id="Fill-191" fill="#1D1C1B"></path>
                        <path d="M41.1585783,122.919777 C41.1637289,122.87073 41.1671627,122.821106 41.1740301,122.772635 C41.6335783,119.464551 42.0931265,116.157043 42.5526747,112.848959 C42.5595422,112.801066 42.5692711,112.754327 42.5772831,112.707588 C42.604753,112.723167 42.6316506,112.738747 42.6591205,112.754904 C42.6505361,112.801643 42.6408072,112.848382 42.634512,112.896275 C42.1743916,116.204359 41.7148434,119.511867 41.2558675,122.819951 C41.249,122.868422 41.244994,122.918046 41.2398434,122.967093 C41.2129458,122.951513 41.1860482,122.935356 41.1585783,122.919777" id="Fill-193" fill="#1D1C1B"></path>
                        <path d="M45.2345361,114.251707 C44.761253,117.655577 44.2885422,121.060025 43.8158313,124.463896 C43.7883614,124.448316 43.7614639,124.432736 43.733994,124.41658 C43.8244157,123.76281 43.9142651,123.108464 44.005259,122.454695 C44.3783916,119.767489 44.7520964,117.079706 45.1252289,114.392501 C45.1343855,114.329605 45.1435422,114.266709 45.1532711,114.204391 C45.1801687,114.21997 45.2070663,114.236127 45.2345361,114.251707" id="Fill-195" fill="#1D1C1B"></path>
                        <path d="M43.9786476,124.558874 C44.0690693,123.905105 44.1589187,123.250758 44.2499127,122.596989 C44.6230452,119.909206 44.99675,117.222001 45.3698825,114.534218 C45.3784669,114.471322 45.3881958,114.409004 45.3973524,114.346685 C45.4248223,114.362265 45.4517199,114.377844 45.4791898,114.394001 C45.0059066,117.797872 44.5331958,121.202319 44.0599127,124.60619 C44.0330151,124.59061 44.0061175,124.574454 43.9786476,124.558874" id="Fill-197" fill="#1D1C1B"></path>
                        <path d="M44.2231867,124.700995 C44.6958976,121.297125 45.1691807,117.892677 45.6418916,114.488806 C45.6693614,114.504386 45.696259,114.519966 45.7237289,114.536122 C45.6333072,115.189892 45.5428855,115.844238 45.4524639,116.498007 C45.0793313,119.185213 44.7056265,121.872996 44.3319217,124.560201 C44.3233373,124.623097 44.3136084,124.685993 44.3044518,124.748311 C44.2775542,124.732732 44.2500843,124.716575 44.2231867,124.700995" id="Fill-199" fill="#1D1C1B"></path>
                        <path d="M46.5874849,115.038134 C46.1147741,118.442005 45.641491,121.846453 45.1687801,125.250323 C45.1413102,125.234744 45.1144127,125.219164 45.0869428,125.203007 C45.1773645,124.549238 45.2672139,123.894891 45.3582078,123.241122 C45.7313404,120.553916 46.1050452,117.866134 46.4781777,115.178928 C46.4873343,115.116033 46.496491,115.053137 46.5062199,114.990818 C46.5331175,115.006398 46.5605873,115.022554 46.5874849,115.038134" id="Fill-201" fill="#1D1C1B"></path>
                        <path d="M37.703497,109.874395 C37.6119307,110.527587 37.5203645,111.18078 37.4299428,111.834549 C37.056238,114.522331 36.6825331,117.209537 36.3094006,119.89732 C36.3008163,119.960215 36.2928042,120.023688 36.2847922,120.086584 C36.274491,120.07562 36.2556054,120.062349 36.2556054,120.053693 C36.2561777,120.019072 36.2636175,119.985604 36.2681958,119.95156 C36.7306054,116.625011 37.1924428,113.298461 37.6565693,109.972489 C37.6617199,109.936137 37.6399729,109.827656 37.703497,109.874395" id="Fill-203" fill="#FEFEFE"></path>
                        <g id="Group-209">
                            <mask id="mask-2" fill="white">
                                <use xlink:href="#path-1"></use>
                            </mask>
                            <g id="Clip-208"></g>
                            <path d="M0.622593373,108.619308 L54.7497018,140.12776 L94.2920211,117.109077 L90.018738,93.4995207 L90.0198825,93.4677844 L92.2827139,32.7185888 L38.160756,1.212445 L24.9820813,11.6138983 L3.10518373,21.3598511 L5.09217169,77.9134976 L0.622593373,108.619308 Z M54.7497018,140.794224 L54.6066295,140.710555 L-5.72289157e-05,108.9234 L4.52274398,77.8817612 L2.51973193,20.990555 L24.718256,11.100923 L38.1121114,0.518283885 L92.8670211,32.3925697 L92.8607259,32.5662542 L90.5933163,93.4579749 L94.9284066,117.405668 L94.7532861,117.506647 L54.7497018,140.794224 Z" id="Fill-207" fill="#654322" mask="url(#mask-2)"></path>
                        </g>
                    </g>
                </g>
            </g>
        </g>
    </g>
</svg>