<?xml version="1.0" encoding="UTF-8" standalone="no"?>
<svg width="103px" height="149px" viewBox="0 0 103 149" version="1.1" xmlns="http://www.w3.org/2000/svg" xmlns:xlink="http://www.w3.org/1999/xlink">
    <!-- Generator: Sketch 3.7.2 (28276) - http://www.bohemiancoding.com/sketch -->
    <title>Page 1 + Bitmap 3 Copy</title>
    <desc>Created with Sketch.</desc>
    <defs>
        <polygon id="path-1" points="0 0.545518036 102.326878 0.545518036 102.326878 148.225391 0 148.225391"></polygon>
    </defs>
    <g id="Bag-ripped" stroke="none" stroke-width="1" fill="none" fill-rule="evenodd">
        <g id="4.-Bag-ripped---Remove-all-items" transform="translate(-113.000000, -148.000000)">
            <g id="Page-1-+-Bitmap-3-Copy" transform="translate(113.128412, 148.000000)">
                <g id="Page-1">
                    <polygon id="Fill-1" fill="#7E522F" points="26.8046145 11.9494572 3.03208343 22.2924305 5.18071655 82.0369827 0.335033776 114.512315 59.0162213 147.875178 101.983948 123.44654 101.921642 123.112425 97.3443074 98.4122434 99.7896653 34.2743879 41.1090947 0.911525405"></polygon>
                    <polygon id="Fill-2" fill="#93653E" points="79.8525338 42.0011831 81.3046964 104.842067 101.921827 123.112061 97.3444924 98.4124864 99.7898503 34.2740234"></polygon>
                    <polygon id="Fill-3" fill="#875B36" points="59.1851262 146.731169 59.0160979 147.875056 101.983825 123.446418 101.921519 123.112304 81.3050049 104.842309"></polygon>
                    <polygon id="Fill-4" fill="#7E5534" points="79.8525338 42.0011831 79.7396427 42.0449218 61.7128391 55.655536 63.8781283 114.865505 59.1848177 146.730926 81.3053133 104.842067"></polygon>
                    <g id="Group-210">
                        <path d="M99.7896036,34.2742057 L41.1084161,0.91134316 L41.1084161,43.9410526 C58.8927813,54.0519682 61.7132092,55.6551108 61.7132092,55.6551108 L79.7393959,42.045104 L99.7896036,34.2742057 Z" id="Fill-5" fill="#654322"></path>
                        <path d="M41.1086628,0.911525405 L26.8047995,11.9494572 L26.8047995,35.8082777 C31.3617771,38.3997921 36.23522,41.1705135 41.1086628,43.9412348 L41.1086628,0.911525405 Z" id="Fill-7" fill="#513117"></path>
                        <path d="M3.03196006,22.2926735 C3.03196006,22.2926735 13.5771034,28.2879046 26.8044911,35.8085207 L26.8044911,11.9490927 L3.03196006,22.2926735 Z" id="Fill-9" fill="#412A18"></path>
                        <polygon id="Fill-11" fill="#C99D66" points="61.7129625 55.6553538 3.03177499 22.2924913 5.1804081 82.0364359 63.8776348 114.86593"></polygon>
                        <polygon id="Fill-13" fill="#D4A86F" points="59.0165914 147.874935 63.8776965 114.865626 5.18046979 82.0367397 0.335403911 114.512072"></polygon>
                        <path d="M37.9106356,125.920203 L39.841506,112.347253 C39.9420593,111.639537 40.461482,111.314535 41.001262,111.620705 L57.621553,121.056102 C58.161333,121.362272 58.5172794,122.184194 58.4167261,122.89191 L56.4858557,136.46486 C56.3853024,137.172576 55.8658797,137.497578 55.3267166,137.191408 L38.7058087,127.756011 C38.1660287,127.44984 37.8100823,126.627919 37.9106356,125.920203" id="Fill-15" fill="#FEFEFE"></path>
                        <path d="M41.5404869,114.648391 L41.7934124,114.738298 C41.7946462,114.807551 41.8088347,114.866477 41.8359779,114.91629 C41.8631212,114.967319 41.9056867,115.009235 41.9630576,115.041431 C42.0272143,115.07788 42.0765656,115.089422 42.1123453,115.076665 C42.137021,115.067553 42.1518264,115.045684 42.1573784,115.009842 C42.1604629,114.985543 42.1579953,114.961851 42.148125,114.939375 C42.1382548,114.916898 42.1129622,114.887739 42.0722474,114.850075 C41.8828617,114.681803 41.7656523,114.558484 41.7193854,114.481334 C41.6558456,114.374417 41.6317868,114.262033 41.6484429,114.146004 C41.6632483,114.04091 41.7076645,113.97105 41.7810746,113.935208 C41.8538678,113.899974 41.9575056,113.919414 42.0907541,113.994741 C42.2172169,114.066424 42.3078999,114.147219 42.3615695,114.235911 C42.4146222,114.325211 42.4460836,114.42909 42.4534863,114.548157 L42.2153662,114.472829 C42.2122818,114.419978 42.1987101,114.373202 42.1746514,114.331893 C42.1512095,114.2918 42.1129622,114.256566 42.0617602,114.228014 C41.9982204,114.191565 41.949486,114.176986 41.9186414,114.184275 C41.8970502,114.19035 41.8859461,114.20736 41.8816279,114.234089 C41.8785434,114.256566 41.8834786,114.280865 41.8970502,114.306379 C41.9167907,114.339791 41.988967,114.413296 42.1129622,114.52568 C42.2381912,114.638671 42.3220884,114.737691 42.3658877,114.823346 C42.4090701,114.909608 42.4226418,115.003768 42.4084533,115.105824 C42.3924141,115.216993 42.3436796,115.292321 42.26225,115.331807 C42.1795865,115.371294 42.0691629,115.351854 41.9297454,115.273489 C41.8038996,115.201806 41.7095152,115.111899 41.6453585,115.00316 C41.5812017,114.893813 41.5460389,114.775962 41.5404869,114.648391" id="Fill-17" fill="#1D1C1B"></path>
                        <path d="M42.8929598,115.113539 C42.8738362,115.249615 42.8800051,115.361392 42.9120835,115.450691 C42.9441618,115.538169 42.9891949,115.599524 43.0484165,115.632936 C43.1051705,115.665132 43.1569894,115.662095 43.2038732,115.624431 C43.2495231,115.585552 43.2822184,115.498682 43.3019589,115.362607 C43.3198488,115.235036 43.3136798,115.129941 43.2834522,115.046109 C43.2532245,114.962277 43.2100421,114.903958 43.1520543,114.871762 C43.0922158,114.837743 43.0385462,114.839565 42.9904287,114.877837 C42.942928,114.916108 42.9096159,114.994473 42.8929598,115.113539 L42.8929598,115.113539 Z M42.7344187,114.390029 L42.9626686,114.519423 L42.937376,114.697415 C42.9750064,114.653676 43.0225071,114.626947 43.0780273,114.617227 C43.1341644,114.608115 43.1927691,114.620265 43.2544583,114.655499 C43.3624143,114.716854 43.4456946,114.823771 43.5042993,114.975641 C43.5635209,115.129334 43.5789432,115.303681 43.5505662,115.50172 C43.5221892,115.704011 43.4623507,115.839479 43.3704339,115.90934 C43.2797508,115.978592 43.1798144,115.983452 43.0730922,115.922097 C43.0212733,115.892938 42.9768571,115.852844 42.9392267,115.80303 C42.9015963,115.752609 42.8645828,115.682749 42.8281862,115.591627 L42.7412045,116.202753 L42.4956817,116.063032 L42.7344187,114.390029 Z" id="Fill-19" fill="#1D1C1B"></path>
                        <path d="M44.2213123,115.015613 C44.1917015,114.998604 44.1627076,114.996174 44.1367982,115.007716 C44.109655,115.019258 44.0855962,115.053277 44.0633881,115.109773 C44.0350111,115.183278 44.007251,115.318139 43.978874,115.514355 C43.9511138,115.711179 43.938776,115.850292 43.9437111,115.932302 C43.9486463,116.014312 43.9609841,116.073845 43.9801077,116.111509 C43.9998483,116.148566 44.0245239,116.175295 44.0541347,116.192304 C44.0825117,116.209314 44.1115056,116.212351 44.138032,116.200202 C44.1651752,116.189267 44.1886171,116.15464 44.2114421,116.098145 C44.2398191,116.025854 44.2675792,115.890386 44.2953393,115.694777 C44.3237163,115.498561 44.3354372,115.35884 44.3305021,115.277438 C44.3261839,115.195428 44.3144629,115.135287 44.2953393,115.097623 C44.2755988,115.05996 44.2503062,115.032015 44.2213123,115.015613 M44.2595596,114.750144 C44.3829379,114.820004 44.4711534,114.932388 44.524206,115.087296 C44.5877459,115.27197 44.5969992,115.52286 44.5519662,115.839965 C44.5069331,116.156463 44.4329061,116.360577 44.3298852,116.451091 C44.2441373,116.526419 44.1398826,116.528849 44.0158874,116.458381 C43.8918923,116.387913 43.7999754,116.268847 43.7419876,116.100575 C43.6833829,115.931695 43.677214,115.68688 43.722864,115.365523 C43.7678971,115.050847 43.841924,114.847949 43.9455618,114.756826 C44.0306928,114.681499 44.1355644,114.679069 44.2595596,114.750144" id="Fill-21" fill="#1D1C1B"></path>
                        <path d="M45.2129037,115.578627 C45.1832929,115.562225 45.154299,115.559187 45.1283896,115.57073 C45.1012464,115.582272 45.0771876,115.616291 45.0549795,115.672786 C45.0272194,115.746292 44.9988424,115.881152 44.9704654,116.077369 C44.9427052,116.274193 44.9303674,116.412698 44.9353025,116.495316 C44.9402377,116.577326 44.9525755,116.636859 44.9716991,116.674523 C44.9914397,116.711579 45.0161153,116.738916 45.0457261,116.755318 C45.07472,116.772327 45.103097,116.775365 45.1296234,116.763215 C45.1567666,116.75228 45.1802085,116.717654 45.2030335,116.661158 C45.2314105,116.58826 45.2597875,116.4534 45.2875476,116.257183 C45.3159246,116.060967 45.3270286,115.921246 45.3220935,115.840451 C45.3177753,115.757834 45.3060543,115.698301 45.2869307,115.660637 C45.2671902,115.622366 45.2425145,115.595029 45.2129037,115.578627 M45.251151,115.313158 C45.3745293,115.383018 45.4627448,115.495402 45.5157974,115.65031 C45.5793373,115.834984 45.5885906,116.085874 45.5435576,116.402979 C45.4985245,116.719476 45.4244975,116.92359 45.3214766,117.014105 C45.2357287,117.088825 45.131474,117.091862 45.0074788,117.021395 C44.8834837,116.950927 44.7921837,116.83186 44.733579,116.662981 C44.6755912,116.494708 44.6688054,116.249894 44.7144554,115.928536 C44.7594885,115.613861 44.8335154,115.41157 44.9371532,115.31984 C45.0222842,115.244512 45.1271558,115.242082 45.251151,115.313158" id="Fill-23" fill="#1D1C1B"></path>
                        <path d="M46.2044951,116.14158 C46.1748843,116.12457 46.1465073,116.12214 46.119981,116.133682 C46.0928378,116.145225 46.068779,116.179243 46.0465709,116.235739 C46.0188108,116.309244 45.9904338,116.444105 45.9620568,116.640322 C45.9342966,116.837145 45.9219588,116.976259 45.9268939,117.058269 C45.9318291,117.140279 45.9441669,117.199812 45.9632905,117.237476 C45.9830311,117.274532 46.0077067,117.301261 46.0373175,117.318271 C46.0663114,117.33528 46.0946884,117.338317 46.1212148,117.326168 C46.148358,117.314626 46.1717999,117.280607 46.1946249,117.223503 C46.2230019,117.151213 46.2513789,117.016352 46.279139,116.820136 C46.307516,116.62392 46.3186201,116.484806 46.3136849,116.402797 C46.3093667,116.320787 46.2976457,116.260646 46.2785221,116.22359 C46.2587816,116.185926 46.2341059,116.157982 46.2044951,116.14158 M46.2427424,115.87611 C46.3661207,115.945971 46.4543362,116.058355 46.5073889,116.213262 C46.5709287,116.397937 46.5801821,116.648826 46.535149,116.965931 C46.4901159,117.282429 46.4160889,117.486543 46.313068,117.577057 C46.2273201,117.651778 46.1230654,117.654208 45.9990703,117.584347 C45.8750751,117.513879 45.7837751,117.394813 45.7251704,117.225933 C45.6671826,117.057661 45.6603968,116.812846 45.7060468,116.491489 C45.7510799,116.176814 45.8257237,115.973915 45.9287446,115.882185 C46.0144925,115.807465 46.1187472,115.805035 46.2427424,115.87611" id="Fill-25" fill="#1D1C1B"></path>
                        <path d="M47.1960865,116.704593 C47.1664757,116.688191 47.1380987,116.685154 47.1121893,116.696696 C47.0850461,116.708238 47.0603704,116.742257 47.0381623,116.798753 C47.0104022,116.872258 46.9820252,117.007119 46.9536482,117.203335 C46.9258881,117.400159 46.9135502,117.538665 46.9184854,117.621282 C46.9234205,117.703292 46.9357583,117.762825 46.954882,117.800489 C46.9752394,117.837545 46.9992981,117.864882 47.0289089,117.881284 C47.0579028,117.898293 47.0862798,117.900723 47.1128062,117.888574 C47.1399494,117.877639 47.1633913,117.84362 47.1862163,117.786517 C47.2145933,117.714227 47.2429703,117.579366 47.2707304,117.38315 C47.2991074,117.186933 47.3108283,117.047212 47.3052763,116.96581 C47.3009581,116.8838 47.2892371,116.823659 47.2701135,116.786603 C47.250373,116.748332 47.2256973,116.720995 47.1960865,116.704593 M47.2343338,116.438516 C47.358329,116.508984 47.4459276,116.621368 47.4989803,116.776276 C47.5625201,116.96095 47.5717735,117.21184 47.5267404,117.528945 C47.4817073,117.845443 47.4076803,118.049556 47.3046594,118.140071 C47.2189115,118.214791 47.1152737,118.217221 46.9906617,118.147361 C46.8666665,118.076893 46.7753665,117.957827 46.7167618,117.788947 C46.658774,117.620675 46.6519882,117.375252 46.6976382,117.054502 C46.7426713,116.739827 46.8173151,116.536928 46.920336,116.445806 C47.0060839,116.370479 47.1103386,116.368049 47.2343338,116.438516" id="Fill-27" fill="#1D1C1B"></path>
                        <path d="M48.1882948,117.267607 C48.158684,117.250597 48.130307,117.248167 48.1037807,117.259709 C48.0766375,117.271251 48.0525787,117.30527 48.0303706,117.361766 C48.0026105,117.435271 47.9742335,117.57074 47.9458565,117.766956 C47.9180963,117.96378 47.9057585,118.102286 47.9106936,118.184296 C47.9156288,118.266306 47.9279666,118.326446 47.9470902,118.363503 C47.9668308,118.400559 47.9915064,118.427288 48.0211172,118.444298 C48.0501111,118.461307 48.0784881,118.464344 48.1050145,118.452195 C48.1321577,118.44126 48.1555996,118.406634 48.1784246,118.350138 C48.2068016,118.277848 48.2351786,118.142379 48.2629387,117.94677 C48.2913157,117.750554 48.3030366,117.610833 48.2974846,117.529431 C48.2931664,117.447421 48.2814454,117.38728 48.2623218,117.349617 C48.2425813,117.311953 48.2179056,117.284009 48.1882948,117.267607 M48.2265421,117.002137 C48.3499204,117.071998 48.4381359,117.184382 48.4911886,117.339897 C48.5547284,117.523964 48.5639818,117.774853 48.5189487,118.091958 C48.4739156,118.408456 48.3998886,118.61257 48.2968677,118.703692 C48.2111198,118.778412 48.1068651,118.780842 47.98287,118.710374 C47.8588748,118.640514 47.7675748,118.52084 47.7089701,118.352568 C47.6509823,118.183688 47.6441965,117.938873 47.6898465,117.617516 C47.7348796,117.302841 47.8095234,117.099942 47.9125443,117.00882 C47.9982922,116.933492 48.1025469,116.93167 48.2265421,117.002137" id="Fill-29" fill="#1D1C1B"></path>
                        <path d="M49.1799479,117.830559 C49.1503371,117.814157 49.1219601,117.81112 49.0960507,117.822662 C49.0689074,117.834204 49.0442318,117.868223 49.0220237,117.924719 C48.9942636,117.998224 48.9658866,118.133692 48.9375096,118.329909 C48.9097494,118.526125 48.8974116,118.664631 48.9023467,118.747248 C48.9072819,118.829258 48.9196197,118.888791 48.9387433,118.926455 C48.9591008,118.963512 48.9831595,118.990848 49.0127703,119.00725 C49.0417642,119.02426 49.0701412,119.027297 49.0966676,119.015148 C49.1238108,119.004213 49.1478696,118.969586 49.1700777,118.913091 C49.1984547,118.840193 49.2268317,118.70594 49.2545918,118.509723 C49.2829688,118.313507 49.2946897,118.173786 49.2891377,118.092384 C49.2848195,118.009766 49.2730985,117.950233 49.2539749,117.912569 C49.2342344,117.874298 49.2095587,117.846961 49.1799479,117.830559 M49.2181952,117.56509 C49.3421904,117.63495 49.429789,117.747334 49.4828416,117.90285 C49.5463815,118.086916 49.5556348,118.337806 49.5106018,118.654911 C49.4655687,118.971409 49.3915417,119.175523 49.2885208,119.266645 C49.2027729,119.341365 49.0991351,119.343795 48.974523,119.273327 C48.8505279,119.202859 48.7592279,119.083793 48.7006232,118.914913 C48.6426354,118.746641 48.6358496,118.501826 48.6814996,118.180468 C48.7265327,117.865793 48.8011765,117.663502 48.9041974,117.571772 C48.9899453,117.497052 49.0942,117.494015 49.2181952,117.56509" id="Fill-31" fill="#1D1C1B"></path>
                        <path d="M50.1715393,118.393573 C50.1419285,118.376563 50.1135515,118.374133 50.0876421,118.385676 C50.0604989,118.397218 50.0358232,118.431237 50.014232,118.487732 C49.985855,118.561238 49.957478,118.696098 49.929101,118.892315 C49.9013408,119.089139 49.889003,119.228252 49.8939381,119.310262 C49.8988733,119.392272 49.9112111,119.451805 49.9309516,119.489469 C49.9506922,119.526525 49.9747509,119.553254 50.0043617,119.570264 C50.0333556,119.587273 50.0617326,119.590311 50.088259,119.578161 C50.1154022,119.567226 50.139461,119.5326 50.1616691,119.476104 C50.1900461,119.403814 50.2184231,119.268346 50.2461832,119.072737 C50.2745602,118.87652 50.2862811,118.7368 50.281346,118.655397 C50.2764109,118.573387 50.2646899,118.513247 50.2455663,118.475583 C50.2258258,118.437919 50.2011501,118.409975 50.1715393,118.393573 M50.2097866,118.128104 C50.3337818,118.197964 50.4213804,118.310348 50.4744331,118.465256 C50.5379729,118.64993 50.5472263,118.90082 50.5021932,119.217925 C50.4571601,119.534422 50.3831331,119.738536 50.2801122,119.829051 C50.1943643,119.904378 50.0907265,119.906808 49.9661145,119.83634 C49.8421193,119.765873 49.7508193,119.646806 49.6922146,119.478534 C49.6342268,119.309654 49.6280579,119.064839 49.6737079,118.743482 C49.718741,118.428807 49.7927679,118.225908 49.8957888,118.134786 C49.9815367,118.059458 50.0857914,118.057028 50.2097866,118.128104" id="Fill-33" fill="#1D1C1B"></path>
                        <path d="M51.1637476,118.956526 C51.1341368,118.940124 51.1057598,118.937694 51.0798504,118.948628 C51.0527071,118.96017 51.0280315,118.994189 51.0058234,119.050685 C50.9780633,119.12419 50.9496863,119.259659 50.9213093,119.455875 C50.8935491,119.652091 50.8812113,119.791205 50.8861464,119.873215 C50.8910816,119.955832 50.9034194,120.014758 50.922543,120.053029 C50.9429005,120.090085 50.9669592,120.116815 50.99657,120.133216 C51.0255639,120.150226 51.0539409,120.153263 51.0804673,120.141721 C51.1076105,120.130179 51.1316693,120.09616 51.1538774,120.039057 C51.1822544,119.966159 51.2106314,119.831906 51.2383915,119.635689 C51.2667685,119.439473 51.2784894,119.299752 51.2735543,119.21835 C51.2686192,119.13634 51.2568982,119.076199 51.2377746,119.039143 C51.2180341,119.000872 51.1933584,118.972928 51.1637476,118.956526 M51.2019949,118.691056 C51.3259901,118.761524 51.4135887,118.873301 51.4666413,119.028816 C51.5301812,119.212883 51.5394345,119.463772 51.4944015,119.780877 C51.4493684,120.097983 51.3753414,120.301489 51.2723205,120.392611 C51.1865726,120.467331 51.0829348,120.469761 50.9583227,120.399901 C50.8343276,120.329433 50.7430276,120.209759 50.6844229,120.040879 C50.6264351,119.873215 50.6202662,119.627792 50.6659162,119.307042 C50.7109493,118.992367 50.7849762,118.789468 50.8879971,118.697739 C50.973745,118.623018 51.0779997,118.620589 51.2019949,118.691056" id="Fill-35" fill="#1D1C1B"></path>
                        <path d="M52.155339,119.520147 C52.1257282,119.503137 52.0973512,119.5001 52.0714418,119.511642 C52.0442986,119.523184 52.0196229,119.55781 51.9980317,119.613699 C51.9696547,119.687204 51.9412777,119.822672 51.9129007,120.018889 C51.8851405,120.215712 51.8728027,120.354218 51.8777378,120.436228 C51.882673,120.518238 51.8950108,120.578379 51.9147513,120.615435 C51.9344919,120.653099 51.9585506,120.679828 51.9881614,120.696837 C52.0171553,120.713847 52.0455323,120.716277 52.0720587,120.704127 C52.0992019,120.693193 52.1232607,120.658566 52.1454688,120.60207 C52.1738458,120.52978 52.2022228,120.394312 52.2299829,120.198703 C52.2583599,120.002487 52.2700808,119.862766 52.2651457,119.781363 C52.2602106,119.699353 52.2484896,119.639213 52.229366,119.601549 C52.2096255,119.563885 52.1849498,119.536549 52.155339,119.520147 M52.1935863,119.25407 C52.3175815,119.32393 52.4051801,119.436314 52.4582328,119.591829 C52.5217726,119.775896 52.531026,120.026786 52.4859929,120.343891 C52.4409598,120.660996 52.3669328,120.864502 52.2639119,120.955624 C52.178164,121.030345 52.0745262,121.032775 51.9499142,120.962914 C51.825919,120.892446 51.734619,120.77338 51.6760143,120.6045 C51.6180265,120.435621 51.6118576,120.190806 51.6575076,119.870056 C51.7025407,119.55538 51.7765676,119.351874 51.8795885,119.260752 C51.9653364,119.185424 52.0695911,119.183602 52.1935863,119.25407" id="Fill-37" fill="#1D1C1B"></path>
                        <path d="M53.1469304,120.082553 C53.1173196,120.066151 53.0889426,120.063721 53.0630332,120.074655 C53.03589,120.086197 53.0112143,120.120216 52.9896231,120.176712 C52.9612461,120.250217 52.9328691,120.385686 52.9044921,120.581902 C52.876732,120.778118 52.8643941,120.917232 52.8693293,120.999242 C52.8742644,121.081859 52.8872191,121.140785 52.9063427,121.179056 C52.9260833,121.216112 52.950142,121.242841 52.9797528,121.259243 C53.0087467,121.276253 53.0371237,121.27929 53.0636501,121.267141 C53.0907933,121.256206 53.1148521,121.22158 53.1370602,121.165084 C53.1654372,121.092186 53.1938142,120.957933 53.2215743,120.761716 C53.2499513,120.5655 53.2616722,120.425779 53.2567371,120.344377 C53.2524189,120.26176 53.240081,120.202226 53.2209574,120.164563 C53.2012169,120.126291 53.1765412,120.098955 53.1469304,120.082553 M53.1851777,119.817083 C53.3091729,119.886944 53.3967715,119.999328 53.4498242,120.154843 C53.513364,120.33891 53.5226174,120.589799 53.4775843,120.906904 C53.4325512,121.22401 53.3585242,121.427516 53.2555033,121.518638 C53.1697554,121.593358 53.0661176,121.595788 52.9415056,121.52532 C52.8175104,121.45546 52.7262104,121.335786 52.6676057,121.166906 C52.6096179,120.998634 52.603449,120.753819 52.649099,120.432462 C52.6941321,120.117786 52.768159,119.915495 52.8711799,119.823766 C52.9569278,119.749045 53.0611825,119.746616 53.1851777,119.817083" id="Fill-39" fill="#1D1C1B"></path>
                        <path d="M54.1391387,120.646113 C54.1095279,120.629103 54.0811509,120.626066 54.0552415,120.637608 C54.0280983,120.649758 54.0034226,120.683777 53.9818314,120.740272 C53.9534544,120.813778 53.9250774,120.948638 53.8967004,121.144855 C53.8689402,121.341679 53.8566024,121.480184 53.8615375,121.562802 C53.8664727,121.644812 53.8788105,121.704345 53.898551,121.741401 C53.9182916,121.779065 53.9423503,121.805794 53.9719611,121.822804 C54.000955,121.839813 54.029332,121.842243 54.0558584,121.830093 C54.0830016,121.819159 54.1070604,121.78514 54.1292685,121.728037 C54.1576455,121.655746 54.1860225,121.520886 54.2137826,121.324669 C54.2421596,121.128453 54.2538805,120.988732 54.2489454,120.90733 C54.2446272,120.82532 54.2322893,120.765179 54.2131657,120.728123 C54.1934252,120.689851 54.1687495,120.662515 54.1391387,120.646113 M54.177386,120.380036 C54.3013812,120.450504 54.3889798,120.562888 54.4420325,120.717796 C54.5055723,120.90247 54.5148257,121.152752 54.4697926,121.469857 C54.4247595,121.786962 54.3507325,121.991076 54.2477116,122.081591 C54.1619637,122.156311 54.0583259,122.158741 53.9337139,122.08888 C53.8097187,122.018413 53.7184187,121.899346 53.659814,121.730467 C53.6018262,121.562194 53.5956573,121.316772 53.6413073,120.996022 C53.6863404,120.681347 53.7603673,120.478448 53.8633882,120.387326 C53.9491361,120.311998 54.0533908,120.309568 54.177386,120.380036" id="Fill-41" fill="#1D1C1B"></path>
                        <path d="M55.1307918,121.208519 C55.101181,121.192117 55.072804,121.189687 55.0468946,121.200622 C55.0197513,121.212164 54.9950757,121.246183 54.9734845,121.302678 C54.9451075,121.376184 54.9167305,121.511652 54.8883535,121.707868 C54.8605933,121.904692 54.8482555,122.043198 54.8531906,122.125208 C54.8581258,122.207825 54.8710805,122.266751 54.8902041,122.305022 C54.9099447,122.342079 54.9340034,122.368808 54.9636142,122.38521 C54.9926081,122.402219 55.0209851,122.405257 55.0475115,122.393714 C55.0746547,122.382172 55.0987135,122.348153 55.1209216,122.29105 C55.1492986,122.21876 55.1776756,122.083899 55.2054357,121.887683 C55.2338127,121.691466 55.2455336,121.552353 55.2405985,121.470343 C55.2362803,121.388333 55.2239424,121.328193 55.2048188,121.291136 C55.1850783,121.252865 55.1604026,121.224921 55.1307918,121.208519 M55.1690391,120.94305 C55.2930343,121.013517 55.3806329,121.125901 55.4336855,121.280809 C55.4972254,121.464876 55.5064787,121.715766 55.4614457,122.032871 C55.4164126,122.349976 55.3423856,122.553482 55.2393647,122.644604 C55.1536168,122.719324 55.049979,122.721754 54.9253669,122.651894 C54.8013718,122.581426 54.7100718,122.461752 54.6514671,122.29348 C54.5934793,122.125208 54.5873104,121.879785 54.6329604,121.559035 C54.6779935,121.24436 54.7520204,121.041462 54.8556582,120.949732 C54.9407892,120.875012 55.0450439,120.872582 55.1690391,120.94305" id="Fill-43" fill="#1D1C1B"></path>
                        <path d="M56.1230001,121.772079 C56.0927724,121.75507 56.0643954,121.752032 56.038486,121.763574 C56.0113428,121.775116 55.9866671,121.809743 55.9650759,121.865631 C55.9366989,121.939136 55.9083219,122.074605 55.8799449,122.270821 C55.8521847,122.467645 55.8404638,122.606151 55.844782,122.688161 C55.8503341,122.77017 55.8626719,122.830311 55.8817955,122.867367 C55.9015361,122.905031 55.9255948,122.93176 55.9558225,122.94877 C55.9841995,122.965779 56.0125765,122.968209 56.0391029,122.95606 C56.0662461,122.945125 56.0903049,122.911106 56.112513,122.854003 C56.14089,122.781713 56.169267,122.646852 56.1970271,122.450635 C56.2254041,122.254419 56.237125,122.114698 56.2321899,122.033296 C56.2278717,121.951286 56.2155338,121.891145 56.1964102,121.854089 C56.1766697,121.815818 56.151994,121.788481 56.1230001,121.772079 M56.1612474,121.506002 C56.2846257,121.57647 56.3722243,121.688854 56.425277,121.843762 C56.4888168,122.027829 56.4980702,122.278718 56.4530371,122.595823 C56.408004,122.912929 56.333977,123.116435 56.231573,123.207557 C56.1452082,123.282277 56.0415704,123.284707 55.9175752,123.214847 C55.7929632,123.144379 55.7016632,123.025313 55.6436754,122.856433 C55.5850707,122.688161 55.5789018,122.442738 55.6245518,122.121988 C55.6695849,121.807313 55.7436118,121.604414 55.8472496,121.513292 C55.9323806,121.437357 56.0366353,121.435535 56.1612474,121.506002" id="Fill-45" fill="#1D1C1B"></path>
                        <path d="M41.2921264,116.042742 C41.4148878,116.112603 41.5382661,116.182463 41.6610275,116.252323 C41.652391,116.302137 41.6419039,116.350735 41.6345012,116.401764 C41.1391373,119.883846 40.6437734,123.365927 40.1484095,126.848616 C40.1410068,126.899645 40.1373055,126.951888 40.1317535,127.003524 C40.0083752,126.933664 39.8856138,126.863803 39.7628523,126.793943 C39.7714888,126.744737 39.781976,126.695531 39.7893787,126.64511 C40.2847426,123.162421 40.7801064,119.680339 41.2754703,116.19765 C41.282873,116.146622 41.2865744,116.094378 41.2921264,116.042742" id="Fill-47" fill="#FEFEFE"></path>
                        <path d="M43.6283562,128.988651 C43.5055948,128.918791 43.3822165,128.84893 43.2594551,128.77907 C43.7690075,125.195539 44.2791767,121.6114 44.7887291,118.027869 C44.9059385,118.094085 45.0231479,118.160908 45.1403573,118.227123 C45.1348053,118.295161 45.1335715,118.364414 45.1243181,118.430022 C44.8547365,120.33812 44.584538,122.246218 44.3143396,124.153709 C44.0860897,125.765356 43.8572229,127.377003 43.6283562,128.988651" id="Fill-49" fill="#FEFEFE"></path>
                        <path d="M48.3206797,120.032678 C48.4378891,120.098894 48.5550985,120.165717 48.6723079,120.231932 C48.6624376,120.298148 48.6519505,120.363756 48.6420802,120.429971 C48.239867,123.259618 47.8370368,126.088658 47.4348235,128.918305 C47.3373547,129.606581 47.2398858,130.295464 47.142417,130.98374 C47.0196556,130.91388 46.8968941,130.84402 46.7735158,130.774159 C47.2571588,127.37834 47.7408017,123.983128 48.2250616,120.587916 C48.2515879,120.400204 48.2886014,120.21796 48.3206797,120.032678" id="Fill-51" fill="#FEFEFE"></path>
                        <path d="M53.2750588,134.46485 C53.1578494,134.398635 53.04064,134.331812 52.9234306,134.265596 C53.4335999,130.681458 53.9431523,127.097927 54.4533216,123.513788 C54.570531,123.580611 54.6871234,123.646826 54.8043328,123.713649 C54.7944626,123.779257 54.7839754,123.844865 54.774722,123.911081 C54.3725088,126.740728 53.9696786,129.569767 53.5674654,132.399414 C53.4693796,133.08769 53.3725277,133.776574 53.2750588,134.46485" id="Fill-53" fill="#FEFEFE"></path>
                        <path d="M42.9430514,128.599681 C42.825842,128.532858 42.7086327,128.466642 42.5914233,128.400427 C42.6012935,128.334211 42.6117807,128.268604 42.621651,128.202388 C43.0238642,125.372741 43.4266944,122.543702 43.8289076,119.714055 C43.9263765,119.025778 44.0238453,118.336895 44.1213142,117.648619 C44.2385236,117.715442 44.3551161,117.781657 44.4723255,117.847873 C44.4667734,117.900116 44.4630721,117.952359 44.4556694,118.00278 C43.9609224,121.485469 43.4649416,124.968159 42.9695778,128.45024 C42.9621751,128.501269 42.9516879,128.549867 42.9430514,128.599681" id="Fill-55" fill="#FEFEFE"></path>
                        <path d="M42.4869835,116.721056 C42.6041929,116.787271 42.7214023,116.854094 42.8386117,116.92031 C42.8330597,116.971946 42.8287414,117.024796 42.8219556,117.075217 C42.3265917,120.557907 41.8312279,124.040596 41.3352471,127.522677 C41.3284613,127.573706 41.3179741,127.622304 41.3087208,127.672118 C41.1915114,127.605295 41.0749189,127.539079 40.9577095,127.472257 C40.966346,127.423051 40.9768331,127.373845 40.9842358,127.323424 C41.4795997,123.840734 41.9749636,120.358653 42.4703275,116.875964 C42.4777302,116.825543 42.4814315,116.772692 42.4869835,116.721056" id="Fill-57" fill="#FEFEFE"></path>
                        <path d="M46.721697,119.12498 C46.8389063,119.191196 46.9561157,119.258018 47.0733251,119.324234 C47.0677731,119.37587 47.0634549,119.428721 47.056669,119.479142 C46.5613052,122.961831 46.0659413,126.44452 45.5699605,129.926602 C45.5631747,129.97763 45.5526876,130.026229 45.5434342,130.076042 C45.4262248,130.009219 45.3096323,129.943004 45.1924229,129.876181 C45.6458382,126.700877 46.0992534,123.526181 46.5526687,120.350269 C46.6106565,119.943257 46.6655598,119.533815 46.721697,119.12498" id="Fill-59" fill="#FEFEFE"></path>
                        <path d="M51.4132185,121.788299 C51.5304279,121.854514 51.6476373,121.921337 51.7648467,121.987553 C51.7555933,122.037366 51.7451062,122.086572 51.7383204,122.136993 C51.2423396,125.619682 50.7469757,129.101764 50.2522287,132.584453 C50.244826,132.634874 50.2405078,132.687725 50.2349558,132.739361 C50.1177464,132.672538 50.0011539,132.606322 49.8839445,132.539499 C49.8894965,132.487864 49.8931979,132.43562 49.9006006,132.384592 C50.3953476,128.90251 50.8913283,125.419821 51.3866922,121.937739 C51.3940949,121.886711 51.4045821,121.838112 51.4132185,121.788299" id="Fill-61" fill="#FEFEFE"></path>
                        <path d="M54.2063182,134.993541 C54.0891088,134.927325 53.9718994,134.860503 53.8546901,134.794287 C53.8602421,134.742651 53.8645603,134.6898 53.8713461,134.639379 C54.36671,131.15669 54.8620739,127.674001 55.3580547,124.191919 C55.3648405,124.140891 55.3753276,124.092292 55.384581,124.042479 C55.5011735,124.109302 55.6183829,124.175517 55.7355923,124.24234 C55.7269558,124.291546 55.7164686,124.340752 55.7090659,124.391173 C55.213702,127.873862 54.7183382,131.355944 54.2229743,134.838633 C54.2155716,134.889662 54.2118702,134.941905 54.2063182,134.993541" id="Fill-63" fill="#FEFEFE"></path>
                        <path d="M52.5904943,122.456589 C52.7077037,122.522804 52.8249131,122.589627 52.9421225,122.655843 C52.9365704,122.707478 52.9322522,122.760329 52.9254664,122.81075 C52.4301025,126.293439 51.9347386,129.776129 51.4387579,133.25821 C51.431972,133.309239 51.4214849,133.357837 51.4122315,133.407651 C51.2950221,133.340828 51.1784296,133.274612 51.0612203,133.207789 C51.0698567,133.158583 51.0803439,133.109377 51.0877466,133.058957 C51.5831105,129.576267 52.0784743,126.094186 52.5738382,122.611496 C52.5812409,122.561075 52.5849423,122.508225 52.5904943,122.456589" id="Fill-65" fill="#FEFEFE"></path>
                        <path d="M49.287102,120.581295 C49.4043114,120.64751 49.5215207,120.714333 49.6387301,120.780548 C49.1285609,124.364687 48.6190085,127.948218 48.1088392,131.532357 C47.9922467,131.465534 47.8750373,131.399318 47.7578279,131.332495 C47.7676982,131.266887 47.7781854,131.201279 47.7874387,131.135064 C48.189652,128.305417 48.5924821,125.476377 48.9946954,122.64673 C49.0927811,121.958454 49.1896331,121.269571 49.287102,120.581295" id="Fill-67" fill="#FEFEFE"></path>
                        <path d="M53.2582177,122.835657 C53.375427,122.901872 53.4926364,122.968695 53.6098458,123.034911 C53.0996765,126.619049 52.5901242,130.20258 52.0799549,133.786719 C51.9627455,133.719896 51.846153,133.653681 51.7289436,133.586858 C51.7388139,133.52125 51.749301,133.455642 51.7585544,133.388819 C52.1607677,130.559779 52.5635978,127.73074 52.9658111,124.901093 C53.0638968,124.212817 53.1607488,123.523933 53.2582177,122.835657" id="Fill-69" fill="#FEFEFE"></path>
                        <path d="M49.7790729,120.860614 C49.8962823,120.92683 50.0134917,120.993653 50.1307011,121.059868 C50.1208308,121.126084 50.1103437,121.191692 50.1004734,121.257907 C49.6982602,124.087554 49.29543,126.916594 48.8932167,129.746241 C48.7957479,130.434517 48.698279,131.1234 48.6008102,131.811676 C48.4836008,131.744853 48.3670083,131.678638 48.2497989,131.611815 C48.2553509,131.560179 48.2590523,131.507936 48.266455,131.456907 C48.7618189,127.974826 49.2571827,124.492136 49.7525466,121.010055 C49.7599493,120.959026 49.7704365,120.910428 49.7790729,120.860614" id="Fill-71" fill="#FEFEFE"></path>
                        <path d="M44.8056319,129.657002 C44.6884226,129.590786 44.5712132,129.523963 44.4540038,129.457748 C44.4595558,129.406112 44.4638741,129.353261 44.4706599,129.30284 C44.9660237,125.820151 45.4613876,122.337462 45.9573684,118.85538 C45.9641542,118.804352 45.9746413,118.755753 45.9838947,118.70594 C46.1004872,118.772763 46.2176966,118.838978 46.334906,118.905801 C46.3059121,119.125709 46.2775351,119.346225 46.2466905,119.565525 C45.7766192,122.869615 45.3065479,126.173097 44.8364765,129.477187 C44.82784,129.537935 44.8161191,129.596861 44.8056319,129.657002" id="Fill-73" fill="#FEFEFE"></path>
                        <path d="M42.9430514,128.599681 C42.9516879,128.549867 42.9621751,128.501269 42.9695778,128.45024 C43.4649416,124.968159 43.9609224,121.485469 44.4556694,118.00278 C44.4630721,117.952359 44.4667734,117.900116 44.4723255,117.847873 C44.5778139,117.908013 44.6833024,117.968154 44.7887908,118.027687 C44.2792384,121.611826 43.7690692,125.195357 43.2595168,128.778888 C43.1540283,128.719354 43.0485399,128.659214 42.9430514,128.599681" id="Fill-75" fill="#1D1C1B"></path>
                        <path d="M53.2582177,122.835657 C53.1607488,123.523933 53.0638968,124.212817 52.9658111,124.901093 C52.5635978,127.73074 52.1607677,130.559779 51.7585544,133.388819 C51.749301,133.455642 51.7388139,133.52125 51.7289436,133.586858 C51.6234552,133.527324 51.5179667,133.467184 51.4124783,133.407651 C51.4217316,133.357837 51.4316019,133.308631 51.4390046,133.25821 C51.9349854,129.776129 52.4303493,126.293439 52.9250962,122.81075 C52.9324989,122.760329 52.9362003,122.707478 52.9417523,122.655843 C53.0472408,122.715983 53.1527292,122.775516 53.2582177,122.835657" id="Fill-77" fill="#1D1C1B"></path>
                        <path d="M54.4530748,123.51391 C53.9435224,127.097441 53.4333532,130.681579 52.9238008,134.26511 C52.8183123,134.205577 52.7128239,134.145437 52.6073354,134.085903 C52.6165888,134.03609 52.627076,133.987491 52.6338618,133.936463 C53.1298425,130.454381 53.6252064,126.971692 54.1199534,123.48961 C54.1273561,123.438582 54.1316743,123.385731 54.1366095,123.334095 L54.4530748,123.51391 Z" id="Fill-79" fill="#1D1C1B"></path>
                        <path d="M45.5436193,130.075921 C45.5528726,130.026107 45.5627429,129.977509 45.5701456,129.92648 C46.0655095,126.444398 46.5614902,122.961709 47.0562372,119.479628 C47.0636399,119.428599 47.0673413,119.376356 47.0728933,119.32472 C47.1783817,119.384253 47.2838702,119.444394 47.3893586,119.503927 C46.8798063,123.088065 46.369637,126.671596 45.8600846,130.255735 C45.7545962,130.195594 45.6491077,130.135454 45.5436193,130.075921" id="Fill-81" fill="#1D1C1B"></path>
                        <path d="M41.3089058,127.671996 C41.3175423,127.622183 41.3280295,127.573584 41.3354322,127.522556 C41.8314129,124.040474 42.3267768,120.557785 42.8215238,117.075096 C42.8289265,117.024675 42.8332447,116.972432 42.8381799,116.920796 C42.9436683,116.980329 43.0491568,117.040469 43.1546452,117.100003 C43.1453918,117.149816 43.1349047,117.198415 43.1281189,117.249443 C42.6321381,120.731525 42.1367742,124.214214 41.6420272,127.696296 C41.6346245,127.747324 41.6309232,127.799567 41.6253712,127.851811 C41.5198827,127.79167 41.4143943,127.731529 41.3089058,127.671996" id="Fill-83" fill="#1D1C1B"></path>
                        <path d="M55.3843342,124.0426 C55.3756977,124.092414 55.3652106,124.141012 55.3578079,124.192041 C54.862444,127.674123 54.3664632,131.156812 53.8717163,134.638893 C53.8643136,134.689922 53.8606122,134.742165 53.8550602,134.793801 C53.7495717,134.734268 53.6440833,134.674127 53.5385948,134.614594 C54.0487641,131.030456 54.5583165,127.446925 55.0678689,123.862786 C55.1733573,123.922927 55.2788458,123.98246 55.3843342,124.0426" id="Fill-85" fill="#1D1C1B"></path>
                        <path d="M51.4132185,121.788299 C51.4045821,121.838112 51.3940949,121.886711 51.3866922,121.937739 C50.8913283,125.419821 50.3953476,128.90251 49.9006006,132.384592 C49.8931979,132.43562 49.8894965,132.487864 49.8839445,132.539499 C49.7784561,132.479966 49.6729676,132.419826 49.5674792,132.360293 C50.0770315,128.776154 50.5872008,125.192623 51.0967532,121.608484 C51.2022417,121.668625 51.3077301,121.728158 51.4132185,121.788299" id="Fill-87" fill="#1D1C1B"></path>
                        <path d="M48.3206797,120.032678 C48.2886014,120.21796 48.2515879,120.400204 48.2250616,120.587916 C47.7408017,123.983128 47.2571588,127.37834 46.7735158,130.774159 C46.6741963,130.717664 46.5742599,130.661168 46.4749404,130.604672 C46.4835768,130.554859 46.4946809,130.50626 46.5014667,130.455232 C46.9974475,126.97315 47.4928113,123.490461 47.9875583,120.008379 C47.994961,119.957351 47.9992793,119.905107 48.0042144,119.852864 C48.1097028,119.913005 48.2151913,119.973145 48.3206797,120.032678" id="Fill-89" fill="#1D1C1B"></path>
                        <path d="M47.5299482,119.583811 C47.6292677,119.640306 47.7292042,119.696802 47.8285237,119.753298 C47.3189713,123.337436 46.808802,126.920967 46.2992497,130.505106 C46.1993132,130.448003 46.0999937,130.391507 46.0006742,130.335011 C46.0111613,130.275478 46.0228823,130.216552 46.0315187,130.155804 C46.4238617,127.397233 46.8168216,124.639268 47.2085477,121.880697 C47.3171206,121.115878 47.423226,120.349237 47.5299482,119.583811" id="Fill-91" fill="#1D1C1B"></path>
                        <path d="M42.4869835,116.721056 C42.4814315,116.772692 42.4777302,116.825543 42.4703275,116.875964 C41.9749636,120.358653 41.4795997,123.840734 40.9842358,127.323424 C40.9768331,127.373845 40.966346,127.423051 40.9577095,127.472257 C40.8577731,127.415761 40.7584535,127.359265 40.6585171,127.302769 C40.6677705,127.236554 40.676407,127.169731 40.6856603,127.103515 C41.0662824,124.426954 41.4469045,121.750392 41.8281434,119.074438 C41.9478204,118.233076 42.0681142,117.392322 42.1884081,116.551569 C42.2877276,116.608064 42.387664,116.66456 42.4869835,116.721056" id="Fill-93" fill="#1D1C1B"></path>
                        <path d="M52.5904943,122.456589 C52.5849423,122.508225 52.5812409,122.561075 52.5738382,122.611496 C52.0784743,126.094186 51.5831105,129.576267 51.0877466,133.058957 C51.0803439,133.109377 51.0698567,133.158583 51.0612203,133.207789 C50.9612838,133.151294 50.8619643,133.094798 50.7620279,133.038302 C51.2721971,129.454771 51.7817495,125.870633 52.2919188,122.287102 C52.3912383,122.343597 52.4911748,122.400093 52.5904943,122.456589" id="Fill-95" fill="#1D1C1B"></path>
                        <path d="M45.4038316,118.376867 C45.5031512,118.433363 45.6030876,118.489859 45.7024071,118.546354 C45.6968551,118.59799 45.6931538,118.650841 45.6857511,118.701262 C45.1903872,122.183951 44.6950233,125.666033 44.1996594,129.148722 C44.1922567,129.199143 44.1817696,129.248349 44.1731331,129.298162 C44.0731967,129.241059 43.9738771,129.184564 43.8745576,129.128068 C44.38411,125.544537 44.8936624,121.960398 45.4038316,118.376867" id="Fill-97" fill="#1D1C1B"></path>
                        <path d="M55.9993751,124.39172 C56.0986946,124.448216 56.198631,124.504711 56.2979505,124.561207 C55.9592771,126.947393 55.6206037,129.333579 55.2813133,131.719764 C55.1110513,132.917717 54.9395555,134.115062 54.7686765,135.313015 C54.669357,135.256519 54.5694206,135.199416 54.470101,135.14292 C54.4787375,135.076705 54.487374,135.009882 54.4966274,134.943667 C54.8772494,132.267105 55.2578715,129.590543 55.6391104,126.914589 C55.7587874,126.073228 55.8790812,125.232474 55.9993751,124.39172" id="Fill-99" fill="#1D1C1B"></path>
                        <path d="M55.2605858,135.592031 C55.1612663,135.535536 55.0613298,135.47904 54.9620103,135.422544 C54.9675623,135.370908 54.9712637,135.318057 54.9786664,135.267636 C55.4740303,131.784947 55.9693941,128.302865 56.464758,124.820176 C56.4721607,124.769755 56.4826479,124.720549 56.4912843,124.670736 C56.5906039,124.727839 56.6905403,124.783727 56.7898598,124.840831 C56.2803074,128.424362 55.7701382,132.0085 55.2605858,135.592031" id="Fill-101" fill="#1D1C1B"></path>
                        <path d="M43.5588325,117.329509 C43.6581521,117.386005 43.7580885,117.4425 43.857408,117.498996 C43.3478556,121.083135 42.8376864,124.666666 42.328134,128.250804 C42.2343665,128.197346 42.140599,128.143888 42.0468315,128.091037 C42.0560848,128.024214 42.0641044,127.957391 42.0739747,127.891176 C42.4977791,124.908443 42.9234343,121.926318 43.346005,118.942979 C43.4218826,118.407788 43.48789,117.86713 43.5588325,117.329509" id="Fill-103" fill="#1D1C1B"></path>
                        <path d="M50.3941138,121.209734 C50.4934333,121.26623 50.5933697,121.322725 50.6926893,121.379221 C50.6593771,121.57483 50.6211299,121.767401 50.5927528,121.96544 C50.2491443,124.371673 49.9073864,126.778513 49.5650116,129.184746 C49.4255941,130.164005 49.2855597,131.14205 49.1455254,132.120702 C49.0517579,132.067244 48.9586072,132.014393 48.8648397,131.960934 C49.3743921,128.377403 49.8839445,124.793265 50.3941138,121.209734" id="Fill-105" fill="#1D1C1B"></path>
                        <path d="M44.1730714,129.29792 C44.1817079,129.248106 44.192195,129.199508 44.1995977,129.148479 C44.6949616,125.666397 45.1909424,122.183708 45.6856894,118.701019 C45.6930921,118.650598 45.6967934,118.598355 45.7023454,118.546719 C45.767119,118.583168 45.8312758,118.619617 45.8960494,118.656065 C45.886796,118.705879 45.8763088,118.755085 45.869523,118.805506 C45.3735423,122.287588 44.8781784,125.770277 44.3828145,129.252966 C44.3760287,129.303387 44.3717105,129.35563 44.3661584,129.407874 C44.3020017,129.370817 44.2372281,129.334368 44.1730714,129.29792" id="Fill-107" fill="#FEFEFE"></path>
                        <path d="M56.491346,124.670979 C56.4827096,124.720792 56.4722224,124.769391 56.4648197,124.820419 C55.9694558,128.302501 55.4740919,131.78519 54.9787281,135.267272 C54.9713254,135.3183 54.967624,135.370544 54.962072,135.42218 C54.8972984,135.385731 54.8331417,135.349282 54.7683681,135.312833 C54.939247,134.11488 55.1107428,132.917535 55.2810049,131.719582 C55.6202952,129.333396 55.9589687,126.947211 56.298259,124.561025 C56.3624157,124.598081 56.4271893,124.63453 56.491346,124.670979" id="Fill-109" fill="#FEFEFE"></path>
                        <path d="M50.3941138,121.209734 C49.8839445,124.793265 49.3743921,128.377403 48.8648397,131.960934 C48.806235,131.92813 48.7476304,131.894719 48.6890257,131.861308 C49.198578,128.277776 49.7087473,124.693638 50.2182997,121.110107 C50.2769044,121.142911 50.3355091,121.176322 50.3941138,121.209734" id="Fill-111" fill="#FEFEFE"></path>
                        <path d="M55.9993751,124.39172 C55.8790812,125.232474 55.7587874,126.073228 55.6391104,126.914589 C55.2578715,129.590543 54.8772494,132.267105 54.4966274,134.943667 C54.487374,135.009882 54.4787375,135.076705 54.470101,135.14292 C54.4114963,135.110117 54.3528916,135.076705 54.2942869,135.043294 C54.3060079,134.973433 54.3195795,134.90418 54.3294498,134.833105 C54.8278981,131.319434 55.3257295,127.805764 55.823561,124.292093 C55.8821657,124.325504 55.9407704,124.358308 55.9993751,124.39172" id="Fill-113" fill="#FEFEFE"></path>
                        <path d="M49.0235042,120.431672 C49.0821089,120.465083 49.1407136,120.497887 49.1993183,120.531299 C48.689149,124.115437 48.1795967,127.698968 47.6700443,131.283107 C47.6114396,131.249696 47.5528349,131.216284 47.4942302,131.182873 C48.0037826,127.599342 48.5139519,124.015811 49.0235042,120.431672" id="Fill-115" fill="#FEFEFE"></path>
                        <path d="M41.7489962,116.302076 C41.8076009,116.335488 41.8662056,116.368292 41.9248103,116.401703 C41.9155569,116.451516 41.9056867,116.500722 41.898284,116.551143 C41.4023032,120.033225 40.9069393,123.515914 40.4121923,126.998604 C40.4047896,127.049024 40.4004714,127.101875 40.3949194,127.153511 C40.3369316,127.1201 40.2783269,127.086688 40.2197222,127.053277 C40.2252742,127.001641 40.2289756,126.949398 40.2363783,126.898369 C40.7311252,123.416287 41.227106,119.933598 41.7224699,116.451516 C41.7298726,116.400488 41.7403598,116.35189 41.7489962,116.302076" id="Fill-117" fill="#FEFEFE"></path>
                        <path d="M47.4061998,131.133241 C47.3475951,131.09983 47.2889904,131.067026 47.2303857,131.033615 C47.740555,127.449476 48.2501074,123.865945 48.7602766,120.281806 C48.8182644,120.315218 48.8768691,120.348629 48.9354738,120.382041 C48.9256036,120.447649 48.9151164,120.513257 48.905863,120.579472 C48.5036498,123.409119 48.1008196,126.238159 47.6986063,129.067806 C47.6005206,129.756082 47.5036686,130.444965 47.4061998,131.133241" id="Fill-119" fill="#FEFEFE"></path>
                        <path d="M42.1882847,116.551447 C42.0679908,117.392201 41.947697,118.232955 41.82802,119.074316 C41.4467811,121.75027 41.066159,124.426832 40.685537,127.103394 C40.6762836,127.169609 40.6676471,127.236432 40.6590106,127.302648 C40.6004059,127.269844 40.5418012,127.236432 40.4831966,127.203021 C40.4887486,127.151385 40.4924499,127.099142 40.4998526,127.048113 C40.9952165,123.565424 41.4905804,120.083342 41.9859443,116.601261 C41.993347,116.550232 42.0038341,116.501634 42.0124706,116.45182 C42.0710753,116.485232 42.12968,116.518036 42.1882847,116.551447" id="Fill-121" fill="#FEFEFE"></path>
                        <path d="M46.299188,130.504863 C46.8087404,126.920724 47.3189096,123.337193 47.828462,119.753662 C47.8870667,119.786466 47.9456714,119.819878 48.0042761,119.853289 C47.9987241,119.904925 47.9950227,119.957168 47.98762,120.008197 C47.492873,123.490886 46.9975092,126.972968 46.5015284,130.455657 C46.4941257,130.506078 46.4836385,130.554676 46.475002,130.60449 C46.4163974,130.571078 46.3577927,130.538274 46.299188,130.504863" id="Fill-123" fill="#FEFEFE"></path>
                        <path d="M42.3280723,128.250561 C42.8376247,124.666423 43.3477939,121.082892 43.8573463,117.498753 C43.915951,117.532165 43.9745557,117.565576 44.0331604,117.598988 C43.523608,121.182519 43.0134387,124.766657 42.5038864,128.350188 C42.4452817,128.316777 42.386677,128.283973 42.3280723,128.250561" id="Fill-125" fill="#FEFEFE"></path>
                        <path d="M39.6572405,126.734349 C39.6041878,126.704583 39.5517521,126.674209 39.4993163,126.644442 C39.5079528,126.594629 39.5184399,126.54603 39.5258426,126.495002 C40.0212065,123.01292 40.5165704,119.530838 41.0119343,116.048149 C41.0187201,115.997121 41.0230383,115.944877 41.0285903,115.893241 C41.087195,115.926653 41.1457997,115.959457 41.2044044,115.992868 C41.1069356,116.647733 41.0057653,117.300775 40.9119978,117.95807 C40.5036157,120.818091 40.0977011,123.678719 39.6905527,126.539348 C39.6806824,126.604956 39.6683446,126.669349 39.6572405,126.734349" id="Fill-127" fill="#FEFEFE"></path>
                        <path d="M51.8876698,122.057595 C51.9345536,122.084324 51.9814373,122.111053 52.0283211,122.137175 C51.6896476,124.513034 51.3509742,126.888285 51.0129176,129.263536 C50.8408049,130.471816 50.669926,131.680096 50.499047,132.888983 C50.4459944,132.859217 50.3935586,132.828843 50.3405059,132.799076 C50.3503762,132.732861 50.3608633,132.667253 50.3701167,132.601037 C50.8377205,129.317602 51.3040904,126.034166 51.7723111,122.750731 C51.8056232,122.516851 51.8488056,122.288438 51.8876698,122.057595" id="Fill-129" fill="#FEFEFE"></path>
                        <path d="M49.1457721,132.120763 C49.2858065,131.142111 49.4258409,130.163459 49.5646415,129.184807 C49.9076331,126.778574 50.249391,124.371734 50.5929996,121.965501 C50.6207597,121.767462 50.659007,121.574891 50.692936,121.379282 C50.7398198,121.406011 50.7867035,121.43274 50.8335873,121.458862 C50.323418,125.043 49.8138656,128.626531 49.3036964,132.21067 C49.2512606,132.180903 49.1982079,132.150529 49.1457721,132.120763" id="Fill-131" fill="#FEFEFE"></path>
                        <path d="M43.5588325,117.329509 C43.48789,117.86713 43.4218826,118.407788 43.346005,118.942979 C42.9234343,121.926318 42.4977791,124.908443 42.0739747,127.891176 C42.0641044,127.957391 42.0560848,128.024214 42.0468315,128.091037 C41.9943957,128.06127 41.941343,128.030896 41.8889072,128.00113 C42.3984596,124.417599 42.9086289,120.83346 43.4181813,117.249929 C43.465065,117.276051 43.5119488,117.30278 43.5588325,117.329509" id="Fill-133" fill="#FEFEFE"></path>
                        <path d="M55.068054,123.863029 C54.5585016,127.447168 54.0483323,131.030699 53.5387799,134.61423 C53.4918962,134.588108 53.4450124,134.561379 53.3981287,134.53465 C53.7361852,132.159399 54.0748586,129.784147 54.4129152,127.408896 C54.5850279,126.200616 54.7559069,124.991729 54.9274027,123.783449 C54.9742864,123.809571 55.0211702,123.8363 55.068054,123.863029" id="Fill-135" fill="#FEFEFE"></path>
                        <path d="M52.2917954,122.287041 C51.782243,125.870572 51.2720738,129.45471 50.7625214,133.038241 C50.7156376,133.01212 50.6687539,132.985391 50.6218701,132.958661 C50.6317404,132.892446 50.6422275,132.826838 50.6514809,132.760623 C51.0543111,129.931583 51.4565243,127.101936 51.8587376,124.272897 C51.9568233,123.58462 52.0536753,122.895737 52.1511442,122.207461 C52.1980279,122.233582 52.2449117,122.260312 52.2917954,122.287041" id="Fill-137" fill="#FEFEFE"></path>
                        <path d="M51.0969383,121.608727 C50.5873859,125.192258 50.0772166,128.776397 49.5676642,132.359928 C49.5207805,132.333806 49.4738967,132.307077 49.427013,132.280348 C49.4356494,132.230535 49.4461366,132.181936 49.4535393,132.130908 C49.9489032,128.648826 50.4442671,125.166137 50.9396309,121.684055 C50.9470336,121.633027 50.950735,121.580783 50.956287,121.529147 C51.0031708,121.555269 51.0500545,121.581998 51.0969383,121.608727" id="Fill-139" fill="#FEFEFE"></path>
                        <path d="M54.1367945,123.334399 C54.1312425,123.386035 54.1275412,123.438278 54.1201385,123.489307 C53.6253915,126.971996 53.1294107,130.454078 52.6340468,133.936767 C52.6266441,133.987188 52.616157,134.036394 52.6075205,134.0856 C52.5606367,134.059478 52.513753,134.032749 52.4668692,134.00602 C52.4755057,133.956206 52.4859929,133.907608 52.4933956,133.856579 C52.9887594,130.374498 53.4841233,126.891808 53.9794872,123.409727 C53.9868899,123.358698 53.9905913,123.306455 53.9961433,123.254819 C54.043027,123.280941 54.0899108,123.30767 54.1367945,123.334399" id="Fill-141" fill="#FEFEFE"></path>
                        <path d="M52.3437377,133.93622 C52.2968539,133.909491 52.2499702,133.882762 52.2030864,133.85664 C52.2123398,133.806827 52.2222101,133.757621 52.2296128,133.7072 C52.7255935,130.225118 53.2209574,126.742429 53.7157044,123.25974 C53.7231071,123.209319 53.7268084,123.156468 53.7323605,123.104832 C53.7792442,123.131561 53.826128,123.15829 53.8730117,123.185019 C53.3634593,126.76855 52.8532901,130.352081 52.3437377,133.93622" id="Fill-143" fill="#FEFEFE"></path>
                        <path d="M55.2605858,135.592031 C55.7701382,132.0085 56.2803074,128.424362 56.7898598,124.840831 C56.8367436,124.866952 56.8836273,124.893681 56.9305111,124.920411 C56.4209587,128.503942 55.9107894,132.08808 55.4012371,135.671611 C55.3543533,135.64549 55.3074695,135.61876 55.2605858,135.592031" id="Fill-145" fill="#FEFEFE"></path>
                        <path d="M41.6251861,127.851568 C41.6307381,127.799932 41.6344395,127.747081 41.6418422,127.69666 C42.1365892,124.213971 42.6325699,120.731282 43.1279338,117.2492 C43.1353365,117.198779 43.1458237,117.149573 43.1544601,117.09976 C43.2013439,117.126489 43.2482277,117.153218 43.2951114,117.179947 C43.2864749,117.229761 43.2759878,117.278359 43.2685851,117.329387 C42.7732212,120.811469 42.2778573,124.294158 41.7824934,127.77624 C41.7750907,127.827268 41.7713894,127.879512 41.7658374,127.931148 C41.7189536,127.904419 41.6720699,127.878297 41.6251861,127.851568" id="Fill-147" fill="#FEFEFE"></path>
                        <path d="M45.4038316,118.376867 C44.8936624,121.960398 44.38411,125.544537 43.8745576,129.128068 C43.8276738,129.101946 43.7807901,129.075217 43.7339063,129.048488 C43.7425428,128.998674 43.75303,128.950076 43.7604327,128.899047 C44.2557966,125.416966 44.7511604,121.934276 45.2465243,118.452195 C45.253927,118.401166 45.2576284,118.348923 45.2631804,118.297287 C45.3100641,118.323409 45.3569479,118.350138 45.4038316,118.376867" id="Fill-149" fill="#FEFEFE"></path>
                        <path d="M45.0692297,129.806624 C45.0223459,129.779895 44.9754622,129.753166 44.9285784,129.727044 C44.9372149,129.677231 44.9477021,129.628025 44.9551048,129.577604 C45.4510855,126.094915 45.9464494,122.612833 46.4411964,119.130144 C46.4485991,119.079723 46.4529173,119.026872 46.4578525,118.975236 C46.5047362,119.001965 46.55162,119.028694 46.5985037,119.055424 C46.5886335,119.121031 46.5781463,119.186639 46.5688929,119.252855 C46.1666797,122.082502 45.7638495,124.911541 45.3616363,127.741188 C45.2635505,128.429465 45.1666985,129.118348 45.0692297,129.806624" id="Fill-151" fill="#FEFEFE"></path>
                        <path d="M47.5299482,119.583811 C47.423226,120.349237 47.3171206,121.115878 47.2085477,121.880697 C46.8168216,124.639268 46.4238617,127.397233 46.0315187,130.155804 C46.0228823,130.216552 46.0111613,130.275478 46.0006742,130.335011 C45.9537904,130.30889 45.9069067,130.28216 45.8600229,130.255431 C46.3695753,126.6719 46.8797446,123.087762 47.3892969,119.504231 C47.4361807,119.530352 47.4830645,119.557081 47.5299482,119.583811" id="Fill-153" fill="#FEFEFE"></path>
                        <path d="M40.7649926,115.743497 C40.8118763,115.770226 40.8587601,115.796956 40.9056439,115.823077 C40.3954746,119.407216 39.8859222,122.990747 39.3757529,126.574885 C39.3294861,126.548156 39.2826023,126.521427 39.2357186,126.494698 C39.244355,126.445492 39.2548422,126.396286 39.2622449,126.345865 C39.7576088,122.863176 40.2529726,119.381094 40.7483365,115.898405 C40.7551223,115.847377 40.7594406,115.795133 40.7649926,115.743497" id="Fill-155" fill="#FEFEFE"></path>
                        <path d="M49.7790729,120.860614 C49.7704365,120.910428 49.7599493,120.959026 49.7525466,121.010055 C49.2571827,124.492136 48.7618189,127.974826 48.266455,131.456907 C48.2590523,131.507936 48.2553509,131.560179 48.2497989,131.611815 C48.2029152,131.585693 48.1560314,131.558964 48.1091476,131.532235 C48.6187,127.948704 49.1288693,124.364565 49.6384217,120.781034 C49.6853054,120.807156 49.7321892,120.833885 49.7790729,120.860614" id="Fill-157" fill="#1D1C1B"></path>
                        <path d="M40.7649926,115.743497 C40.7594406,115.795133 40.7551223,115.847377 40.7483365,115.898405 C40.2529726,119.381094 39.7576088,122.863176 39.2622449,126.345865 C39.2548422,126.396286 39.244355,126.445492 39.2357186,126.494698 C39.1943868,126.471614 39.153672,126.448529 39.1123403,126.424838 C39.1215936,126.358622 39.1296132,126.291799 39.1394835,126.225584 C39.5416967,123.395937 39.94391,120.566897 40.3467402,117.73725 C40.4448259,117.048974 40.5435285,116.361913 40.6422312,115.673637 C40.682946,115.696721 40.7242778,115.720413 40.7649926,115.743497" id="Fill-159" fill="#1D1C1B"></path>
                        <path d="M54.9275261,123.783267 C54.7560302,124.991547 54.5851513,126.200434 54.4130386,127.408714 C54.074982,129.783965 53.7363086,132.159216 53.398252,134.534467 C53.3569203,134.511383 53.3162055,134.488299 53.2748737,134.464607 C53.3723426,133.776331 53.4691946,133.087447 53.5672803,132.399779 C53.9694936,129.570132 54.3723237,126.740485 54.774537,123.911445 C54.7844072,123.84523 54.7948944,123.779622 54.8047647,123.713406 C54.8454795,123.736491 54.8868112,123.760182 54.9275261,123.783267" id="Fill-161" fill="#1D1C1B"></path>
                        <path d="M41.7657757,127.93133 C41.7713277,127.879694 41.7756459,127.826843 41.7824318,127.776422 C42.2777956,124.293733 42.7731595,120.811651 43.2685234,117.328962 C43.2759261,117.278541 43.2864132,117.229335 43.2950497,117.180129 C43.3363815,117.203214 43.3770963,117.226298 43.418428,117.24999 C42.9082587,120.833521 42.3987064,124.417052 41.8885371,128.00119 C41.8478223,127.978106 41.8064905,127.954414 41.7657757,127.93133" id="Fill-163" fill="#1D1C1B"></path>
                        <path d="M52.3437377,133.93622 C52.8532901,130.352081 53.3634593,126.76855 53.8730117,123.185019 C53.9143435,123.208104 53.9550583,123.231188 53.99639,123.254272 C53.990838,123.306516 53.9865198,123.358759 53.979734,123.40918 C53.4843701,126.891869 52.9890062,130.374558 52.4930254,133.85664 C52.4862396,133.907668 52.4757525,133.956267 52.4664991,134.00608 C52.4257843,133.982996 52.3844525,133.959304 52.3437377,133.93622" id="Fill-165" fill="#1D1C1B"></path>
                        <path d="M50.9563487,121.528904 C50.9507967,121.58054 50.9470953,121.633391 50.9396926,121.683812 C50.4443287,125.166501 49.9489649,128.648583 49.453601,132.131272 C49.4461983,132.181693 49.4357111,132.230899 49.4270747,132.280105 C49.3857429,132.257021 49.3450281,132.233936 49.3036964,132.210852 C49.8138656,128.626714 50.323418,125.043183 50.8335873,121.459044 C50.8743021,121.482128 50.9156339,121.50582 50.9563487,121.528904" id="Fill-167" fill="#1D1C1B"></path>
                        <path d="M53.7326689,123.104953 C53.7271169,123.156589 53.7227986,123.208833 53.7160128,123.259861 C53.220649,126.74255 52.7252851,130.224632 52.2299212,133.707321 C52.2225185,133.757742 52.2120314,133.806948 52.2033949,133.856154 C52.1620631,133.83307 52.1213483,133.809985 52.0800166,133.786294 C52.5901858,130.202763 53.0997382,126.619232 53.6099075,123.035093 C53.6506223,123.058177 53.6919541,123.081869 53.7326689,123.104953" id="Fill-169" fill="#1D1C1B"></path>
                        <path d="M46.4580992,118.975358 C46.4525472,119.026993 46.4488458,119.079237 46.4414432,119.130265 C45.9460793,122.612954 45.4507154,126.095036 44.9553515,129.577725 C44.9479488,129.628146 44.9374617,129.677352 44.9288252,129.726558 C44.8874935,129.703474 44.8467786,129.68039 44.8054469,129.656698 C44.815934,129.597165 44.827655,129.538239 44.8362915,129.476883 C45.3069797,126.173401 45.777051,122.869311 46.2465054,119.565222 C46.2779669,119.346528 46.305727,119.125405 46.3353378,118.905497 C46.3760527,118.928581 46.4173844,118.952273 46.4580992,118.975358" id="Fill-171" fill="#1D1C1B"></path>
                        <path d="M45.0692297,129.806624 C45.1666985,129.118348 45.2635505,128.429465 45.3616363,127.741188 C45.7638495,124.911541 46.1666797,122.082502 46.5688929,119.252855 C46.5781463,119.186639 46.5886335,119.121031 46.5985037,119.055424 C46.6398355,119.078508 46.6805503,119.101592 46.721882,119.124676 C46.665128,119.533511 46.6108416,119.942953 46.5528538,120.350573 C46.0994385,123.525877 45.6460232,126.701181 45.1919911,129.876485 C45.1512763,129.8534 45.1099445,129.829708 45.0692297,129.806624" id="Fill-173" fill="#1D1C1B"></path>
                        <path d="M52.1512059,122.207218 C52.053737,122.895494 51.956885,123.584377 51.8587993,124.272654 C51.456586,127.102301 51.0537559,129.93134 50.6515426,132.760987 C50.6422892,132.827203 50.6318021,132.89281 50.6219318,132.958418 C50.5806001,132.935334 50.5398852,132.91225 50.4985535,132.888558 C50.6700493,131.680278 50.8409283,130.471391 51.013041,129.263718 C51.3510976,126.88786 51.689771,124.512609 52.0284444,122.137357 C52.0691593,122.160442 52.110491,122.184133 52.1512059,122.207218" id="Fill-175" fill="#1D1C1B"></path>
                        <path d="M39.3760614,126.574764 C39.8862306,122.991233 40.395783,119.407094 40.9053354,115.823563 C40.9466671,115.846648 40.987382,115.869732 41.0287137,115.893424 C41.0231617,115.945059 41.0188434,115.997303 41.0120576,116.048331 C40.5166938,119.530413 40.0213299,123.013102 39.5253491,126.495184 C39.5185633,126.546212 39.5080762,126.594811 39.4988228,126.644624 C39.4581079,126.62154 39.4167762,126.597848 39.3760614,126.574764" id="Fill-177" fill="#1D1C1B"></path>
                        <path d="M51.8876698,122.057595 C51.8488056,122.288438 51.8056232,122.516851 51.7723111,122.750731 C51.3040904,126.034166 50.8377205,129.317602 50.3701167,132.601037 C50.3608633,132.667253 50.3503762,132.732861 50.3405059,132.799076 C50.3053431,132.779029 50.2701803,132.758982 50.2350175,132.739543 C50.2405695,132.6873 50.2448877,132.635056 50.2516735,132.584635 C50.7470374,129.101946 51.2424013,125.619257 51.7377652,122.137175 C51.7451679,122.086147 51.755655,122.037548 51.7649084,121.987735 C51.8056232,122.010819 51.846955,122.034511 51.8876698,122.057595" id="Fill-179" fill="#1D1C1B"></path>
                        <path d="M45.2632421,118.297105 C45.25769,118.348741 45.2539887,118.400984 45.246586,118.452013 C44.7512221,121.934702 44.2558582,125.416783 43.7604944,128.899473 C43.7530917,128.949894 43.7426045,128.9991 43.733968,129.048306 C43.6988052,129.028259 43.6636424,129.008819 43.6284796,128.988772 C43.8573463,127.377125 44.0862131,125.765478 44.3144629,124.15383 C44.5846614,122.245732 44.8548599,120.338241 45.1244415,118.430143 C45.1336949,118.364535 45.1349286,118.294675 45.1404807,118.227245 C45.1811955,118.250329 45.2225272,118.274021 45.2632421,118.297105" id="Fill-181" fill="#1D1C1B"></path>
                        <path d="M39.6572405,126.734349 C39.6683446,126.669349 39.6806824,126.604956 39.6905527,126.539348 C40.0977011,123.678719 40.5036157,120.818091 40.9119978,117.95807 C41.0057653,117.300775 41.1069356,116.647733 41.2044044,115.992868 C41.2333983,116.00927 41.2630091,116.02628 41.292003,116.042682 C41.286451,116.094318 41.2827496,116.147168 41.2753469,116.197589 C40.7799831,119.680279 40.2846192,123.16236 39.7892553,126.64505 C39.7818526,126.69547 39.7713654,126.744676 39.762729,126.793882 C39.7275661,126.774443 39.6924033,126.754396 39.6572405,126.734349" id="Fill-183" fill="#1D1C1B"></path>
                        <path d="M55.8236227,124.291971 C55.3257912,127.805642 54.8273429,131.319313 54.3295114,134.832984 C54.3196412,134.904059 54.3060696,134.973312 54.2943486,135.043172 C54.2647378,135.02677 54.2357439,135.010368 54.2061331,134.993359 C54.2116852,134.941723 54.2160034,134.889479 54.2227892,134.838451 C54.7181531,131.356369 55.213517,127.87368 55.7094977,124.391598 C55.7162835,124.34057 55.7267707,124.291971 55.7360241,124.242158 C55.765018,124.25856 55.7946288,124.275569 55.8236227,124.291971" id="Fill-185" fill="#1D1C1B"></path>
                        <path d="M41.7489962,116.302076 C41.7403598,116.35189 41.7298726,116.400488 41.7224699,116.451516 C41.227106,119.933598 40.7311252,123.416287 40.2363783,126.898369 C40.2289756,126.949398 40.2252742,127.001641 40.2197222,127.053277 C40.1901114,127.036875 40.1611175,127.020473 40.1315067,127.003463 C40.1370587,126.951827 40.141377,126.899584 40.1481628,126.848556 C40.6435267,123.366474 41.1388905,119.883785 41.6342544,116.401703 C41.6416571,116.350675 41.6521443,116.302076 41.6613976,116.252263 C41.6903915,116.268665 41.7193854,116.285674 41.7489962,116.302076" id="Fill-187" fill="#1D1C1B"></path>
                        <path d="M42.0125323,116.451699 C42.0038958,116.501512 41.9934086,116.550111 41.9860059,116.601139 C41.4906421,120.083221 40.9952782,123.56591 40.4999143,127.048599 C40.4925116,127.09902 40.4888103,127.151264 40.4832582,127.202899 C40.4536474,127.186497 40.4246535,127.170095 40.3950428,127.153086 C40.4005948,127.10145 40.404913,127.049207 40.4116988,126.998178 C40.9070627,123.516097 41.4024266,120.033407 41.8984074,116.551326 C41.9051932,116.500297 41.9156803,116.451699 41.9249337,116.401885 C41.9539276,116.418287 41.9835384,116.435297 42.0125323,116.451699" id="Fill-189" fill="#1D1C1B"></path>
                        <path d="M42.503763,128.35031 C43.0133154,124.766171 43.5234846,121.18264 44.033037,117.598502 C44.0626478,117.615511 44.0916417,117.631913 44.1212525,117.648923 C44.0237837,118.337199 43.9269317,119.026082 43.8288459,119.714358 C43.4266327,122.543398 43.0238025,125.373045 42.6215893,128.202084 C42.611719,128.2683 42.6012318,128.333908 42.5913616,128.400123 C42.5623677,128.383721 42.5327569,128.366712 42.503763,128.35031" id="Fill-191" fill="#1D1C1B"></path>
                        <path d="M44.3663435,129.407631 C44.3718955,129.355995 44.3755969,129.303751 44.3829996,129.252723 C44.8783635,125.770034 45.3737273,122.287952 45.8690912,118.805263 C45.8764939,118.754842 45.8869811,118.705636 45.8956175,118.65643 C45.9252283,118.672832 45.9542222,118.689234 45.983833,118.706243 C45.9745797,118.755449 45.9640925,118.804655 45.9573067,118.855076 C45.4613259,122.337765 44.9659621,125.819847 44.4712151,129.302536 C44.4638124,129.353565 44.4594941,129.405808 44.4539421,129.457444 C44.4249482,129.441042 44.3959543,129.424033 44.3663435,129.407631" id="Fill-193" fill="#1D1C1B"></path>
                        <path d="M48.7599682,120.282049 C48.2497989,123.86558 47.7402465,127.449719 47.2306941,131.03325 C47.2010834,131.016848 47.1720894,131.000446 47.1424787,130.983437 C47.2399475,130.29516 47.3367995,129.606277 47.4348852,128.918001 C47.8370985,126.088961 48.2399286,123.259314 48.6421419,120.430275 C48.6520122,120.364059 48.6618824,120.297844 48.6723696,120.232236 C48.7013635,120.248638 48.7303574,120.265647 48.7599682,120.282049" id="Fill-195" fill="#1D1C1B"></path>
                        <path d="M47.4061998,131.133241 C47.5036686,130.444965 47.6005206,129.756082 47.6986063,129.067806 C48.1008196,126.238159 48.5036498,123.409119 48.905863,120.579472 C48.9151164,120.513257 48.9256036,120.447649 48.9354738,120.382041 C48.9650846,120.398443 48.9940785,120.414845 49.0236893,120.431854 C48.51352,124.015385 48.0039676,127.599524 47.4937984,131.183055 C47.4648045,131.166653 47.4358106,131.149643 47.4061998,131.133241" id="Fill-197" fill="#1D1C1B"></path>
                        <path d="M47.6697975,131.282864 C48.1793499,127.699333 48.6895192,124.115194 49.1990716,120.531663 C49.2286823,120.548065 49.2576762,120.564467 49.287287,120.581477 C49.1898182,121.269753 49.0923493,121.958636 48.9948805,122.646913 C48.5926672,125.475952 48.1898371,128.305599 47.7870069,131.134639 C47.7777535,131.200854 47.7672664,131.26707 47.7573961,131.332677 C47.7284022,131.316275 47.6987914,131.299266 47.6697975,131.282864" id="Fill-199" fill="#1D1C1B"></path>
                        <path d="M50.2183614,121.109985 C49.708809,124.693516 49.1986397,128.277655 48.6890873,131.861186 C48.6594766,131.844784 48.6304827,131.828382 48.6008719,131.811373 C48.6983407,131.123096 48.7951927,130.434213 48.8932784,129.745937 C49.2954917,126.916897 49.6983219,124.08725 50.1005351,121.258211 C50.1104054,121.191995 50.1202756,121.12578 50.1307628,121.060172 C50.1597567,121.076574 50.1893675,121.093583 50.2183614,121.109985" id="Fill-201" fill="#1D1C1B"></path>
                        <path d="M40.6419844,115.673698 C40.5432818,116.361366 40.4445791,117.049035 40.3471103,117.737311 C39.9442801,120.566958 39.54145,123.395998 39.1392367,126.225645 C39.1299833,126.29186 39.1213469,126.358683 39.1127104,126.424898 C39.1016063,126.413356 39.0812489,126.399384 39.0812489,126.390272 C39.0818658,126.353823 39.0898854,126.318589 39.0948205,126.282748 C39.5932689,122.780619 40.0911003,119.278491 40.5913993,115.776969 C40.5969513,115.738698 40.5735095,115.624492 40.6419844,115.673698" id="Fill-203" fill="#FEFEFE"></path>
                        <g id="Group-209">
                            <mask id="mask-2" fill="white">
                                <use xlink:href="#path-1"></use>
                            </mask>
                            <g id="Clip-208"></g>
                            <path d="M0.671116268,114.352366 L59.0167148,147.523871 L101.640833,123.290235 L97.0345044,98.434538 L97.0357382,98.4011265 L99.4749272,34.4455154 L41.1348807,1.27643931 L26.9291032,12.2268938 L3.34719162,22.4872497 L5.48903892,82.0258658 L0.671116268,114.352366 Z M59.0167148,148.225512 L58.8624919,148.137427 L-6.16891507e-05,114.672508 L4.87523187,81.9924543 L2.71611161,22.0984618 L26.6447162,11.6868431 L41.082445,0.545639532 L100.104773,34.1022885 L100.097988,34.2851403 L97.6538635,98.3907994 L102.326817,123.60248 L102.138048,123.70879 L59.0167148,148.225512 Z" id="Fill-207" fill="#654322" mask="url(#mask-2)"></path>
                        </g>
                    </g>
                </g>
            </g>
        </g>
    </g>
</svg>