<?xml version="1.0" encoding="utf-8"?>
<!-- Generator: Adobe Illustrator 18.0.0, SVG Export Plug-In . SVG Version: 6.00 Build 0)  -->
<!DOCTYPE svg PUBLIC "-//W3C//DTD SVG 1.1//EN" "http://www.w3.org/Graphics/SVG/1.1/DTD/svg11.dtd">
<svg version="1.1" id="Layer_1" xmlns="http://www.w3.org/2000/svg" xmlns:xlink="http://www.w3.org/1999/xlink" x="0px" y="0px"
	 viewBox="0 0 213 314" enable-background="new 0 0 213 314" xml:space="preserve">
<polygon fill="#654322" points="207.9,70.8 85.2,0 207.9,70.8 "/>
<polygon fill="#795027" points="212.3,259.4 202.8,206.9 207.9,70.8 207.9,70.8 85.2,0 85.2,74.1 85.2,91.3 85.2,91.3 85.2,191.9 
	212.5,260.1 "/>
<polygon fill="#412A18" points="5.6,45.4 5.6,45.4 5.6,45.4 "/>
<polygon fill="#412A18" points="5.6,45.4 5.6,45.4 5.6,45.4 "/>
<polygon fill="#58381D" points="5.6,45.4 5.6,45.4 5.6,45.4 5.6,45.4 5.6,45.4 10.1,172.2 0,241.1 55.3,209.2 55.3,74.1 55.3,45.4 
	55.3,23.4 55.3,23.4 "/>
<polygon fill="#885B37" points="85.2,191.9 55.3,209.2 0,241.1 47.2,268.4 122.7,311.9 212.5,260.1 "/>
<polygon fill="#653C19" points="55.3,23.4 55.3,23.4 55.3,45.4 55.3,74.1 55.3,209.2 85.2,191.9 85.2,91.3 85.2,91.3 85.2,74.1 
	85.2,0 85.2,0 "/>
<g>
	<path fill="#338A6A" d="M101.1,139.3c0-0.1,0-0.2,0-0.3c0-1-0.1-1.6-0.2-2.5c0-0.1,0-0.2-0.1-0.4c0-0.1,0-0.1,0-0.2
		c0-0.1,0-0.2,0-0.3c0,0,0,0,0,0c-0.1-0.8-0.3-1.7-0.5-2.5c0,0,0,0,0-0.1c0-0.1-0.1-0.3-0.1-0.4c0-0.1,0-0.2-0.1-0.3
		c0-0.1,0-0.2-0.1-0.2c0-0.1,0-0.1,0-0.2c0-0.1-0.1-0.2-0.1-0.3c0,0,0-0.1,0-0.1c-0.6-4.3-1.6-7.3-3.2-10.3c0-0.1-0.1-0.2-0.1-0.2
		c-0.2-0.5-0.4-1.1-0.6-1.6l0,0c0,0,0,0,0,0c0,0,0,0,0,0c-0.1-0.3-0.3-0.8-0.6-1.5c-0.1-0.1-0.1-0.3-0.2-0.4
		c-0.2-0.6-0.5-1.3-0.7-1.9l0,0c-0.1-0.2-0.2-0.4-0.2-0.6c-0.2-0.4-0.3-0.8-0.5-1.3l-0.7-1.9c-0.2-0.6-0.5-1.3-0.7-1.8c0,0,0,0,0,0
		v0c-0.2-0.4-0.4-0.9-0.6-1.4c-0.7-1.8-1.5-3.7-2.2-5.5c-1-2.7-2.2-6.2-3.4-9.9C85.1,88,83.4,83,82,78c-1.3-5.4-2.4-10.4-2.7-14.1
		c0-0.1,0-0.2,0-0.3c-0.1-0.5-0.1-1-0.1-1.4c0-0.2,0-0.3,0-0.5l0,0c0-0.1,0-0.1,0-0.1c0.1-0.1,0.1-0.2,0.2-0.2c0,0,0,0,0,0
		c0,0,0-0.1,0-0.2c0,0,0-0.1,0.1-0.1c0.2-0.4,0.3-0.4,0.3-0.3c0,0,0,0,0,0c0-0.1,0-0.1,0-0.2l0-0.2c0,0-0.1,0.1-0.1,0.1
		c0-0.1,0.1-0.2,0.1-0.2c0-0.1,0.1-0.1,0.1-0.2c0,0,0,0,0,0c0,0,0,0,0.1,0c0,0,0,0,0.1-0.1l0-0.2c0,0,0,0.1-0.1,0.1c0,0,0-0.1,0-0.1
		c0-0.1,0.1-0.1,0.1-0.2c0,0,0-0.1,0-0.1c0,0,0,0,0,0c0,0,0,0,0,0c0,0,0-0.1,0-0.1l0,0l0-0.2c0,0,0,0,0,0c0,0,0,0,0-0.1c0,0,0,0,0,0
		l0,0c0,0,0,0,0,0c0,0,0,0,0,0l0,0c0,0,0,0,0,0c0-0.1,0-0.2,0-0.3c0,0,0,0,0,0c0,0,0,0,0,0l0-0.3l0-0.3c0,0,0,0,0,0c0,0,0,0,0,0
		l0-0.3l0-0.3l0,0c0,0,0,0,0,0l0,0l0-0.1l0,0l0-0.3l0-0.3c0,0,0,0,0,0c0,0,0,0,0,0l0,0c0-0.1,0-0.1,0-0.2l0-0.1l0-0.3c0,0,0,0,0,0
		c0,0,0,0,0,0l0-0.1c0-0.1,0-0.1,0-0.2l0,0l0-0.3c0,0,0,0,0,0c0,0,0,0,0,0l0-0.3l0,0c0,0,0,0,0,0L80.3,55c0,0,0,0,0,0c0,0,0,0,0,0
		l-0.1-0.4l-0.1-0.4c0-0.1,0-0.1,0-0.2l0,0c0,0,0,0,0,0c0,0,0,0,0,0l0,0c0,0,0,0,0-0.1c0,0,0,0,0-0.1l0-0.1c0,0,0-0.1,0-0.1l0.1-0.1
		c0,0,0,0,0,0c0-0.1,0.1-0.1,0.1-0.2c0,0,0,0,0,0c0-0.1,0.1-0.2,0.1-0.2l0.1-0.2c0,0,0,0,0,0c0,0,0,0,0,0l0,0c0,0,0,0,0-0.1l0,0
		c0-0.1,0-0.1,0-0.1l0-0.1c0,0,0-0.1,0-0.1c0,0,0-0.1,0-0.1c0-0.1,0-0.2,0-0.3l0,0c0,0,0,0,0,0c0.1-1.2-0.2-2.4-0.8-3.5
		c-0.1-0.2-0.1-0.3-0.2-0.4l-0.3-0.5c-0.1-0.1-0.1-0.2-0.2-0.3c0,0,0,0-0.1-0.1c0,0,0,0,0,0c0,0,0,0,0,0c0-0.1-0.1-0.1-0.1-0.2
		c0,0,0,0,0,0c0,0,0,0,0,0l0,0c-0.1-0.1-0.2-0.3-0.4-0.5l-0.2-0.2c0,0,0,0-0.1-0.1L78.1,46c-0.1-0.1-0.2-0.1-0.3-0.2c0,0,0,0,0,0
		c-0.1-0.1-0.2-0.1-0.3-0.2l-0.1-0.1c-0.1-0.1-0.2-0.2-0.4-0.2c0,0,0,0,0,0c-0.1,0-0.1-0.1-0.2-0.1c-0.1-0.1-0.2-0.1-0.3-0.2
		c0,0,0,0,0,0c0,0,0,0,0,0c0,0,0,0-0.1,0l-0.2-0.1c-0.2-0.1-0.4-0.2-0.6-0.3c-0.1,0-0.2-0.1-0.3-0.1c0,0,0,0,0,0l-0.1,0
		c0,0,0,0-0.1,0l-0.1,0c-0.2-0.1-0.4-0.2-0.6-0.2c-0.1,0-0.3-0.1-0.5-0.1c-0.1,0-0.1,0-0.1,0c0,0,0,0,0,0c-0.2,0-0.3-0.1-0.5-0.1
		c-0.2,0-0.4-0.1-0.6-0.1c-0.1,0-0.2-0.1-0.4-0.1c-0.1,0-0.2,0-0.3,0c0,0,0.1,0,0.1,0c-0.2,0-0.3,0-0.5,0c0,0-0.1,0-0.1,0
		c0,0-0.1,0-0.1,0c-0.1,0-0.3,0-0.4,0c0,0-0.1,0-0.1,0c-0.1,0-0.3,0-0.4,0l-0.4,0c-0.2,0-0.4,0-0.6,0l-0.1,0c-0.1,0-0.2,0-0.3,0
		l-0.2,0c-0.1,0-0.2,0-0.3,0c0,0-0.1,0-0.1,0c-0.1,0-0.1,0-0.2,0l-0.3,0.1c-0.1,0-0.1,0-0.2,0l-0.1,0c0,0-0.1,0-0.1,0
		c0,0-0.1,0-0.1,0c-0.1,0-0.3,0.1-0.4,0.1l0,0c0,0-0.1,0-0.1,0l-0.1,0c-0.1,0-0.2,0-0.2,0.1c0,0,0,0-0.1,0c0,0,0,0,0,0l-0.1,0
		c-0.1,0-0.1,0-0.2,0.1c-0.3,0.1-0.6,0.2-0.8,0.3c0,0-0.1,0-0.1,0c-0.4,0.2-0.6,0.3-0.9,0.5c-0.1,0-0.1,0.1-0.2,0.1
		c-0.1,0.1-0.2,0.1-0.2,0.2c-0.2,0.1-0.3,0.2-0.4,0.3c0,0-0.1,0.1-0.1,0.1c0,0,0,0,0,0c0,0-0.1,0.1-0.1,0.1c0,0-0.1,0-0.1,0.1
		c0,0-0.1,0-0.1,0.1L63.1,46c0,0-0.1,0-0.1,0.1c0,0,0,0,0,0c-0.1,0.1-0.2,0.2-0.3,0.3c0,0-0.1,0.1-0.1,0.1c0,0,0,0-0.1,0.1
		c-0.1,0.1-0.1,0.1-0.2,0.2l0,0l0,0l0,0l0,0c0,0,0,0,0,0c0,0,0,0,0,0c-0.2,0.2-0.4,0.5-0.5,0.7c-0.1,0.1-0.1,0.2-0.2,0.3l0,0.1
		c0,0-0.1,0.1-0.1,0.1c0,0,0,0.1,0,0.1l-0.1,0.1c0,0,0,0.1,0,0.1c0,0,0,0,0,0.1c0,0,0,0.1-0.1,0.1l0,0.1c0,0,0,0,0,0c0,0,0,0,0,0
		c0,0,0,0.1-0.1,0.2c-0.2,0.6-0.4,1.1-0.4,1.7c0,0,0,0,0,0c0,0,0,0,0,0c0,0,0,0.1,0,0.1l0,0.1c0,0,0,0,0,0.1c0,0,0,0.1,0,0.1
		c0,0.1,0,0.1,0,0.1c0,0,0,0,0,0.1c0,0,0,0.1,0,0.1c0,0.3,0,0.5,0,0.6c0,0.1,0,0.2,0,0.3c0,0,0,0.1,0,0.1l0,0c0,0.1,0,0.1,0,0.2
		c0,0,0,0,0,0.1c0,0,0,0,0,0c0,0.1,0,0.1,0,0.2c0,0,0,0,0,0l0,0c0,0.1,0,0.2,0.1,0.4l0,0c0,0.1,0,0.1,0.1,0.2l0.1,0.2c0,0,0,0,0,0
		c0,0.1,0.1,0.1,0.1,0.2c0,0,0,0,0,0.1l0,0c0,0,0,0,0,0l0,0.1c0,0,0,0.1,0,0.1c0,0,0,0,0,0l0,0l0,0.1l0,0.2c0,0.1-0.1,0.3-0.1,0.4
		l-0.1,0.4c0,0,0,0,0,0c0,0,0,0,0,0l-0.1,0.3l0,0.3c0,0,0,0,0,0c0,0,0,0,0,0l0,0.3l0,0.3c0,0,0,0,0,0c0,0,0,0,0,0l0,0.3l0,0.1
		c0,0,0,0,0,0.1c0,0,0,0,0,0l0,0.2c0,0,0,0,0,0c0,0,0,0,0,0l0,0.3l0,0.3c0,0,0,0,0,0c0,0,0,0,0,0l0,0.3l0,0.3c0,0,0,0,0,0
		c0,0,0,0,0,0l0,0.3l0,0.3c0,0,0,0,0,0c0,0,0,0,0,0c0,0.1,0,0.2,0,0.3c0,0,0,0,0,0c0,0,0,0,0,0c0,0,0,0,0,0c0,0,0,0,0,0c0,0,0,0,0,0
		c0,0,0,0,0,0c0,0.1,0,0.1,0,0.2c0,0,0,0.1,0,0.1c0,0,0,0,0,0c0,0,0,0,0,0c0,0,0,0,0,0c0,0,0,0,0,0l0,0c0,0.1,0.1,0.3,0.1,0.4
		c0.3,0.7,0.6,1.3,0.9,1.7c0,0,0,0.1,0,0.1c0,0.2,0,0.3,0,0.5c0,0.5-0.1,0.9-0.1,1.4c0,0.1,0,0.2,0,0.3c-1.1,10-6.8,29.2-10.6,39.1
		c0,0,0,0,0,0c0,0,0,0,0,0c0,0,0,0,0,0l0,0l0,0c-1.1,2.7-2.1,5.4-3.2,8.1c-0.1,0.2-0.2,0.5-0.3,0.7l0,0c-0.2,0.6-0.5,1.3-0.7,1.9
		c0,0.1-0.1,0.2-0.1,0.4c-0.1,0.3-0.2,0.6-0.4,1l-0.1,0.3l0,0.1c0,0,0,0.1,0,0.1l0,0.1c0,0.1-0.1,0.2-0.1,0.3
		c-0.1,0.3-0.3,0.7-0.4,1.1l-0.1,0.2c0-0.1,0-0.1,0.1-0.2c0,0.1,0,0.1-0.1,0.2c0,0.1-0.1,0.2-0.1,0.2c0,0,0,0,0,0
		c-0.6,1.5-1.2,3.1-1.8,4.8c-0.1,0.2-0.1,0.4-0.2,0.6c-0.1,0.3-0.2,0.5-0.3,0.8c-0.1,0.3-0.2,0.7-0.4,1c-0.1,0.2-0.1,0.4-0.2,0.6
		c-0.2,0.5-0.4,1.1-0.5,1.6c0,0,0,0,0,0c0,0,0,0,0,0c0,0.1,0,0.1,0,0.2c0,0,0,0.1,0,0.1c0,0,0,0.1,0,0.1c-0.1,0.3-0.2,0.6-0.3,0.8
		c0,0,0,0,0,0.1c-0.6,1.9-1,3.5-1.4,5.1c0,0.1,0,0.2-0.1,0.3c0,0.1-0.1,0.3-0.1,0.4c0,0.2-0.1,0.4-0.1,0.5c0,0.1-0.1,0.3-0.1,0.5
		c0,0,0,0,0,0c-0.1,0.5-0.2,0.9-0.2,1.3c-0.1,0.4-0.1,0.8-0.1,1.2l0,0.1c0,0,0,0.1,0,0.1c0,0.1,0,0.2,0,0.2c0,0,0,0.1,0,0.2
		c0,0,0,0.1,0,0.1c0,0.3,0,0.6,0,0.9c0,0,0,0.1,0,0.1c0,0.1,0,0.2,0,0.2c0,0.1,0,0.2,0,0.2c0,0.2,0,0.4,0,0.6c0,0.7,0,1.6,0,2.8
		c0,1.5,0,3.5,0,5.7c0,2.2,0,4.8,0,7.5c0,2.8,0,5.7,0,8.8c0,0.5,0,1,0,1.6c0,0,0,0,0,0l0,3.1l0,1.3c0,1,0,2,0,2.9c0,2.9,0,5.7,0,8.6
		c0,0.1,0,0.2,0,0.3c0,0,0,0,0,0.1c0,0.4,0,0.8,0,1.1c0,1.6,0,3.1,0,4.6c0,1.5,0,3,0,4.4l0,3.1c0,0.4,0,0.8,0,1.1c0,0.3,0,0.6,0,1
		l0,1.2c0,0.6,0,1.1,0,1.6c0,2.4,0,4.6,0,6.4c0,1.8,0,3.2,0,4.1c0,0,0,0,0,0c0,0,0,0,0,0c0,0,0,0,0,0c0,0.5,0,1.1,0,1.5l0,0.1
		c0,0.5,0,0.8,0,1.3c0,0.4,0,0.9,0,1.4l0,0c0,0,0,0,0,0c0,0,0,0,0,0l0,0.1c0,0.4,0,0.9,0.1,1.3c0,0.4,0,0.9,0.1,1.2l0,0.1
		c0,0,0,0,0,0c0,0,0,0,0,0l0,0.1c0,0.4,0.1,0.8,0.1,1.2c0,0.3,0.1,0.8,0.1,1.1l0,0c0,0,0,0,0,0c0,0,0,0,0,0l0,0.1
		c0,0.3,0.1,0.7,0.1,1.1c0,0.3,0.1,0.7,0.1,1l0,0.1c0,0,0,0,0,0c0,0,0,0,0,0l0,0.1c0,0.3,0.1,0.7,0.1,1c0,0.3,0.1,0.6,0.2,0.9l0,0.1
		c0,0,0,0,0,0c0,0,0,0,0,0l0,0.1c0,0,0,0.1,0,0.1c0,0.1,0,0.2,0.1,0.3c0,0,0,0.1,0,0.1c0,0,0,0,0,0c0,0.1,0,0.2,0.1,0.3
		c0,0,0,0.1,0,0.2c0,0.2,0.1,0.3,0.1,0.5c0,0.1,0,0.2,0.1,0.3l0,0c0,0,0,0,0,0c0,0,0,0,0,0l0,0c0,0.1,0,0.2,0.1,0.3c0,0,0,0.1,0,0.1
		c0,0.1,0,0.2,0.1,0.3c0.2,0.7,0.3,1.3,0.5,1.9c0.1,0.4,0.2,0.7,0.3,1c0,0.1,0,0.1,0.1,0.2c0.1,0.2,0.1,0.3,0.2,0.5c0,0,0,0,0,0
		c0,0,0,0,0,0c0,0,0,0,0,0c0,0.1,0.1,0.1,0.1,0.2c0,0.1,0,0.1,0.1,0.2c0,0.1,0,0.1,0.1,0.2c0,0,0,0.1,0,0.1c0,0,0,0,0,0l0,0.1
		c0,0,0,0,0,0c0,0,0,0,0,0l0,0c0,0,0,0.1,0.1,0.1c0,0.1,0.1,0.2,0.1,0.3c0,0.1,0.1,0.2,0.1,0.2l0.1,0.2c0.1,0.2,0.2,0.3,0.2,0.5
		l0.1,0.2l0,0.1c1.4,2.5,3,4,4.7,5.2c0.1,0.1,0.2,0.1,0.2,0.2c1.4,1.2,2.7,1.9,3.8,2.3c2.2,1.2,4,2,5.4,2.3c1.5,0.5,2.7,0.8,3.7,0.8
		c0.5,0.1,0.9,0.2,1.4,0.2c0.2,0,0.4,0.1,0.6,0.1c0.2,0,0.3,0.1,0.5,0.1l0.1,0c0,0,0,0,0,0c0,0,0,0,0,0l0,0c0,0,0.1,0,0.1,0
		c0.7,0.1,1.4,0.2,2,0.2c0,0,0.1,0,0.1,0c0.1,0,0.2,0,0.3,0c0.1,0,0.3,0,0.4,0l-0.3,0l0.6,0c0.2,0,0.5,0,0.7,0.1l0.2,0l0,0h0h0l0,0
		c0,0,0,0,0,0c0.2,0,0.3,0,0.5,0c0.3,0,0.7,0,1,0c0.1,0,0.3,0,0.4,0c0.2,0,0.3,0,0.5,0c0.6,0,1.3,0,1.8,0l0,0c0,0,0,0,0,0
		c0.1,0,0.3,0,0.4,0c0.2,0,0.4,0,0.6,0c0.4,0,0.7,0,1-0.1c0.2,0,0.4,0,0.7-0.1c0.3,0,0.6-0.1,0.9-0.1c0.2,0,0.3,0,0.5-0.1l0,0
		c0,0,0,0,0,0c0,0,0,0,0,0l0,0c0.4-0.1,0.8-0.1,1.2-0.2c0.1,0,0.2,0,0.4,0c0.1,0,0.2,0,0.3,0c0.1,0,0.1,0,0.2,0
		c0.6-0.1,1.3-0.3,1.9-0.4l0.1,0c0,0,0,0,0,0c0,0,0,0,0,0c0,0,0,0,0,0c0,0,0,0,0,0c0.6-0.1,1.4-0.3,2-0.5c0,0,0.1,0,0.1,0
		c0.1,0,0.2-0.1,0.3-0.1c0.1,0,0.2-0.1,0.4-0.1c0.3-0.1,0.7-0.2,1-0.3l0.2-0.1c0,0,0,0,0,0c0,0,0,0,0,0l0.2-0.1
		c0.2-0.1,0.4-0.1,0.6-0.2c0.1,0,0.2-0.1,0.3-0.1c0.3-0.1,0.5-0.2,0.8-0.3c0.5-0.2,0.9-0.3,1.4-0.6c0.1,0,0.2-0.1,0.3-0.2l0.1,0
		c0.5-0.3,1.2-0.6,1.7-0.9c0,0,0,0,0,0c0,0,0,0,0,0c0,0,0.1,0,0.1-0.1c0.1,0,0.1-0.1,0.2-0.1c0,0,0,0,0,0c0,0,0.1,0,0.1-0.1
		c0.3-0.2,0.5-0.3,0.8-0.5c0,0,0.1,0,0.1-0.1c0.1,0,0.1-0.1,0.2-0.1c0.1,0,0.1-0.1,0.2-0.1c0,0,0,0,0.1,0c0,0,0.1,0,0.1,0l0.2-0.2
		c0,0,0.1,0,0.1-0.1c0.1,0,0.1-0.1,0.2-0.1c0.2-0.1,0.4-0.2,0.5-0.4c0,0,0,0,0,0c0.1-0.1,0.2-0.2,0.3-0.2c0,0,0,0,0.1,0c0,0,0,0,0,0
		c0.1-0.1,0.2-0.2,0.4-0.3c0.2-0.1,0.3-0.2,0.4-0.4c0.1-0.1,0.2-0.1,0.2-0.2c0.1-0.1,0.1-0.1,0.2-0.1c0.3-0.3,0.6-0.5,0.8-0.8
		c0,0,0,0,0,0c0,0,0,0,0,0c0,0,0,0,0,0c0,0,0,0,0,0c0.3-0.3,0.5-0.6,0.8-0.8c0.2-0.2,0.3-0.3,0.4-0.5c0,0,0,0,0,0l0,0l0,0
		c0,0,0-0.1,0.1-0.1c0.1-0.2,0.3-0.4,0.4-0.6l0.1-0.2l0-0.1c0,0,0-0.1,0.1-0.1c0,0,0.1-0.1,0.1-0.1l0,0c0.2-0.3,0.3-0.5,0.5-0.9
		c0.2-0.3,0.3-0.6,0.4-1c0,0,0-0.1,0.1-0.1c1.2-2.8,2-6.3,2.4-10c0,0,0-0.1,0-0.1c0-0.3,0.1-0.7,0.1-1.1l0-0.1c0,0,0,0,0,0
		c0,0,0,0,0,0l0-0.1c0,0,0,0,0-0.1c0-0.4,0.1-0.7,0.1-1.1c0.1-1.2,0.2-2.4,0.2-3.5l0-0.1c0,0,0-0.1,0-0.1l0-0.1l0,0
		c0-0.9,0.1-1.6,0.1-2.7c0,0,0-0.1,0-0.1l0,0c0,0,0,0,0,0c0,0,0,0,0,0l0-0.1c0-0.5,0-1,0-1.5l0-1.8c0-0.3,0-0.7,0-1.1
		c0-0.4,0-0.8,0-1.3c0-1.8,0-3.9,0-6.4c0-2.4,0-5.1,0-8s0-5.9,0-9c0-3.9,0-7.9,0-11.8l0-2.5l0-3.4c0-3.4,0-6.7,0-10.1
		c0-2.8,0-5.3,0-7.5c0-2.2,0-4.2,0-5.7c0-1,0-2.3,0-3.3C101.1,139.6,101.1,139.4,101.1,139.3z M79.3,60.9
		C79.3,60.9,79.3,60.9,79.3,60.9C79.3,60.9,79.3,60.9,79.3,60.9C79.3,60.9,79.3,60.9,79.3,60.9z"/>
	<g>
		<path fill="#666666" d="M81,51.9C81,51.9,81,51.9,81,51.9C81,51.9,81,51.9,81,51.9c0.1-1.3-0.2-2.6-0.8-3.7
			C80.1,48,80,47.9,80,47.8c-0.1-0.2-0.2-0.3-0.3-0.4l0-0.1c0,0,0,0,0,0c0-0.1-0.1-0.1-0.2-0.2c0,0,0-0.1-0.1-0.1
			c-0.1-0.1-0.1-0.1-0.1-0.2c0,0,0,0,0,0c0,0,0,0,0-0.1c0,0,0,0,0,0l0-0.1c-0.1-0.1-0.2-0.2-0.4-0.4c-0.2-0.2-0.3-0.3-0.4-0.4l0,0
			c0,0,0,0,0,0c-0.1-0.1-0.2-0.1-0.3-0.2c0,0,0,0,0,0c0,0,0,0,0,0c-0.1-0.1-0.2-0.2-0.3-0.2c0,0,0,0,0,0l0,0
			c-0.1-0.1-0.2-0.1-0.3-0.2c0,0,0,0,0,0c-0.1,0-0.1-0.1-0.2-0.1c-0.1-0.1-0.2-0.1-0.3-0.2c0,0,0,0,0,0c-0.1,0-0.1-0.1-0.2-0.1
			l-0.1,0c0,0,0,0,0,0c0,0,0,0,0,0l0,0c-0.2-0.1-0.4-0.2-0.6-0.3v0c-0.1-0.1-0.3-0.1-0.4-0.2c0,0,0,0,0.1,0c0,0-0.1,0-0.1,0
			c0,0,0,0,0,0c0,0,0,0-0.1,0l-0.1,0c0,0,0,0,0,0c0,0,0,0,0,0l-0.1,0c-0.2-0.1-0.4-0.1-0.5-0.2c-0.3-0.1-0.4-0.1-0.6-0.2l0,0
			c0,0,0,0,0,0c0,0,0,0,0,0l0,0c-0.2,0-0.4-0.1-0.6-0.1L73,43.5l-0.1,0c-0.1,0-0.1,0-0.2,0l0,0c0,0,0,0,0,0l0,0l0,0
			c-0.1,0-0.1,0-0.2,0l0,0c0,0,0,0,0,0c-0.1,0-0.1,0-0.2,0c-0.1,0-0.1,0-0.2,0c-0.1,0-0.3,0-0.4,0c0,0,0,0-0.1,0c0,0-0.1,0-0.1,0
			l0,0c-0.1,0-0.3,0-0.4,0c0,0-0.1,0-0.1,0c-0.1,0-0.2,0-0.3,0c-0.1,0-0.2,0-0.4,0c0,0-0.1,0-0.1,0l0,0c0,0,0,0-0.1,0
			c-0.3,0-0.5,0-0.6,0l0,0c0,0-0.1,0-0.1,0c-0.1,0-0.2,0-0.3,0c0,0,0,0,0,0c0,0,0,0,0,0c0,0,0,0,0,0c-0.1,0-0.2,0-0.2,0l0,0l0,0
			c0,0,0,0,0,0l0,0c-0.1,0-0.2,0-0.3,0c0,0-0.1,0-0.1,0c-0.1,0-0.1,0-0.2,0c-0.2,0-0.3,0.1-0.4,0.1c0,0,0,0,0,0c0,0-0.1,0-0.2,0l0,0
			l0,0c0,0,0,0,0,0c0,0,0,0,0,0l0,0c0,0-0.1,0-0.1,0c0,0-0.1,0-0.1,0c-0.1,0-0.3,0.1-0.4,0.1l0,0c0,0-0.1,0-0.1,0l-0.2,0
			c-0.1,0-0.1,0-0.2,0.1c0,0,0,0-0.1,0c0,0,0,0,0,0l-0.1,0c0,0,0,0,0,0c0,0,0,0,0,0l-0.1,0c0,0-0.1,0-0.1,0
			c-0.3,0.1-0.6,0.2-0.8,0.3c0,0-0.1,0-0.1,0c-0.4,0.2-0.7,0.3-0.9,0.5c-0.1,0-0.1,0.1-0.2,0.1c-0.1,0.1-0.2,0.1-0.2,0.2
			c0,0-0.1,0-0.1,0.1c0,0,0,0,0,0c-0.1,0.1-0.2,0.2-0.3,0.2c0,0,0,0-0.1,0c0,0,0,0,0,0c0,0-0.1,0.1-0.1,0.1
			c-0.8,0.6-1.4,1.3-1.8,2.1c0,0,0,0,0,0.1l0,0.1c0,0.1-0.1,0.1-0.1,0.2l-0.1,0.2l0,0l0,0l0,0c0,0,0,0,0,0L61,48.5c0,0,0,0,0,0
			l0.1-0.2c0,0,0,0,0,0.1c0,0,0,0.1,0,0.1c0,0,0,0.1,0,0.1c0,0,0,0,0,0l0,0l0,0.1c0,0,0,0,0,0.1c0,0.1,0,0.1-0.1,0.1
			c-0.2,0.6-0.4,1.2-0.4,1.7l0,0c0,0,0,0,0,0c0,0,0,0.1,0,0.1l0,0c0,0,0,0,0,0c0,0.1,0,0.1,0,0.2c0,0,0,0.1,0,0.1c0,0,0,0,0,0.1
			c0,0,0,0.1,0,0.1c0,0.3,0,0.5,0,0.6c0,0,0,0.1,0,0.1c0,0.1,0,0.1,0,0.2c0,0,0,0,0,0.1l0,0c0,0,0,0,0,0c0,0.1,0,0.2,0.1,0.4
			c0,0,0,0,0,0.1l0,0c0,0,0,0,0,0c0,0.1,0,0.2,0.1,0.3c0,0.1,0,0.1,0,0.2c0,0,0,0,0,0l0,0c0,0,0,0,0,0c0,0.1,0.1,0.2,0.1,0.3l0,0
			c0,0,0,0,0,0c0,0.1,0,0.1,0.1,0.2c0,0,0,0.1,0,0.1l0,0.1c0,0,0,0.1,0,0.1c0,0,0,0,0,0l0.1,0.2l0.1,0.2c0,0,0,0,0,0l0.1,0.1
			c0,0,0,0,0,0.1c0,0,0,0,0,0c0,0,0,0,0,0.1l0,0c1.4,2.1,4.3,3.2,7.4,3.5c0,0,0.1,0,0.1,0c0.1,0,0.1,0,0.2,0c0.2,0,0.5,0,0.8,0.1
			l0,0c0,0,0,0,0.1,0c0.1,0,0.2,0,0.3,0c0,0,0.1,0,0.1,0c0.1,0,0.2,0,0.3,0c0.2,0,0.5,0,0.8,0l0,0c0.2,0,0.5,0,0.8,0
			c0.1,0,0.2,0,0.4,0c0,0,0,0,0,0c0,0,0.1,0,0.1,0c0,0,0.1,0,0.1,0c0.1,0,0.2,0,0.2,0l0,0l0,0c0,0,0,0,0,0l0,0
			c0.2,0,0.5-0.1,0.7-0.1c0,0,0,0,0,0c0.1,0,0.1,0,0.1,0c0.2,0,0.3-0.1,0.5-0.1l0,0c0,0,0,0,0,0c0,0,0,0,0,0l0,0c0,0,0.1,0,0.1,0
			c0.1,0,0.2,0,0.3-0.1c0.1,0,0.2,0,0.3-0.1c0.1,0,0.2-0.1,0.4-0.1c0,0,0.1,0,0.1,0c0,0,0.1,0,0.1,0l0.1,0c0,0,0,0,0,0c0,0,0,0,0,0
			l0.1,0c0.1,0,0.1,0,0.2-0.1c0,0,0,0,0,0l0,0l0.2-0.1L76,57.6c0.1,0,0.2-0.1,0.3-0.1c0.2-0.1,0.3-0.1,0.5-0.2l0.1-0.1c0,0,0,0,0,0
			c0,0,0,0,0,0c0,0,0.1,0,0.1-0.1c0.1-0.1,0.3-0.1,0.4-0.2c0,0,0,0,0,0c0,0,0,0,0,0c0,0,0,0,0.1,0c0,0,0,0,0,0
			c0.6-0.3,1.3-0.8,1.9-1.5c0,0,0,0,0.1-0.1l0,0c0.1-0.1,0.1-0.1,0.2-0.2l0.1-0.1c0,0,0.1-0.1,0.1-0.1c0,0,0,0,0,0l0,0
			c0-0.1,0.1-0.1,0.1-0.2l0.1-0.2l0.1-0.2c0,0,0-0.1,0.1-0.1c0,0,0,0,0-0.1l0-0.1c0,0,0,0,0,0l0,0l0,0c0,0,0,0,0,0l0-0.1
			c0.1-0.1,0.1-0.2,0.1-0.3c0,0,0,0,0,0c0-0.1,0.1-0.2,0.1-0.2c0-0.1,0.1-0.2,0.1-0.3c0,0,0,0,0,0l0,0c0-0.1,0-0.1,0-0.2
			c0,0,0,0,0-0.1c0,0,0,0.1,0,0.1l0-0.2c0-0.1,0-0.1,0-0.2v0c0,0,0-0.1,0-0.1C81,52.2,81,52.1,81,51.9z"/>
		<path fill="#666666" d="M72.5,58.4c0,0-0.1,0-0.1,0c0,0,0,0,0,0C72.4,58.4,72.4,58.4,72.5,58.4z"/>
	</g>
	<path fill="#C4C4C4" d="M70.9,51.6c-0.6-0.8-5.7-2.7-6.4-2.8c-1.9-0.4-2.2,0.6-2.3,1c0,0-0.5,2.4,3,3.9c2.1,0.9,4.8,0.2,5.5-0.3v0
		c0.3-0.2,0.6-0.6,0.6-0.9C71.3,52.3,71.1,51.9,70.9,51.6z"/>
	<path fill="#F6F6F6" d="M46.6,152.4c0,4.3,10.8,6.4,24,6.4c13.3,0,24-2.2,24-6.4v67.8c0,8.7-10.8,14.5-24,14.5
		c-13.3,0-24-5.8-24-14.5V152.4z"/>
	<path opacity="0.43" fill="#FFFFFF" d="M65.4,65.6c0,0-0.1-0.1-0.1-0.1c-0.3-0.1-0.6-0.3-0.9-0.5c-0.7-0.4-1.2-0.9-1.6-1.3
		c-1.5,11.2-5.8,29-10.4,43.5l-0.6,2c-9.3,27.9-9.3,27.9-9.3,49.6c0,2.9,0,6.1,0,9.6c0,3.5,0,7.1,0,10.9c0,3.7,0,7.5,0,11.2
		c0,3.6,0,7.1,0,10.7c0,3.4,0,6.5,0,9.1c0,16.6,2,19.5,3.2,19.8c0,0,4.3-1.6,5.6-6.7c0.2-0.8,0.2-6.7,0.2-15.8c0-3.4,0-7,0-10.7
		c0-3.7,0-7.5,0-11.2c0-3.6,0-7.3,0-10.9c0-3.5,0-6.7,0-9.6c0-7.3,3.2-14,4.3-21.2c3.9-24.5,3.9-24.5,4.2-26.7
		c0.1-0.6,0.3-1.5,0.4-2.1c0.1-0.8,0.3-1.8,0.4-2.5C60.9,112.4,66.7,76.4,65.4,65.6z M54.4,112C54.4,112,54.4,112,54.4,112
		c0.1,0.1,0.1,0.1,0.1,0.1c0.1,0.1,0.2,0.2,0.3,0.2C54.7,112.2,54.5,112.1,54.4,112z M52.5,110.1c0-0.1-0.1-0.1-0.1-0.2l-0.2-0.2
		C52.4,109.9,52.4,110,52.5,110.1z"/>
</g>
<g>
	<polygon fill="#1D71B8" points="77.1,255.1 137.8,290.1 137.8,200.3 77.1,165.3 	"/>
	<polygon fill="#1D71B8" points="77.1,255.1 137.8,290.1 137.8,200.3 77.1,165.3 	"/>
	<polygon fill="#1D71B8" points="84.8,250.6 84.8,178.7 130.1,204.8 130.1,276.7 	"/>
	<polyline fill="#D0E3F5" points="130.1,204.8 130.1,264.3 84.8,238.2 84.8,178.7 	"/>
	<polygon fill="#1A5693" points="182.8,264.1 137.8,290.1 137.8,200.3 182.8,174.3 	"/>
	<polygon fill="#3A84BF" points="137.8,200.3 182.8,174.3 122.1,139.3 77.1,165.3 	"/>
</g>
<g>
	<g enable-background="new    ">
		<g>
			<path fill="#E94E1B" d="M149.6,63.1c-4.3-3.4-8.7-6.3-12.6-8.2l-11.9-9.2l-0.8,6.5l0,0c-23.3,11-33.7,91.7-24.1,101.2
				c-1.1,1.4-0.9,2.9-0.9,2.9l47.2,36.7c0,0,0.9-1.7,0.6-4.8c13.7-3.8,42.9-64,27.8-103.5l1.9-3.2L161,73.6
				C157.8,70,153.7,66.3,149.6,63.1"/>
		</g>
	</g>
</g>
<path fill="#F9B233" d="M120.2,69.3c-5.4,1.9-14.1,38.7-14.9,55.5c-0.8,16.8,30.7,30,35.9,27.6c5.4-3.2,14.7-46.5,14.1-56.6
	S125.6,67.4,120.2,69.3z"/>
<path opacity="0.23" fill="#FFFFFF" d="M115.7,68.7c-5.9,9.7-4.8,14.3-4.1,18.8c2.4,3.4,4.1-20.5,11.6-17
	C139.6,78,121.6,59.1,115.7,68.7z"/>
<g opacity="0.45">
	<polygon fill="#93653E" points="212.5,260.1 202.9,207.7 208,71.5 166.3,87.9 169.4,221.3 	"/>
	<polygon fill="#885B37" points="169.4,221.3 123.1,310.2 122.8,312.6 212.6,260.8 212.5,260.1 	"/>
	<polygon fill="#7E5635" points="166.3,87.9 166.1,88 128.4,116.9 132.9,242.6 123.1,310.2 169.4,221.3 	"/>
</g>
<g opacity="0.35">
	<polygon fill="#CA9E67" points="128.4,116.9 5.8,46.1 10.3,172.9 132.9,242.6 	"/>
	<polygon fill="#D5A86F" points="122.8,312.6 132.9,242.6 10.3,172.9 0.1,241.8 	"/>
</g>
<g opacity="0.57">
	<g>
		<path fill="#3C3C3B" d="M53.3,123c-0.1-0.4,0-0.6,0.1-0.8c0.4-1.2,0.7-2.4,1.1-3.5c0.2-0.5,0.3-1.1,0.4-1.6
			c0.1-0.3,0.1-0.5,0.1-0.8c-0.1-0.2-0.2-0.4-0.3-0.6c-1-0.7-1.8-0.6-2.1,0.5c-0.4,1.5-0.9,3.1-1.3,4.7c-0.3,1.2-0.4,1-1.2,0.5
			c-0.6-0.3-1.2-0.7-1.8-1c-0.1-0.1-0.3-0.2-0.4-0.2c-0.3-0.4-0.2-0.6-0.1-0.8c0.2-0.7,0.4-1.3,0.6-2c0.4-1.3,0.7-2.6,1.1-3.9
			c-0.1-0.4-0.2-0.6-0.3-0.9c-0.8-0.6-1.3-0.6-1.8-0.3c-0.2,0.1-0.2,0.4-0.3,0.6c-0.5,1.7-1,3.4-1.4,5.1c0,0,0,0.1,0,0.2
			c-0.2,0.6-0.2,0.6-0.7,0.3c-0.7-0.4-1.4-0.8-2.2-1.3c-0.2-0.1-0.3-0.3-0.6-0.5c0.9-3.2,2-6.2,2.5-9.7c0.2,0,0.3,0,0.5,0.1
			c0.9,0.4,1.9,0.7,2.8,1c0,0,0.1,0.1,0.1,0.1c0.2,0.6-0.1,0.9-0.1,1.5c0.4-0.1,0.8-0.1,1.1-0.2c0.7-0.2,1.4,0,2.2,0.4
			c0.5,0.2,0.9,0.6,1.3,1.3c0.3,0.4,0.5,0.9,0.6,1.4c0,0.1,0.1,0.2,0.1,0.4c0.1,0,0.2,0,0.3-0.1c0.7-0.3,1.5-0.4,2.3-0.2
			c0.7,0.2,1.3,0.6,1.9,1.3c0.8,0.8,1.2,1.9,1,2.9c-0.2,0.8-0.4,1.6-0.7,2.4c-0.4,1.6-0.9,3.1-1.3,4.7c-0.1,0.2-0.1,0.5-0.2,0.7
			c-0.1,0.3-0.3,0.3-0.5,0.2c-0.8-0.4-1.6-0.8-2.4-1.4c-0.1-0.1-0.2-0.1-0.3-0.2C53.3,123.1,53.3,123.1,53.3,123z"/>
		<path fill="#3C3C3B" d="M22.7,102.5c-0.1,0.2-0.2,0.3-0.2,0.5c-0.1,0.6-0.2,1.2-0.4,1.8c-0.1,0.4-0.2,0.7-0.3,1
			c-0.5-0.1-3.3-1.8-3.7-2.2c0-0.2,0-0.4,0.1-0.6c0.8-2.5,1.5-5.1,2.3-7.6c0.5-1.7,0.9-3.6,1.3-5.4c0.1-0.3,0.1-0.6,0.2-1
			c0.2,0,0.4,0.1,0.6,0.2c1.4,0.8,2.9,1.6,4.3,2.4c0.7,0.4,1.5,0.9,2.2,1.5c0.9,0.7,1.6,1.7,2.1,3c0.4,1,0.5,1.9,0.4,2.8
			c-0.1,1.6-0.5,2.9-1.2,3.9c-0.8,1.2-1.9,1.9-3.3,1.8c-0.8-0.1-1.6-0.4-2.5-1C24,103.3,23.4,103,22.7,102.5z M23.5,99
			c0.7,0.5,1.4,1.1,2.1,1.3c0.6,0.2,1.1,0.1,1.4-0.3c0.5-0.5,0.8-1.3,0.7-2.4c0-0.7-0.3-1.4-0.8-1.8c-0.7-0.6-1.4-0.9-2.2-1.2
			C24.3,95.9,23.9,97.4,23.5,99z"/>
		<path fill="#3C3C3B" d="M98.6,149.7c-0.1-0.5-0.2-1-0.4-1.6c-0.5-2.7-1.1-5.3-1.6-8c-0.6-2.9-1.2-5.7-1.7-8.6
			c-0.2-0.8,0-1.1,0.6-0.7c0.3,0.2,0.6,0.3,0.9,0.8c0.1,0.2,0.1,0.5,0.2,0.8c0.7,3.7,1.5,7.5,2.2,11.2c0.1,0.6,0.2,1.2,0.4,2
			c0.2-0.5,0.3-0.9,0.5-1.4c0.9-2.7,1.7-5.5,2.6-8.2c0.1-0.3,0.2-0.6,0.3-0.9c0.1-0.4,0.3-0.4,0.6-0.2c0.3,0.2,0.5,0.5,0.6,0.9
			c0.2,0.9,0.4,1.7,0.6,2.6c0.7,3.1,1.4,6.2,2.2,9.3c0.2,0.7,0.3,1.3,0.5,2c0,0.1,0.1,0.2,0.1,0.5c0.1-0.5,0.2-0.8,0.3-1.2
			c0.8-3,1.5-6.1,2.3-9.1c0.1-0.5,0.3-0.6,0.7-0.3c0.3,0.2,0.7,0.3,1,0.9c0,0.2,0,0.5-0.1,0.8c-0.4,1.7-0.9,3.4-1.4,5.2
			c-0.7,2.7-1.4,5.4-2.1,8.1c0,0.1,0,0.2-0.1,0.2c-0.1,0.4-0.3,0.5-0.6,0.3c-0.3-0.2-0.5-0.5-0.7-1c-0.2-1-0.5-1.9-0.7-2.9
			c-0.8-3.6-1.6-7.2-2.5-10.8c-0.1-0.4-0.2-0.7-0.3-1.2c-0.1,0.2-0.1,0.2-0.1,0.3c-0.6,2.1-1.3,4.1-1.9,6.2
			c-0.4,1.4-0.9,2.8-1.3,4.2c0,0.1,0,0.1-0.1,0.2C99.5,150.4,99.2,150.4,98.6,149.7z"/>
		<path fill="#3C3C3B" d="M61.7,123.4c-0.1,0.4,0,0.9,0.3,1.3c0.5,0.7,1.1,1.1,1.7,1.3c0.5,0.2,1,0.2,1.5,0.2c0.2,0,0.3,0,0.5,0
			c0.2,0.4,0.3,0.7,0.3,1c0.1,0.5,0.1,1,0.2,1.5c0.1,0.4-0.1,0.6-0.3,0.6c-0.5,0.2-1.1,0.3-1.7,0.2c-1.1-0.2-2.3-0.8-3.4-1.9
			c-1.1-1-1.8-2.4-2.1-4c-0.1-1-0.1-1.8,0.1-2.6c0.5-2.3,1.6-3.7,3.3-4.1c1.1-0.3,2.4,0.1,3.7,1.1c1.3,1.1,2.1,2.9,2.2,4.5
			c0.1,0.9,0,1.6-0.2,2.3c-0.2,0.8-0.6,1.1-1.4,0.7c-1.2-0.6-2.3-1.1-3.5-1.6C62.5,123.8,62.1,123.6,61.7,123.4z M64.6,122.4
			c0-0.1,0.1-0.2,0.1-0.3c0.2-0.8-0.2-1.7-0.9-2.1c-0.8-0.4-1.5,0.1-1.7,1.2C63,121.8,63.8,122.1,64.6,122.4z"/>
		<path fill="#3C3C3B" d="M71.5,121.5c0,0.3,0,0.5,0,0.7c0,3.5,0,6.9,0,10.4c0,1.1-0.2,1.3-1,0.8c-0.6-0.4-0.8-0.7-0.8-1.4
			c0-5,0-9.9,0-14.9c0-0.4,0.1-0.7,0.4-0.7c0.3,0,0.6,0.2,0.9,0.6c0.2,0.3,0.2,0.6,0.3,0.9c0,0.3,0,0.5,0,0.9c0.1,0,0.2,0,0.3-0.1
			c1-0.5,2.1-0.5,3.3,0c1.5,0.6,2.9,1.7,4.1,3.7c0.6,1,1,2.1,1.3,3.3c0.2,1,0.4,2,0.4,2.9c0,3.2,0,6.3,0.1,9.5c0,0.2,0,0.4,0,0.5
			c-0.1,0.4-0.3,0.5-0.6,0.3c-0.1-0.1-0.3-0.1-0.4-0.2c-0.4-0.3-0.7-0.7-0.7-1.3c0-0.2,0-0.4,0-0.5c0-3,0-6,0-9
			c0-0.8-0.1-1.6-0.4-2.5c-0.5-1.8-1.4-3-2.6-3.8c-1.4-1-2.7-1-3.8-0.4C72,121.2,71.8,121.3,71.5,121.5z"/>
		<path fill="#3C3C3B" d="M32.3,99.6c1.1,0.4,2.2,0.8,3.3,1.2c0.3,0.6-0.1,0.9,0,1.4c0.2,0.1,0.3,0.1,0.4,0c0.6-0.1,1.2-0.1,1.8,0.2
			c0.3,0.1,0.6,0.2,0.9,0.6c0,0.2,0,0.4-0.1,0.5c-0.3,1-0.6,1.9-0.9,2.9c-0.1,0.4-0.3,0.5-0.7,0.2c-0.1-0.1-0.2-0.2-0.4-0.3
			c-0.3-0.2-0.5-0.3-0.8-0.5c-0.7-0.3-1.1-0.1-1.3,0.6c-0.3,1.2-0.7,2.5-1,3.7c-0.1,0.3-0.1,0.5-0.2,0.8c-0.1,0.3-0.2,0.4-0.5,0.3
			c-0.8-0.5-1.6-0.9-2.4-1.4c-0.1-0.1-0.3-0.3-0.5-0.5c0.1-0.2,0.1-0.4,0.1-0.6c0.4-1.5,0.9-3,1.3-4.6c0.3-1.1,0.5-2.2,0.7-3.4
			c0-0.2,0-0.4,0-0.6C32.2,100.2,32.2,100,32.3,99.6z"/>
		<path fill="#3C3C3B" d="M37,113.6c0.1-0.2,0.1-0.4,0.2-0.6c0.5-1.7,1-3.3,1.5-5c0.3-1.2,0.6-2.5,0.9-3.8c0.1-0.5,0.3-0.6,0.7-0.3
			c0.8,0.5,1.7,1,2.5,1.5c0.2,0.1,0.3,0.2,0.5,0.5c-0.1,0.3-0.2,0.5-0.3,0.8c-0.7,1.8-1.2,3.7-1.8,5.6c-0.3,0.9-0.5,1.9-0.8,2.9
			c-0.1,0.4-0.2,0.5-0.6,0.3c-0.4-0.2-0.9-0.4-1.3-0.7c-0.4-0.2-0.8-0.5-1.2-0.8C37.3,113.9,37.2,113.8,37,113.6z"/>
		<path fill="#3C3C3B" d="M84.6,125.4c0.4-0.1,0.7-0.2,1-0.3c0.4,1,0.7,2,1,3c0.4,1,0.7,2,1,3c0.3,1,0.7,1.9,1,2.9
			c0.3,1,0.6,1.9,1,2.9c-0.3,0.3-0.7,0.3-1,0.4c-0.1-0.2-0.2-0.4-0.3-0.6c-0.6-1.9-1.2-3.7-1.9-5.6c-0.6-1.6-1.1-3.3-1.7-4.9
			C84.7,125.9,84.7,125.7,84.6,125.4z"/>
		<path fill="#3C3C3B" d="M41.8,104.1c-0.2-0.2-0.5-0.4-0.7-0.6c-0.5-0.5-0.8-1.3-0.7-2c0.3-1.5,1.6-1.9,2.8-0.9
			c0.7,0.6,1.1,1.6,0.9,2.5C43.8,104.3,43.1,104.7,41.8,104.1z"/>
		<path fill="#3C3C3B" d="M82.7,127.8c0.2-0.3,0.2-0.8,0.7-0.6c0.3,0.4,0.6,0.8,0.9,1.2c0.2,0.2,0.2,0.4,0.2,0.7
			c0,0.3-0.3,0.6-0.5,0.6C83.4,129.1,82.9,128.6,82.7,127.8z"/>
		<path fill="#3C3C3B" d="M93.4,142.8c-0.4-0.6-0.9-1-1.1-1.8c0.2-0.6,0.2-0.6,0.6-0.7c0.4,0.3,0.7,0.9,1,1.3
			C94.1,142.5,93.9,142.8,93.4,142.8z"/>
		<path fill="#3C3C3B" d="M85.6,141.3c-0.3-0.4-0.5-0.7-0.7-1c-0.2-0.6,0-0.8,0.2-1c0.1-0.2,0.2-0.6,0.6-0.4
			c0.3,0.3,0.6,0.6,0.7,1.2C86.2,140.6,86,141.1,85.6,141.3z"/>
		<path fill="#3C3C3B" d="M93.9,134.7c-0.3,0.1-0.7,0.1-1.1,0.2c-0.2-0.3-0.3-0.5-0.4-0.8c-0.3-0.7-0.2-0.9,0.2-1
			c0.2-0.1,0.5-0.1,0.7-0.1C93.9,133.5,94.1,134,93.9,134.7z"/>
		<path fill="#3C3C3B" d="M88,141.4c0.1,0,0.3,0,0.4,0.1c0.4,0.2,0.6,0.6,0.6,1.1c0,0.3,0,0.6,0,0.8c0,0.2-0.1,0.4-0.1,0.5
			c-0.1,0-0.2,0-0.2-0.1c-0.6-0.3-0.9-0.4-0.8-1.5C87.8,142.1,87.7,141.6,88,141.4z"/>
		<path fill="#3C3C3B" d="M91.9,144c-0.2,0.4-0.3,0.5-0.8,0.4c-0.4-0.4-0.8-1.5-0.8-2.2c0.2-0.2,0.5-0.4,1,0
			C91.5,142.9,91.7,143.5,91.9,144z"/>
		<path fill="#3C3C3B" d="M91.9,130c-0.2,0.4-0.3,1-0.8,1.1c-0.1-0.1-0.2-0.2-0.3-0.3c-0.6-0.7-0.6-1-0.3-1.5
			c0.1-0.3,0.2-0.6,0.6-0.6C91.5,129,91.8,129.4,91.9,130z"/>
		<path fill="#3C3C3B" d="M83,136.8c-0.1-0.4-0.3-0.8-0.4-1.2c0.1-0.1,0.2-0.2,0.3-0.3c0.2-0.1,0.4-0.1,0.6-0.2
			c0.2,0,0.3,0.1,0.5,0.4c0.2,0.3,0.3,0.9,0.3,1.3C84,136.9,83.6,137.2,83,136.8z"/>
		<path fill="#3C3C3B" d="M88,126c0.2,0.1,0.5,0.3,0.7,0.4c0.2,0.3,0.3,0.5,0.3,0.8c0,0.5,0.2,1.2-0.2,1.4c-0.2-0.1-0.5-0.3-0.7-0.4
			c-0.2-0.3-0.3-0.5-0.3-0.8C87.8,126.9,87.6,126.2,88,126z"/>
		<path fill="#3C3C3B" d="M82.2,130.6c0.5,0.3,0.9,0.5,1.3,0.8c0.2,0.6,0.1,1,0.1,1.4c-0.5,0-1-0.3-1.5-0.8
			C81.9,131.4,81.9,130.9,82.2,130.6z"/>
		<path fill="#3C3C3B" d="M93.3,138.6c-0.3-0.8-0.3-1.2,0-1.6c0.3,0.2,0.7,0.4,1,0.6c0.2,0.1,0.3,0.4,0.4,0.6c0,0.2,0,0.5,0,0.7
			c0,0.2-0.1,0.3-0.3,0.2C94,139.1,93.7,138.8,93.3,138.6z"/>
	</g>
</g>
<path opacity="0.23" fill="#FFFFFF" d="M112.3,90.7c-0.2,1.4-1.8,3.6-2.5,3.1c-1.1-0.7-0.7-2.3-0.7-3.7c-0.2-3.6,1-2,1.9-1.3
	C111.6,89.5,112.5,89.3,112.3,90.7z"/>
</svg>
