<?xml version="1.0" encoding="utf-8"?>
<!-- Generator: Adobe Illustrator 18.0.0, SVG Export Plug-In . SVG Version: 6.00 Build 0)  -->
<!DOCTYPE svg PUBLIC "-//W3C//DTD SVG 1.1//EN" "http://www.w3.org/Graphics/SVG/1.1/DTD/svg11.dtd">
<svg version="1.1" id="Layer_1" xmlns="http://www.w3.org/2000/svg" xmlns:xlink="http://www.w3.org/1999/xlink" x="0px" y="0px"
	 viewBox="0 0 504 479" enable-background="new 0 0 504 479" xml:space="preserve">
<polygon fill="#F6F6F6" points="1,310.8 213,188.4 502.6,355.6 290.6,478 "/>
<g>
	<g>
		<g>
			<polygon fill="#7E522F" points="502.3,353.9 479.7,230.2 491.7,-91.2 491.7,-91.2 202.2,-258.4 131.6,-203.1 14.3,-151.3 
				14.3,-151.3 24.9,148.1 1,310.8 290.6,478 502.6,355.6 			"/>
		</g>
		<polygon fill="#93653E" points="502.3,353.9 479.7,230.2 491.7,-91.2 393.4,-52.5 400.5,262.4 		"/>
		<polygon fill="#885B37" points="400.5,262.4 291.4,472.3 290.6,478 502.6,355.6 502.3,353.9 		"/>
		<polygon fill="#7E5635" points="393.4,-52.5 392.8,-52.3 303.9,15.9 314.5,312.6 291.4,472.3 400.5,262.4 		"/>
		<path fill="#654322" d="M491.7-91.2L202.2-258.4v215.6c87.8,50.7,101.7,58.7,101.7,58.7l88.9-68.2L491.7-91.2z"/>
		<path fill="#513217" d="M202.2-258.4l-70.6,55.3v119.6c22.5,13,46.5,26.9,70.6,40.8V-258.4z"/>
		<path fill="#412A18" d="M14.3-151.3c0,0,52,30,117.3,67.7v-119.6L14.3-151.3z"/>
		<polygon fill="#CA9E67" points="303.9,15.9 14.3,-151.3 24.9,148.1 314.5,312.6 		"/>
		<polygon fill="#D5A86F" points="290.6,478 314.5,312.6 24.9,148.1 1,310.8 		"/>
		<path fill="#FFFFFF" d="M186.4,368l9.5-68c0.5-3.5,3.1-5.2,5.7-3.6l82,47.3c2.7,1.5,4.4,5.7,3.9,9.2l-9.5,68
			c-0.5,3.5-3.1,5.2-5.7,3.6l-82-47.3C187.7,375.7,185.9,371.5,186.4,368z"/>
		<text transform="matrix(0.7439 0.4288 -0.1387 0.9903 203.8682 313.1221)" font-family="'Arial-BoldMT'" font-size="11.8294">sp0000000000000</text>
		<g>
			<g>
				<path fill="#FFFFFF" d="M203.1,318.5c0.6,0.3,1.2,0.7,1.8,1c0,0.2-0.1,0.5-0.1,0.7c-2.4,17.4-4.9,34.9-7.3,52.3
					c0,0.3-0.1,0.5-0.1,0.8c-0.6-0.3-1.2-0.7-1.8-1c0-0.2,0.1-0.5,0.1-0.7c2.4-17.4,4.9-34.9,7.3-52.3
					C203,319,203.1,318.8,203.1,318.5z"/>
				<path fill="#FFFFFF" d="M214.6,383.4c-0.6-0.4-1.2-0.7-1.8-1c2.5-18,5-35.9,7.5-53.9c0.6,0.3,1.2,0.7,1.7,1c0,0.3,0,0.7-0.1,1
					c-1.3,9.6-2.7,19.1-4,28.7C216.9,367.2,215.8,375.3,214.6,383.4z"/>
				<path fill="#FFFFFF" d="M237.8,338.5c0.6,0.3,1.2,0.7,1.7,1c0,0.3-0.1,0.7-0.1,1c-2,14.2-4,28.4-6,42.5c-0.5,3.4-1,6.9-1.4,10.3
					c-0.6-0.4-1.2-0.7-1.8-1c2.4-17,4.8-34,7.2-51C237.4,340.3,237.6,339.4,237.8,338.5z"/>
				<path fill="#FFFFFF" d="M262.2,410.8c-0.6-0.3-1.2-0.7-1.7-1c2.5-18,5-35.9,7.5-53.9c0.6,0.3,1.2,0.7,1.7,1c0,0.3-0.1,0.7-0.1,1
					c-2,14.2-4,28.4-6,42.5C263.2,403.9,262.7,407.4,262.2,410.8z"/>
				<path fill="#FFFFFF" d="M211.2,381.4c-0.6-0.3-1.2-0.7-1.7-1c0-0.3,0.1-0.7,0.1-1c2-14.2,4-28.4,6-42.5c0.5-3.4,1-6.9,1.4-10.3
					c0.6,0.3,1.2,0.7,1.7,1c0,0.3,0,0.5-0.1,0.8c-2.4,17.5-4.9,34.9-7.3,52.3C211.3,380.9,211.3,381.2,211.2,381.4z"/>
				<path fill="#FFFFFF" d="M209,321.9c0.6,0.3,1.2,0.7,1.7,1c0,0.3,0,0.5-0.1,0.8c-2.4,17.5-4.9,34.9-7.3,52.3
					c0,0.3-0.1,0.5-0.1,0.7c-0.6-0.3-1.2-0.7-1.7-1c0-0.2,0.1-0.5,0.1-0.7c2.4-17.4,4.9-34.9,7.3-52.3
					C208.9,322.4,209,322.2,209,321.9z"/>
				<path fill="#FFFFFF" d="M229.9,333.9c0.6,0.3,1.2,0.7,1.7,1c0,0.3,0,0.5-0.1,0.8c-2.4,17.5-4.9,34.9-7.3,52.3
					c0,0.3-0.1,0.5-0.1,0.7c-0.6-0.3-1.2-0.7-1.7-1c2.2-15.9,4.5-31.8,6.7-47.7C229.3,338,229.6,336,229.9,333.9z"/>
				<path fill="#FFFFFF" d="M253,347.3c0.6,0.3,1.2,0.7,1.7,1c0,0.2-0.1,0.5-0.1,0.7c-2.4,17.4-4.9,34.9-7.3,52.3
					c0,0.3-0.1,0.5-0.1,0.8c-0.6-0.3-1.2-0.7-1.7-1c0-0.3,0-0.5,0.1-0.8c2.4-17.5,4.9-34.9,7.3-52.3
					C252.9,347.8,253,347.5,253,347.3z"/>
				<path fill="#FFFFFF" d="M266.8,413.5c-0.6-0.3-1.2-0.7-1.7-1c0-0.3,0-0.5,0.1-0.8c2.4-17.5,4.9-34.9,7.3-52.3
					c0-0.3,0.1-0.5,0.1-0.7c0.6,0.3,1.2,0.7,1.7,1c0,0.2-0.1,0.5-0.1,0.7c-2.4,17.4-4.9,34.9-7.3,52.3
					C266.9,412.9,266.8,413.2,266.8,413.5z"/>
				<path fill="#FFFFFF" d="M258.8,350.6c0.6,0.3,1.2,0.7,1.7,1c0,0.3,0,0.5-0.1,0.8c-2.4,17.5-4.9,34.9-7.3,52.3
					c0,0.3-0.1,0.5-0.1,0.7c-0.6-0.3-1.2-0.7-1.7-1c0-0.2,0.1-0.5,0.1-0.7c2.4-17.4,4.9-34.9,7.3-52.3
					C258.8,351.2,258.8,350.9,258.8,350.6z"/>
				<path fill="#FFFFFF" d="M242.5,341.2c0.6,0.3,1.2,0.7,1.7,1c-2.5,18-5,35.9-7.5,53.9c-0.6-0.3-1.2-0.7-1.7-1
					c0-0.3,0.1-0.7,0.1-1c2-14.2,4-28.4,6-42.5C241.6,348.1,242.1,344.7,242.5,341.2z"/>
				<path fill="#FFFFFF" d="M262.1,352.5c0.6,0.3,1.2,0.7,1.7,1c-2.5,18-5,35.9-7.5,53.9c-0.6-0.3-1.2-0.7-1.7-1
					c0-0.3,0.1-0.7,0.1-1c2-14.2,4-28.4,6-42.5C261.2,359.4,261.7,356,262.1,352.5z"/>
				<path fill="#FFFFFF" d="M245,342.6c0.6,0.3,1.2,0.7,1.7,1c0,0.3-0.1,0.7-0.1,1c-2,14.2-4,28.4-6,42.5c-0.5,3.4-1,6.9-1.4,10.3
					c-0.6-0.3-1.2-0.7-1.7-1c0-0.3,0-0.5,0.1-0.8c2.4-17.5,4.9-34.9,7.3-52.3C244.9,343.1,244.9,342.9,245,342.6z"/>
				<path fill="#FFFFFF" d="M220.4,386.7c-0.6-0.3-1.2-0.7-1.7-1c0-0.3,0-0.5,0.1-0.8c2.4-17.5,4.9-34.9,7.3-52.3
					c0-0.3,0.1-0.5,0.1-0.7c0.6,0.3,1.2,0.7,1.7,1c-0.1,1.1-0.3,2.2-0.4,3.3c-2.3,16.6-4.6,33.1-7,49.7
					C220.5,386.1,220.5,386.4,220.4,386.7z"/>
				<path d="M211.2,381.4c0-0.2,0.1-0.5,0.1-0.7c2.4-17.4,4.9-34.9,7.3-52.3c0-0.3,0.1-0.5,0.1-0.8c0.5,0.3,1,0.6,1.6,0.9
					c-2.5,18-5,35.9-7.5,53.9C212.3,382,211.8,381.7,211.2,381.4z"/>
				<path d="M262.1,352.5c-0.5,3.4-1,6.9-1.4,10.3c-2,14.2-4,28.4-6,42.5c0,0.3-0.1,0.7-0.1,1c-0.5-0.3-1-0.6-1.6-0.9
					c0-0.2,0.1-0.5,0.1-0.7c2.4-17.4,4.9-34.9,7.3-52.3c0-0.3,0.1-0.5,0.1-0.8C261.1,351.9,261.6,352.2,262.1,352.5z"/>
				<path d="M268,355.9c-2.5,18-5,35.9-7.5,53.9c-0.5-0.3-1-0.6-1.6-0.9c0-0.2,0.1-0.5,0.1-0.7c2.4-17.4,4.9-34.9,7.3-52.3
					c0-0.3,0.1-0.5,0.1-0.8C267,355.3,267.5,355.6,268,355.9z"/>
				<path d="M224.1,388.8c0-0.2,0.1-0.5,0.1-0.7c2.4-17.4,4.9-34.9,7.3-52.3c0-0.3,0.1-0.5,0.1-0.8c0.5,0.3,1,0.6,1.6,0.9
					c-2.5,18-5,35.9-7.5,53.9C225.1,389.4,224.6,389.1,224.1,388.8z"/>
				<path d="M203.2,376.8c0-0.2,0.1-0.5,0.1-0.7c2.4-17.4,4.9-34.9,7.3-52.3c0-0.3,0.1-0.5,0.1-0.8c0.5,0.3,1,0.6,1.6,0.9
					c0,0.2-0.1,0.5-0.1,0.7c-2.4,17.4-4.9,34.9-7.3,52.3c0,0.3-0.1,0.5-0.1,0.8C204.2,377.4,203.7,377.1,203.2,376.8z"/>
				<path d="M272.6,358.6c0,0.2-0.1,0.5-0.1,0.7c-2.4,17.4-4.9,34.9-7.3,52.3c0,0.3-0.1,0.5-0.1,0.8c-0.5-0.3-1-0.6-1.6-0.9
					c2.5-18,5-35.9,7.5-53.9C271.6,358,272.1,358.3,272.6,358.6z"/>
				<path d="M253,347.3c0,0.2-0.1,0.5-0.1,0.7c-2.4,17.4-4.9,34.9-7.3,52.3c0,0.3-0.1,0.5-0.1,0.8c-0.5-0.3-1-0.6-1.6-0.9
					c2.5-18,5-35.9,7.5-53.9C252,346.7,252.5,347,253,347.3z"/>
				<path d="M237.8,338.5c-0.2,0.9-0.3,1.8-0.5,2.8c-2.4,17-4.8,34-7.2,51c-0.5-0.3-1-0.6-1.5-0.8c0-0.2,0.1-0.5,0.1-0.7
					c2.4-17.4,4.9-34.9,7.3-52.3c0-0.3,0.1-0.5,0.1-0.8C236.7,337.9,237.3,338.2,237.8,338.5z"/>
				<path d="M233.9,336.2c0.5,0.3,1,0.6,1.5,0.8c-2.5,18-5,35.9-7.5,53.9c-0.5-0.3-1-0.6-1.5-0.8c0.1-0.3,0.1-0.6,0.2-0.9
					c1.9-13.8,3.9-27.6,5.8-41.5C232.8,343.9,233.3,340.1,233.9,336.2z"/>
				<path d="M209,321.9c0,0.3,0,0.5-0.1,0.8c-2.4,17.5-4.9,34.9-7.3,52.3c0,0.3-0.1,0.5-0.1,0.7c-0.5-0.3-1-0.6-1.5-0.8
					c0-0.3,0.1-0.7,0.1-1c1.9-13.4,3.8-26.8,5.6-40.2c0.6-4.2,1.2-8.4,1.8-12.6C208,321.3,208.5,321.6,209,321.9z"/>
				<path d="M258.8,350.6c0,0.3,0,0.5-0.1,0.8c-2.4,17.5-4.9,34.9-7.3,52.3c0,0.3-0.1,0.5-0.1,0.7c-0.5-0.3-1-0.6-1.5-0.8
					c2.5-18,5-35.9,7.5-53.9C257.9,350.1,258.4,350.4,258.8,350.6z"/>
				<path d="M223.4,330.2c0.5,0.3,1,0.6,1.5,0.8c0,0.3,0,0.5-0.1,0.8c-2.4,17.5-4.9,34.9-7.3,52.3c0,0.3-0.1,0.5-0.1,0.7
					c-0.5-0.3-1-0.6-1.5-0.8C218.4,366.1,220.9,348.1,223.4,330.2z"/>
				<path d="M275.7,360.3c0.5,0.3,1,0.6,1.5,0.8c-1.7,12-3.3,23.9-5,35.9c-0.8,6-1.7,12-2.5,18c-0.5-0.3-1-0.6-1.5-0.8
					c0-0.3,0.1-0.7,0.1-1c1.9-13.4,3.8-26.8,5.6-40.2C274.5,368.8,275.1,364.5,275.7,360.3z"/>
				<path d="M272,416.5c-0.5-0.3-1-0.6-1.5-0.8c0-0.3,0-0.5,0.1-0.8c2.4-17.5,4.9-34.9,7.3-52.3c0-0.3,0.1-0.5,0.1-0.7
					c0.5,0.3,1,0.6,1.5,0.8C277.1,380.5,274.5,398.5,272,416.5z"/>
				<path d="M214.3,324.9c0.5,0.3,1,0.6,1.5,0.8c-2.5,18-5,35.9-7.5,53.9c-0.5-0.3-0.9-0.5-1.4-0.8c0-0.3,0.1-0.7,0.1-1
					c2.1-14.9,4.2-29.9,6.3-44.8C213.6,330.3,213.9,327.6,214.3,324.9z"/>
				<path d="M248,344.4c0.5,0.3,1,0.6,1.5,0.8c-0.2,1-0.4,1.9-0.5,2.9c-1.7,12.1-3.4,24.1-5.1,36.2c-0.7,4.9-1.4,9.8-2.1,14.7
					c-0.5-0.3-0.9-0.5-1.4-0.8C243,380.3,245.5,362.3,248,344.4z"/>
				<path fill="#FFFFFF" d="M217.3,384.9c0-0.2,0.1-0.5,0.1-0.7c2.4-17.4,4.9-34.9,7.3-52.3c0-0.3,0.1-0.5,0.1-0.8
					c0.3,0.2,0.6,0.4,1,0.5c0,0.2-0.1,0.5-0.1,0.7c-2.4,17.4-4.9,34.9-7.3,52.3c0,0.3-0.1,0.5-0.1,0.8
					C217.9,385.3,217.6,385.1,217.3,384.9z"/>
				<path fill="#FFFFFF" d="M278.1,361.7c0,0.2-0.1,0.5-0.1,0.7c-2.4,17.4-4.9,34.9-7.3,52.3c0,0.3-0.1,0.5-0.1,0.8
					c-0.3-0.2-0.6-0.4-1-0.5c0.8-6,1.7-12,2.5-18c1.7-12,3.3-23.9,5-35.9C277.5,361.4,277.8,361.5,278.1,361.7z"/>
				<path fill="#FFFFFF" d="M248,344.4c-2.5,18-5,35.9-7.5,53.9c-0.3-0.2-0.6-0.3-0.9-0.5c2.5-18,5-35.9,7.5-53.9
					C247.4,344.1,247.7,344.2,248,344.4z"/>
				<path fill="#FFFFFF" d="M275.7,360.3c-0.6,4.2-1.2,8.4-1.8,12.6c-1.9,13.4-3.8,26.8-5.6,40.2c0,0.3-0.1,0.7-0.1,1
					c-0.3-0.2-0.6-0.3-0.9-0.5c0.1-0.4,0.1-0.7,0.2-1.1c2.5-17.6,4.9-35.2,7.4-52.8C275.1,360,275.4,360.2,275.7,360.3z"/>
				<path fill="#FFFFFF" d="M241.2,340.5c0.3,0.2,0.6,0.3,0.9,0.5c-2.5,18-5,35.9-7.5,53.9c-0.3-0.2-0.6-0.3-0.9-0.5
					C236.2,376.4,238.7,358.4,241.2,340.5z"/>
				<path fill="#FFFFFF" d="M205.3,319.8c0.3,0.2,0.6,0.3,0.9,0.5c0,0.2-0.1,0.5-0.1,0.7c-2.4,17.4-4.9,34.9-7.3,52.3
					c0,0.3-0.1,0.5-0.1,0.8c-0.3-0.2-0.6-0.3-0.9-0.5c0-0.3,0-0.5,0.1-0.8c2.4-17.5,4.9-34.9,7.3-52.3
					C205.3,320.3,205.3,320,205.3,319.8z"/>
				<path fill="#FFFFFF" d="M233.3,394.1c-0.3-0.2-0.6-0.3-0.9-0.5c2.5-18,5-35.9,7.5-53.9c0.3,0.2,0.6,0.3,0.9,0.5
					c0,0.3-0.1,0.7-0.1,1c-2,14.2-4,28.4-6,42.5C234.2,387.2,233.7,390.7,233.3,394.1z"/>
				<path fill="#FFFFFF" d="M207.5,321c-0.6,4.2-1.2,8.4-1.8,12.6c-1.9,13.4-3.8,26.8-5.6,40.2c0,0.3-0.1,0.7-0.1,1
					c-0.3-0.2-0.6-0.3-0.9-0.5c0-0.3,0-0.5,0.1-0.8c2.4-17.5,4.9-34.9,7.3-52.3c0-0.3,0.1-0.5,0.1-0.7
					C206.9,320.7,207.2,320.9,207.5,321z"/>
				<path fill="#FFFFFF" d="M227.8,391c2.5-18,5-35.9,7.5-53.9c0.3,0.2,0.6,0.3,0.9,0.5c0,0.3,0,0.5-0.1,0.8
					c-2.4,17.5-4.9,34.9-7.3,52.3c0,0.3-0.1,0.5-0.1,0.7C228.4,391.3,228.1,391.1,227.8,391z"/>
				<path fill="#FFFFFF" d="M208.2,379.7c2.5-18,5-35.9,7.5-53.9c0.3,0.2,0.6,0.3,0.9,0.5c-2.5,18-5,35.9-7.5,53.9
					C208.8,380,208.5,379.8,208.2,379.7z"/>
				<path fill="#FFFFFF" d="M195,372.1c-0.3-0.2-0.5-0.3-0.8-0.4c0-0.2,0.1-0.5,0.1-0.7c2.4-17.4,4.9-34.9,7.3-52.3
					c0-0.3,0.1-0.5,0.1-0.8c0.3,0.2,0.6,0.3,0.9,0.5c-0.5,3.3-1,6.6-1.4,9.8c-2,14.3-4,28.7-6,43C195.1,371.4,195.1,371.7,195,372.1
					z"/>
				<path fill="#FFFFFF" d="M255.4,348.6c0.2,0.1,0.5,0.3,0.7,0.4c-1.7,11.9-3.3,23.8-5,35.7c-0.8,6.1-1.7,12.1-2.5,18.2
					c-0.3-0.2-0.5-0.3-0.8-0.4c0-0.3,0.1-0.7,0.1-1c2.3-16.5,4.6-32.9,6.9-49.4C255,350.9,255.2,349.8,255.4,348.6z"/>
				<path fill="#FFFFFF" d="M241.8,399.1c0.7-4.9,1.4-9.8,2.1-14.7c1.7-12.1,3.4-24.1,5.1-36.2c0.1-1,0.3-2,0.5-2.9
					c0.2,0.1,0.5,0.3,0.7,0.4c-2.5,18-5,35.9-7.5,53.9C242.4,399.4,242.1,399.2,241.8,399.1z"/>
				<path fill="#FFFFFF" d="M214.3,324.9c-0.3,2.7-0.7,5.4-1.1,8.1c-2.1,15-4.2,29.9-6.3,44.8c0,0.3-0.1,0.7-0.1,1
					c-0.3-0.2-0.5-0.3-0.8-0.4c2.5-18,5-35.9,7.5-53.9C213.8,324.7,214,324.8,214.3,324.9z"/>
				<path fill="#FFFFFF" d="M271.1,357.7c-2.5,18-5,35.9-7.5,53.9c-0.2-0.1-0.5-0.3-0.7-0.4c1.7-11.9,3.3-23.8,5-35.7
					c0.8-6.1,1.7-12.1,2.5-18.2C270.6,357.4,270.8,357.5,271.1,357.7z"/>
				<path fill="#FFFFFF" d="M257.4,349.8c-2.5,18-5,35.9-7.5,53.9c-0.2-0.1-0.5-0.3-0.7-0.4c0-0.3,0.1-0.7,0.1-1
					c2-14.2,4-28.4,6-42.5c0.5-3.4,1-6.9,1.4-10.3C256.9,349.5,257.1,349.7,257.4,349.8z"/>
				<path fill="#FFFFFF" d="M251.5,346.4c-2.5,18-5,35.9-7.5,53.9c-0.2-0.1-0.5-0.3-0.7-0.4c0-0.2,0.1-0.5,0.1-0.7
					c2.4-17.4,4.9-34.9,7.3-52.3c0-0.3,0.1-0.5,0.1-0.8C251,346.1,251.2,346.3,251.5,346.4z"/>
				<path fill="#FFFFFF" d="M266.5,355c0,0.3,0,0.5-0.1,0.8c-2.4,17.5-4.9,34.9-7.3,52.3c0,0.3-0.1,0.5-0.1,0.7
					c-0.2-0.1-0.5-0.3-0.7-0.4c0-0.2,0.1-0.5,0.1-0.7c2.4-17.4,4.9-34.9,7.3-52.3c0-0.3,0.1-0.5,0.1-0.8
					C266,354.8,266.2,354.9,266.5,355z"/>
				<path fill="#FFFFFF" d="M257.6,408.2c-0.2-0.1-0.5-0.3-0.7-0.4c0-0.2,0.1-0.5,0.1-0.7c2.4-17.4,4.9-34.9,7.3-52.3
					c0-0.3,0.1-0.5,0.1-0.8c0.2,0.1,0.5,0.3,0.7,0.4C262.7,372.2,260.1,390.2,257.6,408.2z"/>
				<path fill="#FFFFFF" d="M272,416.5c2.5-18,5-35.9,7.5-53.9c0.2,0.1,0.5,0.3,0.7,0.4c-2.5,18-5,35.9-7.5,53.9
					C272.5,416.7,272.3,416.6,272,416.5z"/>
				<path fill="#FFFFFF" d="M204.7,377.7c0-0.3,0-0.5,0.1-0.8c2.4-17.5,4.9-34.9,7.3-52.3c0-0.3,0.1-0.5,0.1-0.7
					c0.2,0.1,0.5,0.3,0.7,0.4c0,0.2-0.1,0.5-0.1,0.7c-2.4,17.4-4.9,34.9-7.3,52.3c0,0.3-0.1,0.5-0.1,0.8
					C205.2,377.9,205,377.8,204.7,377.7z"/>
				<path fill="#FFFFFF" d="M223.4,330.2c-2.5,18-5,35.9-7.5,53.9c-0.2-0.1-0.5-0.3-0.7-0.4c0-0.2,0.1-0.5,0.1-0.7
					c2.4-17.4,4.9-34.9,7.3-52.3c0-0.3,0.1-0.5,0.1-0.8C222.9,329.9,223.2,330.1,223.4,330.2z"/>
				<path fill="#FFFFFF" d="M221.7,387.5c-0.2-0.1-0.5-0.3-0.7-0.4c0-0.2,0.1-0.5,0.1-0.7c2.4-17.4,4.9-34.9,7.3-52.3
					c0-0.3,0.1-0.5,0.1-0.8c0.2,0.1,0.5,0.3,0.7,0.4c0,0.3-0.1,0.7-0.1,1c-2,14.2-4,28.4-6,42.5C222.7,380.6,222.2,384,221.7,387.5z
					"/>
				<path fill="#FFFFFF" d="M233.9,336.2c-0.5,3.8-1,7.7-1.6,11.5c-1.9,13.8-3.9,27.6-5.8,41.5c0,0.3-0.1,0.6-0.2,0.9
					c-0.2-0.1-0.5-0.3-0.7-0.4c2.5-18,5-35.9,7.5-53.9C233.4,336,233.6,336.1,233.9,336.2z"/>
				<path fill="#FFFFFF" d="M200.5,317c0.2,0.1,0.5,0.3,0.7,0.4c-2.5,18-5,35.9-7.5,53.9c-0.2-0.1-0.5-0.3-0.7-0.4
					c0-0.2,0.1-0.5,0.1-0.7c2.4-17.4,4.9-34.9,7.3-52.3C200.4,317.5,200.5,317.3,200.5,317z"/>
				<path d="M245,342.6c0,0.2-0.1,0.5-0.1,0.7c-2.4,17.4-4.9,34.9-7.3,52.3c0,0.3-0.1,0.5-0.1,0.8c-0.2-0.1-0.5-0.3-0.7-0.4
					c2.5-18,5-35.9,7.5-53.9C244.5,342.4,244.7,342.5,245,342.6z"/>
				<path d="M200.5,317c0,0.3,0,0.5-0.1,0.8c-2.4,17.5-4.9,34.9-7.3,52.3c0,0.3-0.1,0.5-0.1,0.7c-0.2-0.1-0.4-0.2-0.6-0.4
					c0-0.3,0.1-0.7,0.1-1c2-14.2,4-28.4,6-42.5c0.5-3.4,1-6.9,1.5-10.3C200.1,316.8,200.3,316.9,200.5,317z"/>
				<path d="M270.4,357.3c-0.8,6.1-1.7,12.1-2.5,18.2c-1.7,11.9-3.3,23.8-5,35.7c-0.2-0.1-0.4-0.2-0.6-0.3c0.5-3.5,1-6.9,1.4-10.3
					c2-14.2,4-28.4,6-42.5c0-0.3,0.1-0.7,0.1-1C270,357,270.2,357.2,270.4,357.3z"/>
				<path d="M205.4,378.1c0-0.3,0-0.5,0.1-0.8c2.4-17.5,4.9-34.9,7.3-52.3c0-0.3,0.1-0.5,0.1-0.7c0.2,0.1,0.4,0.2,0.6,0.3
					c-2.5,18-5,35.9-7.5,53.9C205.8,378.3,205.6,378.2,205.4,378.1z"/>
				<path d="M257.6,408.2c2.5-18,5-35.9,7.5-53.9c0.2,0.1,0.4,0.2,0.6,0.3c0,0.3,0,0.5-0.1,0.8c-2.4,17.5-4.9,34.9-7.3,52.3
					c0,0.3-0.1,0.5-0.1,0.7C258,408.4,257.8,408.3,257.6,408.2z"/>
				<path d="M250.8,346c0,0.3,0,0.5-0.1,0.8c-2.4,17.5-4.9,34.9-7.3,52.3c0,0.3-0.1,0.5-0.1,0.7c-0.2-0.1-0.4-0.2-0.6-0.4
					c2.5-18,5-35.9,7.5-53.9C250.4,345.8,250.6,345.9,250.8,346z"/>
				<path d="M264.5,353.9c0,0.3,0,0.5-0.1,0.8c-2.4,17.5-4.9,34.9-7.3,52.3c0,0.3-0.1,0.5-0.1,0.7c-0.2-0.1-0.4-0.2-0.6-0.3
					c2.5-18,5-35.9,7.5-53.9C264.1,353.6,264.3,353.8,264.5,353.9z"/>
				<path d="M228.6,333.2c0,0.3,0,0.5-0.1,0.8c-2.4,17.5-4.9,34.9-7.3,52.3c0,0.3-0.1,0.5-0.1,0.7c-0.2-0.1-0.4-0.2-0.6-0.4
					c0.1-0.3,0.1-0.6,0.2-0.9c2.3-16.6,4.6-33.1,7-49.7c0.2-1.1,0.3-2.2,0.4-3.3C228.2,333,228.4,333.1,228.6,333.2z"/>
				<path d="M221.7,387.5c0.5-3.4,1-6.9,1.4-10.3c2-14.2,4-28.4,6-42.5c0-0.3,0.1-0.7,0.1-1c0.2,0.1,0.4,0.2,0.6,0.4
					c-0.3,2-0.5,4.1-0.8,6.1c-2.2,15.9-4.5,31.8-6.7,47.7C222.1,387.7,221.9,387.6,221.7,387.5z"/>
				<path d="M256.7,349.4c-0.5,3.5-1,6.9-1.4,10.3c-2,14.2-4,28.4-6,42.5c0,0.3-0.1,0.7-0.1,1c-0.2-0.1-0.4-0.2-0.6-0.3
					c0.8-6.1,1.7-12.1,2.5-18.2c1.7-11.9,3.3-23.8,5-35.7C256.3,349.2,256.5,349.3,256.7,349.4z"/>
				<path d="M193.6,371.3c2.5-18,5-35.9,7.5-53.9c0.2,0.1,0.4,0.2,0.6,0.4c0,0.3,0,0.5-0.1,0.8c-2.4,17.5-4.9,34.9-7.3,52.3
					c0,0.3-0.1,0.5-0.1,0.7C194,371.5,193.8,371.4,193.6,371.3z"/>
				<path d="M255.4,348.6c-0.2,1.2-0.4,2.3-0.6,3.5c-2.3,16.5-4.6,32.9-6.9,49.4c0,0.3-0.1,0.7-0.1,1c-0.2-0.1-0.3-0.2-0.5-0.3
					c0-0.3,0-0.5,0.1-0.8c2.4-17.5,4.9-34.9,7.3-52.3c0-0.3,0.1-0.5,0.1-0.7C255,348.4,255.2,348.5,255.4,348.6z"/>
				<path d="M222.7,329.8c0,0.3,0,0.5-0.1,0.8c-2.4,17.5-4.9,34.9-7.3,52.3c0,0.3-0.1,0.5-0.1,0.7c-0.2-0.1-0.3-0.2-0.5-0.3
					c1.1-8.1,2.3-16.2,3.4-24.2c1.3-9.6,2.7-19.1,4-28.7c0-0.3,0.1-0.7,0.1-1C222.3,329.6,222.5,329.7,222.7,329.8z"/>
				<path d="M195,372.1c0.1-0.3,0.1-0.6,0.2-1c2-14.3,4-28.7,6-43c0.5-3.3,1-6.6,1.4-9.8c0.1,0.1,0.3,0.2,0.4,0.2
					c0,0.3,0,0.5-0.1,0.8c-2.4,17.5-4.9,34.9-7.3,52.3c0,0.3-0.1,0.5-0.1,0.7C195.4,372.3,195.2,372.2,195,372.1z"/>
				<path d="M274.8,359.8c-2.5,17.6-4.9,35.2-7.4,52.8c0,0.4-0.1,0.7-0.2,1.1c-0.1-0.1-0.3-0.2-0.4-0.2c0-0.3,0-0.5,0.1-0.8
					c2.4-17.5,4.9-34.9,7.3-52.3c0-0.3,0.1-0.5,0.1-0.7C274.5,359.7,274.7,359.7,274.8,359.8z"/>
				<path d="M205.3,319.8c0,0.2-0.1,0.5-0.1,0.7c-2.4,17.4-4.9,34.9-7.3,52.3c0,0.3-0.1,0.5-0.1,0.8c-0.1-0.1-0.3-0.2-0.4-0.2
					c0-0.3,0-0.5,0.1-0.8c2.4-17.5,4.9-34.9,7.3-52.3c0-0.3,0.1-0.5,0.1-0.7C205.1,319.6,205.2,319.7,205.3,319.8z"/>
				<path d="M206.6,320.5c0,0.2-0.1,0.5-0.1,0.7c-2.4,17.4-4.9,34.9-7.3,52.3c0,0.3-0.1,0.5-0.1,0.8c-0.1-0.1-0.3-0.2-0.4-0.2
					c0-0.3,0-0.5,0.1-0.8c2.4-17.5,4.9-34.9,7.3-52.3c0-0.3,0.1-0.5,0.1-0.7C206.4,320.4,206.5,320.5,206.6,320.5z"/>
				<path d="M209.1,380.2c2.5-18,5-35.9,7.5-53.9c0.1,0.1,0.3,0.2,0.4,0.2c-0.5,3.4-1,6.9-1.4,10.3c-2,14.2-4,28.4-6,42.5
					c0,0.3-0.1,0.7-0.1,1C209.4,380.3,209.2,380.2,209.1,380.2z"/>
				<path d="M218.3,385.5c0-0.3,0-0.5,0.1-0.8c2.4-17.5,4.9-34.9,7.3-52.3c0-0.3,0.1-0.5,0.1-0.7c0.1,0.1,0.3,0.2,0.4,0.2
					c0,0.2-0.1,0.5-0.1,0.7c-2.4,17.4-4.9,34.9-7.3,52.3c0,0.3-0.1,0.5-0.1,0.8C218.6,385.6,218.4,385.5,218.3,385.5z"/>
				<path d="M239.9,339.7c-2.5,18-5,35.9-7.5,53.9c-0.1-0.1-0.3-0.2-0.4-0.2c0.5-3.5,1-6.9,1.4-10.3c2-14.2,4-28.4,6-42.5
					c0-0.3,0.1-0.7,0.1-1C239.7,339.6,239.8,339.7,239.9,339.7z"/>
				<path d="M233.3,394.1c0.5-3.5,1-6.9,1.4-10.3c2-14.2,4-28.4,6-42.5c0-0.3,0.1-0.7,0.1-1c0.1,0.1,0.3,0.2,0.4,0.2
					c-2.5,18-5,35.9-7.5,53.9C233.6,394.3,233.4,394.2,233.3,394.1z"/>
				<path d="M234.6,394.9c2.5-18,5-35.9,7.5-53.9c0.1,0.1,0.3,0.2,0.4,0.2c-0.5,3.4-1,6.9-1.4,10.3c-2,14.2-4,28.4-6,42.5
					c0,0.3-0.1,0.7-0.1,1C234.9,395,234.7,394.9,234.6,394.9z"/>
				<path d="M247.1,343.9c-2.5,18-5,35.9-7.5,53.9c-0.1-0.1-0.3-0.2-0.4-0.2c0.5-3.4,1-6.9,1.4-10.3c2-14.2,4-28.4,6-42.5
					c0-0.3,0.1-0.7,0.1-1C246.9,343.7,247,343.8,247.1,343.9z"/>
				<path fill="#FFFFFF" d="M199.9,316.6c-0.5,3.4-1,6.9-1.5,10.3c-2,14.2-4,28.4-6,42.5c0,0.3-0.1,0.7-0.1,1
					c-0.1-0.1-0.2-0.1-0.2-0.2c0-0.2,0-0.4,0.1-0.5c2.5-17.5,4.9-35.1,7.4-52.6C199.7,317,199.5,316.4,199.9,316.6z"/>
			</g>
		</g>
		<g>
			<g>
				<path fill="#3C3C3B" d="M126.7,32c-0.3-0.9,0-1.3,0.1-1.8c0.9-2.8,1.7-5.6,2.6-8.4c0.4-1.2,0.7-2.6,1-3.9
					c0.1-0.6,0.2-1.3,0.2-1.9c-0.3-0.6-0.5-1-0.7-1.4c-2.3-1.7-4.3-1.3-5,1.2c-1.1,3.6-2.1,7.3-3.1,11c-0.8,2.9-0.9,2.3-2.8,1.2
					c-1.4-0.8-2.8-1.6-4.1-2.4c-0.3-0.2-0.7-0.4-0.9-0.5c-0.6-0.9-0.5-1.4-0.3-1.8c0.5-1.5,1-3,1.5-4.6c0.9-3.1,1.8-6.2,2.6-9.3
					c-0.3-0.8-0.5-1.5-0.7-2.1c-1.8-1.5-3.1-1.4-4.3-0.7c-0.4,0.2-0.6,0.8-0.7,1.4c-1.2,4-2.3,8-3.4,12c0,0.1-0.1,0.2-0.1,0.4
					c-0.4,1.3-0.5,1.4-1.7,0.7c-1.7-1-3.4-1.9-5.1-3c-0.4-0.2-0.8-0.6-1.3-1.1c2.2-7.6,4.7-14.7,6-22.9c0.5,0.1,0.8,0,1.1,0.2
					c2.2,1,4.4,1.7,6.6,2.3c0.1,0,0.2,0.2,0.3,0.3c0.4,1.5-0.3,2.2-0.3,3.5c0.9-0.2,1.8-0.3,2.7-0.5c1.6-0.4,3.4,0,5.2,0.9
					c1.1,0.6,2.2,1.5,3.1,3c0.7,1,1.2,2.1,1.4,3.4c0,0.2,0.1,0.5,0.2,0.9c0.3-0.1,0.5-0.1,0.6-0.2c1.7-0.7,3.4-0.9,5.5-0.4
					c1.6,0.4,3.1,1.4,4.6,3c1.8,1.9,2.7,4.6,2.2,6.8c-0.4,2-1,3.8-1.6,5.7c-1,3.7-2.1,7.4-3.1,11.1c-0.2,0.6-0.3,1.2-0.5,1.7
					c-0.2,0.6-0.6,0.8-1.3,0.5c-1.9-0.8-3.7-1.9-5.6-3.2c-0.2-0.2-0.4-0.3-0.6-0.5C126.9,32.3,126.8,32.1,126.7,32z"/>
				<path fill="#3C3C3B" d="M54.5-16.3c-0.2,0.5-0.4,0.8-0.5,1.3c-0.3,1.4-0.6,2.9-0.9,4.3c-0.2,0.8-0.4,1.6-0.6,2.3
					c-1.3-0.3-7.9-4.3-8.7-5.2c0-0.4,0-0.9,0.2-1.3c1.8-6,3.6-11.9,5.4-18c1.2-4.1,2.1-8.4,3.1-12.7c0.2-0.7,0.4-1.4,0.6-2.3
					c0.4,0.1,0.9,0.1,1.4,0.4c3.4,1.9,6.8,3.7,10.3,5.7c1.7,1,3.5,2.2,5.2,3.5c2.1,1.6,3.8,4,4.9,7.1c0.9,2.3,1.1,4.4,1,6.5
					c-0.2,3.9-1.2,6.8-2.8,9.2c-1.9,3-4.4,4.6-7.7,4.4c-1.9-0.1-3.8-0.9-5.8-2.2C57.8-14.6,56.2-15.4,54.5-16.3z M56.5-24.7
					c1.7,1.2,3.3,2.5,4.9,3c1.4,0.4,2.5,0.3,3.4-0.6c1.1-1.3,1.8-3.1,1.8-5.6c0-1.7-0.7-3.2-2-4.3c-1.7-1.5-3.3-2.2-5.1-2.8
					C58.4-31.9,57.4-28.5,56.5-24.7z"/>
				<path fill="#3C3C3B" d="M233.7,95c-0.3-1.1-0.6-2.4-0.8-3.8c-1.3-6.3-2.6-12.6-3.8-18.9c-1.4-6.8-2.8-13.5-4.1-20.3
					c-0.4-2,0-2.5,1.4-1.7c0.7,0.4,1.4,0.7,2.2,1.9c0.1,0.5,0.3,1.2,0.5,1.9c1.7,8.8,3.5,17.7,5.2,26.5c0.3,1.5,0.6,2.9,0.9,4.7
					c0.4-1.2,0.8-2.2,1.1-3.2c2.1-6.5,4.1-12.9,6.2-19.4c0.2-0.7,0.5-1.5,0.7-2.2c0.3-0.9,0.6-0.9,1.4-0.5c0.7,0.4,1.2,1.1,1.5,2.1
					c0.5,2,1,4.1,1.5,6.1c1.7,7.3,3.4,14.6,5.1,21.9c0.4,1.6,0.7,3.2,1.1,4.8c0.1,0.3,0.2,0.6,0.4,1.2c0.3-1.1,0.5-2,0.8-2.8
					c1.8-7.2,3.6-14.3,5.4-21.5c0.3-1.1,0.8-1.4,1.8-0.8c0.8,0.4,1.6,0.6,2.3,2.2c0,0.5,0,1.2-0.2,1.8c-1.1,4.1-2.1,8.1-3.2,12.2
					c-1.7,6.4-3.4,12.7-5.1,19.1c-0.1,0.2-0.1,0.4-0.2,0.6c-0.3,0.9-0.7,1.1-1.4,0.7c-0.7-0.4-1.2-1.2-1.5-2.5
					c-0.5-2.3-1.1-4.5-1.6-6.8c-1.9-8.5-3.9-17-5.8-25.5c-0.2-0.9-0.4-1.7-0.7-2.9c-0.2,0.4-0.3,0.5-0.3,0.7
					c-1.5,4.9-3,9.7-4.5,14.6c-1,3.3-2,6.6-3,9.8c0,0.2-0.1,0.3-0.2,0.4C236,96.7,235.3,96.7,233.7,95z"/>
				<path fill="#3C3C3B" d="M146.7,33c-0.2,1,0.1,2,0.8,3c1.3,1.7,2.6,2.6,4,3.1c1.3,0.4,2.4,0.5,3.6,0.4c0.4,0,0.8-0.1,1.1-0.1
					c0.6,0.8,0.6,1.6,0.8,2.3c0.2,1.2,0.3,2.4,0.5,3.6c0.1,1-0.3,1.3-0.8,1.5c-1.2,0.5-2.6,0.7-4,0.4c-2.7-0.6-5.4-1.8-8.1-4.4
					c-2.6-2.4-4.3-5.7-4.9-9.5c-0.3-2.3-0.2-4.3,0.2-6.2c1.2-5.4,3.8-8.7,7.8-9.6c2.7-0.6,5.6,0.1,8.7,2.7c3.1,2.5,4.9,6.8,5.2,10.7
					c0.2,2,0,3.8-0.5,5.4c-0.5,1.9-1.5,2.6-3.3,1.7c-2.7-1.4-5.5-2.6-8.2-3.9C148.5,33.8,147.6,33.4,146.7,33z M153.6,30.5
					c0.1-0.3,0.1-0.5,0.2-0.7c0.4-1.9-0.5-4-2.1-4.8c-1.8-1-3.5,0.2-3.9,2.7C149.7,29.1,151.6,29.9,153.6,30.5z"/>
				<path fill="#3C3C3B" d="M169.9,28.3c0,0.6,0,1.2,0,1.7c0,8.1,0,16.3,0,24.4c0,2.5-0.4,3-2.3,1.8c-1.3-0.8-1.8-1.6-1.8-3.4
					c0-11.7,0-23.4,0-35.2c0-0.9,0.2-1.6,0.9-1.6c0.7-0.1,1.4,0.4,2.1,1.3c0.5,0.7,0.6,1.5,0.7,2.2c0.1,0.6,0.1,1.2,0.1,2
					c0.3-0.1,0.5-0.1,0.7-0.2c2.3-1.1,4.9-1.2,7.8,0.1c3.5,1.5,6.8,4,9.6,8.7c1.5,2.4,2.4,5.1,3,7.8c0.6,2.4,0.9,4.7,0.9,6.9
					c0.1,7.5,0.1,14.9,0.2,22.4c0,0.4,0,0.9-0.1,1.2c-0.2,0.9-0.7,1.2-1.5,0.7c-0.3-0.2-0.6-0.4-1-0.5c-1-0.6-1.6-1.7-1.7-3
					c0-0.4,0-0.9,0-1.3c0-7.1,0-14.1,0-21.2c0-1.9-0.3-3.8-0.9-5.8c-1.2-4.2-3.4-7.2-6.2-9c-3.4-2.3-6.4-2.3-8.9-0.9
					C170.9,27.7,170.4,28,169.9,28.3z"/>
				<path fill="#3C3C3B" d="M77.2-23.2c2.7,1,5.2,1.9,7.8,2.8c0.6,1.5-0.1,2.1,0,3.3c0.4,0.3,0.7,0.1,1,0.1c1.4-0.2,2.7-0.1,4.3,0.4
					c0.7,0.2,1.3,0.4,2,1.5c-0.1,0.4-0.1,0.9-0.2,1.3c-0.7,2.3-1.4,4.5-2.1,6.7c-0.3,1-0.7,1.1-1.7,0.6c-0.3-0.2-0.6-0.4-0.8-0.6
					c-0.6-0.4-1.2-0.8-1.8-1.1c-1.6-0.8-2.6-0.3-3.1,1.5C81.8-3.8,81-0.9,80.2,2c-0.2,0.6-0.3,1.3-0.5,1.9c-0.2,0.8-0.6,1-1.3,0.6
					c-1.9-1.1-3.8-2.2-5.7-3.3c-0.3-0.2-0.7-0.7-1.1-1.1c0.1-0.5,0.2-0.9,0.3-1.3c1-3.6,2.2-7.1,3.1-10.8c0.7-2.6,1.2-5.3,1.8-8
					c0.1-0.4,0-0.9,0.1-1.4C77-21.9,77.1-22.4,77.2-23.2z"/>
				<path fill="#3C3C3B" d="M88.4,9.8c0.2-0.6,0.3-1,0.4-1.4c1.2-3.9,2.4-7.8,3.5-11.9c0.8-2.9,1.4-5.9,2.1-9
					c0.3-1.3,0.7-1.3,1.7-0.6c2,1.3,3.9,2.4,5.9,3.5c0.4,0.2,0.8,0.4,1.1,1.1c-0.2,0.6-0.4,1.3-0.7,1.9c-1.6,4.2-2.9,8.7-4.2,13.2
					c-0.6,2.2-1.2,4.5-1.8,6.7c-0.3,1-0.5,1.1-1.3,0.6c-1.1-0.5-2.1-1-3.2-1.6c-0.9-0.5-1.8-1.2-2.7-1.8
					C88.9,10.5,88.7,10.2,88.4,9.8z"/>
				<path fill="#3C3C3B" d="M200.7,37.6c0.8-0.2,1.6-0.4,2.4-0.6c1.1,2.4,1.7,4.7,2.5,7c0.8,2.3,1.6,4.7,2.4,7
					c0.8,2.3,1.5,4.6,2.3,6.9c0.8,2.3,1.5,4.6,2.3,7c-0.6,0.7-1.6,0.6-2.4,0.8c-0.2-0.5-0.5-1-0.7-1.5c-1.5-4.4-2.9-8.8-4.4-13.2
					c-1.3-3.9-2.6-7.8-3.9-11.6C201,38.8,200.9,38.3,200.7,37.6z"/>
				<path fill="#3C3C3B" d="M99.7-12.8c-0.6-0.5-1.2-0.9-1.7-1.5c-1.2-1.3-1.8-3.2-1.6-4.7c0.6-3.6,3.8-4.5,6.6-2.1
					c1.6,1.4,2.7,3.7,2.1,6C104.5-12.2,102.7-11.1,99.7-12.8z"/>
				<path fill="#3C3C3B" d="M196.1,43.2c0.4-0.8,0.6-1.8,1.6-1.5c0.6,0.9,1.3,1.8,2,2.7c0.4,0.5,0.5,1.1,0.4,1.6
					c-0.1,0.7-0.6,1.3-1.3,1.5C197.9,46.3,196.7,45.2,196.1,43.2z"/>
				<path fill="#3C3C3B" d="M221.5,78.8c-0.9-1.4-2.2-2.4-2.6-4.2c0.5-1.4,0.5-1.4,1.4-1.6c0.9,0.8,1.7,2.1,2.5,3.1
					C223.1,78,222.7,78.8,221.5,78.8z"/>
				<path fill="#3C3C3B" d="M203,75.2c-0.7-0.9-1.2-1.7-1.6-2.2c-0.4-1.4,0.1-1.9,0.4-2.4c0.3-0.6,0.5-1.4,1.4-1.1
					c0.7,0.7,1.4,1.5,1.7,2.9C204.5,73.5,204,74.6,203,75.2z"/>
				<path fill="#3C3C3B" d="M222.7,59.6c-0.8,0.1-1.6,0.3-2.5,0.4c-0.4-0.7-0.7-1.3-0.9-1.8c-0.6-1.6-0.5-2.2,0.5-2.4
					c0.6-0.1,1.1-0.2,1.7-0.3C222.7,56.8,223.1,58,222.7,59.6z"/>
				<path fill="#3C3C3B" d="M208.7,75.4c0.3,0.1,0.6,0.1,0.9,0.3c0.9,0.5,1.4,1.4,1.4,2.6c0,0.7,0,1.4,0,2c-0.1,0.5-0.2,0.9-0.3,1.3
					c-0.3-0.1-0.4-0.1-0.5-0.1c-1.3-0.7-2-1-1.9-3.5C208.3,77,208,75.9,208.7,75.4z"/>
				<path fill="#3C3C3B" d="M218.1,81.7c-0.5,1-0.7,1.1-1.8,1c-0.9-1-1.8-3.5-1.9-5.2c0.5-0.6,1.1-1,2.3,0.1
					C217.1,78.9,217.6,80.3,218.1,81.7z"/>
				<path fill="#3C3C3B" d="M218.1,48.5c-0.6,0.9-0.8,2.4-1.9,2.6c-0.2-0.3-0.4-0.4-0.6-0.7c-1.3-1.6-1.4-2.3-0.7-3.6
					c0.3-0.6,0.5-1.5,1.4-1.4C217,46.2,217.7,47,218.1,48.5z"/>
				<path fill="#3C3C3B" d="M197,64.4c-0.3-1-0.6-1.9-0.9-2.9c0.3-0.3,0.4-0.6,0.7-0.7c0.5-0.2,1-0.3,1.5-0.4
					c0.4-0.1,0.8,0.2,1.2,0.8c0.4,0.7,0.7,2,0.7,3.1C199.3,64.7,198.5,65.5,197,64.4z"/>
				<path fill="#3C3C3B" d="M208.8,39c0.6,0.3,1.1,0.6,1.6,0.9c0.5,0.6,0.7,1.3,0.7,1.9c-0.1,1.1,0.4,2.8-0.5,3.3
					c-0.6-0.3-1.1-0.6-1.6-0.9c-0.5-0.6-0.7-1.3-0.6-1.9C208.3,41.1,207.9,39.5,208.8,39z"/>
				<path fill="#3C3C3B" d="M195,50c1.1,0.6,2.1,1.2,3.1,1.8c0.5,1.3,0.3,2.2,0.2,3.3c-1.2,0-2.3-0.7-3.5-1.9
					C194.4,51.8,194.3,50.7,195,50z"/>
				<path fill="#3C3C3B" d="M221.3,68.9c-0.8-1.9-0.8-2.7,0-3.7c0.7,0.4,1.6,0.9,2.4,1.4c0.5,0.3,0.8,0.9,0.9,1.5
					c0.1,0.6,0,1.2,0,1.7c0,0.5-0.3,0.8-0.8,0.6C223,69.9,222.1,69.3,221.3,68.9z"/>
			</g>
		</g>
	</g>
</g>
<g>
	<g>
		<path fill="#E94E1B" d="M281.6,209.3l-114.8-64.5c-5.4-3-9.7-0.4-9.5,5.9l0.4,14.9l0.8,27.8c0.2,6.3,4.8,14,10.2,17l23.9,13.4
			l66.9,37.6l23.9,13.4c5.4,3,9.7,0.4,9.5-5.9l-0.8-27.8l-0.4-14.9C291.6,220,287,212.3,281.6,209.3z"/>
	</g>
	<g>
		<path fill="#3C3C3B" d="M189.6,204.6l-6.2-3.5l-0.4-12.7l-9.9-5.5l0.4,12.7l-6.2-3.5l-0.9-30.6l6.2,3.5l0.4,13.1l9.9,5.5
			l-0.4-13.1l6.2,3.5L189.6,204.6z"/>
		<path fill="#3C3C3B" d="M210.9,203.4l-10.7-6l0.2,8.6l12.6,7.1l0.1,4.8l-18.8-10.5l-0.9-30.6l18.7,10.5l0.1,4.8l-12.5-7l0.2,7.6
			l10.7,6L210.9,203.4z"/>
		<path fill="#3C3C3B" d="M230.6,221.2l-8.4-4.7l-1.5,5.6l-6.3-3.5l8.1-25.5l6.5,3.6l9.8,35.6l-6.3-3.5L230.6,221.2z M223.3,212.4
			l5.9,3.3l-3.2-12.4l-0.1-0.1L223.3,212.4z"/>
		<path fill="#3C3C3B" d="M248.7,230.1l0.3,1.3l0.1,0.1l0.2-1l4.7-19.8l6.5,3.7l-8,25.6l-6.5-3.6l-9.7-35.5l6.5,3.7L248.7,230.1z"/>
		<path fill="#3C3C3B" d="M273.2,234.4l0.1,0.1l4.9-10.1l6.7,3.8l-8.5,14.6l0.3,10.9l-6.2-3.5l-0.3-11.2l-9.5-24.3l6.8,3.8
			L273.2,234.4z"/>
	</g>
</g>
</svg>
