<?xml version="1.0" encoding="utf-8"?>
<!-- Generator: Adobe Illustrator 18.0.0, SVG Export Plug-In . SVG Version: 6.00 Build 0)  -->
<!DOCTYPE svg PUBLIC "-//W3C//DTD SVG 1.1//EN" "http://www.w3.org/Graphics/SVG/1.1/DTD/svg11.dtd">
<svg version="1.1" id="Inventory" xmlns="http://www.w3.org/2000/svg" xmlns:xlink="http://www.w3.org/1999/xlink" x="0px" y="0px"
	 viewBox="0 0 34 34" enable-background="new 0 0 34 34" xml:space="preserve">
<g enable-background="new    ">
	<g>
		<defs>
			<rect id="SVGID_1_" x="4" y="1" width="26" height="32"/>
		</defs>
		<clipPath id="SVGID_2_">
			<use xlink:href="#SVGID_1_"  overflow="visible"/>
		</clipPath>
		<g clip-path="url(#SVGID_2_)">
			<defs>
				<rect id="SVGID_3_" x="4" y="1" width="26" height="32"/>
			</defs>
			<clipPath id="SVGID_4_">
				<use xlink:href="#SVGID_3_"  overflow="visible"/>
			</clipPath>
			<g clip-path="url(#SVGID_4_)">
				<path fill="#FFFFFF" d="M29.6,32H4V4.7h3.3C7.8,2.6,9.6,1,11.9,1h9.9c2.2,0,4.1,1.6,4.5,3.7h3.3V32z M6,30h21.6V6.7h-3.2v-1
					c0-1.5-1.2-2.7-2.7-2.7h-9.9c-1.5,0-2.7,1.2-2.7,2.7v1H6V30z"/>
			</g>
			<g clip-path="url(#SVGID_4_)">
				<polygon fill="#FFFFFF" points="15.7,23.4 9.4,18.8 10.6,17.2 15.2,20.6 21.6,10.5 23.3,11.5 				"/>
			</g>
		</g>
	</g>
	<g>
		<rect x="24.4" y="5.6" fill="#FFFFFF" width="1" height="1"/>
	</g>
</g>
</svg>
