<?xml version="1.0" encoding="utf-8"?>
<!-- Generator: Adobe Illustrator 18.0.0, SVG Export Plug-In . SVG Version: 6.00 Build 0)  -->
<!DOCTYPE svg PUBLIC "-//W3C//DTD SVG 1.1//EN" "http://www.w3.org/Graphics/SVG/1.1/DTD/svg11.dtd">
<svg version="1.1" id="Layer_1" xmlns="http://www.w3.org/2000/svg" xmlns:xlink="http://www.w3.org/1999/xlink" x="0px" y="0px"
	 viewBox="0 0 136 136" enable-background="new 0 0 136 136" xml:space="preserve">
<g>
	<rect fill="#D6D6D6" width="136" height="136"/>
	<path fill="#B6B6B7" d="M68,136h68v-9.1h0c0-1.7,0-3.4,0-5.1c-0.9-1.8-1.8-3.5-2.7-5.3c-2.5-4.7-5.8-8.1-11.1-10.1
		c-11.6-4.4-23-9.5-34.6-14.1c-3.6-1.4-5-3.6-4.9-7.5c0.2-5.3,1.4-10.1,3.6-14.8c5.8-12.6,6.4-25.6,2-38.7
		c-3-9.1-10.9-14.7-19.7-15.2c-0.1,0-1.9,0-2,0c-8.8,0.6-16.1,6.1-19.1,15.2c-4.3,13.1-3.8,26.1,2,38.7c2.2,4.7,3.4,9.6,3.6,14.8
		c0.1,3.9-1.3,6.1-4.9,7.5c-11.6,4.6-23,9.7-34.6,14.1c-5.2,2-8.6,5.4-11.1,10.1c-0.9,1.7-1.8,3.5-2.7,5.3c0,1.7,0,3.4,0,5.1h0v9.1
		C0,136,68,136,68,136z"/>
</g>
</svg>
