<?xml version="1.0" encoding="utf-8"?>
<!-- Generator: Adobe Illustrator 18.0.0, SVG Export Plug-In . SVG Version: 6.00 Build 0)  -->
<!DOCTYPE svg PUBLIC "-//W3C//DTD SVG 1.1//EN" "http://www.w3.org/Graphics/SVG/1.1/DTD/svg11.dtd">
<svg version="1.1" id="Settings" xmlns="http://www.w3.org/2000/svg" xmlns:xlink="http://www.w3.org/1999/xlink" x="0px" y="0px"
	 viewBox="0 0 34 34" enable-background="new 0 0 34 34" xml:space="preserve">
<g enable-background="new    ">
	<g>
		<defs>
			<rect id="SVGID_1_" x="3" y="3" width="28" height="28"/>
		</defs>
		<clipPath id="SVGID_2_">
			<use xlink:href="#SVGID_1_"  overflow="visible"/>
		</clipPath>
		<g clip-path="url(#SVGID_2_)">
			<defs>
				<path id="SVGID_3_" d="M12.5,16.7c0-2.4,2-4.4,4.4-4.4c2.4,0,4.4,2,4.4,4.4c0,2.4-2,4.4-4.4,4.4C14.5,21.1,12.5,19.2,12.5,16.7
					 M26.2,22.3l3.5-0.2l1.1-4.6l-3.2-1.7c-0.1-1-0.3-1.9-0.7-2.8l2.2-3l-2.9-3.7l-3.5,1.5c-0.8-0.5-1.6-0.9-2.5-1.2l-1-3.7h-4.7
					l-1,3.7c-0.9,0.3-1.7,0.7-2.5,1.2L7.6,6.3L4.7,10l2.2,3c-0.3,0.9-0.6,1.8-0.7,2.8L3,17.5l1,4.6l3.5,0.2c0.5,0.9,1.1,1.7,1.9,2.4
					L8.8,28l4.3,2l2.3-2.6c0.5,0.1,1,0.1,1.5,0.1s1-0.1,1.5-0.1l2.3,2.6l4.3-2l-0.6-3.4C25.1,23.9,25.7,23.1,26.2,22.3"/>
			</defs>
			<clipPath id="SVGID_4_">
				<use xlink:href="#SVGID_3_"  overflow="visible"/>
			</clipPath>
			<g clip-path="url(#SVGID_4_)">
				<defs>
					<rect id="SVGID_5_" x="3" y="3" width="28" height="28"/>
				</defs>
				<clipPath id="SVGID_6_">
					<use xlink:href="#SVGID_5_"  overflow="visible"/>
				</clipPath>
				<rect x="-2" y="-2" clip-path="url(#SVGID_6_)" fill="#FFFFFF" width="37.8" height="37.1"/>
			</g>
		</g>
	</g>
</g>
</svg>
