<?xml version="1.0" encoding="utf-8"?>
<!-- Generator: Adobe Illustrator 18.0.0, SVG Export Plug-In . SVG Version: 6.00 Build 0)  -->
<!DOCTYPE svg PUBLIC "-//W3C//DTD SVG 1.1//EN" "http://www.w3.org/Graphics/SVG/1.1/DTD/svg11.dtd">
<svg version="1.1" id="Signout" xmlns="http://www.w3.org/2000/svg" xmlns:xlink="http://www.w3.org/1999/xlink" x="0px" y="0px"
	 viewBox="0 0 34 34" enable-background="new 0 0 34 34" xml:space="preserve">
<g enable-background="new    ">
	<g>
		<defs>
			<rect id="SVGID_1_" x="5.5" y="2" width="23" height="30"/>
		</defs>
		<clipPath id="SVGID_2_">
			<use xlink:href="#SVGID_1_"  overflow="visible"/>
		</clipPath>
		<g clip-path="url(#SVGID_2_)">
			<defs>
				<path id="SVGID_3_" d="M15,5.4v0.1c0,1.3-1,2.3-2.2,2.3c-1.2,0-2.2-1-2.2-2.3c0-1.3,1-2.3,2.2-2.3h0.2l0.1,0l0.1,0l0.1,0l0.1,0
					l0.6,0.3l0.5,0.5l0.1,0.1l0.2,0.5L15,5.2l0,0.1V5.4z M24.3,24.2h3.2L26.8,22c-0.3-0.9-1.1-1.5-2.1-1.5h-0.3V2H7.2v10.3h2.2L12,9
					c0.5-0.6,1.3-1,2.2-1h5.5c0.9,0,1.6,0.5,2,1.3l1.6,3.2c0.1,0.1,0.1,0.3,0.1,0.5c0,0.6-0.5,1.1-1,1.1c-0.4,0-0.7-0.2-0.9-0.6
					L20,10.5h-2.4l1.8,4.7l0.5,6h4.7c0.7,0,1.3,0.5,1.6,1.1l0.5,1.4h-8.1c-0.6,0-1.1-0.5-1.1-1.1l-0.5-5.2l-4.3,9.2
					c-0.2,0.5-0.8,0.9-1.4,0.9H9.2l5.3-11.3l-1.6-4.3l-1.6,2c-0.4,0.5-1.1,0.9-1.8,0.9H7.2v13.4l3.7,3.8l0,0v0.1H28l-3.7-3.8V24.2z"
					/>
			</defs>
			<clipPath id="SVGID_4_">
				<use xlink:href="#SVGID_3_"  overflow="visible"/>
			</clipPath>
			<g clip-path="url(#SVGID_4_)">
				<defs>
					<rect id="SVGID_5_" x="5.5" y="2" width="23" height="30"/>
				</defs>
				<clipPath id="SVGID_6_">
					<use xlink:href="#SVGID_5_"  overflow="visible"/>
				</clipPath>
				<rect x="0.5" y="-3" clip-path="url(#SVGID_6_)" fill="#FFFFFF" width="32.5" height="39.9"/>
			</g>
		</g>
	</g>
</g>
</svg>
